<?xml version="1.0" encoding="utf-8"?>
<!-- Generator: Adobe Illustrator 22.1.0, SVG Export Plug-In . SVG Version: 6.00 Build 0)  -->
<svg version="1.1" id="Layer_1" xmlns="http://www.w3.org/2000/svg" xmlns:xlink="http://www.w3.org/1999/xlink" x="0px" y="0px"
	 viewBox="0 0 56.7 68" style="enable-background:new 0 0 56.7 68;" xml:space="preserve">
<style type="text/css">
	.st0{fill:#474747;}
	.st1{fill:#808284;}
	.st2{fill:#00ADEF;}
</style>
<g>
	<path class="st0" d="M14.8,57.4c0-0.3,0.1-0.5,0.3-0.6s0.4-0.2,0.7-0.2c0.1,0,0.3,0,0.4,0.1c0.1,0.1,0.2,0.1,0.3,0.2
		s0.1,0.2,0.2,0.3c0.1,0.1,0.1,0.2,0.1,0.3s0,0.2-0.1,0.4s-0.1,0.2-0.2,0.3c-0.1,0.1-0.2,0.1-0.3,0.2s-0.2,0.1-0.4,0.1
		s-0.3,0-0.4-0.1S15.1,58.1,15,58s-0.1-0.2-0.2-0.3S14.8,57.5,14.8,57.4z M16.5,65.4h-1.7V59h1.7V65.4z"/>
	<path class="st0" d="M20.4,56.8l2.2,6.2l2.2-6.2h2.3v8.5h-1.8V63l0.2-4l-2.4,6.4h-1.2L19.6,59l0.2,4v2.3h-1.7v-8.5
		C18.1,56.8,20.4,56.8,20.4,56.8z"/>
	<path class="st0" d="M31.7,59.8l1.6-2.9h2l-2.5,4.2l2.5,4.3h-2l-1.6-3l-1.6,3h-2l2.5-4.3l-2.5-4.3h2L31.7,59.8z"/>
	<path class="st0" d="M41.7,59.1c0,0.4-0.1,0.8-0.3,1.1s-0.5,0.6-0.9,0.8c0.4,0.2,0.7,0.5,1,0.8s0.4,0.8,0.4,1.2s-0.1,0.8-0.2,1.1
		c-0.1,0.3-0.3,0.6-0.6,0.8s-0.6,0.4-0.9,0.5s-0.7,0.2-1.1,0.2c-0.4,0-0.8-0.1-1.1-0.2s-0.7-0.3-0.9-0.5c-0.3-0.2-0.5-0.5-0.6-0.8
		c-0.1-0.3-0.4-0.7-0.4-1.1c0-0.5,0.1-0.9,0.4-1.2s0.6-0.6,1-0.8c-0.4-0.2-0.6-0.4-0.9-0.8s-0.3-0.7-0.3-1.1c0-0.4,0.1-0.7,0.2-1
		c0.1-0.3,0.3-0.5,0.6-0.7c0.2-0.2,0.5-0.4,0.9-0.5s0.7-0.2,1.1-0.2s0.8,0.1,1.1,0.2s0.6,0.3,0.9,0.5s0.4,0.5,0.6,0.7
		S41.7,58.7,41.7,59.1z M40.1,62.9c0-0.2,0-0.4-0.1-0.5s-0.1-0.3-0.2-0.4s-0.2-0.2-0.4-0.2s-0.3-0.1-0.5-0.1s-0.3,0-0.5,0.1
		s-0.2,0.1-0.3,0.2s-0.2,0.2-0.2,0.4s-0.1,0.3-0.1,0.5s0,0.4,0.1,0.5s0.1,0.3,0.2,0.4s0.2,0.2,0.4,0.2s0.3,0.1,0.5,0.1
		c0.4,0,0.7-0.1,0.9-0.3S40.1,63.3,40.1,62.9z M40,59.2c0-0.3-0.1-0.6-0.3-0.8s-0.4-0.3-0.7-0.3s-0.6,0.1-0.7,0.3S38,58.9,38,59.2
		s0.1,0.6,0.3,0.8s0.4,0.3,0.7,0.3s0.6-0.1,0.7-0.3S40,59.5,40,59.2z"/>
</g>
<g>
	<path class="st1" d="M56,19.7c-0.4-0.1-0.6-0.2-0.9-0.3c-4-1.2-8-1.5-12-0.6c-3,0.7-5.5,2.2-6.8,5.2c-0.7,1.5-0.9,3-1,4.6
		c-0.1,2.2,0.1,4.3,0.9,6.3c1.2,3,3.4,4.9,6.5,5.7c3.5,0.9,7.1,0.8,10.6,0c0.9-0.2,1.7-0.4,2.6-0.7c0,0.1,0.1,0.3,0.1,0.4
		c0,0.5,0,1,0,1.4c0,1.5,0.3,1.2-1.2,1.5c-4.4,1.1-8.8,1.2-13.3,0.2C39.1,43,36.8,42,35,40.1c-1.5-1.6-2.5-3.5-3-5.6
		c-0.8-3.2-0.9-6.4-0.1-9.6c1.1-4.5,4-7.2,8.4-8.5c3-0.9,6.1-1,9.2-0.9c2,0.1,4,0.4,6,1c0.4,0.1,0.6,0.3,0.6,0.7
		C56,18,56,18.8,56,19.7z"/>
	<g>
		<path class="st2" d="M40.9,3.7c1,1.8,2,3.6,3,5.4c0.6,1.1,1.2,2.1,1.8,3.2c0.1,0.1,0.1,0.3,0.2,0.5c-0.5,0.1-1,0.1-1.4,0.1
			c-0.1,0-0.3-0.2-0.4-0.4c-1.2-2.1-2.4-4.3-3.6-6.4c-0.2-0.4-0.5-0.5-1-0.5c-2.8,0.3-5.5,0.6-8.3,0.8c-2.7,0.3-5.4,0.5-8.1,0.8
			S17.6,7.7,14.9,8c-2.7,0.3-5.4,0.5-8.1,0.8C5.9,8.9,5.1,9,4.3,9.1c-0.2,0-0.4,0.1-0.7,0.1c0.1,0.2,0.2,0.4,0.2,0.5
			c6,11.7,12.1,23.4,18.1,35.1c0.2,0.4,0.4,0.4,0.8,0.4c3.3-0.7,6.6-1.4,9.9-2.1c0.5-0.1,0.8,0,1.1,0.3c0.8,0.8,1.7,1.5,2.5,2.2
			c0.1,0.1,0.2,0.2,0.4,0.3c-0.4,0.1-0.7,0.2-1,0.3c-4.8,1.1-9.6,2.2-14.4,3.3c-0.4,0.1-0.6,0-0.8-0.4c-2.3-4.4-4.5-8.8-6.8-13.3
			C9.4,27.6,5.2,19.5,1.1,11.3C1,11.1,0.8,11,0.7,10.8c0-0.1,0-0.1,0-0.2c0.6-0.9,1.2-1.8,1.8-2.7c0.1-0.2,0.4-0.3,0.6-0.4
			c1.3-0.2,2.7-0.3,4-0.4c3.3-0.3,6.6-0.7,9.9-1s6.6-0.7,9.9-1c3.7-0.4,7.4-0.8,11.2-1.1c0.7-0.1,1.5-0.2,2.2-0.3
			C40.5,3.7,40.7,3.7,40.9,3.7z"/>
		<path class="st2" d="M18.9,15.9c0.1,0.2,0.1,0.3,0.2,0.4c2.6,5.1,5.3,10.2,7.9,15.3c0.4,0.8,0.2,0.7,1.1,0.5c0.1,0,0.2,0,0.4-0.1
			c0,0.1,0.1,0.3,0.1,0.4c0.1,0.6,0,0.6-0.5,0.8c-0.3,0.1-0.7,0.1-1,0.2c-0.4,0.1-0.6,0-0.7-0.4c-1.5-3.1-3.1-6.1-4.6-9.2
			c-1.2-2.3-2.3-4.6-3.5-6.9c-0.3-0.5,0.2-1.4,0.8-1.5c2.2-0.2,4.3-0.4,6.5-0.7c2.7-0.3,5.4-0.5,8-0.8c0.6-0.1,1.3-0.1,1.9-0.2
			c0.1,0,0.3,0.1,0.4,0.2c0.3,0.5,0.6,0.9,0.8,1.4c0,0.1,0,0.2,0,0.3c-0.1-0.1-0.2-0.1-0.3-0.2c-0.2-0.3-0.4-0.7-0.6-1
			c-0.1-0.3-0.3-0.4-0.7-0.3c-1.7,0.2-3.4,0.3-5.1,0.5c-2.8,0.3-5.5,0.5-8.3,0.8C20.8,15.7,19.9,15.8,18.9,15.9z"/>
		<path class="st2" d="M29.3,8.5c0.4-0.1,0.7-0.1,1-0.1c0.1,0,0.2,0.1,0.2,0.1c0.5,0.8,0.9,1.7,1.4,2.5c-0.8,0.3-1.1,0.2-1.5-0.4
			C30.1,10,29.7,9.3,29.3,8.5z"/>
		<path class="st2" d="M28.8,11.4c-1,0.3-1,0.3-1.5-0.5c-0.4-0.6-0.7-1.3-1.1-1.9c0.8-0.4,1.1-0.3,1.5,0.4
			C28.1,10,28.4,10.7,28.8,11.4z"/>
		<path class="st2" d="M16.9,9.7c0.4,0,0.7-0.1,1-0.1c0.1,0,0.3,0.1,0.3,0.1c0.5,0.8,0.9,1.7,1.4,2.5c-0.9,0.3-1,0.3-1.4-0.4
			C17.7,11.1,17.3,10.4,16.9,9.7z"/>
		<path class="st2" d="M19.9,9.4c0.4,0,0.7-0.1,1-0.1c0.1,0,0.2,0.1,0.3,0.1c0.5,0.8,0.9,1.7,1.3,2.5c-0.7,0.3-1,0.3-1.3-0.3
			C20.8,10.9,20.3,10.2,19.9,9.4z"/>
		<path class="st2" d="M25.7,11.7c-0.9,0.3-1,0.3-1.4-0.4s-0.8-1.4-1.2-2c0.8-0.4,1.1-0.3,1.5,0.4S25.4,11,25.7,11.7z"/>
	</g>
</g>
</svg>
