<?xml version="1.0" encoding="utf-8"?>
<!-- Generator: Adobe Illustrator 25.2.0, SVG Export Plug-In . SVG Version: 6.00 Build 0)  -->
<svg version="1.1" id="Layer_1" xmlns="http://www.w3.org/2000/svg" xmlns:xlink="http://www.w3.org/1999/xlink" x="0px" y="0px"
	 viewBox="0 0 56.7 68" style="enable-background:new 0 0 56.7 68;" xml:space="preserve">
<style type="text/css">
	.st0{enable-background:new    ;}
	.st1{fill:#474747;}
	.st2{font-family:'SourceSansPro-SemiBold';}
	.st3{font-size:10px;}
	.st4{fill:#06AFEF;}
	.st5{fill:#818385;}
	.st6{fill:#0DB1EF;}
	.st7{fill:#0BB0EF;}
	.st8{fill:#14B3EF;}
	.st9{fill:#0CB0EE;}
	.st10{fill:#12B2EF;}
	.st11{fill:#0EB1EF;}
	.st12{fill:#2ABAF1;}
	.st13{fill:#27B8F0;}
</style>
<text transform="matrix(1 0 0 1 7.8803 54.0146)" class="st0"><tspan x="0" y="0" class="st1 st2 st3">IOT-DIN</tspan><tspan x="-5" y="12" class="st1 st2 st3">IMX8PLUS</tspan></text>
<g id="_x36_Quoqn_1_">
	<g>
		<path class="st4" d="M38.6,2.4c1.3,2.3,2.6,4.6,3.9,6.9c0.1,0.1,0.1,0.2,0.2,0.4c-0.3,0-0.5,0-0.7,0.1c-0.5,0.1-0.7-0.1-1-0.5
			c-0.9-1.6-1.8-3.2-2.8-4.9c-0.2-0.4-0.4-0.5-1-0.5c-2.5,0.3-5,0.5-7.4,0.7c-3.1,0.3-6.2,0.6-9.3,1c-2.4,0.2-4.9,0.5-7.3,0.7
			c-1.7,0.2-3.3,0.3-5.1,0.5c0.1,0.2,0.1,0.3,0.1,0.5c4.7,9.2,9.5,18.4,14.2,27.6c0.8,1.6,0.8,1.5,2.6,1.2c2.2-0.5,4.5-0.9,6.7-1.4
			c0.3-0.1,0.6-0.1,0.8,0.2c0.8,0.7,1.6,1.4,2.5,2.2c-0.5,0.1-1,0.2-1.5,0.4c-3.6,0.8-7.1,1.6-10.7,2.4c-0.8,0.2-0.8,0.2-1.3-0.6
			c-3.5-6.8-7-13.7-10.5-20.5c-1.7-3.2-3.3-6.5-5-9.7C6.1,8.8,5.9,8.7,5.8,8.5c0-0.2,0-0.4,0-0.6C6.2,7.3,6.6,6.7,7,6.2
			c0.2-0.3,0.4-0.6,0.9-0.6c3.2-0.3,6.4-0.7,9.6-1c2.4-0.2,4.9-0.5,7.3-0.7c3.3-0.3,6.6-0.7,9.9-1c0.6-0.1,1.2-0.3,1.8-0.4
			C37.2,2.4,37.9,2.4,38.6,2.4z"/>
		<path class="st5" d="M50.9,32.2c0,0.4,0,0.8,0,1.1c0,1.4,0,1.4-1.3,1.7c-3.9,0.9-7.9,1-11.8-0.3c-3.9-1.3-6.1-4.1-6.8-8.1
			c-0.4-2.3-0.4-4.7,0.2-7c0.8-3.1,2.7-5.2,5.7-6.4c2.9-1.1,6-1.4,9.1-1c1.4,0.2,2.7,0.4,4.1,0.6c0.6,0.1,0.8,0.3,0.7,0.9
			c0,0.6,0,1.2,0,1.8c-2.8-1-5.6-1.2-8.4-1c-1.5,0.1-2.9,0.4-4.2,1.1c-2.2,1-3.5,2.8-4,5.1c-0.5,2.2-0.4,4.4,0.2,6.6
			c0.9,3,2.9,4.8,5.9,5.6c2.9,0.7,5.9,0.6,8.8-0.1C49.7,32.5,50.2,32.4,50.9,32.2z"/>
		<path class="st6" d="M21.4,12.3c-0.2,0.1-0.4,0.2-0.7,0.3c0.7,1.3,1.3,2.5,1.9,3.7c1.5,2.9,3,5.8,4.5,8.7c0.2,0.5,0.4,1.1,1.2,0.8
			c0.1,0,0.3,0.2,0.3,0.3c0,0.2-0.1,0.6-0.2,0.6c-0.4,0.2-0.9,0.2-1.3,0.3c-0.1,0-0.3-0.2-0.4-0.3c-0.2-0.4-0.4-0.7-0.6-1.1
			c-2-3.9-4-7.8-5.9-11.8C19.6,12.7,20,12.2,21.4,12.3z"/>
		<path class="st7" d="M25.7,11.6c2.7-0.3,5.4-0.5,8.1-0.8c0,0.1,0,0.2,0,0.4c-2.7,0.3-5.4,0.5-8.1,0.8
			C25.7,11.9,25.7,11.7,25.7,11.6z"/>
		<path class="st8" d="M31.3,8.5c-0.6,0.3-1,0.2-1.3-0.4c-0.2-0.5-0.6-1-0.8-1.5C30,6.1,30,6.1,30.4,6.8C30.7,7.4,31,7.9,31.3,8.5z"
			/>
		<path class="st9" d="M26.6,6.7c0.9-0.2,0.9-0.3,1.3,0.5c0.3,0.4,0.5,0.9,0.7,1.4c0,0.1,0,0.1,0,0.2c-0.7,0.4-0.8,0.2-1.2-0.4
			C27.2,7.8,26.9,7.3,26.6,6.7z"/>
		<path class="st10" d="M24,7c0.9-0.3,1-0.3,1.4,0.5c0.2,0.5,0.5,1,0.8,1.5c-0.4,0.3-0.8,0.4-1.1-0.1C24.8,8.2,24.4,7.6,24,7z"/>
		<path class="st10" d="M23.6,9.2c-0.6,0.3-1,0.2-1.2-0.4c-0.3-0.6-0.6-1.1-0.9-1.6c1-0.3,1-0.3,1.4,0.5C23.1,8.2,23.3,8.6,23.6,9.2
			z"/>
		<path class="st11" d="M21.2,9.4c-0.7,0.3-1,0.1-1.3-0.4c-0.3-0.5-0.6-1.1-0.9-1.6c0.7-0.3,1-0.2,1.3,0.4
			C20.6,8.3,20.9,8.8,21.2,9.4z"/>
		<path class="st12" d="M25.7,11.6c0,0.1,0,0.2,0,0.3c-1.4,0.2-2.8,0.4-4.4,0.4C22.1,11.9,23.6,11.6,25.7,11.6z"/>
		<path class="st13" d="M33.8,11.2c0-0.1,0-0.2,0-0.4c0.2,0,0.5,0,0.6,0.1c0.3,0.4,0.6,0.9,0.9,1.6c-0.6-0.1-0.7-0.5-0.9-0.7
			C34.3,11.5,34,11.3,33.8,11.2z"/>
	</g>
</g>
</svg>
