<?xml version="1.0" encoding="UTF-8"?><svg id="uuid-2562b07d-3ad9-4c94-91e1-9fc01bf2b56a" xmlns="http://www.w3.org/2000/svg" viewBox="0 0 800 800"><defs><style>.uuid-caa95e51-382c-437b-9fa5-04572b9e96b3{fill:#fff;}.uuid-b4f585ce-fc1f-4539-b709-ed57dfd0db71{fill:#003a4a;}.uuid-9dfdd2ae-8721-4ba4-82c0-8101048b9f18{fill:#8dc21f;}</style></defs><g><path class="uuid-b4f585ce-fc1f-4539-b709-ed57dfd0db71" d="M400,800c220.91,0,400-179.09,400-400H0c0,220.91,179.09,400,400,400Z"/><path class="uuid-9dfdd2ae-8721-4ba4-82c0-8101048b9f18" d="M400,0C179.09,0,0,179.09,0,400H800C800,179.09,620.91,0,400,0Z"/></g><g><g><path class="uuid-caa95e51-382c-437b-9fa5-04572b9e96b3" d="M260.41,254.75c-29.26,0-57.64,22.31-57.64,58.72,0,28.44,22.44,56.16,56.68,56.16,28.68,0,43.19-16.86,47.44-23.48l-23.93-8.67c-.22,.3-3.31,3.02-6.05,4.55-4.5,2.52-10.17,4.32-15.72,4.32-19.08,0-31.01-14.74-31.01-23.83h84.84s.89-3.95,.89-10.13c0-25.12-17.23-57.65-55.49-57.65Zm-29.26,46.37c0-7.16,11.74-22.86,30.03-22.86,16.37,0,30.03,15.73,30.03,22.86h-60.05Z"/><path class="uuid-caa95e51-382c-437b-9fa5-04572b9e96b3" d="M385.65,254.75c-29.26,0-57.64,22.31-57.64,58.72,0,28.44,22.44,56.16,56.68,56.16,28.68,0,43.19-16.86,47.44-23.48l-23.93-8.67c-.21,.3-3.31,3.02-6.05,4.55-4.5,2.52-10.17,4.32-15.72,4.32-19.08,0-31.01-14.74-31.01-23.83h84.84s.89-3.95,.89-10.13c0-25.12-17.23-57.65-55.49-57.65Zm-29.26,46.37c0-7.16,11.74-22.86,30.03-22.86,16.37,0,30.03,15.73,30.03,22.86h-60.05Z"/><path class="uuid-caa95e51-382c-437b-9fa5-04572b9e96b3" d="M510.88,254.75c-29.26,0-57.65,22.31-57.65,58.72,0,28.44,22.44,56.16,56.68,56.16,28.68,0,43.19-16.86,47.44-23.48l-23.93-8.67c-.21,.3-3.31,3.02-6.05,4.55-4.49,2.52-10.17,4.32-15.72,4.32-19.08,0-31.01-14.74-31.01-23.83h84.84s.89-3.95,.89-10.13c0-25.12-17.23-57.65-55.49-57.65Zm-29.26,46.37c0-7.16,11.74-22.86,30.03-22.86,16.37,0,30.03,15.73,30.03,22.86h-60.05Z"/><path class="uuid-caa95e51-382c-437b-9fa5-04572b9e96b3" d="M126.06,288.05c0-6.99,5.88-12.7,21.1-12.7,9.85,0,21.16,3.2,31.48,9.08l.31-.84,6.95-19.03c-10.31-6.5-24.59-9.83-38.56-9.83-31.58,0-46.82,15.72-46.82,34.6,0,41.26,64.59,26.98,64.59,47.78,0,6.82-6.19,11.9-21.43,11.9-13.32,0-28.15-4.84-38.06-12.54l-.72,1.97-6.61,18.35c9.83,7.61,27.62,12.85,45.23,12.85,31.74,0,47.14-15.87,47.14-34.44,0-40.79-64.6-26.66-64.6-47.13Z"/><path class="uuid-caa95e51-382c-437b-9fa5-04572b9e96b3" d="M675.12,267.95c-4.34-3.49-9.2-6.37-14.58-8.65-7.16-3.01-14.87-4.52-23.13-4.52s-16.39,1.55-23.54,4.74c-7.18,3.13-13.39,7.33-18.64,12.5-5.25,5.19-9.38,11.2-12.33,18.03-2.93,6.83-4.42,13.99-4.42,21.5,0,6.97,1.34,13.87,4.05,20.78,2.69,6.89,6.57,13.11,11.63,18.64,5.04,5.49,11.23,10,18.52,13.5,7.29,3.47,15.55,5.22,24.74,5.22s17.47-1.78,24.84-5.33c4.81-2.33,9.07-5.12,12.88-8.29v13.62h24.44V234.72l-24.44,6.6v26.63Zm-6.45,57.01c-1.68,4.15-4.05,7.81-7.1,10.99-3.07,3.17-6.63,5.7-10.74,7.56-4.11,1.84-8.58,2.77-13.42,2.77-5.09,0-9.68-.96-13.78-2.87-4.11-1.9-7.67-4.48-10.64-7.71-3.02-3.23-5.32-6.87-6.95-10.91-1.61-4.05-2.42-8.27-2.42-12.66s.81-8.45,2.42-12.57c1.63-4.09,3.9-7.72,6.83-10.92,2.95-3.17,6.52-5.72,10.66-7.6,4.15-1.93,8.78-2.87,13.87-2.87s9.69,.94,13.86,2.87c4.16,1.88,7.71,4.43,10.64,7.6,2.93,3.19,5.23,6.8,6.83,10.84,1.64,4.04,2.43,8.21,2.43,12.47,0,4.52-.83,8.84-2.51,13.01Z"/></g><g><path class="uuid-caa95e51-382c-437b-9fa5-04572b9e96b3" d="M673.57,485.4c-3.03-6.95-7.21-13.03-12.52-18.21-5.34-5.18-11.57-9.28-18.74-12.33-7.16-3.01-14.87-4.52-23.13-4.52s-16.39,1.55-23.54,4.74c-7.18,3.13-13.39,7.33-18.64,12.5-5.25,5.19-9.38,11.2-12.33,18.02-2.93,6.83-4.42,13.99-4.42,21.5,0,6.97,1.34,13.87,4.05,20.78,2.69,6.89,6.57,13.11,11.63,18.64,5.04,5.49,11.23,10,18.52,13.5,7.29,3.47,15.55,5.22,24.74,5.22s17.47-1.78,24.84-5.33c7.34-3.56,13.5-8.08,18.52-13.59,4.98-5.51,8.83-11.7,11.53-18.53,2.68-6.83,4.04-13.6,4.04-20.31,0-7.75-1.5-15.1-4.53-22.08Zm-23.13,35.12c-1.68,4.15-4.05,7.81-7.1,10.99-3.07,3.17-6.63,5.7-10.74,7.56-4.11,1.84-8.58,2.77-13.42,2.77-5.09,0-9.68-.96-13.78-2.87-4.11-1.9-7.67-4.48-10.64-7.71-3.02-3.23-5.32-6.87-6.95-10.91-1.61-4.05-2.42-8.26-2.42-12.66s.81-8.45,2.42-12.57c1.62-4.1,3.9-7.72,6.83-10.92,2.95-3.17,6.52-5.72,10.66-7.6,4.15-1.93,8.78-2.87,13.87-2.87s9.69,.94,13.86,2.87c4.16,1.88,7.71,4.43,10.64,7.6,2.93,3.19,5.23,6.8,6.83,10.84,1.64,4.04,2.43,8.21,2.43,12.47,0,4.52-.83,8.84-2.51,13.01Z"/><path class="uuid-caa95e51-382c-437b-9fa5-04572b9e96b3" d="M248.5,437.23l-24.26,6.45v86.34c0,22.41,14.09,35.26,38.66,35.26v-24.26c-14.4,0-14.4-4.85-14.4-10.99v-41.94h14.4v-24.26h-14.4v-26.58Z"/><path class="uuid-caa95e51-382c-437b-9fa5-04572b9e96b3" d="M348.33,515.68c0,15.6-9.4,25.3-24.53,25.3s-24.53-10.35-24.53-25.17v-65.23l-24.26,6.49v58.74c0,28.18,20.98,49.44,48.8,49.44s48.8-20.38,48.8-49.56v-65.05l-24.27,6.47v58.58Z"/><path class="uuid-caa95e51-382c-437b-9fa5-04572b9e96b3" d="M147.53,483.66c0-6.99,5.88-12.7,21.1-12.7,9.85,0,21.16,3.2,31.48,9.08l.31-.84,6.95-19.03c-10.31-6.5-24.59-9.83-38.56-9.83-31.59,0-46.82,15.72-46.82,34.6,0,41.26,64.59,26.98,64.59,47.78,0,6.82-6.19,11.9-21.43,11.9-13.32,0-28.15-4.84-38.06-12.54l-.72,1.97-6.61,18.35c9.83,7.61,27.62,12.85,45.23,12.85,31.74,0,47.14-15.87,47.14-34.44,0-40.79-64.6-26.66-64.6-47.13Z"/><rect class="uuid-caa95e51-382c-437b-9fa5-04572b9e96b3" x="523.94" y="463.77" width="24.2" height="101.47"/><rect class="uuid-caa95e51-382c-437b-9fa5-04572b9e96b3" x="523.94" y="430.2" width="24.2" height="20.14"/><path class="uuid-caa95e51-382c-437b-9fa5-04572b9e96b3" d="M481.34,463.56c-4.34-3.49-9.2-6.37-14.58-8.65-7.16-3.01-14.87-4.52-23.13-4.52s-16.39,1.55-23.54,4.74c-7.18,3.13-13.39,7.33-18.64,12.5-5.25,5.19-9.37,11.2-12.33,18.03-2.93,6.83-4.42,13.99-4.42,21.5,0,6.97,1.34,13.87,4.05,20.78,2.69,6.89,6.57,13.11,11.63,18.64,5.04,5.49,11.23,10,18.52,13.5,7.29,3.47,15.55,5.22,24.74,5.22s17.47-1.78,24.84-5.33c4.81-2.33,9.07-5.12,12.88-8.29v13.62h24.44v-134.9l-24.44,6.55v26.63Zm-6.45,57.01c-1.68,4.15-4.05,7.81-7.1,10.99-3.07,3.17-6.63,5.7-10.74,7.56-4.11,1.84-8.58,2.77-13.42,2.77-5.09,0-9.68-.96-13.78-2.87-4.11-1.9-7.67-4.48-10.65-7.71-3.02-3.23-5.32-6.87-6.95-10.91-1.61-4.05-2.42-8.27-2.42-12.66s.81-8.45,2.42-12.57c1.63-4.09,3.9-7.72,6.83-10.92,2.95-3.17,6.52-5.72,10.66-7.6,4.15-1.93,8.78-2.87,13.87-2.87s9.69,.94,13.86,2.87c4.16,1.88,7.71,4.43,10.64,7.6,2.93,3.19,5.23,6.8,6.83,10.84,1.64,4.04,2.43,8.21,2.43,12.47,0,4.52-.83,8.84-2.51,13.01Z"/></g></g></svg>