<svg viewBox="0 0 112 150" fill="none" xmlns="http://www.w3.org/2000/svg" style="enable-background:new 0 0 112 150;" xml:space="preserve">
  <path d="M82.002 52.7497C83.8359 52.7497 85.3226 51.2959 85.3226 49.5027C85.3226 47.7094 83.8359 46.2557 82.002 46.2557C80.1681 46.2557 78.6814 47.7094 78.6814 49.5027C78.6814 51.2959 80.1681 52.7497 82.002 52.7497Z" fill="#1A1A1A"/>
  <path d="M66.4121 64.8295C66.4683 64.8295 66.4965 64.802 66.5246 64.747C68.3819 60.4544 73.194 58.1429 77.8091 59.3812C77.9216 59.4087 78.006 59.3537 78.0623 59.2436C78.0623 59.2161 78.0623 59.2161 78.0623 59.1886V54.4282C78.0623 54.3456 78.006 54.2631 77.8935 54.2356C73.6442 53.4926 69.2824 54.5933 65.9618 57.2899C65.9055 57.3174 65.8493 57.3174 65.793 57.2624C65.7648 57.2349 65.7648 57.2074 65.7648 57.1799V54.4832C65.7648 54.3731 65.6804 54.2906 65.5678 54.2906H60.5588C60.4462 54.2906 60.3618 54.3731 60.3618 54.4832V64.7195C60.3618 64.7745 60.4181 64.8295 60.4744 64.8295H66.4121Z" fill="#1A1A1A"/>
  <path d="M60.4744 66.2879C60.4181 66.2879 60.3618 66.343 60.3618 66.398C60.3618 67.2235 60.1929 68.0215 59.9115 68.7919C59.3487 70.2228 58.1668 71.3785 56.7035 71.9289C55.1839 72.5067 53.4955 72.5067 51.9759 71.9289C51.2442 71.6537 50.597 71.2409 50.0342 70.6906C49.4713 70.1403 49.0211 69.5074 48.7397 68.7919C48.4301 68.0215 48.2613 67.196 48.2613 66.3705C48.2613 66.3154 48.205 66.2604 48.1487 66.2604H42.999C42.9427 66.2604 42.8864 66.3154 42.8864 66.3705C42.9146 68.5168 43.3929 70.498 44.3216 72.094C45.2784 73.6899 46.6573 75.0107 48.3457 75.8913C50.203 76.8268 52.2291 77.2946 54.3115 77.2396C56.3658 77.2671 58.3919 76.7993 60.2492 75.9188C60.3055 75.8913 60.3618 75.9188 60.4181 75.9738C60.4181 76.0013 60.4181 76.0013 60.4181 76.0289V76.6067C60.4181 76.7168 60.5025 76.7993 60.6151 76.7993H65.5678C65.6804 76.7993 65.7648 76.7168 65.7648 76.6067V68.3517C65.7648 67.6913 65.8492 67.0584 65.9899 66.398C66.0181 66.343 65.9618 66.2879 65.9055 66.2604H65.8774L60.4744 66.2879Z" fill="#1A1A1A"/>
  <path d="M26.5648 64.9946C26.6211 64.9121 26.6211 64.802 26.5367 64.7195L22.597 61.7476C22.5125 61.6926 22.4 61.6926 22.3437 61.7752C19.811 64.4443 15.5336 64.6094 12.804 62.1329C11.9879 61.3899 11.3688 60.4544 11.003 59.4087C10.9749 59.3537 11.0311 59.2711 11.0874 59.2711H11.1156H33.9095C33.9658 59.2711 34.0221 59.3262 34.0221 59.3812C34.0221 59.4087 34.0221 59.4362 33.9939 59.4362L30.4764 64.6644C30.4482 64.7195 30.4482 64.802 30.5045 64.8295C30.5326 64.8295 30.5326 64.857 30.5608 64.857H36.4422C36.4703 64.857 36.5266 64.8295 36.5547 64.802L42.6613 55.6389C42.6894 55.5839 42.7738 55.5839 42.8301 55.6114C42.8583 55.6389 42.8864 55.6664 42.8864 55.6939V64.6919C42.8864 64.7745 42.9427 64.857 43.0553 64.857H48.1206C48.205 64.857 48.2894 64.7745 48.2894 64.6919V54.4832C48.2894 54.3731 48.205 54.2906 48.0924 54.2906L43.0553 54.3181H29.1256C27.4653 47.9892 20.8804 44.1644 14.408 45.7879C7.93566 47.4114 4.0241 53.8503 5.6844 60.1792C7.3447 66.508 13.9296 70.3329 20.402 68.7094C22.7939 68.1315 24.9326 66.8107 26.5648 64.9946ZM17.3909 50.6309C19.8955 50.6309 22.203 51.9792 23.3568 54.153C23.3849 54.208 23.3568 54.2906 23.3005 54.3181C23.2723 54.3181 23.2723 54.3181 23.2442 54.3181H11.5377C11.4814 54.3181 11.4251 54.2631 11.4251 54.208C11.4251 54.1805 11.4251 54.1805 11.4251 54.153C12.607 51.9792 14.8864 50.6309 17.3909 50.6309Z" fill="#1A1A1A"/>
  <path d="M42.4362 71.9014H32.0241C31.9678 71.9014 31.9115 71.8463 31.9115 71.7913C31.9115 71.7638 31.9115 71.7363 31.9397 71.7363L35.4291 66.4805C35.4573 66.4255 35.4573 66.343 35.401 66.3154C35.3728 66.3154 35.3728 66.2879 35.3447 66.2879H29.4633C29.4351 66.2879 29.3789 66.3154 29.3789 66.343L22.9065 76.0289C22.8784 76.0839 22.8502 76.1389 22.8502 76.194V76.6067C22.8502 76.7168 22.9346 76.7993 23.0472 76.7993H42.4643C42.5769 76.7993 42.6613 76.7168 42.6613 76.6067V72.094C42.6331 71.9839 42.5487 71.9014 42.4362 71.9014Z" fill="#1A1A1A"/>
  <path d="M84.197 64.7745C84.3377 64.4993 84.5909 64.2517 84.8724 64.0866C84.9005 64.0591 84.9286 64.0315 84.9286 63.9765V54.5107C84.9286 54.4007 84.8442 54.3181 84.7317 54.3181H79.3286C79.2161 54.3181 79.1317 54.4007 79.1317 54.5107V64.7195C79.1317 64.7745 79.1879 64.8295 79.2442 64.8295H84.0844C84.1407 64.8295 84.1688 64.802 84.197 64.7745Z" fill="#1A1A1A"/>
  <path d="M84.0844 66.2879H79.2442C79.1879 66.2879 79.1317 66.343 79.1317 66.398V76.6067C79.1317 76.7168 79.2161 76.7993 79.3286 76.7993H84.7317C84.8442 76.7993 84.9286 76.7168 84.9286 76.6067V67.141C84.9286 67.1134 84.9005 67.0584 84.8724 67.0309C84.5909 66.8658 84.3658 66.6457 84.197 66.343C84.1688 66.3154 84.1407 66.2879 84.0844 66.2879Z" fill="#1A1A1A"/>
  <path d="M95.397 53.6302C88.8683 53.5202 83.4372 58.4732 83.0995 64.8295H84.1126C84.1688 64.8295 84.197 64.802 84.2251 64.7745C84.6754 63.949 85.7166 63.6188 86.5889 64.0591C87.4332 64.4993 87.7708 65.5175 87.3206 66.3705C86.8703 67.2235 85.8291 67.5262 84.9568 67.0859C84.6472 66.9208 84.394 66.6732 84.2251 66.3705C84.197 66.343 84.1688 66.3155 84.1126 66.3155H83.1276C83.606 72.8369 89.3749 77.7349 96.0442 77.2946C102.714 76.8544 107.723 71.1859 107.272 64.6644C106.794 58.5282 101.672 53.7403 95.397 53.6302ZM95.7347 72.0665C92.0201 72.3691 88.7276 69.645 88.4462 66.0128C88.1648 62.3806 90.9226 59.1611 94.6372 58.8859C98.3517 58.5832 101.644 61.3074 101.926 64.9396C101.954 65.2973 101.954 65.655 101.926 66.0128C101.644 69.2322 99.0271 71.7913 95.7347 72.0665Z" fill="#DA0000"/>
  <path d="M16.35 108.7H13.15L5.05001 95.8V108.7H1.95001V90.5H5.15001L13.35 103.5V90.5H16.45V108.7H16.35Z" fill="#5B5B5B"/>
  <path d="M31.15 95.3C31.15 96.2 30.95 97 30.45 97.7C29.95 98.4 29.35 98.9 28.55 99.3C29.05 99.5 29.45 99.8 29.75 100.1C30.15 100.4 30.45 100.7 30.65 101.1C30.85 101.5 31.15 101.9 31.25 102.3C31.35 102.7 31.45 103.2 31.45 103.7C31.45 104.6 31.25 105.3 30.95 105.9C30.65 106.5 30.25 107.1 29.65 107.5C29.05 107.9 28.45 108.3 27.75 108.5C27.05 108.7 26.25 108.8 25.35 108.8C24.45 108.8 23.75 108.7 22.95 108.5C22.15 108.3 21.55 107.9 21.05 107.5C20.55 107.1 20.05 106.5 19.75 105.9C19.45 105.3 19.25 104.5 19.25 103.7C19.25 103.2 19.35 102.7 19.45 102.3C19.55 101.9 19.75 101.4 20.05 101.1C20.35 100.7 20.65 100.4 20.95 100.1C21.35 99.8 21.75 99.5 22.15 99.3C21.35 98.9 20.75 98.4 20.25 97.7C19.75 97 19.55 96.2 19.55 95.3C19.55 94.5 19.65 93.8 19.95 93.1C20.25 92.5 20.65 91.9 21.15 91.5C21.65 91.1 22.25 90.7 22.95 90.5C23.65 90.3 24.35 90.2 25.15 90.2C25.95 90.2 26.75 90.3 27.35 90.5C28.05 90.7 28.65 91 29.15 91.5C29.65 92 30.05 92.5 30.35 93.1C30.95 93.8 31.15 94.5 31.15 95.3ZM28.45 103.6C28.45 103.1 28.35 102.7 28.25 102.4C28.15 102 27.95 101.7 27.65 101.4C27.35 101.1 27.05 100.9 26.75 100.8C26.35 100.7 25.95 100.6 25.55 100.6C25.05 100.6 24.65 100.7 24.35 100.8C23.95 100.9 23.65 101.2 23.45 101.4C23.25 101.6 23.05 102 22.85 102.4C22.75 102.8 22.65 103.2 22.65 103.6C22.65 104.1 22.75 104.5 22.85 104.8C22.95 105.2 23.15 105.5 23.45 105.7C23.75 106 24.05 106.1 24.35 106.3C24.75 106.4 25.15 106.5 25.55 106.5C26.45 106.5 27.15 106.2 27.65 105.7C28.25 105.3 28.45 104.5 28.45 103.6ZM28.15 95.4C28.15 95 28.05 94.6 27.95 94.3C27.85 94 27.65 93.7 27.45 93.4C27.25 93.2 26.95 93 26.65 92.8C26.35 92.7 25.95 92.6 25.55 92.6C24.75 92.6 24.15 92.8 23.75 93.3C23.25 93.8 23.05 94.5 23.05 95.3C23.05 95.7 23.15 96.1 23.25 96.4C23.35 96.7 23.55 97 23.75 97.3C23.95 97.5 24.25 97.7 24.55 97.9C24.85 98 25.25 98.1 25.65 98.1C26.05 98.1 26.35 98 26.75 97.9C27.05 97.8 27.35 97.6 27.55 97.3C27.75 97.1 27.95 96.8 28.05 96.4C28.15 96 28.15 95.8 28.15 95.4Z" fill="#5B5B5B"/>
  <path d="M38.85 90.5L44.15 104.5L49.35 90.5H53.45V108.7H50.25V102.7L50.55 94.7L45.15 108.7H42.95L37.55 94.7L37.85 102.7V108.7H34.65V90.5H38.85Z" fill="#5B5B5B"/>
  <path d="M67.65 90.5L72.95 104.5L78.15 90.5H82.25V108.7H79.05V102.7L79.35 94.7L73.95 108.7H71.65L66.25 94.7L66.55 102.7V108.7H63.35V90.5H67.65Z" fill="#5B5B5B"/>
  <path d="M85.75 91.7C85.75 91.2 85.85 90.8 86.15 90.5C86.45 90.2 86.85 90 87.45 90C88.05 90 88.45 90.2 88.75 90.5C89.05 90.8 89.25 91.2 89.25 91.7C89.25 92.2 89.05 92.5 88.75 92.8C88.45 93.1 88.05 93.3 87.45 93.3C86.85 93.3 86.45 93.1 86.15 92.8C85.85 92.5 85.75 92.1 85.75 91.7ZM88.95 108.7H85.95V95.2H88.95V108.7Z" fill="#5B5B5B"/>
  <path d="M95.05 95.2L95.15 96.8C95.65 96.2 96.15 95.8 96.85 95.5C97.55 95.2 98.25 95 99.05 95C99.75 95 100.25 95.1 100.85 95.3C101.45 95.5 101.85 95.8 102.25 96.2C102.65 96.6 102.95 97.1 103.15 97.8C103.35 98.4 103.45 99.2 103.45 100.1V108.9H100.45V100.1C100.45 99.6 100.35 99.2 100.25 98.9C100.15 98.6 99.95 98.3 99.75 98.1C99.55 97.9 99.35 97.8 99.05 97.7C98.75 97.6 98.45 97.6 98.05 97.6C97.45 97.6 96.85 97.8 96.45 98.1C96.05 98.4 95.65 98.8 95.35 99.3V108.9H92.35V95.4H95.05V95.2Z" fill="#5B5B5B"/>
  <path d="M106.55 91.7C106.55 91.2 106.65 90.8 106.95 90.5C107.25 90.2 107.65 90 108.25 90C108.85 90 109.25 90.2 109.55 90.5C109.85 90.8 110.05 91.2 110.05 91.7C110.05 92.2 109.85 92.5 109.55 92.8C109.25 93.1 108.85 93.3 108.25 93.3C107.65 93.3 107.25 93.1 106.95 92.8C106.65 92.5 106.55 92.1 106.55 91.7ZM109.75 108.7H106.75V95.2H109.75V108.7Z" fill="#5B5B5B"/>
</svg>
