<?xml version="1.0" encoding="UTF-8"?>
<svg width="142px" height="155px" viewBox="0 0 142 155" version="1.1" xmlns="http://www.w3.org/2000/svg" xmlns:xlink="http://www.w3.org/1999/xlink">
    <!-- Generator: Sketch 41.2 (35397) - http://www.bohemiancoding.com/sketch -->
    <title>Group</title>
    <desc>Created with Sketch.</desc>
    <defs></defs>
    <g id="Page-1" stroke="none" stroke-width="1" fill="none" fill-rule="evenodd">
        <g id="Artboard-2" transform="translate(-73.000000, -24.000000)">
            <g id="Group" transform="translate(73.000000, 24.000000)">
                <g id="Texas_Instruments_Logo" transform="translate(7.000000, 0.000000)" fill="#EE2120">
                    <g id="Layer_1">
                        <path d="M89.7391488,22.4690272 L89.7391488,22.4690272 L93.1843008,22.4690272 L96.6294528,22.5973443 L100.075747,22.8574555 L103.268069,23.2413443 L106.201858,23.4968676 L107.604974,23.6263437 L108.882816,23.8818671 L110.030818,24.1419784 L111.055824,24.3975017 L112.840469,24.9108472 L112.460069,30.818952 L112.199285,35.8275672 L112.199285,36.8542486 L112.199285,37.882089 L112.330277,38.9099294 L112.460117,39.9355001 L112.840517,41.4801342 L113.223173,42.8883861 L113.603573,44.1763861 L113.987381,44.6885919 L114.245909,45.3302738 L114.754997,46.2309079 L115.392778,46.9997961 L116.031696,47.5131127 L116.540779,48.1582717 L117.181978,48.5422087 L117.561226,48.7986497 L118.456397,49.1850014 L118.713773,49.3100827 L118.713773,50.0823998 L118.966589,52.2640796 L119.096429,53.9336502 L119.221709,55.4771252 L119.221709,57.40333 L119.096429,59.5873279 L118.837901,62.4118969 L118.713773,64.9786728 L118.329965,67.1615599 L117.946157,68.9559704 L117.562349,70.5028743 L117.438221,71.529604 L117.183101,72.4256502 L113.989642,73.5829667 L111.821189,74.3564428 L109.268928,75.3785846 L107.863531,76.0225363 L106.591387,76.6665363 L103.524346,78.2100113 L100.460722,80.0044218 L98.9277696,81.0311515 L97.1419872,82.1861499 L95.8664256,83.0879914 L94.716144,84.1146728 L93.5692752,85.1413541 L92.4167136,86.2952418 L91.2721248,87.3276701 L90.2482608,88.6064943 L89.2312272,89.7638108 L88.3315008,90.9188575 L87.4386096,92.2033804 L86.6755488,93.4913321 L86.163048,94.771267 L85.77924,95.543584 L85.526424,96.1875357 L85.14492,97.5969468 L84.758856,99.0086759 L84.507144,100.418087 L84.507144,101.191563 L84.507144,101.960451 L84.507144,103.502767 L84.633576,105.173449 L84.886392,106.716924 L85.14492,108.125224 L85.397736,109.542652 L85.77924,110.698809 L86.163048,111.983332 L86.6755488,113.012332 L86.163048,113.262011 L85.397712,113.65271 L84.3784032,114.034232 L83.8658976,114.293087 L83.101704,114.293087 L81.6974448,114.679439 L80.8045536,114.679439 L79.7841024,114.804521 L78.8889312,114.804521 L77.8662048,114.804521 L77.228424,114.679439 L76.4642256,114.679439 L75.1841088,114.293087 L73.783272,114.034232 L72.2491824,113.396027 L71.610264,113.140552 L70.9702032,112.882662 L69.5693664,112.105757 L68.1651072,111.081346 L66.7608528,110.180712 L65.4841536,109.029094 L64.2074496,107.869459 L62.931888,106.584985 L61.782744,105.295874 L60.6347424,103.887574 L59.484456,102.348686 L58.9730928,101.576369 L58.4662896,100.807481 L57.4412832,99.13453 L56.2932768,96.9539127 L55.1475504,94.6381205 L53.10096,90.2700764 L51.1876176,85.9043022 L50.2970016,83.8532092 L49.2754128,82.0530518 L48.2549664,80.2632292 L47.8711584,79.3648649 L47.22996,78.5925478 L46.2117888,77.3068659 L45.8279808,76.6663431 L45.1890624,76.0223431 L44.6765616,75.5124554 L44.0387808,74.9968208 L43.5285552,74.7379651 L42.7643568,74.3564428 L42.2541312,73.9691252 L41.6152128,73.8406633 L40.8464592,73.8406633 L40.209816,73.7170308 L39.5708976,73.8406633 L38.9331168,73.8406633 L38.420616,73.8406633 L37.7851104,73.9691252 L37.4013024,74.2260491 L36.8922144,74.4849048 L36.376296,74.739414 L35.997048,74.8712565 L35.2328496,75.6378266 L34.4675136,76.2817783 L33.9515952,77.0540953 L33.191952,77.6946665 L32.6783136,78.4646654 L32.0393904,79.1132533 L31.4038896,79.7480292 L30.7638336,80.3920292 L30.3834336,80.6542654 L29.9996256,80.905394 L29.105592,81.2902969 L28.725192,81.4197247 L28.2126912,81.5467378 L27.701328,81.5467378 L27.1911024,81.5467378 L26.5533216,81.5467378 L25.9132608,81.4197247 L25.4018976,81.4197247 L24.7686768,81.161835 L24.2561712,80.9039452 L23.744808,80.5200082 L22.7243616,79.7476911 L22.211856,79.3652029 L21.7027728,78.8506791 L21.1914096,78.4633615 L20.8076016,77.9488376 L20.0434032,76.796109 L19.6595952,76.1555378 L19.2757872,75.5127452 L18.6380064,74.2259043 L17.8703952,72.9436995 L16.7246688,70.3758129 L14.6814912,65.8805625 L14.4252192,65.2365625 L13.9149984,64.5948806 L13.1519376,63.308088 L12.1292112,62.1530413 L11.11104,60.9991536 L8.810472,58.8139966 L7.5326352,57.787267 L6.3846288,56.6333793 L5.2354848,55.4783809 L4.2116208,54.1915399 L3.1945872,53.0376523 L2.2982784,51.6202245 L1.53408,50.0824481 L1.150272,49.1840838 L0.766464,48.4152439 L0.513648,47.5111326 L0.38496,46.4821331 L0.12984,45.4554518 L0,44.300405 L31.272888,44.300405 L31.272888,0 L60.6347136,0 L60.6347136,18.6169317 L61.1415216,19.0030902 L61.6528848,19.3892487 L62.2929408,19.7754072 L63.1869744,20.1604067 L64.078728,20.414771 L65.227872,20.8009296 L66.2471808,21.057612 L67.5272976,21.3119763 L64.2062832,36.2082686 L54.8867136,36.2082686 L51.6955344,49.4396071 L61.2724944,49.4396071 L57.8262,65.6238801 L57.3171168,68.0634497 L57.1861248,69.4762896 L56.9333088,71.0151767 L56.9333088,72.6858581 L56.9333088,74.0987462 L57.0585888,75.5127452 L57.1861728,76.1555378 L57.3171648,76.796109 L57.6998208,77.8227903 L58.0790688,78.7269016 L58.5938496,79.619519 L59.1040704,80.391836 L59.7384384,81.2890413 L60.2498016,81.9307231 L61.0196928,82.5747231 L61.7838912,83.0891987 L62.2952544,83.6002938 L63.3157008,83.8591494 L64.0810368,84.2455011 L64.9773504,84.6284722 L65.8656864,84.7569342 L66.7619952,84.8853961 L67.7824464,85.0124092 L68.8028928,85.0124092 L70.2060096,85.0124092 L71.7389616,84.8853961 L73.143216,84.7569342 L74.676168,84.5014591 L77.3537088,83.9869352 L78.6338256,83.6005835 L79.6531344,83.3475231 L80.8022784,82.9611714 L81.8227296,82.6989352 L83.226984,82.1878885 L84.6323808,81.5462066 L87.5673072,70.2468197 L87.1857552,70.3762476 L86.5468368,70.5032607 L85.1448576,70.5032607 L83.7383232,70.628342 L82.463904,70.756804 L81.8238432,70.756804 L81.31248,70.628342 L80.933232,70.5032607 L80.804544,70.5032607 L80.677008,70.3762476 L80.549472,70.2468197 L80.2932,70.1183578 L80.165664,69.7320061 L79.912848,69.476531 L79.78416,68.8336901 L79.655472,68.3226434 L79.78416,67.9353258 L79.912848,66.646215 L83.867088,49.4398486 L93.1866576,49.4398486 L96.2480016,36.2096691 L86.6767392,36.2096691 L89.7392256,22.4695439 L89.7391488,22.4690272 Z M71.738928,27.7388596 L71.738928,27.7388596 L83.2258128,27.7388596 L73.7832432,69.8598885 L62.6767488,69.8598885 L71.738928,27.7388596 L71.738928,27.7388596 Z M79.6531008,11.5546253 L79.6531008,11.5546253 L80.4218544,11.5546253 L80.9309424,11.6818316 L81.5664432,11.8078788 L82.0800864,11.9407838 L82.5914496,12.1940374 L83.1005328,12.5801959 L83.6107584,12.8357193 L83.9922624,13.219608 L84.7564608,14.121406 L85.1425728,14.6347563 L85.3953888,15.1515452 L85.5252288,15.6626016 L85.6527648,16.4337692 L85.7768928,16.9482641 L85.7768928,17.5888063 L85.7768928,18.2327822 L85.6527648,18.8756183 L85.5252288,19.3889638 L85.3953888,20.0295059 L85.1425728,20.5440008 L84.7564608,20.9255714 L84.5047488,21.5706967 L84.1209408,21.8296489 L83.7371328,22.3429944 L83.2269072,22.5973587 L82.7166816,22.85747 L82.2053184,23.1118343 L81.6962352,23.2424695 L81.0584544,23.3662469 L80.4218112,23.4968821 L79.6530576,23.4968821 L79.0164192,23.4968821 L78.505056,23.3662469 L77.8661328,23.2424695 L77.353632,23.1118343 L76.7169888,22.85747 L76.2056256,22.5973587 L75.8229696,22.3429944 L75.3116064,21.9602648 L74.9289504,21.5706774 L74.5485504,21.0584716 L74.2922784,20.5439767 L74.0371584,20.161247 L73.9084704,19.38893 L73.6556544,18.8755845 L73.5292224,18.2327483 L73.5292224,17.5887725 L73.5292224,16.9482303 L73.6556544,16.4337354 L73.9084704,15.7931981 L74.0371584,15.2786984 L74.2922784,14.7619143 L74.5485504,14.1225167 L75.0599136,13.7363582 L75.3116256,13.3547876 L75.8229888,12.8368542 L76.332072,12.5813308 L76.8445776,12.1951723 L77.3525232,11.9419187 L77.9937168,11.8090138 L78.5039424,11.6829665 L79.1405856,11.5557602 L79.6530864,11.5557602 L79.6530864,11.5546108 L79.6531008,11.5546253 Z" id="path3"></path>
                    </g>
                </g>
                <path d="M27.832,154 L17.809,127.987 L10.867,127.987 L0.844,154 L7.123,154 L8.761,149.593 L19.915,149.593 L21.553,154 L27.832,154 Z M18.394,144.718 L10.282,144.718 L14.338,133.525 L18.394,144.718 Z M58.447,154 L58.447,127.987 L50.647,127.987 L44.329,144.25 L38.011,127.987 L30.25,127.987 L30.25,154 L35.788,154 L35.788,135.241 L43.12,154 L45.538,154 L52.87,135.241 L52.87,154 L58.447,154 Z M72.955,154.468 C79.234,154.468 83.368,150.958 83.368,145.459 C83.368,140.194 79.429,137.035 75.022,137.035 C72.643,137.035 70.537,137.971 69.289,139.219 L69.289,132.862 L81.613,132.862 L81.613,127.987 L63.751,127.987 L63.751,142.885 L67.612,143.938 C69.172,142.456 70.927,141.832 73.072,141.832 C76.036,141.832 77.752,143.392 77.752,145.693 C77.752,147.799 75.997,149.554 72.916,149.554 C70.186,149.554 67.768,148.54 66.013,146.707 L62.932,150.568 C65.155,152.986 68.431,154.468 72.955,154.468 Z M95.536,154 L105.208,131.848 L105.208,127.987 L85.669,127.987 L85.669,132.862 L98.773,132.862 L89.452,154 L95.536,154 Z M119.443,154 L119.443,127.987 L114.607,127.987 L106.417,136.216 L109.576,139.531 L113.905,135.124 L113.905,154 L119.443,154 Z M141.673,154 L134.965,144.328 L141.244,135.163 L135.706,135.163 L131.845,140.935 L127.945,135.163 L122.407,135.163 L128.725,144.328 L122.017,154 L127.516,154 L131.845,147.643 L136.135,154 L141.673,154 Z" id="AM571x" fill="#F11C0E"></path>
            </g>
        </g>
    </g>
</svg>