<?xml version="1.0" encoding="utf-8"?>
<!-- Generator: Adobe Illustrator 21.1.0, SVG Export Plug-In . SVG Version: 6.00 Build 0)  -->
<svg version="1.1" id="Layer_1" xmlns="http://www.w3.org/2000/svg" xmlns:xlink="http://www.w3.org/1999/xlink" x="0px" y="0px"
	 viewBox="0 0 148 150" style="enable-background:new 0 0 148 150;" xml:space="preserve">
<style type="text/css">
	.st0{fill:#4B90C1;}
	.st1{fill:#56C2E4;}
	.st2{fill:#2C4A8D;}
	.st3{fill:#4568A3;}
	.st4{fill:#FFFFFF;}
</style>
<g>
	<g>
		<g id="Group-6_1_">
			<g id="Fill-3-Clipped_1_">
				<path id="Fill-3_1_" class="st0" d="M66,25.3v49l42.4,24.5v-49L66,25.3"/>
			</g>
			<g id="Fill-5-Clipped_1_">
				<path id="Fill-5_1_" class="st1" d="M127.8,110l-19.3-11.1v1.2l-1.1,0.6l19.3,11.1l-60.6,35.1v-22.3l-1.1,0.6l-1.1-0.6v22.3
					l-60.7-35l19.3-11.1l-1-0.6v-1.3L2.2,110V40l19.3,11.1v-1.2l1.1-0.6L3.3,38.1l60.6-35v22.3l1.1-0.6l0,0l1,0.6V3.1l60.7,35
					l-19.3,11.1l1,0.6v1.2L127.8,40L127.8,110L127.8,110L127.8,110z M128.9,36.9L66,0.6L65,0l-1.1,0.6L0.1,37.5v75.1l63.9,36.8
					L65,150l1.1-0.6l62.8-36.3l1.1-0.5V37.5L128.9,36.9L128.9,36.9L128.9,36.9z"/>
			</g>
		</g>
		<path id="Fill-7_1_" class="st2" d="M66,74.3v-49l-1-0.6l0,0l-1.1,0.6v49L21.5,98.9v1.3l1,0.6L65,76.2l42.5,24.5l1-0.6v-1.2
			L66,74.3"/>
		<path id="Fill-1_1_" class="st3" d="M21.5,49.9v49l42.4-24.5v-49L21.5,49.9"/>
		<path id="Fill-2_1_" class="st1" d="M65,76.2l-42.5,24.5L65,125.2l42.5-24.5L65,76.2"/>
	</g>
	<g>
		<g>
			<g>
				<path class="st4" d="M115.3,147.5c-17.2,0-31.1-14-31.1-31.1s14-31.1,31.1-31.1s31.1,14,31.1,31.1S132.5,147.5,115.3,147.5z"/>
				<path class="st1" d="M115.3,86.7c16.3,0,29.6,13.3,29.6,29.6S131.6,146,115.3,146s-29.6-13.3-29.6-29.6S99,86.7,115.3,86.7
					 M115.3,83.7c-18,0-32.6,14.6-32.6,32.6S97.3,149,115.3,149s32.6-14.6,32.6-32.6S133.3,83.7,115.3,83.7L115.3,83.7z"/>
			</g>
		</g>
		<g>
			<path class="st3" d="M105.8,115.8l1.9-17.9h19.1v5.1h-14.2l-1,8.5c0.6-0.3,1.3-0.6,2.3-1c1-0.3,2-0.5,3.3-0.5
				c1.7,0,3.2,0.3,4.5,0.8c1.3,0.6,2.5,1.4,3.4,2.4c0.9,1,1.6,2.3,2.1,3.8c0.5,1.5,0.7,3.1,0.7,5c0,1.6-0.2,3.2-0.7,4.6
				c-0.5,1.4-1.2,2.7-2.2,3.8c-1,1.1-2.2,1.9-3.7,2.5s-3.2,0.9-5.2,0.9c-1.5,0-2.9-0.2-4.2-0.6c-1.4-0.4-2.6-1.1-3.6-1.9
				c-1.1-0.8-1.9-1.9-2.6-3.2c-0.7-1.3-1-2.7-1.1-4.4h5.7c0.2,1.7,0.8,3,1.9,4c1,0.9,2.3,1.4,4,1.4c1,0,1.8-0.2,2.5-0.5
				c0.7-0.4,1.3-0.9,1.8-1.5c0.5-0.6,0.8-1.4,1.1-2.3c0.2-0.9,0.4-1.9,0.4-2.9c0-1-0.1-1.9-0.4-2.8c-0.3-0.9-0.7-1.6-1.2-2.2
				c-0.5-0.6-1.2-1.1-2-1.5c-0.8-0.4-1.7-0.5-2.7-0.5c-0.7,0-1.3,0.1-1.8,0.2c-0.5,0.1-1,0.3-1.4,0.5s-0.7,0.4-1.1,0.7
				c-0.3,0.3-0.6,0.5-1,0.8L105.8,115.8z"/>
		</g>
	</g>
</g>
</svg>
