<?xml version="1.0" encoding="utf-8"?>
<!-- Generator: Adobe Illustrator 22.1.0, SVG Export Plug-In . SVG Version: 6.00 Build 0)  -->
<svg version="1.1" id="Layer_1" xmlns="http://www.w3.org/2000/svg" xmlns:xlink="http://www.w3.org/1999/xlink" x="0px" y="0px"
	 viewBox="0 0 150 150" style="enable-background:new 0 0 150 150;" xml:space="preserve">
<style type="text/css">
	.st0{fill:#282F7E;}
	.st1{fill:#FFFFFF;}
	.st2{fill:#56C2E4;}
</style>
<g>
	<path class="st0" d="M47.9,16.6c4.9,0,9.4,0,14.2,0c0-3.6-0.1-7.1,0-10.6c0-1,0.3-2.2,0.9-2.7c0.7-0.6,2.2-0.9,3-0.6
		c0.8,0.3,1.6,1.6,1.6,2.5c0.2,3.7,0.1,7.5,0.1,11.4c4.9,0,9.5,0,14.4,0c0-3.6,0.1-7.1,0-10.6c0-2.1,0.6-3.7,2.9-3.6
		c2.2,0,2.8,1.6,2.8,3.5c0,3.5,0,7,0,10.7c4.8,0,9.3,0,14.3,0c0-3.1,0-6.2,0-9.3c0-3.5,0.8-4.9,2.7-4.9c2,0,3,1.8,3,5.1
		c0,3,0,6,0,9.3c4.3,0,8.3,0.3,12.3-0.1c6.3-0.6,13.4,5.4,13.2,13.1c-0.1,4.1,0,8.2,0,12.7c3.7,0,7.3-0.2,10.8,0.1
		c1.1,0.1,2.6,1,3.1,1.9c0.9,1.8-0.6,3.4-2.9,3.4c-3.6,0.1-7.2,0-10.9,0c0,4.8,0,9.3,0,14.2c3.4,0,6.8-0.1,10.2,0.1
		c1.2,0.1,2.7,0.5,3.3,1.4c1.5,2-0.1,4.4-2.9,4.4c-3.5,0.1-7,0-10.6,0c0,4.8,0,9.3,0,14.1c3.4,0,6.7,0,10,0c2,0,3.9,0.3,3.9,2.9
		c0,2.6-1.8,3-3.9,2.9c-3.3,0-6.5,0-10,0c0,4.7,0,9.3,0,14.2c3.6,0,7.1,0,10.7,0c1.8,0,3.1,0.6,3.1,2.6c0.1,2.1-1.2,2.9-3.1,2.9
		c-3.5,0-7,0-10.9,0c0,4.2,0,8.3,0,12.4c0,4.2-1.4,7.7-4.6,10.4c-2.2,1.9-4.7,3-7.7,3c-4.3-0.1-8.5,0-13.2,0c0,3.2,0,6.2,0,9.2
		c0,0.9,0.2,2.1-0.2,2.8c-0.8,1-2.1,2.2-3.2,2.3c-0.7,0.1-2.1-1.7-2.2-2.8c-0.3-3.7-0.1-7.3-0.1-11.2c-4.8,0-9.4,0-14.3,0
		c0,3.3,0,6.5,0,9.8c0,0.9,0.2,2.2-0.3,2.7c-0.8,0.8-2.2,1.7-3.1,1.5c-0.9-0.2-2.1-1.6-2.1-2.6c-0.2-3.7-0.1-7.5-0.1-11.4
		c-4.8,0-9.4,0-14.4,0c0,3.5,0,6.9,0,10.3c0,1.9-0.1,3.7-2.6,3.9c-2,0.2-3.1-1.3-3.1-4.1c0-3.3,0-6.7,0-10.1c-4.8,0-9.4,0-14.2,0
		c0,3.5,0,6.9,0,10.4c0,2-0.4,3.8-2.8,3.8c-2.3,0-2.8-1.9-2.8-3.9c0-3.4,0-6.8,0-10.5c-4.5,0-8.6-0.3-12.6,0.1
		c-6.5,0.5-13.2-5.8-13.1-12.7c0.1-3.4,0-6.9,0-10.3c0-0.8-0.1-1.7-0.1-2.8c-3.5,0-6.8,0-10.1,0c-2,0-3.7-0.3-3.9-2.7
		c-0.1-1.9,1.2-2.8,4-2.8c3.2,0,6.5,0,9.9,0c0-4.8,0-9.4,0-14.2c-3.6,0-7,0-10.4,0c-1.8,0-3.5-0.5-3.5-2.8c-0.1-2.4,1.6-3,3.6-3.1
		c3.4,0,6.8,0,10.4,0c0-4.7,0-9.2,0-14.1c-3.5,0-6.9,0.1-10.3-0.1c-1.1-0.1-2.6-0.6-3.3-1.5c-1.4-1.7,0.1-4.1,2.5-4.3
		c3-0.1,6-0.1,9,0c1.7,0.1,2.3-0.5,2.2-2.2c-0.1-3.9,0-7.8,0-12c-3.7,0-7,0-10.3,0c-2,0-3.8-0.3-3.8-2.7c0-2.4,1.8-2.8,3.8-2.8
		c3.3,0,6.7,0,10.4,0c0-4.2,0-8.2,0-12.2c0-3.3,0.7-6.3,3.1-9c3-3.4,6.5-4.8,10.9-4.5c3.8,0.2,7.5,0,11.7,0c0-2.3,0-4.4,0-6.5
		c0-1.5,0-2.9,0-4.4c0.1-1.9,0.7-3.5,2.9-3.4c2,0.1,2.6,1.6,2.6,3.5C47.9,9.3,47.9,12.8,47.9,16.6z M75.1,127.6
		c14.7,0,29.5,0,44.2,0c6,0,8.4-2.4,8.4-8.4c0-29.5,0-59,0-88.5c0-6-2.5-8.3-8.5-8.3c-29.4,0-58.8,0-88.2,0c-6.4,0-8.7,2.3-8.7,8.7
		c0,29.3,0,58.6,0,87.9c0,6.2,2.3,8.6,8.5,8.6C45.6,127.6,60.3,127.6,75.1,127.6z"/>
	<path class="st0" d="M117.7,71.4c-0.6,17-8.3,29.5-22.8,37.3c-13.4,7.2-27.5,6.9-40.8-0.6c-14-7.9-20.8-20.6-21.9-36.7
		C60.8,71.4,89,71.4,117.7,71.4z"/>
	<path class="st0" d="M46.8,36.6c8.1,0,14.2,6.1,14.3,14.3c0.1,8.3-6.9,14.5-14.5,14.4c-7.7-0.1-14.4-6.9-14.3-14.5
		C32.4,43.7,38.2,36.3,46.8,36.6z"/>
	<path class="st0" d="M117.6,50.9c0,7.9-6.4,14.3-14.3,14.3c-7.8,0-14.4-6.5-14.4-14.3c-0.1-8.1,6.3-14.4,14.5-14.4
		C111.5,36.6,117.6,42.8,117.6,50.9z M110.1,50.9c0.1-3.7-3-6.8-6.8-6.9c-3.7-0.1-6.9,2.9-6.9,6.7c-0.1,3.6,3.2,6.9,6.8,7
		C106.8,57.8,110.1,54.5,110.1,50.9z"/>
</g>
<g>
	<path class="st1" d="M124.3,145.7h-12.7c-11.8,0-21.4-9.6-21.4-21.4v-22.7c0-11.8,9.6-21.4,21.4-21.4h12.7
		c11.8,0,21.4,9.6,21.4,21.4v22.7C145.7,136.1,136.1,145.7,124.3,145.7z"/>
	<path class="st2" d="M124.3,147.7h-12.7c-12.9,0-23.4-10.5-23.4-23.4v-22.7c0-12.9,10.5-23.4,23.4-23.4h12.7
		c12.9,0,23.4,10.5,23.4,23.4v22.7C147.7,137.2,137.2,147.7,124.3,147.7z M111.6,82.3c-10.7,0-19.4,8.7-19.4,19.4v22.7
		c0,10.7,8.7,19.4,19.4,19.4h12.7c10.7,0,19.4-8.7,19.4-19.4v-22.7c0-10.7-8.7-19.4-19.4-19.4H111.6z"/>
</g>
<g>
	<path class="st0" d="M105.5,126.7c2.6,1.6,6.5,2.9,10.6,2.9c5.1,0,8-2.5,8-6.2c0-3.4-2.2-5.5-7.8-7.6c-7.2-2.7-11.8-6.7-11.8-13.3
		c0-7.4,6-13.1,15.5-13.1c4.7,0,8.3,1.1,10.5,2.3l-2,6.7c-1.6-0.9-4.6-2.2-8.7-2.2c-5.1,0-7.3,2.8-7.3,5.5c0,3.5,2.5,5.1,8.4,7.5
		c7.6,3,11.3,7,11.3,13.5c0,7.3-5.3,13.7-16.7,13.7c-4.6,0-9.4-1.4-11.8-2.8L105.5,126.7z"/>
</g>
</svg>
