<?xml version="1.0" encoding="UTF-8" standalone="no"?>
<svg
   xmlns:dc="http://purl.org/dc/elements/1.1/"
   xmlns:cc="http://creativecommons.org/ns#"
   xmlns:rdf="http://www.w3.org/1999/02/22-rdf-syntax-ns#"
   xmlns:svg="http://www.w3.org/2000/svg"
   xmlns="http://www.w3.org/2000/svg"
   xmlns:sodipodi="http://sodipodi.sourceforge.net/DTD/sodipodi-0.dtd"
   xmlns:inkscape="http://www.inkscape.org/namespaces/inkscape"
   version="1.0"
   width="494.000000pt"
   height="435.000000pt"
   viewBox="0 0 494.000000 435.000000"
   preserveAspectRatio="xMidYMid meet"
   id="svg28"
   sodipodi:docname="bananapi_colour.svg"
   inkscape:version="0.92.2 2405546, 2018-03-11">
  <defs
     id="defs32" />
  <sodipodi:namedview
     pagecolor="#ffffff"
     bordercolor="#666666"
     borderopacity="1"
     objecttolerance="10"
     gridtolerance="10"
     guidetolerance="10"
     inkscape:pageopacity="0"
     inkscape:pageshadow="2"
     inkscape:window-width="2560"
     inkscape:window-height="1362"
     id="namedview30"
     showgrid="false"
     inkscape:zoom="1.987931"
     inkscape:cx="328.32726"
     inkscape:cy="290"
     inkscape:window-x="0"
     inkscape:window-y="0"
     inkscape:window-maximized="1"
     inkscape:current-layer="svg28" />
  <metadata
     id="metadata10">
Created by potrace 1.15, written by Peter Selinger 2001-2017
<rdf:RDF>
  <cc:Work
     rdf:about="">
    <dc:format>image/svg+xml</dc:format>
    <dc:type
       rdf:resource="http://purl.org/dc/dcmitype/StillImage" />
    <dc:title></dc:title>
  </cc:Work>
</rdf:RDF>
</metadata>
  <g
     transform="translate(0.000000,435.000000) scale(0.100000,-0.100000)"
     fill="#000000"
     stroke="none"
     id="g26"
     style="fill:#005ca0;fill-opacity:1">
    <path
       d="M2465 3430 c-294 -26 -626 -96 -912 -192 l-153 -51 0 -58 0 -58 98 35 c423 154 840 228 1297 228 260 0 427 -16 634 -59 63 -14 116 -23 118 -21 2 1 9 24 17 49 14 46 13 47 -7 52 -281 65 -383 76 -707 80 -157 2 -330 0 -385 -5z"
       id="path12"
       style="fill:#005ca0;fill-opacity:1" />
    <path
       d="M3770 3347 c-48 -17 -80 -67 -80 -127 0 -131 172 -179 240 -67 43 69 13 161 -60 191 -47 19 -53 19 -100 3z"
       id="path14"
       style="fill:#005ca0;fill-opacity:1" />
    <path
       d="M1144 3070 c-384 -192 -652 -409 -821 -662 -180 -271 -218 -562 -104 -812 146 -323 550 -583 1071 -690 249 -51 353 -60 675 -61 165 0 317 4 338 8 37 8 37 8 37 58 l0 51 -122 -9 c-893 -60 -1661 208 -1888 659 -192 384 21 835 565 1195 87 58 235 143 248 143 4 0 7 -268 7 -595 0 -648 2 -628 -58 -696 l-30 -34 139 3 139 3 0 645 c0 745 -12 683 112 584 117 -93 179 -198 194 -328 4 -35 12 -63 20 -66 20 -8 77 36 97 74 13 26 17 48 13 85 -5 47 -4 49 9 25 8 -14 24 -54 36 -90 12 -36 24 -68 26 -73 9 -16 45 17 70 66 24 45 28 64 28 137 0 99 -18 142 -92 221 -94 100 -241 136 -368 89 -33 -12 -79 -24 -102 -27 l-43 -5 0 96 c0 53 -4 96 -9 96 -5 0 -89 -40 -187 -90z m610 -99 c110 -54 179 -160 180 -276 1 -69 -22 -141 -35 -109 -6 16 -8 15 -8 -8 -1 -15 -9 -34 -18 -44 -16 -16 -18 -13 -30 40 -7 31 -22 75 -34 98 -49 97 -198 215 -306 242 -53 14 -67 38 -33 56 29 16 160 -4 226 -34 96 -44 167 -129 194 -233 l10 -38 -5 38 c-14 125 -131 237 -300 289 l-60 18 77 -3 c62 -3 90 -10 142 -36z m-228 -97 c76 -45 128 -96 165 -159 16 -27 29 -45 29 -39 0 12 -50 89 -82 126 -12 14 -45 42 -71 62 -58 43 -50 46 18 7 109 -63 179 -162 180 -258 0 -51 -27 -108 -53 -108 -6 0 -14 -3 -18 -8 -21 -21 -32 -4 -33 50 -1 78 -44 165 -124 247 -34 35 -73 70 -86 79 -23 15 -22 37 3 37 7 0 39 -16 72 -36z"
       id="path16"
       style="fill:#005ca0;fill-opacity:1" />
    <path
       d="M4054 3104 l-22 -45 52 -33 c194 -125 322 -276 382 -451 23 -68 27 -97 28 -190 0 -226 -90 -416 -299 -633 -319 -332 -811 -581 -1414 -716 -62 -15 -124 -26 -137 -26 l-24 0 0 715 0 715 -155 0 -156 0 36 -32 c20 -17 46 -50 58 -72 22 -41 22 -42 25 -758 2 -651 4 -718 19 -718 24 0 246 39 322 56 105 24 394 112 531 160 169 61 480 216 620 309 336 224 548 470 641 745 28 82 33 112 37 221 4 106 1 139 -17 208 -41 158 -146 323 -277 436 -59 51 -210 155 -222 155 -4 -1 -17 -21 -28 -46z"
       id="path18"
       style="fill:#005ca0;fill-opacity:1" />
    <path
       d="M3648 2866 c22 -24 45 -61 51 -82 7 -26 11 -233 11 -601 l0 -563 156 0 157 0 -46 49 c-25 27 -50 65 -56 87 -7 26 -11 229 -11 597 l0 557 -151 0 -152 0 41 -44z"
       id="path20"
       style="fill:#005ca0;fill-opacity:1" />
    <path
       d="M1410 2398 l0 -45 100 -5 c128 -6 198 -38 247 -111 59 -88 70 -256 23 -366 -43 -100 -127 -147 -282 -158 l-88 -6 0 -37 c0 -37 0 -37 47 -43 114 -13 296 23 378 73 50 31 114 106 141 165 49 106 49 287 0 383 -63 124 -186 179 -428 189 l-138 6 0 -45z"
       id="path22"
       style="fill:#005ca0;fill-opacity:1" />
    <path
       d="M2700 2396 l0 -43 98 -5 c112 -6 160 -23 214 -75 59 -58 82 -121 82 -233 1 -121 -20 -187 -78 -244 -51 -51 -117 -75 -229 -83 l-87 -6 0 -42 0 -41 104 3 c115 3 211 21 280 54 136 64 216 203 216 380 0 263 -158 379 -517 379 l-83 0 0 -44z"
       id="path24"
       style="fill:#005ca0;fill-opacity:1" />
  </g>
  <path
     style="fill:#f3d902;fill-opacity:1;stroke-width:0.50303555"
     d="M 193.5625 192.20898 C 191.28722 192.20898 191.01826 194.96711 193.15625 196.37109 C 195.41918 197.85711 203.94012 205.92839 207.48633 209.94531 C 216.61753 220.28856 220.7599 229.16105 221.66992 240.32617 C 221.92414 243.44511 222.37802 246.45781 222.67969 247.02148 C 223.32288 248.2233 224.33277 248.34353 225.18359 247.31836 C 225.51627 246.91751 226.61939 246.32419 227.63477 246 C 230.1067 245.21075 231.96309 243.39006 233.17383 240.56836 C 237.03407 231.57187 234.71743 220.68272 226.83203 210.75977 C 223.60333 206.69679 220.5363 203.8196 215.89844 200.5 C 212.59847 198.138 205.15559 193.98113 204.82227 194.31445 C 204.7076 194.42912 206.71238 196.14634 209.27539 198.12891 C 211.83841 200.11147 215.53263 203.38107 217.48633 205.39648 C 220.87969 208.89701 228.0923 219.15259 229.1875 222.0332 C 230.31284 224.99306 228.57939 223.17539 224.85156 217.48828 C 220.20205 210.39508 214.31464 204.3254 207.76758 199.875 C 202.48392 196.28339 194.93488 192.20898 193.5625 192.20898 z "
     transform="scale(0.74999999)"
     id="path853" />
  <path
     style="fill:#f3d902;fill-opacity:1;stroke-width:0.50303555"
     d="m 247.33952,241.88465 c -0.26427,-0.62251 -0.94463,-3.0044 -1.5119,-5.2931 -2.91922,-11.77772 -6.25458,-17.61299 -15.0185,-26.27516 -9.21482,-9.10785 -19.4478,-15.64328 -29.49834,-18.83951 -7.01705,-2.23154 -8.88424,-4.2104 -6.23585,-6.6088 1.50607,-1.36392 8.4979,-1.57345 15.18608,-0.45511 13.77302,2.30301 22.80703,6.81532 30.63875,15.30344 5.33646,5.78372 8.52488,11.90449 11.68111,22.42409 l 0.75463,2.51518 -0.29397,-3.26973 c -1.5834,-17.61162 -15.63594,-32.03586 -39.0089,-40.04075 l -6.68542,-2.28965 6.79934,0.27978 c 8.16148,0.33583 12.84222,1.42715 18.66913,4.35274 5.45258,2.73764 8.01542,4.50671 11.93936,8.24146 5.89849,5.61409 9.6797,11.98904 11.62662,19.60193 1.86713,7.30093 1.04822,20.41743 -1.46881,23.52583 l -0.90041,1.11195 -0.78298,-1.48097 c -0.88265,-1.66949 -1.12584,-1.31964 -1.53066,2.202 -0.25063,2.18028 -2.42263,6.12621 -3.37211,6.12621 -0.27868,0 -0.72291,-0.50932 -0.98717,-1.13183 z"
     id="path856"
     inkscape:connector-curvature="0"
     transform="scale(0.74999999)" />
</svg>
