<svg version="1.1" id="Layer_1" xmlns="http://www.w3.org/2000/svg" xmlns:xlink="http://www.w3.org/1999/xlink" x="0" y="0" viewBox="0 0 51 70" xml:space="preserve"><style>.st17{fill:#e87a0c}</style><defs><path id="SVGID_1_" d="M0 0h51v70H0z"/></defs><clipPath id="SVGID_2_"><use xlink:href="#SVGID_1_" overflow="visible"/></clipPath><path d="M11.1 69.4c-1.3-.8-1.9-1.6-2-3.1-6.1-.6-4.4-6.7-.4-9.2L8.4 55c-1.9-2.6-13-18.2-4.7-19 .3 0 .5.2.8.4 1.4 2.2 2 5.3 3.3 7.7 1-5.3 1.2-5.5 1.6-6.9-2.8 0-6-2.5-7.6-4.6C1 31.4.6 29.3.6 28.7c-.2-1.4-.3-2.5-.2-3.8.1-.7.9-2.8 1-3 2.6-6 2.1-6.1 5-12.2C8 6.4 8.8 5.8 12.1 4.6c5.2-4.2 11.8-5.7 18-2.7 4.4 2.6 6.1 6.3 8 10.8 3.3 1.2 6.1 2.7 8.8 5 5 1.4 3.7 4.1 3.7 8.5-.6 3.1-.9 3.7-.9 4.3 1.5 3.7.3 9-4.6 7.8-.9-.2-1.4-1.1-2.1-1.7-1.4.5-2.8 1-4.1 1.5.1.6.4 2.1.6 3.1.5 5.4.5 10.2-.7 15.4 3.1 2.3 5.4 5.5 2.2 8.6-.8.8-.9.8-2.7 1.3-.3 1.2-.6 1.8-1.6 2.6-1.4.8-4.5 1-6.3.2-.8-.3-2-.9-3-1.6-1.3-1.4-1.4-2.4-1.8-4.2-1.3 0-2.6.1-3.8.1-.4 2.4-1.4 3.9-3.6 5.3-2.5 1.4-5.3 1.1-7.1.5" clip-path="url(#SVGID_2_)" fill="#231f20"/><defs><path id="SVGID_3_" d="M0 0h51v70H0z"/></defs><clipPath id="SVGID_4_"><use xlink:href="#SVGID_3_" overflow="visible"/></clipPath><path d="M13.5 44.4c.6-3.5 1.1-4.8 4.2-6.3 4.2 0 9 .6 9-4.9-1.7-5.1-3.4-9.2-.3-14 2.4-2.4 3.6-3.7 2.9-7.2-1.5-3.6-3.5-7.1-5.4-10.4 0-.2 0-.2 1.1 0V2c3.8 6.1 4.8 10.1 11.9 11.4 2.8 1.1 5.7 2.4 8.1 4.2-.3.2-.3 0-2.1 1-1.6 1.6-2.7 2.4-2.3 4.4 1.7 3.8 5.4 3.8 8.7 1.9-1.2 6.1-12.6 7.2-17.1 7.8-4.2 2 4.9 3.3 6.1 3.6-3.2 1.3-8.3.6-11.7.6-.1.3-.1.7-.1 1 1.7.2 3.3.3 5 .6 1 1.6 2.2 3.2 2.4 5.2-.7 5.6-.1 11.9.6 17.5.7 1.4 3.2 4.8 1.3 6.1-3.2.6-6.7-.1-7.9-3.1.3-4.8.7-9.6.7-14.3-.1-.3-.2-.6-.3-.8-.2.2-.3.5-.5.8-.3 3.9-.6 7.9-.8 11.8-1.3.6-4.6.2-6.2.2-.4-5.7-.4-5.7-.6-10.6-.4-1.8-.4-1.8-.7-2.3-1.6 4.8.7 10.8.1 15.8-1.7 2.6-4.7 3.1-7.6 2.5-1.9-1.2.6-4.9 1.1-6.3.7-4.9.7-10 .7-14.9-.1-.5-.2-1-.3-1.4.2-.2.1-.3 0-.3" clip-path="url(#SVGID_4_)" fill="#fff"/><defs><path id="SVGID_5_" d="M0 0h51v70H0z"/></defs><clipPath id="SVGID_6_"><use xlink:href="#SVGID_5_" overflow="visible"/></clipPath><path d="M3.1 41.6c.5-.5 1-.9 1.5-1.4C5.7 43.1 7 45.6 9.1 48c.4-3.8 1.1-7.4 2.1-11.1 7.3-.1 12.1-2.2 12.5-10.1-.1-1-.3-1.9-.4-2.9-2.4-7.5-4.3-14.6-4.9-16.1-1-1.8-2.1-2.4-3.8-3.3 3.1-1.8 5.6-3.2 9.3-2.9C25.8 5 27.8 8.5 29.3 12c.7 3.6-.5 4.8-2.9 7.2-3.1 4.8-1.4 8.9.3 14 0 5.5-4.8 4.9-9 4.9-3.1 1.6-3.7 2.8-4.2 6.3-1.1 5-.8 10.8-1.1 15.9-.6 1.3-1.2 2.7-1.8 4.1-3.6 0-4.4-1.4-2.9-4.7.9-1.1 1.8-1.6 3.1-2.3 0-3.6-3.1-6.5-4.8-9.4-1.6-2.9-1.6-2.9-2.9-6.4" clip-path="url(#SVGID_6_)" fill="#b28d2f"/><defs><path id="SVGID_7_" d="M0 0h51v70H0z"/></defs><clipPath id="SVGID_8_"><use xlink:href="#SVGID_7_" overflow="visible"/></clipPath><path d="M34 43.6c-.2-1.9-1.4-3.6-2.4-5.2 1.8-.2 3.7-.4 5.6-.6 1.9 7 1.8 12.4.2 19.5 3.6 1.8 6.5 7.1.2 7.1-.7-1.3-1.3-2.6-1.9-3.8-.3-4.9-.7-9.9-.8-14.9-.1-.8-.3-1.4-.9-2.1" clip-path="url(#SVGID_8_)" fill="#b28d2f"/><defs><path id="SVGID_9_" d="M0 0h51v70H0z"/></defs><clipPath id="SVGID_10_"><use xlink:href="#SVGID_9_" overflow="visible"/></clipPath><path d="M3.1 41.6c-.3-1.3-1-3.1-.3-4.4.3-.2.5-.3.7 0 .5 1.1 1 1.8 1.1 3-.5.5-1 .9-1.5 1.4" clip-path="url(#SVGID_10_)" fill="#fff"/><defs><path id="SVGID_11_" d="M0 0h51v70H0z"/></defs><clipPath id="SVGID_12_"><use xlink:href="#SVGID_11_" overflow="visible"/></clipPath><path d="M45.8 36.4c-1.1-.7-2.9-2.4-3.1-3.6 1.8-.6 3.3-1.4 4.9-2.4 2.1 1.6 1.8 4.4-.2 5.9-.5.2-1.1.2-1.6.1" clip-path="url(#SVGID_12_)" fill="#ee7a22"/><g><defs><path id="SVGID_13_" d="M0 0h51v70H0z"/></defs><clipPath id="SVGID_14_"><use xlink:href="#SVGID_13_" overflow="visible"/></clipPath><path d="M11.4 35.8C-4.8 32.6 4.1 18.1 9.1 8.2c2.8-3.8 6.6-3 8.7.8 1.9 7.2 1.9 7.2 4.1 14.1.6 3.4 1.1 6.3-.8 9.5-3.1 3-5.6 3.1-9.7 3.2" clip-path="url(#SVGID_14_)" fill="#b28d2f"/></g><g><defs><path id="SVGID_15_" d="M0 0h51v70H0z"/></defs><clipPath id="SVGID_16_"><use xlink:href="#SVGID_15_" overflow="visible"/></clipPath><path d="M12.1 34.3c-.6-.2-1.2-.3-1.8-.4 4.3-2.3 7.7-4.4 10.6-8.6.1 0 .2.1.3.1.1 6.5-2.9 8.1-9.1 8.9" clip-path="url(#SVGID_16_)" fill="#9c7a32"/></g><g><defs><path id="SVGID_17_" d="M0 0h51v70H0z"/></defs><clipPath id="SVGID_18_"><use xlink:href="#SVGID_17_" overflow="visible"/></clipPath><path d="M42.6 21.5c0-1.8 4.8-3.6 5.9-2.4-1.4 1.9-3.6 2.3-5.9 2.4" clip-path="url(#SVGID_18_)" fill="#fff"/></g><g><defs><path id="SVGID_19_" d="M0 0h51v70H0z"/></defs><clipPath id="SVGID_20_"><use xlink:href="#SVGID_19_" overflow="visible"/></clipPath><path d="M23.2 14.3c-1.1-.3-2.7-1.3-1.7-3 .4-.5 1.4-.7 2-.8 2.8-.3 4.9 2.3 1.4 3.8-.5.1-1 .2-1.7 0" clip-path="url(#SVGID_20_)" fill="#404041"/></g><g><defs><path id="SVGID_21_" d="M0 0h51v70H0z"/></defs><clipPath id="SVGID_22_"><use xlink:href="#SVGID_21_" overflow="visible"/></clipPath><path d="M25 1.5c4.5.8 8.4 3.1 10.3 7.4-2.5.2-3.4 2-1.1 3.4.7.2 2.3-.1 2.5-.2.1.4.1.9.2 1.2-7-1.1-8-5.1-11.9-11.3v-.5" clip-path="url(#SVGID_22_)" fill="#b28d2f"/></g><g><defs><path id="SVGID_23_" d="M0 0h51v70H0z"/></defs><clipPath id="SVGID_24_"><use xlink:href="#SVGID_23_" overflow="visible"/></clipPath><path d="M22.8 12c-.1-.4-.3-.4-.3-.7.4-.2.4-.2 1.1-.1.1.1-.1.2 0 .4-.2.2-.2.2-.3.4-.4 0-.3-.1-.5 0" clip-path="url(#SVGID_24_)" fill="#fff"/></g><g><defs><path id="SVGID_25_" d="M0 0h51v70H0z"/></defs><clipPath id="SVGID_26_"><use xlink:href="#SVGID_25_" overflow="visible"/></clipPath><path d="M33.9 10.6c-.1-.4-.2-.2.1-.5.9 0 .7-.2.6.6-.3 0-.5-.2-.7-.1" clip-path="url(#SVGID_26_)" fill="#fff"/></g><g><defs><path id="SVGID_27_" d="M0 0h51v70H0z"/></defs><clipPath id="SVGID_28_"><use xlink:href="#SVGID_27_" overflow="visible"/></clipPath><path d="M45.4 31.7c1.1 1 1.8 2.2 2.3 3.9l.2-.2c-.2-1.2-.9-2.4-2.2-3.9-.1 0-.2.1-.3.2" clip-path="url(#SVGID_28_)" fill="#aa3123"/></g><g><defs><path id="SVGID_29_" d="M0 0h51v70H0z"/></defs><clipPath id="SVGID_30_"><use xlink:href="#SVGID_29_" overflow="visible"/></clipPath><path d="M34.2 9.8c.4 0 .6.2.6.5s-.3.5-.6.5-.6-.2-.6-.5.2-.5.6-.5" clip-path="url(#SVGID_30_)" fill="#fff"/></g><g><defs><path id="SVGID_31_" d="M0 0h51v70H0z"/></defs><clipPath id="SVGID_32_"><use xlink:href="#SVGID_31_" overflow="visible"/></clipPath><path d="M23.1 11c.4 0 .7.2.7.6s-.3.6-.7.6c-.4 0-.7-.2-.7-.6 0-.3.3-.6.7-.6" clip-path="url(#SVGID_32_)" fill="#fff"/></g><g><circle cx="39.4" cy="57.2" r="11.2" fill="#383838"/></g><g><path class="st17" d="M34.3 55.8l1.7-3h2l-2.6 4.4 2.6 4.4h-2l-1.7-3.1-1.7 3.1h-2.1l2.6-4.4-2.6-4.4h2.1l1.7 3zM41.4 52.8l2.3 6.4 2.3-6.4h2.4v8.8h-1.8v-2.4l.2-4.2-2.4 6.6H43L40.7 55l.2 4.2v2.4H39v-8.8h2.4z"/></g></svg>