<?xml version="1.0" encoding="utf-8"?>
<!-- Generator: Adobe Illustrator 20.0.0, SVG Export Plug-In . SVG Version: 6.00 Build 0)  -->
<svg version="1.1" id="Layer_1" xmlns="http://www.w3.org/2000/svg" xmlns:xlink="http://www.w3.org/1999/xlink" x="0px" y="0px"
	 viewBox="0 0 54.8 70" style="enable-background:new 0 0 54.8 70;" xml:space="preserve">
<style type="text/css">
	.st0{clip-path:url(#SVGID_2_);fill:#231F20;}
	.st1{clip-path:url(#SVGID_4_);fill:#FFFFFF;}
	.st2{clip-path:url(#SVGID_6_);fill:#B28D2F;}
	.st3{clip-path:url(#SVGID_8_);fill:#B28D2F;}
	.st4{clip-path:url(#SVGID_10_);fill:#FFFFFF;}
	.st5{clip-path:url(#SVGID_12_);fill:#EE7A22;}
	.st6{clip-path:url(#SVGID_14_);fill:#B28D2F;}
	.st7{clip-path:url(#SVGID_16_);fill:#9C7A32;}
	.st8{clip-path:url(#SVGID_18_);fill:#FFFFFF;}
	.st9{clip-path:url(#SVGID_20_);fill:#404041;}
	.st10{clip-path:url(#SVGID_22_);fill:#B28D2F;}
	.st11{clip-path:url(#SVGID_24_);fill:#FFFFFF;}
	.st12{clip-path:url(#SVGID_26_);fill:#FFFFFF;}
	.st13{clip-path:url(#SVGID_28_);fill:#AA3123;}
	.st14{clip-path:url(#SVGID_30_);fill:#FFFFFF;}
	.st15{clip-path:url(#SVGID_32_);fill:#FFFFFF;}
	.st16{fill:#7EB421;stroke:#FFFFFF;stroke-miterlimit:10;}
</style>
<g>
	<g>
		<g>
			<defs>
				<rect id="SVGID_1_" y="0" width="51" height="70"/>
			</defs>
			<clipPath id="SVGID_2_">
				<use xlink:href="#SVGID_1_"  style="overflow:visible;"/>
			</clipPath>
			<path class="st0" d="M11.1,69.4c-1.3-0.8-1.9-1.6-2-3.1c-6.1-0.6-4.4-6.7-0.4-9.2c-0.1-0.7-0.2-1.4-0.3-2.1
				c-1.9-2.6-13-18.2-4.7-19c0.3,0,0.5,0.2,0.8,0.4c1.4,2.2,2,5.3,3.3,7.7c1-5.3,1.2-5.5,1.6-6.9c-2.8,0-6-2.5-7.6-4.6
				c-0.8-1.2-1.2-3.3-1.2-3.9c-0.2-1.4-0.3-2.5-0.2-3.8c0.1-0.7,0.9-2.8,1-3c2.6-6,2.1-6.1,5-12.2C8,6.4,8.8,5.8,12.1,4.6
				c5.2-4.2,11.8-5.7,18-2.7c4.4,2.6,6.1,6.3,8,10.8c3.3,1.2,6.1,2.7,8.8,5c5,1.4,3.7,4.1,3.7,8.5c-0.6,3.1-0.9,3.7-0.9,4.3
				c1.5,3.7,0.3,9-4.6,7.8c-0.9-0.2-1.4-1.1-2.1-1.7c-1.4,0.5-2.8,1-4.1,1.5c0.1,0.6,0.4,2.1,0.6,3.1c0.5,5.4,0.5,10.2-0.7,15.4
				c3.1,2.3,5.4,5.5,2.2,8.6c-0.8,0.8-0.9,0.8-2.7,1.3c-0.3,1.2-0.6,1.8-1.6,2.6c-1.4,0.8-4.5,1-6.3,0.2c-0.8-0.3-2-0.9-3-1.6
				c-1.3-1.4-1.4-2.4-1.8-4.2c-1.3,0-2.6,0.1-3.8,0.1c-0.4,2.4-1.4,3.9-3.6,5.3C15.7,70.3,12.9,70,11.1,69.4"/>
		</g>
	</g>
	<g>
		<g>
			<defs>
				<rect id="SVGID_3_" y="0" width="51" height="70"/>
			</defs>
			<clipPath id="SVGID_4_">
				<use xlink:href="#SVGID_3_"  style="overflow:visible;"/>
			</clipPath>
			<path class="st1" d="M13.5,44.4c0.6-3.5,1.1-4.8,4.2-6.3c4.2,0,9,0.6,9-4.9c-1.7-5.1-3.4-9.2-0.3-14c2.4-2.4,3.6-3.7,2.9-7.2
				c-1.5-3.6-3.5-7.1-5.4-10.4c0-0.2,0-0.2,1.1,0c0,0.1,0,0.3,0,0.4c3.8,6.1,4.8,10.1,11.9,11.4c2.8,1.1,5.7,2.4,8.1,4.2
				c-0.3,0.2-0.3,0-2.1,1c-1.6,1.6-2.7,2.4-2.3,4.4c1.7,3.8,5.4,3.8,8.7,1.9c-1.2,6.1-12.6,7.2-17.1,7.8c-4.2,2,4.9,3.3,6.1,3.6
				c-3.2,1.3-8.3,0.6-11.7,0.6c-0.1,0.3-0.1,0.7-0.1,1c1.7,0.2,3.3,0.3,5,0.6c1,1.6,2.2,3.2,2.4,5.2c-0.7,5.6-0.1,11.9,0.6,17.5
				c0.7,1.4,3.2,4.8,1.3,6.1c-3.2,0.6-6.7-0.1-7.9-3.1c0.3-4.8,0.7-9.6,0.7-14.3c-0.1-0.3-0.2-0.6-0.3-0.8c-0.2,0.2-0.3,0.5-0.5,0.8
				c-0.3,3.9-0.6,7.9-0.8,11.8c-1.3,0.6-4.6,0.2-6.2,0.2c-0.4-5.7-0.4-5.7-0.6-10.6c-0.4-1.8-0.4-1.8-0.7-2.3
				c-1.6,4.8,0.7,10.8,0.1,15.8c-1.7,2.6-4.7,3.1-7.6,2.5c-1.9-1.2,0.6-4.9,1.1-6.3c0.7-4.9,0.7-10,0.7-14.9c-0.1-0.5-0.2-1-0.3-1.4
				C13.7,44.5,13.6,44.4,13.5,44.4"/>
		</g>
	</g>
	<g>
		<g>
			<defs>
				<rect id="SVGID_5_" y="0" width="51" height="70"/>
			</defs>
			<clipPath id="SVGID_6_">
				<use xlink:href="#SVGID_5_"  style="overflow:visible;"/>
			</clipPath>
			<path class="st2" d="M3.1,41.6c0.5-0.5,1-0.9,1.5-1.4C5.7,43.1,7,45.6,9.1,48c0.4-3.8,1.1-7.4,2.1-11.1
				c7.3-0.1,12.1-2.2,12.5-10.1c-0.1-1-0.3-1.9-0.4-2.9C20.9,16.4,19,9.3,18.4,7.8c-1-1.8-2.1-2.4-3.8-3.3c3.1-1.8,5.6-3.2,9.3-2.9
				C25.8,5,27.8,8.5,29.3,12c0.7,3.6-0.5,4.8-2.9,7.2c-3.1,4.8-1.4,8.9,0.3,14c0,5.5-4.8,4.9-9,4.9c-3.1,1.6-3.7,2.8-4.2,6.3
				c-1.1,5-0.8,10.8-1.1,15.9c-0.6,1.3-1.2,2.7-1.8,4.1c-3.6,0-4.4-1.4-2.9-4.7c0.9-1.1,1.8-1.6,3.1-2.3c0-3.6-3.1-6.5-4.8-9.4
				C4.4,45.1,4.4,45.1,3.1,41.6"/>
		</g>
	</g>
	<g>
		<g>
			<defs>
				<rect id="SVGID_7_" y="0" width="51" height="70"/>
			</defs>
			<clipPath id="SVGID_8_">
				<use xlink:href="#SVGID_7_"  style="overflow:visible;"/>
			</clipPath>
			<path class="st3" d="M34,43.6c-0.2-1.9-1.4-3.6-2.4-5.2c1.8-0.2,3.7-0.4,5.6-0.6c1.9,7,1.8,12.4,0.2,19.5
				c3.6,1.8,6.5,7.1,0.2,7.1c-0.7-1.3-1.3-2.6-1.9-3.8c-0.3-4.9-0.7-9.9-0.8-14.9C34.8,44.9,34.6,44.3,34,43.6"/>
		</g>
	</g>
	<g>
		<g>
			<defs>
				<rect id="SVGID_9_" y="0" width="51" height="70"/>
			</defs>
			<clipPath id="SVGID_10_">
				<use xlink:href="#SVGID_9_"  style="overflow:visible;"/>
			</clipPath>
			<path class="st4" d="M3.1,41.6c-0.3-1.3-1-3.1-0.3-4.4c0.3-0.2,0.5-0.3,0.7,0c0.5,1.1,1,1.8,1.1,3C4.1,40.7,3.6,41.1,3.1,41.6"/>
		</g>
	</g>
	<g>
		<g>
			<defs>
				<rect id="SVGID_11_" y="0" width="51" height="70"/>
			</defs>
			<clipPath id="SVGID_12_">
				<use xlink:href="#SVGID_11_"  style="overflow:visible;"/>
			</clipPath>
			<path class="st5" d="M45.8,36.4c-1.1-0.7-2.9-2.4-3.1-3.6c1.8-0.6,3.3-1.4,4.9-2.4c2.1,1.6,1.8,4.4-0.2,5.9
				C46.9,36.5,46.3,36.5,45.8,36.4"/>
		</g>
	</g>
	<g>
		<g>
			<defs>
				<rect id="SVGID_13_" y="0" width="51" height="70"/>
			</defs>
			<clipPath id="SVGID_14_">
				<use xlink:href="#SVGID_13_"  style="overflow:visible;"/>
			</clipPath>
			<path class="st6" d="M11.4,35.8C-4.8,32.6,4.1,18.1,9.1,8.2c2.8-3.8,6.6-3,8.7,0.8c1.9,7.2,1.9,7.2,4.1,14.1
				c0.6,3.4,1.1,6.3-0.8,9.5C18,35.6,15.5,35.7,11.4,35.8"/>
		</g>
	</g>
	<g>
		<g>
			<defs>
				<rect id="SVGID_15_" y="0" width="51" height="70"/>
			</defs>
			<clipPath id="SVGID_16_">
				<use xlink:href="#SVGID_15_"  style="overflow:visible;"/>
			</clipPath>
			<path class="st7" d="M12.1,34.3c-0.6-0.2-1.2-0.3-1.8-0.4c4.3-2.3,7.7-4.4,10.6-8.6c0.1,0,0.2,0.1,0.3,0.1
				C21.3,31.9,18.3,33.5,12.1,34.3"/>
		</g>
	</g>
	<g>
		<g>
			<defs>
				<rect id="SVGID_17_" y="0" width="51" height="70"/>
			</defs>
			<clipPath id="SVGID_18_">
				<use xlink:href="#SVGID_17_"  style="overflow:visible;"/>
			</clipPath>
			<path class="st8" d="M42.6,21.5c0-1.8,4.8-3.6,5.9-2.4C47.1,21,44.9,21.4,42.6,21.5"/>
		</g>
	</g>
	<g>
		<g>
			<defs>
				<rect id="SVGID_19_" y="0" width="51" height="70"/>
			</defs>
			<clipPath id="SVGID_20_">
				<use xlink:href="#SVGID_19_"  style="overflow:visible;"/>
			</clipPath>
			<path class="st9" d="M23.2,14.3c-1.1-0.3-2.7-1.3-1.7-3c0.4-0.5,1.4-0.7,2-0.8c2.8-0.3,4.9,2.3,1.4,3.8
				C24.4,14.4,23.9,14.5,23.2,14.3"/>
		</g>
	</g>
	<g>
		<g>
			<defs>
				<rect id="SVGID_21_" y="0" width="51" height="70"/>
			</defs>
			<clipPath id="SVGID_22_">
				<use xlink:href="#SVGID_21_"  style="overflow:visible;"/>
			</clipPath>
			<path class="st10" d="M25,1.5c4.5,0.8,8.4,3.1,10.3,7.4c-2.5,0.2-3.4,2-1.1,3.4c0.7,0.2,2.3-0.1,2.5-0.2c0.1,0.4,0.1,0.9,0.2,1.2
				c-7-1.1-8-5.1-11.9-11.3C25,1.9,25,1.7,25,1.5"/>
		</g>
	</g>
	<g>
		<g>
			<defs>
				<rect id="SVGID_23_" y="0" width="51" height="70"/>
			</defs>
			<clipPath id="SVGID_24_">
				<use xlink:href="#SVGID_23_"  style="overflow:visible;"/>
			</clipPath>
			<path class="st11" d="M22.8,12c-0.1-0.4-0.3-0.4-0.3-0.7c0.4-0.2,0.4-0.2,1.1-0.1c0.1,0.1-0.1,0.2,0,0.4
				c-0.2,0.2-0.2,0.2-0.3,0.4C22.9,12,23,11.9,22.8,12"/>
		</g>
	</g>
	<g>
		<g>
			<defs>
				<rect id="SVGID_25_" y="0" width="51" height="70"/>
			</defs>
			<clipPath id="SVGID_26_">
				<use xlink:href="#SVGID_25_"  style="overflow:visible;"/>
			</clipPath>
			<path class="st12" d="M33.9,10.6c-0.1-0.4-0.2-0.2,0.1-0.5c0.9,0,0.7-0.2,0.6,0.6C34.3,10.7,34.1,10.5,33.9,10.6"/>
		</g>
	</g>
	<g>
		<g>
			<defs>
				<rect id="SVGID_27_" y="0" width="51" height="70"/>
			</defs>
			<clipPath id="SVGID_28_">
				<use xlink:href="#SVGID_27_"  style="overflow:visible;"/>
			</clipPath>
			<path class="st13" d="M45.4,31.7c1.1,1,1.8,2.2,2.3,3.9c0.1-0.1,0.1-0.1,0.2-0.2c-0.2-1.2-0.9-2.4-2.2-3.9
				C45.6,31.5,45.5,31.6,45.4,31.7"/>
		</g>
	</g>
	<g>
		<g>
			<defs>
				<rect id="SVGID_29_" y="0" width="51" height="70"/>
			</defs>
			<clipPath id="SVGID_30_">
				<use xlink:href="#SVGID_29_"  style="overflow:visible;"/>
			</clipPath>
			<path class="st14" d="M34.2,9.8c0.4,0,0.6,0.2,0.6,0.5s-0.3,0.5-0.6,0.5s-0.6-0.2-0.6-0.5S33.8,9.8,34.2,9.8"/>
		</g>
	</g>
	<g>
		<g>
			<defs>
				<rect id="SVGID_31_" y="0" width="51" height="70"/>
			</defs>
			<clipPath id="SVGID_32_">
				<use xlink:href="#SVGID_31_"  style="overflow:visible;"/>
			</clipPath>
			<path class="st15" d="M23.1,11c0.4,0,0.7,0.2,0.7,0.6s-0.3,0.6-0.7,0.6c-0.4,0-0.7-0.2-0.7-0.6C22.4,11.3,22.7,11,23.1,11"/>
		</g>
	</g>
</g>
<circle class="st16" cx="42.5" cy="52.3" r="11.8"/>
</svg>
