<?xml version="1.0" encoding="UTF-8" standalone="no"?>
<svg width="256px" height="256px" viewBox="0 0 256 256" version="1.1" xmlns="http://www.w3.org/2000/svg" xmlns:xlink="http://www.w3.org/1999/xlink">
    <!-- Generator: Sketch 3.7.2 (28276) - http://www.bohemiancoding.com/sketch -->
    <title>snappy-beaglebone-black copy</title>
    <desc>Created with Sketch.</desc>
    <defs>
        <rect id="path-1" x="0" y="0" width="187.183333" height="255"></rect>
        <rect id="path-3" x="0" y="0" width="187.183333" height="255"></rect>
        <rect id="path-5" x="0" y="0" width="187.183333" height="255"></rect>
        <rect id="path-7" x="0" y="0" width="187.183333" height="255"></rect>
        <rect id="path-9" x="0" y="0" width="187.183333" height="255"></rect>
        <rect id="path-11" x="0" y="0" width="187.183333" height="255"></rect>
        <rect id="path-13" x="0" y="0" width="187.183333" height="255"></rect>
        <rect id="path-15" x="0" y="0" width="187.183333" height="255"></rect>
        <rect id="path-17" x="0" y="0" width="187.183333" height="255"></rect>
    </defs>
    <g id="Page-1" stroke="none" stroke-width="1" fill="none" fill-rule="evenodd">
        <g id="snappy-beaglebone-black-copy">
            <g id="Group" transform="translate(38.000000, 0.000000)">
                <g id="Group-3">
                    <mask id="mask-2" fill="white">
                        <use xlink:href="#path-1"></use>
                    </mask>
                    <g id="path-1"></g>
                    <path d="M40.6413333,252.858 C35.9553333,249.819857 33.7736667,246.989357 33.1613333,241.729071 C10.9633333,239.703643 17.0756667,217.453071 31.5333333,208.345929 C31.1263333,205.715786 30.7193333,203.089286 30.514,200.6595 C23.386,191.151643 -17.138,134.301214 13.2073333,131.470714 C14.19,131.536286 15.2093333,132.141 16.0563333,133.0845 C21.351,140.974929 23.3896667,152.307857 28.072,161.211 C31.7386667,141.991286 32.5526667,141.182571 33.7736667,135.922286 C23.5913333,135.922286 11.7773333,126.895286 6.07933333,119.128714 C2.96633333,114.884786 1.65733333,107.154643 1.64266667,104.943429 C0.806666667,99.8871429 0.583,95.8472143 0.971666667,91.0058571 C1.17333333,88.5068571 4.11766667,80.8532143 4.543,79.9133571 C14.5126667,57.7684286 12.9506667,57.4806429 23.386,35.1681429 C29.084,22.9900714 32.3473333,21.0047143 44.363,16.7571429 C63.3013333,1.38064286 87.736,-3.87964286 110.542667,7.04528571 C126.833667,16.3527857 132.942333,29.9042143 139.868667,46.4937857 C151.877,50.9453571 162.264667,56.4096429 172.036333,64.7044286 C190.369667,69.7607143 185.478333,79.6765714 185.478333,95.6577857 C183.241667,106.783071 182.020667,109.212857 182.020667,111.234643 C187.517,124.789714 183.164667,144.082286 165.117333,139.557857 C161.876,138.7455 159.822667,135.514286 157.380667,133.488857 C152.287667,135.310286 147.202,137.131714 142.314333,138.953143 C142.578333,141.087857 143.806667,146.7015 144.551,150.082071 C146.384333,169.706143 146.384333,187.308429 142.109,206.324143 C153.512333,214.819286 161.927333,226.203214 150.212333,237.678214 C147.297333,240.537857 146.791333,240.712714 140.481,242.534143 C139.465333,246.785357 138.240667,249.2115 134.574,252.042 C129.261,254.919857 118.246333,255.775929 111.485,252.868929 C108.584667,251.623071 104.107667,249.510214 100.364,246.985714 C95.6816667,241.929429 95.073,238.086214 93.852,231.609214 C89.166,231.609214 84.4836667,231.816857 79.7976667,232.013571 C78.3713333,240.913071 74.503,246.377357 66.7663333,251.437286 C57.706,256.081929 47.168,254.828786 40.6413333,252.858" id="Shape" fill="#231F20" mask="url(#mask-2)"></path>
                    <mask id="mask-4" fill="white">
                        <use xlink:href="#path-3"></use>
                    </mask>
                    <g id="path-3"></g>
                    <path d="M49.4523333,161.815714 C51.4873333,149.073 53.526,144.417429 64.9293333,138.749143 C80.2046667,138.749143 97.9183333,140.974929 97.9183333,120.9465 C91.6043333,102.5355 85.294,87.363 96.6973333,69.9647143 C105.655,61.0615714 109.934,56.61 107.488333,43.6632857 C101.992,30.7165714 94.6586667,17.9702143 87.5343333,5.62821429 C87.5343333,5.01985714 87.5343333,5.01985714 91.6043333,5.62821429 C91.6043333,6.23657143 91.6043333,6.84128571 91.8096667,7.44964286 C105.860333,29.7075 109.527,44.2716429 135.589667,48.9272143 C145.977333,52.9707857 156.361333,57.8267143 165.319,64.3037143 C164.387667,64.9594286 164.145667,64.2527143 157.784,67.9465714 C151.877,73.8152143 147.964667,76.7112857 149.435,83.9314286 C155.543667,97.6868571 169.392667,97.6868571 181.408333,91.0131429 C176.927667,113.267357 135.384333,117.110571 118.686333,119.336357 C103.209333,126.622071 136.612667,131.478 140.888,132.286714 C129.074,137.142643 110.546333,134.508857 98.1236667,134.312143 C97.9183333,135.525214 97.7203333,136.738286 97.7203333,137.955 C103.829,138.559714 109.937667,139.164429 116.046333,139.976786 C119.709333,145.841786 123.988333,151.710429 124.802333,158.792143 C122.155,179.024571 124.597,202.287857 127.039,222.520286 C129.69,227.780571 138.856667,239.918571 131.926667,244.7745 C120.321667,246.996643 107.492,244.5705 102.809667,233.445214 C104.030667,216.050571 105.457,198.645 105.457,181.250357 C105.05,180.237643 104.639333,179.224929 104.441333,178.212214 C103.832667,179.024571 103.216667,180.033643 102.608,181.042714 C101.592333,195.4065 100.573,209.773929 99.759,224.137714 C95.0766667,226.3635 82.8556667,224.950071 77.154,224.950071 C75.5223333,204.313286 75.5223333,204.313286 74.9136667,186.507 C73.4873333,180.033643 73.4873333,180.033643 72.468,178.212214 C66.7663333,195.614143 74.9136667,217.464 72.875,235.671 C66.7663333,244.9785 55.77,246.799929 44.979,244.7745 C37.851,240.322929 47.2193333,226.968214 49.049,221.911929 C51.4946667,204.109286 51.6963333,185.497929 51.6963333,167.491286 C51.2893333,165.669857 50.8786667,163.852071 50.677,162.234643 C50.2663333,162.019714 49.8593333,161.815714 49.4523333,161.815714" id="Shape" fill="#FFFFFF" mask="url(#mask-4)"></path>
                    <mask id="mask-6" fill="white">
                        <use xlink:href="#path-5"></use>
                    </mask>
                    <g id="path-5"></g>
                    <path d="M11.374,151.6995 C13.2073333,149.881714 15.0406667,148.264286 16.8703333,146.643214 C20.944,157.364143 25.6263333,166.467643 33.3666667,175.170429 C34.9946667,161.211 37.2386667,148.260643 41.107,134.905929 C67.9873333,134.501571 85.4993333,126.815143 86.9256667,98.2879286 C86.482,94.8126429 85.9833333,91.2863571 85.2976667,87.5633571 C76.7433333,59.8485 69.6153333,33.7474286 67.375,28.2867857 C63.7083333,21.6094286 59.84,19.3872857 53.3243333,16.1487857 C64.526,9.47142857 73.689,4.41514286 87.5343333,5.62821429 C94.6623333,17.9702143 101.995667,30.7165714 107.492,43.6632857 C109.937667,56.6136429 105.658667,61.0615714 96.701,69.9647143 C85.2976667,87.363 91.608,102.5355 97.922,120.9465 C97.922,140.974929 80.2046667,138.752786 64.933,138.752786 C53.5296667,144.417429 51.491,149.073 49.456,161.815714 C45.386,180.022714 46.6033333,201.063857 45.5876667,219.879214 C43.3473333,224.735143 41.107,229.591071 38.8666667,234.647357 C25.8353333,234.647357 22.781,229.591071 28.0756667,217.653429 C31.537,213.609857 34.7966667,211.788429 39.479,209.358643 C39.479,196.211571 28.281,185.687357 21.7616667,175.170429 C16.2616667,164.4495 16.2616667,164.4495 11.374,151.6995" id="Shape" fill="#B28D2F" mask="url(#mask-6)"></path>
                    <mask id="mask-8" fill="white">
                        <use xlink:href="#path-7"></use>
                    </mask>
                    <g id="path-7"></g>
                    <path d="M124.798667,158.781214 C123.984667,151.6995 119.705667,145.8345 116.042667,139.965857 C122.76,139.157143 129.686333,138.548786 136.609,137.944071 C143.531667,163.436786 143.124667,183.257571 137.217667,208.954286 C150.450667,215.427643 161.043667,234.847714 137.826333,234.847714 C135.384333,230.195786 133.144,225.540214 130.903667,220.888286 C129.682667,202.885286 128.461667,184.674643 128.054667,166.467643 C127.446,163.436786 126.837333,161.211 124.798667,158.781214" id="Shape" fill="#B28D2F" mask="url(#mask-8)"></path>
                    <mask id="mask-10" fill="white">
                        <use xlink:href="#path-9"></use>
                    </mask>
                    <g id="path-9"></g>
                    <path d="M11.374,151.6995 C10.3546667,146.847214 7.70733333,140.570571 10.153,135.718286 C11.1173333,134.829429 11.9753333,134.574429 12.8003333,135.718286 C14.6336667,139.5615 16.467,142.191643 16.874,146.643214 C15.0406667,148.260643 13.2073333,149.881714 11.374,151.6995" id="Shape" fill="#FFFFFF" mask="url(#mask-10)"></path>
                    <mask id="mask-12" fill="white">
                        <use xlink:href="#path-11"></use>
                    </mask>
                    <g id="path-11"></g>
                    <path d="M167.973667,132.479786 C163.9,130.05 157.380667,123.780643 156.772,119.329071 C163.287667,117.307286 168.780333,114.068786 174.691,110.429571 C182.427667,116.294571 181.206667,126.614786 173.873333,131.878714 C171.838333,132.942429 169.807,132.953357 167.973667,132.479786" id="Shape" fill="#EE7A22" mask="url(#mask-12)"></path>
                    <mask id="mask-14" fill="white">
                        <use xlink:href="#path-13"></use>
                    </mask>
                    <g id="path-13"></g>
                    <path d="M41.712,130.458 C-17.545,118.724357 15.037,66.1178571 33.3666667,29.7038571 C43.7543333,15.7407857 57.398,18.7752857 65.1346667,32.7383571 C72.061,58.8357857 72.061,58.8357857 80.2046667,84.1245 C82.2396667,96.6668571 84.4066667,107.191071 77.3556667,118.720714 C66.1503333,129.849643 56.9873333,130.053643 41.712,130.458" id="Shape" fill="#B28D2F" mask="url(#mask-14)"></path>
                    <mask id="mask-16" fill="white">
                        <use xlink:href="#path-15"></use>
                    </mask>
                    <g id="path-15"></g>
                    <path d="M44.363,124.793357 C42.1226667,124.185 39.8823333,123.580286 37.8473333,123.172286 C53.7313333,114.677143 66.1503333,107.191071 76.7396667,92.0185714 C77.1466667,92.0185714 77.5536667,92.2225714 77.9606667,92.4229286 C77.9643333,116.090571 66.968,122.163214 44.363,124.793357" id="Shape" fill="#9C7A32" mask="url(#mask-16)"></path>
                    <mask id="mask-18" fill="white">
                        <use xlink:href="#path-17"></use>
                    </mask>
                    <g id="path-17"></g>
                    <path d="M156.365,78.4598571 C156.365,71.9865 174.082333,65.5131429 178.152333,69.5603571 C172.857667,76.4380714 164.714,77.8551429 156.365,78.4598571" id="Shape" fill="#FFFFFF" mask="url(#mask-18)"></path>
                    <path d="M84.8943333,52.1001429 C80.8866667,51.0910714 75.1116667,47.5065 78.7746667,41.0331429 C80.344,39.2918571 83.831,38.3993571 86.2876667,38.1407143 C96.393,37.0587857 104.184667,46.6905 91.4026667,52.0600714 C89.298,52.5627857 87.659,52.7959286 84.8943333,52.1001429" id="Shape" fill="#404041" mask="url(#mask-18)"></path>
                    <path d="M91.6043333,5.62821429 C108.100667,8.45871429 122.558333,16.7571429 129.275667,32.7383571 C120.112667,33.5470714 116.651333,40.0204286 125.407333,45.0803571 C127.849333,45.8089286 133.752667,44.7415714 134.698667,44.3845714 C134.904,45.8016429 135.179,47.5065 135.586,48.9235714 C109.523333,44.2716429 105.856667,29.7038571 91.806,7.44964286 C91.6043333,6.84128571 91.6043333,6.23657143 91.6043333,5.62821429" id="Shape" fill="#B28D2F" mask="url(#mask-18)"></path>
                    <path d="M83.4606667,43.6632857 C83.0536667,42.2462143 82.4413333,42.2462143 82.2396667,41.0367857 C83.666,40.4284286 83.666,40.4284286 86.108,40.6324286 C86.515,41.0367857 85.7816667,41.4411429 86.1886667,42.0495 C85.5763333,42.8582143 85.4553333,42.7744286 85.0446667,43.5867857 C84.029,43.5831429 84.2746667,43.4592857 83.4606667,43.6632857" id="Shape" fill="#FFFFFF" mask="url(#mask-18)"></path>
                    <path d="M124.351333,38.4430714 C123.944333,36.8256429 123.739,37.8784286 124.553,36.6617143 C127.812667,36.6617143 127.240667,35.7728571 126.628333,38.8073571 C125.612667,39.0077143 125.165333,38.2427143 124.351333,38.4430714" id="Shape" fill="#FFFFFF" mask="url(#mask-18)"></path>
                    <path d="M166.397,115.351071 C170.258,119.106857 173.092333,123.427286 175.006333,129.569143 C175.233667,129.197571 175.530667,129.121071 175.754333,128.753143 C175.017333,124.563857 172.601,119.984786 167.673,114.607929 C167.321,114.903 166.749,115.052357 166.397,115.351071" id="Shape" fill="#AA3123" mask="url(#mask-18)"></path>
                    <path d="M125.293667,35.8785 C126.591667,35.8785 127.655,36.7054286 127.655,37.7217857 C127.655,38.7381429 126.595333,39.5650714 125.293667,39.5650714 C123.992,39.5650714 122.932333,38.7381429 122.932333,37.7217857 C122.932333,36.7054286 123.992,35.8785 125.293667,35.8785" id="Shape" fill="#FFFFFF" mask="url(#mask-18)"></path>
                    <g id="Group-2" mask="url(#mask-18)">
                        <g transform="translate(117.000000, 156.000000)"></g>
                    </g>
                </g>
                <circle id="Combined-Shape-Copy" fill="#7EB421" cx="162.5" cy="201.5" r="45.4233622"></circle>
                <path d="M192.647733,192.739477 C184.949811,185.041554 174.685915,180.376147 163.022396,180.376147 C151.358877,180.376147 140.861711,185.041554 133.397059,192.739477 C132.930518,193.206017 132.697248,193.672558 132.697248,194.372369 C132.697248,195.07218 132.930518,195.538721 133.397059,196.005262 L136.662844,199.271047 C137.595926,200.204128 138.995548,200.204128 139.928629,199.271047 C145.760389,193.439288 153.924852,189.706962 163.022396,189.706962 C172.119941,189.706962 180.284404,193.439288 186.116163,199.271047 C187.049244,200.204128 188.448867,200.204128 189.381948,199.271047 L192.647733,196.005262 C193.114274,195.538721 193.347545,195.07218 193.347545,194.372369 C193.347545,193.672558 193.114274,192.972747 192.647733,192.739477 L192.647733,192.739477 Z" id="Shape" fill="#FFFFFF"></path>
                <path d="M163.022396,199.037777 C156.490826,199.037777 150.892337,201.603751 146.69347,205.802617 C145.760389,206.735699 145.760389,208.135321 146.69347,209.068403 L149.959255,212.334188 C150.892337,213.267269 152.291959,213.267269 153.22504,212.334188 C155.791015,209.768214 159.29007,208.368591 163.022396,208.368591 C166.754722,208.368591 170.253778,210.001484 172.819752,212.334188 C173.752833,213.267269 175.152455,213.267269 176.085537,212.334188 L179.351322,209.068403 C180.284404,208.135321 180.284404,206.735699 179.351322,205.802617 C175.152455,201.603751 169.553967,199.037777 163.022396,199.037777 L163.022396,199.037777 Z" id="Shape" fill="#FFFFFF"></path>
                <ellipse id="Oval" fill="#FFFFFF" cx="163.022396" cy="222.364814" rx="4.66540745" ry="4.66540745"></ellipse>
            </g>
        </g>
    </g>
</svg>