<?xml version="1.0" encoding="UTF-8"?>
<svg width="59px" height="35px" viewBox="0 0 59 35" version="1.1" xmlns="http://www.w3.org/2000/svg" xmlns:xlink="http://www.w3.org/1999/xlink">
    <!-- Generator: Sketch 42 (36781) - http://www.bohemiancoding.com/sketch -->
    <title>disruptive-technologies</title>
    <desc>Created with Sketch.</desc>
    <defs></defs>
    <g id="Page-1" stroke="none" stroke-width="1" fill="none" fill-rule="evenodd">
        <path d="M13.4872829,34.0758245 L0,34.0758245 L0,0 L13.4361947,0 C24.113627,0 31.5214149,6.79472963 31.5214149,17.0123682 C31.5214149,27.3321831 24.113627,34.0758245 13.4872829,34.0758245 Z M13.4361947,27.6898005 C20.1798361,27.6898005 24.113627,22.8364221 24.113627,17.0123682 C24.113627,11.0350496 20.4352771,6.38602409 13.4872829,6.38602409 L7.25452337,6.38602409 L7.25452337,27.6898005 L13.4361947,27.6898005 Z M49.0888906,34.0758245 L49.0888906,6.38602409 L59,6.38602409 L59,0 L31.8210815,0 L31.8210815,6.38602409 L41.7832791,6.38602409 L41.7832791,34.0758245 L49.0888906,34.0758245 Z" id="disruptive-technologies" fill="#1A1918"></path>
    </g>
</svg>
