<?xml version="1.0" encoding="utf-8"?>
<!-- Generator: Adobe Illustrator 20.1.0, SVG Export Plug-In . SVG Version: 6.00 Build 0)  -->
<svg version="1.1"
	 id="svg2328" inkscape:output_extension="org.inkscape.output.svg.inkscape" inkscape:version="0.45.1" sodipodi:docbase="C:\Documents and Settings\Alex Broersma.D2KY7761\Desktop" sodipodi:docname="aa.svg" sodipodi:version="0.32" xmlns:cc="http://web.resource.org/cc/" xmlns:dc="http://purl.org/dc/elements/1.1/" xmlns:inkscape="http://www.inkscape.org/namespaces/inkscape" xmlns:rdf="http://www.w3.org/1999/02/22-rdf-syntax-ns#" xmlns:sodipodi="http://sodipodi.sourceforge.net/DTD/sodipodi-0.dtd" xmlns:svg="http://www.w3.org/2000/svg"
	 xmlns="http://www.w3.org/2000/svg" xmlns:xlink="http://www.w3.org/1999/xlink" x="0px" y="0px" viewBox="0 0 293 316.3"
	 style="enable-background:new 0 0 293 316.3;" xml:space="preserve">
<style type="text/css">
	.st0{fill:#127CC1;}
	.st1{font-family:'ArialMT';}
	.st2{font-size:13.8854px;}
	.st3{clip-path:url(#SVGID_2_);fill:#127CC1;}
</style>
<sodipodi:namedview  bordercolor="#666666" borderopacity="1.0" gridtolerance="10.0" guidetolerance="10.0" id="base" inkscape:current-layer="svg2328" inkscape:cx="219.80302" inkscape:cy="131.76504" inkscape:pageopacity="0.0" inkscape:pageshadow="2" inkscape:window-height="844" inkscape:window-width="1440" inkscape:window-x="-4" inkscape:window-y="-4" inkscape:zoom="4.0618557" objecttolerance="10.0" pagecolor="#ffffff">
	</sodipodi:namedview>
<path id="path6" class="st0" d="M291.3,55.1C277.5-12.1,147.5-16.4,63.7,34.8v5.7C147.4-2.7,266.1-2.5,277,59.4
	c3.6,20.5-7.8,41.8-28.4,54.1v16.1C273.3,120.5,298.6,91.1,291.3,55.1 M138.9,172.7c-57.8,5.4-118.1-3.1-126.5-48.4
	c-4.2-22.3,6-46,19.5-60.8v-7.9C7.6,77-5.6,104,2.1,135.8c9.7,40.9,61.4,64.1,140.3,56.4c31.3-3,72.2-13.1,100.5-28.8v-22.3
	C217.1,156.6,174.5,169.4,138.9,172.7z"/>
<path id="path8" class="st0" d="M238.3,45.3h-15.2v67.8c0,8,3.8,14.9,15.2,16"/>
<path id="path10" class="st0" d="M57.7,70.1H42.6v44.3c0,8,3.8,14.9,15.2,16"/>
<rect id="rect12" x="42.6" y="47.4" class="st0" width="15.2" height="14.4"/>
<path id="path14" class="st0" d="M148.6,129.7c-12.3,0-17.5-8.6-17.5-17V53.8h15v16.3h11.4v12.2h-11.4v29.4c0,3.5,1.7,5.4,5.2,5.4
	h6.1v12.6H148.6"/>
<path id="path16" class="st0" d="M188.4,81.6c-5.1,0-9.1,2.7-10.7,6.3c-1,2.2-1.3,3.8-1.5,6.5h23.2
	C199.1,87.8,196.1,81.6,188.4,81.6 M176.2,104.6c0,7.7,4.8,13.4,13.3,13.4c6.7,0,10-1.9,13.8-5.7l9.3,8.9c-6,5.9-12.2,9.5-23.2,9.5
	c-14.4,0-28.2-7.9-28.2-30.9c0-19.6,12-30.7,27.8-30.7c16,0,25.2,13,25.2,30.1v5.4L176.2,104.6"/>
<path id="path18" class="st0" d="M98.6,82.3c4.4,0,6.2,2.2,6.2,5.7v41.7h15V88c0-8.5-4.5-17.9-17.7-17.9h-31v59.7h15V82.3"/>
<text transform="matrix(1.0217 0 0 1 246.897 55.2614)" class="st0 st1 st2">®</text>
<g>
	<defs>
		<path id="SVGID_1_" d="M284.1,295.2L257.5,262l-8.3,9.1v24.2h-5.6v-97h5.6v66.2l33.5-37.5h7l-28.4,31.4l29.9,36.9H284.1z
			 M236.3,232.2c-0.9-0.4-1.7-0.7-2.3-0.8c-0.7-0.2-1.4-0.2-2.3-0.2c-1.8,0-3.5,0.2-5,0.6c-1.5,0.4-3.1,1.1-4.8,2.2
			c-1.7,1-3.5,2.5-5.5,4.3s-4.4,4.1-7.2,6.9v50h-5.6v-68.3h5.6v12.4c2.3-2.4,4.5-4.4,6.4-6.1c1.9-1.7,3.7-3.1,5.5-4.2
			c1.7-1.1,3.5-1.9,5.1-2.4c1.7-0.5,3.5-0.8,5.4-0.8c1.1,0,2.2,0.1,3.2,0.3c1,0.2,2,0.6,3,1L236.3,232.2z M184.1,256.7l-13.7,1.4
			c-4.8,0.5-8.7,1.2-11.7,2.1c-3,0.9-5.3,2.1-7,3.5c-1.7,1.4-2.9,3.1-3.5,5.1c-0.6,2-0.9,4.3-0.9,7c0,5.8,1,10.1,2.9,12.7
			c1.9,2.6,5.1,4,9.5,4c1.5,0,3-0.2,4.5-0.5c1.5-0.3,3.1-1,4.9-2s3.9-2.5,6.3-4.3s5.3-4.3,8.7-7.3V256.7z M184.1,295.2v-11.3
			c-2.1,2-4.2,3.7-6.1,5.4c-2,1.6-3.9,3-5.9,4.2c-2,1.2-4,2.1-6.1,2.8c-2.1,0.7-4.3,1-6.7,1c-3.2,0-5.9-0.5-8.2-1.4
			c-2.3-0.9-4.1-2.3-5.5-4.1c-1.4-1.8-2.5-4-3.2-6.7c-0.7-2.6-1-5.7-1-9.1c0-3,0.3-5.7,1-8.2c0.7-2.5,2.1-4.8,4.1-6.7
			c2.1-2,5-3.6,8.7-5c3.8-1.3,8.7-2.3,14.8-2.9l14-1.4v-3.6c0-3.1-0.3-5.9-0.8-8.2c-0.6-2.3-1.6-4.3-3-5.8c-1.4-1.5-3.3-2.7-5.6-3.5
			c-2.3-0.8-5.3-1.1-8.8-1.1c-2.8,0-5.2,0.2-7.3,0.7c-2,0.5-3.7,1.1-5.2,2c-1.4,0.8-2.6,1.8-3.6,2.9c-1,1.1-1.8,2.3-2.5,3.6
			l-4.1-2.7c1-1.7,2.2-3.3,3.6-4.7c1.3-1.4,2.9-2.6,4.7-3.5c1.8-1,3.9-1.7,6.2-2.2c2.4-0.5,5.1-0.8,8.2-0.8c4.4,0,8.2,0.5,11.2,1.4
			c3,0.9,5.5,2.4,7.4,4.3c1.9,2,3.2,4.4,4,7.4c0.8,3,1.2,6.6,1.2,10.7v46.4H184.1z M125.4,295.2v-11.5c-4.5,4.1-8.7,7.4-12.6,9.8
			c-4,2.4-7.8,3.6-11.6,3.6c-3.6,0-6.5-0.5-8.8-1.6c-2.3-1.1-4.1-2.7-5.4-4.8c-1.3-2.1-2.2-4.7-2.7-7.8c-0.5-3.1-0.7-6.6-0.7-10.5
			v-45.7h5.6v44.8c0,4.3,0.2,7.7,0.7,10.4c0.5,2.6,1.2,4.7,2.2,6.3c1,1.5,2.3,2.6,3.8,3.1c1.5,0.5,3.4,0.8,5.4,0.8
			c6.6,0,14.6-4.8,24.1-14.3v-51h5.6v68.3H125.4z M66.2,250.1c0-6.6-0.5-12.6-1.5-17.7c-1-5.2-2.6-9.5-4.8-13.1
			c-2.2-3.5-5.2-6.2-8.8-8.1c-3.6-1.8-8.1-2.8-13.3-2.8c-5.3,0-9.7,0.9-13.4,2.8c-3.6,1.8-6.5,4.5-8.8,8.1
			c-2.2,3.5-3.8,7.9-4.8,13.1c-1,5.2-1.5,11.1-1.5,17.7c0,6.6,0.5,12.4,1.5,17.6c1,5.2,2.6,9.5,4.8,13.1s5.1,6.3,8.8,8.1
			c3.6,1.9,8.1,2.8,13.4,2.8c5.3,0,9.7-0.9,13.3-2.8c3.6-1.8,6.6-4.5,8.8-8.1c2.2-3.6,3.8-7.9,4.8-13.1
			C65.8,262.7,66.2,256.8,66.2,250.1z M72.7,312.9c-1.8,0.7-3.8,1.3-5.9,1.7s-4.1,0.6-6.1,0.6c-3.5,0-6.7-0.4-9.4-1.2
			c-2.8-0.8-5.2-2-7.3-3.6c-2.1-1.6-3.9-3.5-5.4-5.7c-1.5-2.2-2.7-4.8-3.7-7.7c-5.2-0.4-9.8-1.6-13.7-3.6c-4-2-7.2-4.9-9.9-8.7
			c-2.6-3.8-4.6-8.6-6-14.3c-1.3-5.7-2-12.5-2-20.4c0-7.4,0.7-14,2-19.9c1.3-5.8,3.4-10.7,6.2-14.8c2.8-4,6.4-7.1,10.7-9.2
			c4.4-2.1,9.6-3.2,15.7-3.2c11.8,0,20.5,3.9,26.1,11.7c5.6,7.8,8.3,19.6,8.3,35.2c0,6.9-0.6,13.1-1.7,18.7
			c-1.1,5.6-2.9,10.3-5.4,14.4c-2.5,4-5.7,7.2-9.7,9.6c-4,2.4-8.8,3.8-14.6,4.3c0.8,2,1.7,3.8,2.8,5.4c1.1,1.6,2.5,2.9,4.1,4
			c1.6,1.1,3.5,1.9,5.6,2.5c2.1,0.6,4.5,0.9,7.3,0.9c0.8,0,1.7-0.1,2.7-0.2c1-0.1,2-0.2,2.9-0.4c1-0.2,1.8-0.4,2.7-0.6
			c0.8-0.2,1.5-0.4,2-0.7L72.7,312.9z"/>
	</defs>
	<use xlink:href="#SVGID_1_"  style="overflow:visible;fill-rule:evenodd;clip-rule:evenodd;fill:#127CC1;"/>
	<clipPath id="SVGID_2_">
		<use xlink:href="#SVGID_1_"  style="overflow:visible;"/>
	</clipPath>
	<rect x="-18.4" y="176.5" class="st3" width="331.3" height="160.3"/>
</g>
</svg>
