<?xml version="1.0" encoding="UTF-8"?>
<svg width="74px" height="118px" viewBox="0 0 74 118" version="1.1" xmlns="http://www.w3.org/2000/svg" xmlns:xlink="http://www.w3.org/1999/xlink">
    <!-- Generator: Sketch 42 (36781) - http://www.bohemiancoding.com/sketch -->
    <title>Group Copy</title>
    <desc>Created with Sketch.</desc>
    <defs></defs>
    <g id="Page-1" stroke="none" stroke-width="1" fill="none" fill-rule="evenodd">
        <g id="Group-Copy">
            <g id="variscite" transform="translate(0.810478, 0.000000)" fill-rule="nonzero">
                <g id="Page-1">
                    <g id="Variscite">
                        <ellipse id="Oval" fill="#FFFFFF" cx="35.4822804" cy="35.5089588" rx="34.0770416" ry="34.1026634"></ellipse>
                        <path d="M35.1309707,70.31477 C15.7286713,70.31477 0,54.5742726 0,35.157385 C0,15.7404974 15.7286713,0 35.1309707,0 C54.5332701,0 70.2619414,15.7404974 70.2619414,35.157385 C70.2619414,54.5742726 54.5332701,70.31477 35.1309707,70.31477 Z M41.6210357,65.1175914 L59.3591211,11.638623 L47.2343539,11.638623 L35.1844309,49.238682 L35.0347424,49.238682 L23.134508,11.638623 L11.084585,11.638623 L28.3736049,65.1175914 L41.6210357,65.1175914 Z" id="variscite" fill="#0055A5"></path>
                    </g>
                </g>
            </g>
            <path d="M7.23857494,80.1776834 L7.23857494,89.5960618 L8.46400491,89.5960618 C11.1599509,89.5960618 12.6304668,88.1734942 12.6304668,84.8378185 C12.6304668,81.1587645 11.4295455,80.1776834 8.34146192,80.1776834 L7.23857494,80.1776834 Z M9.0522113,93.7166023 L1.45454545,93.7166023 L1.45454545,76.0571429 L9.1992629,76.0571429 C14.885258,76.0571429 18.4144963,78.7060618 18.4144963,84.5189672 C18.4144963,91.1657915 14.7136978,93.7166023 9.0522113,93.7166023 Z M30.2766585,87.7074807 L28.4140049,81.3795077 L26.6248771,87.7074807 L30.2766585,87.7074807 Z M24.860258,93.7166023 L19.1987715,93.7166023 L25.5219902,76.0571429 L31.4040541,76.0571429 L37.7272727,93.7166023 L31.9677518,93.7166023 L31.2815111,91.3865347 L25.5219902,91.3865347 L24.860258,93.7166023 Z M45.2759214,80.1776834 L45.2759214,83.6850483 L47.5552211,83.6850483 C49.3443489,83.6850483 50.3001843,83.2435618 50.3001843,82.0172104 C50.3001843,80.766332 49.3198403,80.1776834 47.9718673,80.1776834 L45.2759214,80.1776834 Z M47.0405405,87.5603185 L45.2759214,87.5603185 L45.2759214,93.7166023 L39.4918919,93.7166023 L39.4918919,76.0571429 L47.8248157,76.0571429 C53.7068796,76.0571429 55.643059,77.6513996 55.643059,81.0851834 C55.643059,83.1209266 54.7362408,84.8378185 52.6775184,85.4019402 C54.540172,86.0886969 55.6675676,86.5301834 55.6675676,90.0866023 C55.6675676,92.3921429 55.5940418,93.1770077 56.2802826,93.1770077 L56.2802826,93.7166023 L50.4227273,93.7166023 C50.2756757,93.3241699 50.1286241,92.1959266 50.1286241,90.6261969 C50.1286241,88.3206564 49.7364865,87.5603185 47.0405405,87.5603185 Z M57.8243243,80.692751 L63.0201474,80.692751 L63.0201474,93.7166023 L68.8041769,93.7166023 L68.8041769,80.692751 L74,80.692751 L74,76.0571429 L57.8243243,76.0571429 L57.8243243,80.692751 Z M19.1865172,109.476164 C17.4464066,109.525218 16.7846744,110.604407 16.7846744,111.953393 C16.7846744,113.204272 17.8630528,114.185353 19.0884828,114.185353 C20.5835074,114.185353 21.343274,113.253326 21.343274,111.781704 C21.343274,110.408191 20.4609644,109.476164 19.1865172,109.476164 Z M26.0244165,104.497177 L21.2697482,104.791501 C21.0001536,103.834947 20.2158784,103.417988 19.2110258,103.417988 C17.3238636,103.417988 16.5395885,105.13488 16.5640971,107.391366 C17.9365786,106.434812 18.9659398,106.140488 20.608016,106.140488 C24.6274263,106.140488 26.4410627,109.25542 26.4410627,111.73265 C26.4410627,115.951299 23.4265049,117.83988 19.5296376,117.83988 C14.5053747,117.83988 11.4172912,115.11738 11.4172912,108.838461 C11.4172912,103.516096 14.1622543,99.9351501 18.9659398,99.9351501 C22.2010749,99.9351501 25.2891585,100.989812 26.0244165,104.497177 Z M28.8183968,109.770488 C28.8183968,115.853191 31.8574631,117.937988 37.3228808,117.937988 C43.1804361,117.937988 45.8028563,115.460758 45.8028563,109.795015 L45.8028563,99.812515 L40.0188268,99.812515 L40.0188268,110.383664 C40.0188268,112.296772 39.4061118,113.621231 37.3228808,113.621231 C34.9455467,113.621231 34.6024263,112.125083 34.6024263,110.383664 L34.6024263,99.812515 L28.8183968,99.812515 L28.8183968,109.770488 Z M63.1059275,117.471974 L63.1059275,113.351434 L55.1651413,113.351434 L55.1651413,99.812515 L49.3811118,99.812515 L49.3811118,117.471974 L63.1059275,117.471974 Z" id="DART-6UL" fill="#0055A5"></path>
        </g>
    </g>
</svg>