<?xml version="1.0" encoding="utf-8"?>
<!-- Generator: Adobe Illustrator 22.1.0, SVG Export Plug-In . SVG Version: 6.00 Build 0)  -->
<svg version="1.1" id="Layer_1" xmlns="http://www.w3.org/2000/svg" xmlns:xlink="http://www.w3.org/1999/xlink" x="0px" y="0px"
	 viewBox="0 0 56.7 68" style="enable-background:new 0 0 56.7 68;" xml:space="preserve">
<style type="text/css">
	.st0{fill:#0055A5;}
	.st1{fill:#FFFFFF;}
	.st2{fill:#474747;}
</style>
<g>
	<circle class="st0" cx="28.3" cy="25.5" r="21.3"/>
	<polygon class="st1" points="28.3,34.1 35.5,11.4 42.9,11.4 32.7,43.7 24,43.7 13.8,11.4 21.2,11.4 	"/>
</g>
<g>
	<path class="st2" d="M5.9,63c0-0.1,0-0.3-0.1-0.4s-0.1-0.2-0.2-0.3S5.3,62.1,5.1,62s-0.5-0.2-0.8-0.3c-0.4-0.1-0.8-0.3-1.1-0.4
		s-0.6-0.3-0.9-0.6S1.8,60.2,1.6,60s-0.2-0.6-0.2-1c0-0.4,0.1-0.7,0.2-1s0.4-0.5,0.7-0.8s0.6-0.4,1-0.5s0.8-0.2,1.3-0.2
		c0.5,0,0.9,0.1,1.3,0.2s0.7,0.3,1,0.5s0.5,0.5,0.6,0.8s0.2,0.7,0.2,1.1H5.9c0-0.2,0-0.3-0.1-0.5s-0.1-0.3-0.3-0.4s-0.3-0.2-0.4-0.3
		S4.8,58,4.5,58c-0.2,0-0.4,0-0.6,0.1s-0.3,0.1-0.4,0.2s-0.2,0.2-0.3,0.3S3.2,58.9,3.2,59c0,0.3,0.1,0.5,0.4,0.7s0.7,0.4,1.3,0.5
		c0.5,0.1,0.9,0.3,1.2,0.5s0.6,0.4,0.9,0.6s0.4,0.5,0.5,0.8s0.2,0.6,0.2,0.9c0,0.4-0.1,0.7-0.2,1c-0.1,0.3-0.4,0.5-0.6,0.7
		s-0.6,0.4-1,0.5s-0.8,0.2-1.3,0.2c-0.3,0-0.6,0-0.8-0.1S3.2,65.2,3,65.1s-0.5-0.2-0.7-0.4s-0.4-0.3-0.6-0.5
		c-0.2-0.2-0.3-0.4-0.4-0.7s-0.1-0.6-0.1-0.9h1.8c0,0.3,0,0.5,0.1,0.7s0.2,0.3,0.3,0.4s0.3,0.2,0.5,0.2S4.4,64,4.6,64
		c0.2,0,0.4,0,0.6-0.1s0.3-0.1,0.4-0.2s0.2-0.2,0.2-0.3S5.9,63.1,5.9,63z"/>
	<path class="st2" d="M15.8,61.2c0,0.7-0.1,1.2-0.3,1.8s-0.4,1-0.7,1.3c-0.3,0.4-0.7,0.6-1.1,0.8s-0.9,0.3-1.5,0.3s-1-0.1-1.5-0.3
		s-0.8-0.5-1.2-0.8c-0.3-0.4-0.6-0.8-0.8-1.3s-0.3-1.1-0.3-1.8v-0.4c0-0.6,0.1-1.2,0.3-1.8s0.4-1,0.7-1.3s0.7-0.6,1.1-0.8
		s0.9-0.3,1.5-0.3s1,0.1,1.5,0.3s0.8,0.5,1.1,0.8s0.6,0.8,0.7,1.3s0.3,1.1,0.3,1.8V61.2z M14,60.8c0-0.9-0.2-1.6-0.5-2
		s-0.8-0.7-1.4-0.7s-1.1,0.2-1.4,0.7s-0.5,1.1-0.5,2v0.4c0,0.4,0,0.8,0.1,1.2s0.2,0.6,0.4,0.9s0.4,0.4,0.6,0.5s0.5,0.2,0.8,0.2
		c0.6,0,1-0.2,1.4-0.7s0.5-1.2,0.5-2V60.8z"/>
	<path class="st2" d="M19.2,56.7l2.2,6.2l2.2-6.2h2.3v8.5h-1.8v-2.3l0.2-4L22,65.2h-1.2l-2.3-6.4l0.2,4v2.3h-1.8v-8.5H19.2z"/>
	<path class="st2" d="M30.5,62.3h-3.3v-1.4h3.3V62.3z"/>
	<path class="st2" d="M34.2,56.7l2.2,6.2l2.2-6.2h2.3v8.5h-1.8v-2.3l0.2-4l-2.3,6.4h-1.2l-2.3-6.4l0.2,4v2.3h-1.8v-8.5H34.2z"/>
	<path class="st2" d="M45.4,59.7l1.6-2.9h2l-2.5,4.2l2.5,4.3h-2l-1.6-3l-1.6,3h-2l2.5-4.3l-2.5-4.2h2L45.4,59.7z"/>
	<path class="st2" d="M55.5,57.7l-3.3,7.6h-1.8l3.3-7.2h-4.2v-1.4h6V57.7z"/>
</g>
</svg>
