<?xml version="1.0" encoding="utf-8"?>
<!-- Generator: Adobe Illustrator 22.0.1, SVG Export Plug-In . SVG Version: 6.00 Build 0)  -->
<svg version="1.1" id="Layer_1" xmlns="http://www.w3.org/2000/svg" xmlns:xlink="http://www.w3.org/1999/xlink" x="0px" y="0px"
	 viewBox="0 0 56.7 68" style="enable-background:new 0 0 56.7 68;" xml:space="preserve">
<style type="text/css">
	.st0{fill:#0055A5;}
	.st1{fill:#FFFFFF;}
	.st2{fill:#474747;}
</style>
<g>
	<circle class="st0" cx="28.3" cy="25.5" r="21.3"/>
	<polygon class="st1" points="28.3,34.1 35.5,11.4 42.9,11.4 32.7,43.7 24,43.7 13.8,11.4 21.2,11.4 	"/>
</g>
<g>
	<path class="st2" d="M9.7,57.4c0-0.3,0.1-0.5,0.3-0.6s0.4-0.2,0.7-0.2c0.1,0,0.3,0,0.4,0.1s0.2,0.1,0.3,0.2s0.1,0.2,0.2,0.3
		s0.1,0.2,0.1,0.3c0,0.1,0,0.2-0.1,0.4s-0.1,0.2-0.2,0.3s-0.2,0.1-0.3,0.2s-0.2,0.1-0.4,0.1s-0.3,0-0.4-0.1S10,58.1,9.9,58
		s-0.1-0.2-0.2-0.3S9.7,57.5,9.7,57.4z M11.4,65.4H9.7V59h1.7V65.4z"/>
	<path class="st2" d="M15.3,56.8l2.2,6.2l2.2-6.2h2.3v8.5h-1.8V63l0.2-4L18,65.4h-1.2L14.5,59l0.2,4v2.3H13v-8.5H15.3z"/>
	<path class="st2" d="M26.6,59.8l1.6-2.9h2l-2.5,4.2l2.5,4.3h-2l-1.6-3l-1.6,3h-2l2.5-4.3L23,56.8h2L26.6,59.8z"/>
	<path class="st2" d="M36.6,59.1c0,0.4-0.1,0.8-0.3,1.1s-0.5,0.6-0.9,0.8c0.4,0.2,0.7,0.5,1,0.8s0.4,0.8,0.4,1.2
		c0,0.4-0.1,0.8-0.2,1.1s-0.3,0.6-0.6,0.8s-0.6,0.4-0.9,0.5s-0.7,0.2-1.1,0.2c-0.4,0-0.8-0.1-1.1-0.2s-0.7-0.3-0.9-0.5
		c-0.3-0.2-0.5-0.5-0.6-0.8S31,63.4,31,63c0-0.5,0.1-0.9,0.4-1.2s0.6-0.6,1-0.8c-0.4-0.2-0.6-0.4-0.9-0.8s-0.3-0.7-0.3-1.1
		c0-0.4,0.1-0.7,0.2-1s0.3-0.5,0.6-0.7c0.2-0.2,0.5-0.4,0.9-0.5s0.7-0.2,1.1-0.2s0.8,0.1,1.1,0.2s0.6,0.3,0.9,0.5s0.4,0.5,0.6,0.7
		S36.6,58.7,36.6,59.1z M35,62.9c0-0.2,0-0.4-0.1-0.5s-0.1-0.3-0.2-0.4s-0.2-0.2-0.4-0.2s-0.3-0.1-0.5-0.1s-0.3,0-0.5,0.1
		S33.1,61.9,33,62s-0.2,0.2-0.2,0.4s-0.1,0.3-0.1,0.5s0,0.4,0.1,0.5s0.1,0.3,0.2,0.4s0.2,0.2,0.4,0.2s0.3,0.1,0.5,0.1
		c0.4,0,0.7-0.1,0.9-0.3S35,63.3,35,62.9z M34.9,59.2c0-0.3-0.1-0.6-0.3-0.8s-0.4-0.3-0.7-0.3c-0.3,0-0.6,0.1-0.7,0.3
		s-0.3,0.5-0.3,0.8c0,0.3,0.1,0.6,0.3,0.8s0.4,0.3,0.7,0.3s0.6-0.1,0.7-0.3S34.9,59.5,34.9,59.2z"/>
	<path class="st2" d="M40.4,56.8l2.2,6.2l2.2-6.2H47v8.5h-1.8V63l0.2-4l-2.3,6.4H42L39.7,59l0.2,4v2.3h-1.8v-8.5H40.4z"/>
</g>
</svg>
