<?xml version="1.0" encoding="utf-8"?>
<!-- Generator: Adobe Illustrator 23.0.2, SVG Export Plug-In . SVG Version: 6.00 Build 0)  -->
<svg version="1.1" id="Layer_1" xmlns="http://www.w3.org/2000/svg" xmlns:xlink="http://www.w3.org/1999/xlink" x="0px" y="0px"
	 viewBox="0 0 56.7 68" style="enable-background:new 0 0 56.7 68;" xml:space="preserve">
<style type="text/css">
	.st0{fill:#0055A5;}
	.st1{fill:#FFFFFF;}
	.st2{fill:#474747;}
</style>
<g>
	<circle class="st0" cx="28.3" cy="23" r="21.3"/>
	<polygon class="st1" points="28.3,31.6 35.5,8.9 42.9,8.9 32.7,41.2 24,41.2 13.8,8.9 21.2,8.9 	"/>
</g>
<g>
	<path class="st2" d="M9.7,47.7c0-0.3,0.1-0.5,0.3-0.6s0.4-0.2,0.7-0.2c0.1,0,0.3,0,0.4,0.1s0.2,0.1,0.3,0.2s0.1,0.2,0.2,0.3
		s0.1,0.2,0.1,0.3s0,0.2-0.1,0.4s-0.1,0.2-0.2,0.3s-0.2,0.1-0.3,0.2s-0.2,0.1-0.4,0.1s-0.3,0-0.4-0.1s-0.3-0.3-0.4-0.4
		S9.8,48.1,9.7,48S9.7,47.8,9.7,47.7z M11.4,55.7H9.7v-6.4h1.7V55.7z"/>
	<path class="st2" d="M15.3,47.1l2.2,6.2l2.2-6.2H22v8.5h-1.8v-2.3l0.2-4L18,55.7h-1.2l-2.3-6.4l0.2,4v2.3H13v-8.5
		C13,47.1,15.3,47.1,15.3,47.1z"/>
	<path class="st2" d="M26.6,50.1l1.6-2.9h2l-2.5,4.2l2.5,4.3h-2l-1.6-3l-1.6,3h-2l2.5-4.3L23,47.1h2L26.6,50.1z"/>
	<path class="st2" d="M36.6,49.4c0,0.4-0.1,0.8-0.3,1.1s-0.5,0.6-0.9,0.8c0.4,0.2,0.7,0.5,1,0.8s0.4,0.8,0.4,1.2s-0.1,0.8-0.2,1.1
		S36.3,55,36,55.2s-0.6,0.4-0.9,0.5s-0.7,0.2-1.1,0.2c-0.4,0-0.8-0.1-1.1-0.2s-0.7-0.3-0.9-0.5c-0.3-0.2-0.5-0.5-0.6-0.8
		S31,53.7,31,53.3c0-0.5,0.1-0.9,0.4-1.2s0.6-0.6,1-0.8c-0.4-0.2-0.6-0.4-0.9-0.8s-0.3-0.7-0.3-1.1c0-0.4,0.1-0.7,0.2-1
		s0.3-0.5,0.6-0.7c0.2-0.2,0.5-0.4,0.9-0.5S33.6,47,34,47s0.8,0.1,1.1,0.2s0.6,0.3,0.9,0.5s0.4,0.5,0.6,0.7S36.6,49,36.6,49.4z
		 M35,53.2c0-0.2,0-0.4-0.1-0.5s-0.1-0.3-0.2-0.4s-0.2-0.2-0.4-0.2S34,52,33.8,52s-0.3,0-0.5,0.1s-0.2,0.1-0.3,0.2s-0.2,0.2-0.2,0.4
		s-0.1,0.3-0.1,0.5s0,0.4,0.1,0.5s0.1,0.3,0.2,0.4s0.2,0.2,0.4,0.2s0.3,0.1,0.5,0.1c0.4,0,0.7-0.1,0.9-0.3S35,53.6,35,53.2z
		 M34.9,49.5c0-0.3-0.1-0.6-0.3-0.8s-0.4-0.3-0.7-0.3s-0.6,0.1-0.7,0.3s-0.3,0.5-0.3,0.8s0.1,0.6,0.3,0.8s0.4,0.3,0.7,0.3
		s0.6-0.1,0.7-0.3S34.9,49.8,34.9,49.5z"/>
	<path class="st2" d="M40.4,47.1l2.2,6.2l2.2-6.2H47v8.5h-1.8v-2.3l0.2-4l-2.3,6.4H42l-2.3-6.4l0.2,4v2.3h-1.8v-8.5
		C38.1,47.1,40.4,47.1,40.4,47.1z"/>
</g>
<g>
	<path class="st2" d="M19.4,65.2v-4.8h0.9V61c0.3-0.5,0.9-0.8,1.5-0.8c0.6,0,1.2,0.3,1.4,0.9c0.4-0.7,1-0.9,1.6-0.9
		c0.8,0,1.7,0.6,1.7,1.8v3.1h-0.9v-3c0-0.6-0.3-1.1-1-1.1c-0.7,0-1.1,0.5-1.1,1.2v2.9h-0.9v-3c0-0.6-0.3-1.1-1-1.1
		c-0.7,0-1.1,0.5-1.1,1.2v2.9H19.4z"/>
	<path class="st2" d="M28.5,57.9c0.4,0,0.7,0.3,0.7,0.7c0,0.4-0.3,0.7-0.7,0.7c-0.4,0-0.7-0.3-0.7-0.7
		C27.8,58.2,28.1,57.9,28.5,57.9z M28,65.2v-4.8h0.9v4.8H28z"/>
	<path class="st2" d="M31.5,65.2h-0.9v-4.8h0.9V61c0.3-0.6,0.9-0.8,1.5-0.8c1.1,0,1.7,0.8,1.7,1.9v3h-0.9v-2.9
		c0-0.7-0.3-1.2-1.1-1.2c-0.7,0-1.1,0.6-1.1,1.3V65.2z"/>
	<path class="st2" d="M36.6,57.9c0.4,0,0.7,0.3,0.7,0.7c0,0.4-0.3,0.7-0.7,0.7c-0.4,0-0.7-0.3-0.7-0.7
		C35.9,58.2,36.2,57.9,36.6,57.9z M36.1,65.2v-4.8h0.9v4.8H36.1z"/>
</g>
</svg>
