<?xml version="1.0" encoding="utf-8"?>
<!-- Generator: Adobe Illustrator 21.1.0, SVG Export Plug-In . SVG Version: 6.00 Build 0)  -->
<svg version="1.1" id="Layer_1" xmlns="http://www.w3.org/2000/svg" xmlns:xlink="http://www.w3.org/1999/xlink" x="0px" y="0px"
	 viewBox="0 0 103 150" style="enable-background:new 0 0 103 150;" xml:space="preserve">
<style type="text/css">
	.st0{fill:#019999;}
</style>
<g>
	<path class="st0" d="M0,0v125.2h103V0H0z M77,97.5c-6.4,5.7-14.2,8.3-22.6,9c-8.4,0.7-16.9,0.3-25.2-1.1c-3-0.5-5.9-1.2-8.8-1.8
		c0-5.8,0-11.3,0-17.1c0.7,0.2,1.3,0.3,1.8,0.5c7.5,2.4,15.1,4,23,4.2c3.8,0.1,7.6-0.1,11.2-1.8c4.3-2,6.1-8.4,0.8-11.8
		c-1.4-0.9-3-1.6-4.6-2.3c-6.4-2.9-13-5.4-19.3-8.6c-8.3-4.3-13.9-10.8-14.7-20.5c-0.6-6.6,1.1-12.4,5.6-17.3
		c5.3-5.6,12-8.4,19.5-9.6c2.3-0.4,4.7-0.6,7-0.7c8.6-0.4,17.2,0.9,25.6,2.6c0.2,0,1.7,0.2,1.7,0.5c0,5.6,0,10.9,0,16.1
		c-0.2,0-0.3,0-0.4,0c-0.6-0.2-1.2-0.4-1.8-0.6c-7-2.4-14.1-4.1-21.5-4c-3.6,0.1-7.1,0.8-10,3.2c-2.8,2.4-2.9,5.8-0.1,8.2
		c1.3,1.1,2.8,2,4.3,2.8c5.8,2.9,11.7,5.5,17.5,8.5c3.3,1.7,6.6,3.7,9.5,5.9C88.5,71.8,86.3,89.2,77,97.5z"/>
	<rect y="129.8" class="st0" width="3.4" height="19.9"/>
	<path class="st0" d="M21.3,132.2c-0.7-0.8-1.6-1.5-2.6-1.9c-1-0.4-2.1-0.7-3.4-0.7c-1.2,0-2.3,0.2-3.3,0.7c-1,0.4-1.9,1.1-2.6,1.9
		c-0.7,0.8-1.3,1.9-1.7,3.1c-0.4,1.2-0.6,2.6-0.6,4.1v1c0,1.5,0.2,2.9,0.6,4.1c0.4,1.2,1,2.2,1.7,3c0.7,0.8,1.6,1.5,2.6,1.9
		c1,0.4,2.1,0.7,3.3,0.7c1.2,0,2.4-0.2,3.4-0.7c1-0.4,1.9-1.1,2.6-1.9c0.7-0.8,1.3-1.8,1.7-3c0.4-1.2,0.6-2.6,0.6-4.1v-1
		c0-1.5-0.2-2.9-0.6-4.1C22.6,134,22,133,21.3,132.2z M20.1,140.3c0,2.2-0.4,3.9-1.2,5.1c-0.8,1.2-2,1.7-3.5,1.7
		c-0.7,0-1.4-0.1-2-0.4c-0.6-0.3-1.1-0.7-1.5-1.3c-0.4-0.6-0.7-1.3-1-2.2c-0.2-0.9-0.3-1.8-0.3-3v-1c0-1.1,0.1-2.1,0.3-2.9
		c0.2-0.9,0.5-1.6,1-2.1c0.4-0.6,0.9-1,1.5-1.3c0.6-0.3,1.3-0.4,2-0.4c0.8,0,1.4,0.1,2,0.4c0.6,0.3,1.1,0.7,1.5,1.3s0.7,1.3,0.9,2.1
		c0.2,0.9,0.3,1.8,0.3,2.9V140.3z"/>
	<polygon class="st0" points="24.4,132.6 30.6,132.6 30.6,149.7 34,149.7 34,132.6 40.2,132.6 40.2,129.8 24.4,129.8 	"/>
	<path class="st0" d="M50.9,142.3c0.6-0.6,1.1-1.2,1.6-1.8c0.5-0.6,0.9-1.2,1.3-1.8c0.4-0.6,0.6-1.2,0.8-1.8
		c0.2-0.6,0.3-1.2,0.3-1.8c0-0.8-0.1-1.6-0.4-2.3c-0.3-0.7-0.7-1.3-1.2-1.7c-0.5-0.5-1.2-0.8-2-1.1c-0.8-0.3-1.7-0.4-2.7-0.4
		c-1.1,0-2,0.2-2.9,0.5c-0.8,0.3-1.5,0.8-2.1,1.4c-0.6,0.6-1,1.2-1.3,2c-0.3,0.8-0.4,1.6-0.4,2.5h3.3c0-0.5,0.1-1,0.2-1.5
		c0.1-0.5,0.4-0.8,0.6-1.2c0.3-0.3,0.6-0.6,1.1-0.8c0.4-0.2,0.9-0.3,1.5-0.3c0.5,0,0.9,0.1,1.3,0.2c0.4,0.2,0.7,0.4,0.9,0.7
		c0.3,0.3,0.4,0.6,0.6,1c0.1,0.4,0.2,0.8,0.2,1.3c0,0.3,0,0.7-0.1,1c-0.1,0.3-0.2,0.7-0.5,1.1c-0.2,0.4-0.5,0.8-0.9,1.3
		c-0.4,0.5-0.8,1-1.4,1.6l-6.5,7.1v2.3h13.4v-2.7h-9.2L50.9,142.3z"/>
	<path class="st0" d="M69.4,131.5c-0.6-0.7-1.3-1.2-2.1-1.5c-0.8-0.3-1.7-0.5-2.7-0.5c-1,0-1.9,0.2-2.7,0.5
		c-0.8,0.3-1.5,0.8-2.1,1.5c-0.6,0.7-1,1.6-1.3,2.7c-0.3,1.1-0.5,2.4-0.5,4v3.2c0,1.6,0.2,2.9,0.5,4c0.3,1.1,0.8,2,1.3,2.7
		c0.6,0.7,1.3,1.2,2.1,1.5c0.8,0.3,1.7,0.5,2.7,0.5c1,0,1.9-0.2,2.7-0.5c0.8-0.3,1.5-0.8,2-1.5c0.6-0.7,1-1.6,1.3-2.7
		c0.3-1.1,0.5-2.4,0.5-4v-3.2c0-1.6-0.2-2.9-0.5-4C70.4,133,70,132.2,69.4,131.5z M67.9,141.8c0,1-0.1,1.9-0.2,2.6
		c-0.1,0.7-0.3,1.3-0.6,1.7c-0.3,0.4-0.6,0.8-1,1c-0.4,0.2-0.8,0.3-1.4,0.3c-0.5,0-1-0.1-1.4-0.3c-0.4-0.2-0.7-0.5-1-1
		s-0.5-1-0.6-1.7c-0.1-0.7-0.2-1.6-0.2-2.6v-4.2c0-1,0.1-1.9,0.2-2.5c0.1-0.7,0.3-1.2,0.6-1.7c0.3-0.4,0.6-0.7,1-0.9
		c0.4-0.2,0.8-0.3,1.4-0.3c0.5,0,1,0.1,1.4,0.3c0.4,0.2,0.7,0.5,1,0.9c0.3,0.4,0.5,1,0.6,1.7c0.1,0.7,0.2,1.5,0.2,2.5V141.8z"/>
	<path class="st0" d="M85.3,131.5c-0.6-0.7-1.3-1.2-2.1-1.5c-0.8-0.3-1.7-0.5-2.7-0.5c-1,0-1.9,0.2-2.7,0.5
		c-0.8,0.3-1.5,0.8-2.1,1.5c-0.6,0.7-1,1.6-1.3,2.7c-0.3,1.1-0.5,2.4-0.5,4v3.2c0,1.6,0.2,2.9,0.5,4c0.3,1.1,0.8,2,1.3,2.7
		c0.6,0.7,1.3,1.2,2.1,1.5c0.8,0.3,1.7,0.5,2.7,0.5c1,0,1.9-0.2,2.7-0.5c0.8-0.3,1.5-0.8,2-1.5c0.6-0.7,1-1.6,1.3-2.7
		c0.3-1.1,0.5-2.4,0.5-4v-3.2c0-1.6-0.2-2.9-0.5-4C86.3,133,85.9,132.2,85.3,131.5z M83.8,141.8c0,1-0.1,1.9-0.2,2.6
		c-0.1,0.7-0.3,1.3-0.6,1.7c-0.3,0.4-0.6,0.8-1,1c-0.4,0.2-0.8,0.3-1.4,0.3c-0.5,0-1-0.1-1.4-0.3c-0.4-0.2-0.7-0.5-1-1
		s-0.5-1-0.6-1.7c-0.1-0.7-0.2-1.6-0.2-2.6v-4.2c0-1,0.1-1.9,0.2-2.5c0.1-0.7,0.3-1.2,0.6-1.7c0.3-0.4,0.6-0.7,1-0.9
		c0.4-0.2,0.8-0.3,1.4-0.3c0.5,0,1,0.1,1.4,0.3c0.4,0.2,0.7,0.5,1,0.9c0.3,0.4,0.5,1,0.6,1.7c0.1,0.7,0.2,1.5,0.2,2.5V141.8z"/>
	<path class="st0" d="M101.2,131.5c-0.6-0.7-1.3-1.2-2.1-1.5c-0.8-0.3-1.7-0.5-2.7-0.5c-1,0-1.9,0.2-2.7,0.5
		c-0.8,0.3-1.5,0.8-2.1,1.5c-0.6,0.7-1,1.6-1.3,2.7c-0.3,1.1-0.5,2.4-0.5,4v3.2c0,1.6,0.2,2.9,0.5,4c0.3,1.1,0.8,2,1.3,2.7
		c0.6,0.7,1.3,1.2,2.1,1.5c0.8,0.3,1.7,0.5,2.7,0.5c1,0,1.9-0.2,2.7-0.5c0.8-0.3,1.5-0.8,2-1.5c0.6-0.7,1-1.6,1.3-2.7
		c0.3-1.1,0.5-2.4,0.5-4v-3.2c0-1.6-0.2-2.9-0.5-4C102.2,133,101.8,132.2,101.2,131.5z M99.7,141.8c0,1-0.1,1.9-0.2,2.6
		c-0.1,0.7-0.3,1.3-0.6,1.7c-0.3,0.4-0.6,0.8-1,1c-0.4,0.2-0.8,0.3-1.4,0.3c-0.5,0-1-0.1-1.4-0.3c-0.4-0.2-0.7-0.5-1-1
		s-0.5-1-0.6-1.7c-0.1-0.7-0.2-1.6-0.2-2.6v-4.2c0-1,0.1-1.9,0.2-2.5c0.1-0.7,0.3-1.2,0.6-1.7c0.3-0.4,0.6-0.7,1-0.9
		c0.4-0.2,0.8-0.3,1.4-0.3c0.5,0,1,0.1,1.4,0.3c0.4,0.2,0.7,0.5,1,0.9c0.3,0.4,0.5,1,0.6,1.7c0.1,0.7,0.2,1.5,0.2,2.5V141.8z"/>
</g>
</svg>
