<?xml version="1.0" encoding="utf-8"?>
<!-- Generator: Adobe Illustrator 23.0.1, SVG Export Plug-In . SVG Version: 6.00 Build 0)  -->
<svg version="1.1" id="Layer_1" xmlns="http://www.w3.org/2000/svg" xmlns:xlink="http://www.w3.org/1999/xlink" x="0px" y="0px"
	 viewBox="0 0 53 56" style="enable-background:new 0 0 53 56;" xml:space="preserve">
<style type="text/css">
	.st0{fill:#77B900;}
</style>
<title>Nvidia_logo</title>
<desc>Created with Sketch.</desc>
<path class="st0" d="M5.8,14.8c0,0,4.7-6.9,14-7.6V4.7C9.4,5.6,0.5,14.3,0.5,14.3s5.1,14.7,19.3,16v-2.7C9.3,26.3,5.8,14.8,5.8,14.8
	z"/>
<path class="st0" d="M19.8,22.4v2.4c-7.9-1.4-10.1-9.6-10.1-9.6s3.8-4.2,10.1-4.9V13l0,0c-3.3-0.4-5.9,2.7-5.9,2.7
	S15.3,20.9,19.8,22.4L19.8,22.4z"/>
<path class="st0" d="M19.8,0.1v4.6c0.3,0,0.6,0,0.9-0.1c11.8-0.4,19.4,9.6,19.4,9.6S31.3,25,22.1,25c-0.8,0-1.6-0.1-2.4-0.2v2.9
	c0.6,0.1,1.3,0.1,2,0.1c8.5,0,14.7-4.4,20.7-9.5c1,0.8,5,2.7,5.9,3.6c-5.7,4.8-18.9,8.6-26.4,8.6c-0.7,0-1.4,0-2.1-0.1v4h32.4V0.1
	H19.8z"/>
<path class="st0" d="M19.8,10.3V7.2c0.3,0,0.6,0,0.9,0c8.5-0.3,14,7.3,14,7.3s-6,8.3-12.4,8.3c-0.9,0-1.8-0.1-2.5-0.4V13
	c3.3,0.4,4,1.9,5.9,5.1l4.4-3.7c0,0-3.2-4.2-8.6-4.2C20.9,10.2,20.3,10.3,19.8,10.3L19.8,10.3z"/>
<g>
	<path d="M5.3,44.7l2.3-4h2.2l-3.3,5.4l3.4,5.5H7.7l-2.4-4l-2.4,4H0.8l3.4-5.5l-3.3-5.4H3L5.3,44.7z"/>
	<path d="M17.4,49.1h-4.2l-0.9,2.5h-2l4.1-10.9h1.7l4.1,10.9h-2L17.4,49.1z M13.7,47.6h3.2L15.3,43L13.7,47.6z"/>
	<path d="M24.8,49.3l2.8-8.6h2.1l-3.9,10.9h-1.8L20,40.7h2.1L24.8,49.3z"/>
	<path d="M32.9,51.6H31V40.7h1.9V51.6z"/>
	<path d="M41.6,46.8h-4.5v3.4h5.2v1.5h-7.1V40.7h7.1v1.5h-5.2v3h4.5V46.8z"/>
	<path d="M48,47.4h-2.1v4.2H44V40.7h3.8c0.6,0,1.2,0.1,1.7,0.2c0.5,0.1,0.9,0.4,1.2,0.6c0.3,0.3,0.6,0.6,0.8,1
		c0.2,0.4,0.3,0.9,0.3,1.4c0,0.7-0.2,1.3-0.5,1.8c-0.4,0.5-0.8,0.9-1.5,1.1l2.5,4.6v0.1h-2L48,47.4z M45.9,45.9h2
		c0.3,0,0.6,0,0.9-0.1c0.3-0.1,0.5-0.2,0.6-0.4c0.2-0.2,0.3-0.4,0.4-0.6c0.1-0.2,0.1-0.5,0.1-0.7c0-0.3,0-0.5-0.1-0.8
		c-0.1-0.2-0.2-0.4-0.4-0.6c-0.2-0.2-0.4-0.3-0.6-0.4c-0.3-0.1-0.6-0.1-0.9-0.1h-1.9V45.9z"/>
</g>
</svg>
