<?xml version="1.0" encoding="UTF-8" standalone="no"?> <!-- Created with Vectornator for iOS (http://vectornator.io/) --><!DOCTYPE svg PUBLIC "-//W3C//DTD SVG 1.1//EN" "http://www.w3.org/Graphics/SVG/1.1/DTD/svg11.dtd">
<svg height="100%" width="100%" xmlns="http://www.w3.org/2000/svg" xml:space="preserve" xmlns:xlink="http://www.w3.org/1999/xlink" viewBox="0 0 64 64" version="1.1" style="fill-rule:nonzero;clip-rule:evenodd;stroke-linecap:round;stroke-linejoin:round;" xmlns:vectornator="http://vectornator.io">
<metadata>
<vectornator:setting key="WDOutlineMode" value="false"/>
<vectornator:setting key="WDRulersVisible" value="true"/>
<vectornator:setting value="false" key="WDSnapToPoints"/>
<vectornator:setting value="Pixels" key="WDUnits"/>
<vectornator:setting key="VNDimensionsVisible" value="true"/>
<vectornator:setting key="WDGuidesVisible" value="true"/>
<vectornator:setting key="WDDynamicGuides" value="false"/>
<vectornator:setting key="UndoHistoryDisabled" value="true"/>
<vectornator:setting value="false" key="WDSnapToEdges"/>
<vectornator:setting key="WDSnapToGrid" value="false"/>
<vectornator:setting value="true" key="VNSnapToGuides"/>
<vectornator:setting value="false" key="WDDisplayWhiteBackground"/>
<vectornator:setting key="WDIsolateActiveLayer" value="false"/>
<vectornator:setting key="WDCMYKEnabledKey" value="false"/>
<vectornator:setting value="false" key="IsTimeLapseWatermarkDisabled"/>
</metadata>
<defs/>
<g vectornator:layerName="Layer 1" id="Layer 1">
<g opacity="1">
<path d="M3.092+6.01606e-14L3.092+38.2654C23.3753+47.7049+48.3102+41.8687+61.3456+23.954L61.3456+0L3.092+6.01606e-14ZM17.7501+20.7567C16.1274+20.7567+14.9374+19.6402+14.9374+18.1177C14.9374+16.5952+16.3437+15.2757+17.9664+15.2757C19.5891+15.2757+20.9954+16.5952+20.9954+18.1177C20.779+19.5895+19.5891+20.7567+17.7501+20.7567ZM46.6875+20.7567C45.0649+20.7567+43.6586+19.4372+43.6586+17.9147C43.6586+16.3922+45.0649+15.0727+46.6875+15.0727C48.3102+15.0727+49.7165+16.3922+49.7165+17.9147C49.5002+19.5895+48.3102+20.7567+46.6875+20.7567Z" opacity="1" fill="#44c144"/>
<path d="M3.092+46.3854L3.092+54.3024L61.3456+54.3024L61.3456+34.51C39.656+56.5354+12.1248+49.1767+3.092+46.3854Z" opacity="1" fill="#44c144"/>
</g>
<g opacity="1">
<path fill="#000000" d="M9.10346+61.8447L9.10346+56.1181L10.2285+56.1181L12.5722+59.9424L12.5722+56.1181L13.6464+56.1181L13.6464+61.8447L12.4863+61.8447L10.1777+58.1103L10.1777+61.8447L9.10346+61.8447Z" opacity="1"/>
<path fill="#000000" opacity="1" d="M15.6816+58.9619L14.6855+58.7822C14.7975+58.3812+14.9902+58.0843+15.2636+57.8916C15.5371+57.6989+15.9433+57.6025+16.4824+57.6025C16.9719+57.6025+17.3365+57.6605+17.5761+57.7763C17.8157+57.8922+17.9843+58.0394+18.082+58.2177C18.1796+58.3961+18.2285+58.7236+18.2285+59.2002L18.2167+60.4814C18.2167+60.846+18.2343+61.1149+18.2695+61.2881C18.3046+61.4612+18.3704+61.6468+18.4667+61.8447L17.3808+61.8447C17.3522+61.7718+17.317+61.6637+17.2753+61.5205C17.2571+61.4554+17.2441+61.4124+17.2363+61.3916C17.0488+61.5739+16.8482+61.7106+16.6347+61.8017C16.4212+61.8929+16.1933+61.9385+15.9511+61.9385C15.524+61.9385+15.1874+61.8226+14.9413+61.5908C14.6953+61.359+14.5722+61.0661+14.5722+60.7119C14.5722+60.4775+14.6282+60.2685+14.7402+60.0849C14.8522+59.9013+15.0091+59.7607+15.2109+59.6631C15.4127+59.5654+15.7037+59.4801+16.0839+59.4072C16.5969+59.3108+16.9524+59.221+17.1503+59.1377L17.1503+59.0283C17.1503+58.8174+17.0982+58.667+16.9941+58.5771C16.8899+58.4873+16.6933+58.4424+16.4042+58.4424C16.2089+58.4424+16.0566+58.4808+15.9472+58.5576C15.8378+58.6344+15.7493+58.7692+15.6816+58.9619ZM17.1503+59.8525C17.0097+59.8994+16.7871+59.9554+16.4824+60.0205C16.1777+60.0856+15.9785+60.1494+15.8847+60.2119C15.7415+60.3135+15.6699+60.4424+15.6699+60.5986C15.6699+60.7523+15.7272+60.8851+15.8417+60.997C15.9563+61.109+16.1022+61.165+16.2792+61.165C16.4772+61.165+16.666+61.0999+16.8456+60.9697C16.9785+60.8707+17.0657+60.7496+17.1074+60.6064C17.136+60.5127+17.1503+60.3343+17.1503+60.0713L17.1503+59.8525Z"/>
<path fill="#000000" opacity="1" d="M23.0839+61.8447L21.9863+61.8447L21.9863+59.7275C21.9863+59.2796+21.9628+58.9899+21.916+58.8584C21.8691+58.7269+21.7929+58.6246+21.6874+58.5517C21.582+58.4788+21.455+58.4424+21.3066+58.4424C21.1165+58.4424+20.9459+58.4944+20.7949+58.5986C20.6438+58.7028+20.5403+58.8408+20.4843+59.0127C20.4283+59.1845+20.4003+59.5023+20.4003+59.9658L20.4003+61.8447L19.3027+61.8447L19.3027+57.6963L20.3222+57.6963L20.3222+58.3056C20.6842+57.8369+21.1399+57.6025+21.6894+57.6025C21.9316+57.6025+22.1529+57.6461+22.3535+57.7334C22.554+57.8206+22.7057+57.9319+22.8085+58.0674C22.9114+58.2028+22.983+58.3564+23.0234+58.5283C23.0637+58.7002+23.0839+58.9463+23.0839+59.2666L23.0839+61.8447Z"/>
<path opacity="1" fill="#000000" d="M23.9433+59.7119C23.9433+59.3473+24.0331+58.9944+24.2128+58.6533C24.3925+58.3121+24.6471+58.0517+24.9765+57.872C25.3059+57.6924+25.6738+57.6025+26.08+57.6025C26.7076+57.6025+27.2219+57.8063+27.623+58.2138C28.024+58.6214+28.2246+59.1364+28.2246+59.7588C28.2246+60.3864+28.0221+60.9066+27.6171+61.3193C27.2122+61.7321+26.7024+61.9385+26.0878+61.9385C25.7076+61.9385+25.345+61.8525+24.9999+61.6806C24.6549+61.5088+24.3925+61.2568+24.2128+60.9248C24.0331+60.5927+23.9433+60.1885+23.9433+59.7119ZM25.0683+59.7705C25.0683+60.1819+25.166+60.497+25.3613+60.7158C25.5566+60.9345+25.7975+61.0439+26.0839+61.0439C26.3704+61.0439+26.6106+60.9345+26.8046+60.7158C26.9986+60.497+27.0956+60.1793+27.0956+59.7627C27.0956+59.3564+26.9986+59.0439+26.8046+58.8252C26.6106+58.6064+26.3704+58.497+26.0839+58.497C25.7975+58.497+25.5566+58.6064+25.3613+58.8252C25.166+59.0439+25.0683+59.359+25.0683+59.7705Z"/>
<path fill="#000000" d="M29.0917+61.8447L29.0917+56.1181L30.9472+56.1181C31.6503+56.1181+32.1087+56.1468+32.3222+56.2041C32.6503+56.29+32.9251+56.4769+33.1464+56.7646C33.3678+57.0524+33.4785+57.4241+33.4785+57.8799C33.4785+58.2314+33.4147+58.527+33.2871+58.7666C33.1594+59.0062+32.9973+59.1943+32.8007+59.331C32.6041+59.4677+32.4042+59.5582+32.2011+59.6025C31.9251+59.6572+31.5253+59.6845+31.0019+59.6845L30.248+59.6845L30.248+61.8447L29.0917+61.8447ZM30.248+57.0869L30.248+58.7119L30.8808+58.7119C31.3365+58.7119+31.6412+58.6819+31.7949+58.622C31.9485+58.5621+32.069+58.4684+32.1562+58.3408C32.2434+58.2132+32.2871+58.0648+32.2871+57.8955C32.2871+57.6871+32.2259+57.5153+32.1035+57.3799C31.9811+57.2444+31.8261+57.1598+31.6386+57.126C31.5006+57.0999+31.2232+57.0869+30.8066+57.0869L30.248+57.0869Z" opacity="1"/>
<path d="M34.4199+57.1338L34.4199+56.1181L35.5175+56.1181L35.5175+57.1338L34.4199+57.1338ZM34.4199+61.8447L34.4199+57.6963L35.5175+57.6963L35.5175+61.8447L34.4199+61.8447Z" fill="#000000" opacity="1"/>
<path opacity="1" fill="#000000" d="M38.8769+61.8447L38.8769+56.1181L41.3105+56.1181C41.9225+56.1181+42.3671+56.1696+42.6445+56.2724C42.9218+56.3753+43.1438+56.5582+43.3105+56.8213C43.4772+57.0843+43.5605+57.3851+43.5605+57.7236C43.5605+58.1533+43.4342+58.5081+43.1816+58.7881C42.929+59.068+42.5514+59.2444+42.0488+59.3174C42.2988+59.4632+42.5052+59.6233+42.6679+59.7978C42.8307+59.9723+43.0501+60.2822+43.3261+60.7275L44.0253+61.8447L42.6425+61.8447L41.8066+60.5986C41.5097+60.1533+41.3066+59.8727+41.1972+59.7568C41.0878+59.6409+40.9719+59.5615+40.8496+59.5185C40.7272+59.4756+40.5331+59.4541+40.2675+59.4541L40.0331+59.4541L40.0331+61.8447L38.8769+61.8447ZM40.0331+58.54L40.8886+58.54C41.4433+58.54+41.7897+58.5166+41.9277+58.4697C42.0657+58.4228+42.1738+58.3421+42.2519+58.2275C42.33+58.1129+42.3691+57.9697+42.3691+57.7978C42.3691+57.6051+42.3177+57.4495+42.2148+57.331C42.1119+57.2125+41.9667+57.1377+41.7792+57.1064C41.6855+57.0934+41.4042+57.0869+40.9355+57.0869L40.0331+57.0869L40.0331+58.54Z"/>
<path d="M48.1152+60.8252L48.1152+61.8447L44.2675+61.8447C44.3092+61.4593+44.4342+61.0941+44.6425+60.749C44.8509+60.4039+45.2623+59.9463+45.8769+59.376C46.3717+58.915+46.6751+58.6025+46.7871+58.4385C46.9381+58.2119+47.0136+57.9879+47.0136+57.7666C47.0136+57.5218+46.9479+57.3336+46.8163+57.2021C46.6848+57.0706+46.5032+57.0049+46.2714+57.0049C46.0423+57.0049+45.86+57.0739+45.7246+57.2119C45.5891+57.3499+45.511+57.5791+45.4902+57.8994L44.3964+57.79C44.4615+57.1858+44.666+56.7523+45.0097+56.4892C45.3535+56.2262+45.7831+56.0947+46.2988+56.0947C46.8639+56.0947+47.3079+56.247+47.6308+56.5517C47.9537+56.8564+48.1152+57.2353+48.1152+57.6885C48.1152+57.9463+48.069+58.1917+47.9765+58.4248C47.8841+58.6579+47.7376+58.902+47.5371+59.1572C47.4042+59.3265+47.1647+59.57+46.8183+59.8877C46.4719+60.2054+46.2525+60.4163+46.1601+60.5205C46.0677+60.6246+45.9928+60.7262+45.9355+60.8252L48.1152+60.8252Z" opacity="1" fill="#000000"/>
<path d="M52.7636+59.7392L53.8847+60.0947C53.7128+60.7197+53.427+61.1839+53.0273+61.4873C52.6275+61.7907+52.1204+61.9424+51.5058+61.9424C50.7454+61.9424+50.1204+61.6826+49.6308+61.1631C49.1412+60.6435+48.8964+59.9332+48.8964+59.0322C48.8964+58.0791+49.1425+57.3388+49.6347+56.8115C50.1269+56.2842+50.774+56.0205+51.5761+56.0205C52.2766+56.0205+52.8456+56.2275+53.2831+56.6416C53.5436+56.8864+53.7389+57.2379+53.8691+57.6963L52.7246+57.9697C52.6568+57.6728+52.5156+57.4385+52.3007+57.2666C52.0859+57.0947+51.8248+57.0088+51.5175+57.0088C51.093+57.0088+50.7486+57.1611+50.4843+57.4658C50.22+57.7705+50.0878+58.264+50.0878+58.9463C50.0878+59.6702+50.218+60.1858+50.4785+60.4931C50.7389+60.8004+51.0774+60.9541+51.4941+60.9541C51.8014+60.9541+52.0657+60.8564+52.2871+60.6611C52.5084+60.4658+52.6673+60.1585+52.7636+59.7392Z" fill="#000000" opacity="1"/>
</g>
</g>
</svg>
