<?xml version="1.0" encoding="utf-8"?>
<!-- Generator: Adobe Illustrator 23.0.1, SVG Export Plug-In . SVG Version: 6.00 Build 0)  -->
<svg version="1.1" id="Layer_1" xmlns="http://www.w3.org/2000/svg" xmlns:xlink="http://www.w3.org/1999/xlink" x="0px" y="0px"
	 viewBox="0 0 112 150" style="enable-background:new 0 0 112 150;" xml:space="preserve">
<style type="text/css">
	.st0{fill:#44C144;}
</style>
<g>
	<g>
		<path class="st0" d="M2.1,8.2v75.4c37.5,18.6,83.6,7.1,107.7-28.2V8.2H2.1z M29.2,49.1c-3,0-5.2-2.2-5.2-5.2s2.6-5.6,5.6-5.6
			s5.6,2.6,5.6,5.6C34.8,46.8,32.6,49.1,29.2,49.1z M82.7,49.1c-3,0-5.6-2.6-5.6-5.6s2.6-5.6,5.6-5.6s5.6,2.6,5.6,5.6
			C87.9,46.8,85.7,49.1,82.7,49.1z"/>
		<path class="st0" d="M2.1,99.6v15.6h107.7v-39C69.7,119.6,18.8,105.1,2.1,99.6z"/>
	</g>
	<g>
		<path d="M14.7,141.6h-2.4L6,131.6v9.9H3.5v-14H6l6.3,10v-10h2.4V141.6z"/>
		<path d="M25.5,138.3h-5.4l-1.1,3.3h-2.5l5.3-14h2.2l5.3,14h-2.5L25.5,138.3z M20.8,136.3h4.1l-2-5.8L20.8,136.3z"/>
		<path d="M41.9,141.6h-2.4l-6.2-9.9v9.9h-2.4v-14h2.4l6.3,10v-10h2.4V141.6z"/>
		<path d="M55.9,134.9c0,1.1-0.1,2-0.4,2.9c-0.3,0.8-0.7,1.6-1.2,2.1c-0.5,0.6-1.1,1-1.8,1.4c-0.7,0.3-1.5,0.5-2.4,0.5
			c-0.9,0-1.6-0.2-2.4-0.5c-0.7-0.3-1.3-0.8-1.8-1.4c-0.5-0.6-0.9-1.3-1.2-2.1c-0.3-0.8-0.4-1.8-0.4-2.9v-0.7c0-1.1,0.1-2,0.4-2.9
			c0.3-0.8,0.7-1.6,1.2-2.2c0.5-0.6,1.1-1,1.8-1.4c0.7-0.3,1.5-0.5,2.4-0.5c0.9,0,1.7,0.2,2.4,0.5c0.7,0.3,1.3,0.8,1.8,1.4
			c0.5,0.6,0.9,1.3,1.2,2.2c0.3,0.8,0.4,1.8,0.4,2.9V134.9z M53.5,134.2c0-0.8-0.1-1.5-0.2-2.1c-0.2-0.6-0.4-1.1-0.7-1.5
			c-0.3-0.4-0.6-0.7-1.1-0.9s-0.9-0.3-1.4-0.3c-0.5,0-1,0.1-1.4,0.3c-0.4,0.2-0.8,0.5-1.1,0.9c-0.3,0.4-0.5,0.9-0.7,1.5
			c-0.2,0.6-0.2,1.3-0.2,2.1v0.7c0,0.8,0.1,1.5,0.2,2.1c0.2,0.6,0.4,1.1,0.7,1.5c0.3,0.4,0.7,0.7,1.1,0.9c0.4,0.2,0.9,0.3,1.4,0.3
			c1.1,0,1.9-0.4,2.5-1.2c0.6-0.8,0.9-2,0.9-3.6V134.2z"/>
		<path d="M60.8,136.4v5.2h-2.4v-14h5.4c0.8,0,1.5,0.1,2.2,0.3c0.6,0.2,1.2,0.5,1.6,0.9c0.4,0.4,0.8,0.9,1,1.4
			c0.2,0.5,0.3,1.1,0.3,1.8c0,0.7-0.1,1.3-0.3,1.8c-0.2,0.5-0.6,1-1,1.4c-0.4,0.4-1,0.7-1.6,0.9c-0.6,0.2-1.4,0.3-2.2,0.3H60.8z
			 M60.8,134.4h2.9c0.5,0,0.9-0.1,1.2-0.2c0.3-0.1,0.6-0.3,0.8-0.5c0.2-0.2,0.4-0.5,0.5-0.8c0.1-0.3,0.1-0.6,0.1-1
			c0-0.3,0-0.6-0.1-0.9c-0.1-0.3-0.3-0.6-0.5-0.8c-0.2-0.2-0.5-0.4-0.8-0.6c-0.3-0.1-0.7-0.2-1.2-0.2h-2.9V134.4z"/>
		<path d="M81.6,137c-0.1,0.7-0.2,1.3-0.5,1.9c-0.3,0.6-0.6,1.1-1.1,1.5c-0.5,0.4-1,0.8-1.7,1c-0.7,0.2-1.4,0.4-2.3,0.4
			c-0.9,0-1.6-0.2-2.3-0.5c-0.7-0.3-1.3-0.8-1.8-1.3c-0.5-0.6-0.9-1.3-1.1-2.1c-0.3-0.8-0.4-1.7-0.4-2.7V134c0-1,0.1-1.9,0.4-2.7
			c0.3-0.8,0.7-1.5,1.2-2.1c0.5-0.6,1.1-1,1.8-1.3c0.7-0.3,1.5-0.5,2.4-0.5c0.8,0,1.6,0.1,2.2,0.4c0.6,0.2,1.2,0.6,1.6,1
			c0.4,0.4,0.8,0.9,1,1.5c0.3,0.6,0.4,1.2,0.5,1.9h-2.4c-0.1-0.4-0.1-0.8-0.3-1.2c-0.1-0.4-0.3-0.7-0.5-0.9
			c-0.2-0.2-0.5-0.4-0.9-0.6c-0.4-0.1-0.8-0.2-1.3-0.2c-0.6,0-1,0.1-1.4,0.3c-0.4,0.2-0.8,0.5-1,0.9c-0.3,0.4-0.5,0.9-0.6,1.5
			c-0.1,0.6-0.2,1.2-0.2,2v1.2c0,0.7,0.1,1.3,0.2,1.9c0.1,0.6,0.3,1.1,0.6,1.5s0.6,0.7,1,0.9c0.4,0.2,0.9,0.3,1.5,0.3
			c0.5,0,1-0.1,1.3-0.2s0.7-0.3,0.9-0.5c0.2-0.2,0.4-0.5,0.6-0.9c0.1-0.3,0.2-0.7,0.3-1.2H81.6z"/>
		<path d="M98.2,129.5h-4.4v12h-2.4v-12h-4.3v-2h11.1V129.5z"/>
		<path d="M107.6,136.6h1.7v1.9h-1.7v3.1h-2.3v-3.1h-6l-0.1-1.4l6-9.5h2.4V136.6z M101.6,136.6h3.7v-5.8l-0.2,0.3L101.6,136.6z"/>
	</g>
</g>
</svg>
