<?xml version="1.0" encoding="utf-8"?>
<!-- Generator: Adobe Illustrator 22.0.1, SVG Export Plug-In . SVG Version: 6.00 Build 0)  -->
<svg version="1.1" id="Layer_1" xmlns="http://www.w3.org/2000/svg" xmlns:xlink="http://www.w3.org/1999/xlink" x="0px" y="0px"
	 viewBox="0 0 31.2 39.2" style="enable-background:new 0 0 31.2 39.2;" xml:space="preserve">
<style type="text/css">
	.st0{fill:#44C144;}
</style>
<g>
	<path d="M5.2,38.5h-1l-2-3.3v3.3h-1v-5h1l2,3.3v-3.3h1V38.5z"/>
	<path d="M9.6,36.2h-2v1.3h2.3v0.8H6.6v-5H10v0.9H7.6v1.2h2V36.2z"/>
	<path d="M15.1,36c0,0.4-0.1,0.7-0.2,1s-0.2,0.6-0.4,0.8c-0.2,0.2-0.4,0.4-0.7,0.5s-0.6,0.2-0.9,0.2c-0.3,0-0.6-0.1-0.9-0.2
		s-0.5-0.3-0.7-0.5S11,37.3,10.9,37s-0.2-0.6-0.2-1v-0.2c0-0.4,0.1-0.7,0.2-1c0.1-0.3,0.3-0.6,0.4-0.8c0.2-0.2,0.4-0.4,0.7-0.5
		s0.6-0.2,0.9-0.2c0.3,0,0.6,0.1,0.9,0.2c0.3,0.1,0.5,0.3,0.7,0.5s0.3,0.5,0.4,0.8s0.2,0.7,0.2,1V36z M14.1,35.8
		c0-0.5-0.1-0.9-0.3-1.2s-0.5-0.4-0.8-0.4s-0.6,0.1-0.8,0.4c-0.2,0.3-0.3,0.7-0.3,1.2v0.2c0,0.3,0,0.5,0.1,0.7
		c0,0.2,0.1,0.4,0.2,0.5c0.1,0.1,0.2,0.2,0.3,0.3s0.3,0.1,0.5,0.1c0.4,0,0.6-0.1,0.8-0.4c0.2-0.3,0.3-0.7,0.3-1.2V35.8z"/>
	<path d="M21.3,37.5h-1.8l-0.3,1H18l1.9-5h1l1.9,5h-1.1L21.3,37.5z M19.8,36.5H21l-0.6-1.9L19.8,36.5z"/>
	<path d="M24.8,38.5h-1v-5h1V38.5z"/>
	<path d="M28,36.7h-0.8v1.8h-1v-5H28c0.3,0,0.6,0,0.8,0.1c0.2,0.1,0.4,0.2,0.6,0.3s0.3,0.3,0.4,0.5s0.1,0.4,0.1,0.7
		c0,0.2,0,0.3-0.1,0.5c0,0.1-0.1,0.3-0.2,0.4c-0.1,0.1-0.2,0.2-0.3,0.3c-0.1,0-0.2,0-0.3,0.1l1.1,2.1l0,0H29L28,36.7z M27.2,35.8H28
		c0.1,0,0.3,0,0.4-0.1c0.1,0,0.2-0.1,0.3-0.2c0.1-0.1,0.1-0.1,0.2-0.2c0-0.1,0.1-0.2,0.1-0.3c0-0.2-0.1-0.4-0.2-0.6
		c-0.3,0-0.5-0.1-0.8-0.1h-0.8V35.8z"/>
</g>
<g>
	<path class="st0" d="M1.1,1v20.3c10.1,5,22.5,1.9,29-7.6V1H1.1z M8.4,12C7.6,12,7,11.4,7,10.6c0-0.8,0.7-1.5,1.5-1.5
		s1.5,0.7,1.5,1.5C9.9,11.4,9.3,12,8.4,12z M22.8,12c-0.8,0-1.5-0.7-1.5-1.5c0-0.8,0.7-1.5,1.5-1.5s1.5,0.7,1.5,1.5
		C24.2,11.4,23.6,12,22.8,12z"/>
	<path class="st0" d="M1.1,25.6v4.2h29V19.3C19.3,31,5.6,27.1,1.1,25.6z"/>
</g>
</svg>
