<?xml version="1.0" encoding="utf-8"?>
<!-- Generator: Adobe Illustrator 23.0.2, SVG Export Plug-In . SVG Version: 6.00 Build 0)  -->
<svg version="1.1" id="Layer_1" xmlns="http://www.w3.org/2000/svg" xmlns:xlink="http://www.w3.org/1999/xlink" x="0px" y="0px"
	 viewBox="0 0 112 150" style="enable-background:new 0 0 112 150;" xml:space="preserve">
<style type="text/css">
	.st0{fill:#172A53;}
	.st1{fill:#5B5B5B;}
</style>
<g>
	<path class="st0" d="M99.7,2.1c0.1,1.6,0.2,2.7,0.2,3.8c0,31.7,0,63.5,0,95.2c0,5.2-1.8,9.7-6.5,12.4c-3.2,1.8-6.8,2.7-10.6,2.7
		c-18.7-0.1-37.4,0-56.1,0c-3.6,0-7.1,0-10.7,0c-1.1,0-2.2-0.2-3.5-0.3c-0.1-1.7-0.3-3.1-0.3-4.5c0-30.5,0.1-61-0.1-91.5
		C12.1,8,19.3,2,29.9,1.8c11.7-0.2,23.4,0,35.1,0c10.1,0,20.3,0,30.4,0C96.7,1.8,98,2,99.7,2.1z M96.4,5.4c-1.9-0.1-3.2-0.2-4.5-0.2
		c-14.5,0-28.9,0-43.4,0c-6,0-12,0.1-18,0C23,5,16,12.1,16.1,19.5c0.4,29.8,0.2,59.6,0.2,89.4c0,1.3,0.2,2.6,0.3,4.1
		c1.4,0.1,2.5,0.2,3.6,0.2c20.5,0,40.9,0,61.4,0c8.8,0,14.8-6.2,14.8-15c0-29.6,0-59.2,0-88.8C96.4,8.3,96.4,7.1,96.4,5.4z"/>
	<path class="st0" d="M94.5,7.4c0,1.8,0,3.1,0,4.4c0,28.7-0.2,57.4,0.1,86.2c0.1,7.1-5.9,13.1-12.9,13c-19.8-0.3-39.6-0.1-59.4-0.1
		c-1.2,0-2.4-0.2-3.8-0.3c-0.1-1.5-0.3-2.6-0.3-3.8c0-28.9,0-57.9,0-86.8c0-7.7,5-12.8,12.7-12.8C50.8,7,70.7,7,90.7,7
		C91.7,7,92.8,7.2,94.5,7.4z M24.6,77.5c7,0,13.5,0.1,20-0.1c1.9-0.1,3.9-0.9,5.6-1.9c3.6-2,5.3-5.4,5.3-9.4c0-3.7-1.5-6.7-5.2-8.2
		c-0.6-0.2-1-0.7-1.6-1.1c0.4-0.4,0.6-0.7,0.8-0.9c4-2,5.3-5.4,4.8-9.7c-0.5-4.7-3.8-6.5-7.7-7.6c-0.3-0.1-0.7-0.2-1-0.2
		c-6.8-0.2-13.5-0.3-20.3-0.4c-0.3,0-0.5,0.3-0.9,0.6C24.6,51.5,24.6,64.4,24.6,77.5z M88.1,35.6c-3.6,0-6.7,0-10.3,0
		c0,2.7-0.1,5.1,0,7.6c0.1,2.4,0.3,4.9,0.5,8.1c-1.2-1-1.7-1.4-2.1-1.8C71.4,45,64,45.8,60.9,51.6c-4,7.4-3.7,15,0.2,22.3
		c2.7,5,9.2,6.1,13.8,2.6c1-0.8,2-1.5,3.2-2.4c0.9,1.3,1.7,2.4,2.4,3.4c2.6,0,5,0,7.6,0C88.1,63.4,88.1,49.6,88.1,35.6z"/>
	<path class="st0" d="M43.6,68.7c-2.5,1.5-5.2,1.5-8.4,0.9c0-2.6,0-5.1,0-7.7c3.1-1.3,7-1.1,8.4,0.6C45.2,64.5,45.1,66.6,43.6,68.7z
		"/>
	<path class="st0" d="M35.2,52.9c0-2.3,0-4.4,0-6.6c3-0.7,5.6-1,7.9,0.9C44.6,52.2,42,54.2,35.2,52.9z"/>
	<path class="st0" d="M79.2,62.9c-0.3,1.5-0.5,3-1,4.5c-0.6,1.8-2.8,3.3-4.7,3.1c-2.1-0.2-3.6-1.3-4.2-3.3c-1-3-1-6.1,0-9.2
		c0.7-2.2,2.5-3.5,4.3-3.5c2.3,0.1,3.7,1.5,4.5,3.4C78.8,59.4,78.9,61.1,79.2,62.9z"/>
</g>
<g>
	<path class="st1" d="M2.6,125.5h2.7l4.6,8.4l1.5,3.2h0.1c-0.1-1.5-0.3-3.4-0.3-5.1v-6.5h2.5v14.9H11L6.4,132l-1.5-3.2H4.8
		c0.1,1.6,0.3,3.4,0.3,5v6.5H2.6V125.5z"/>
	<path class="st1" d="M16.6,136.7c0-1.8,1.2-3,2.6-3.7v-0.1c-1.1-0.8-2-1.9-2-3.4c0-2.4,1.9-3.9,4.4-3.9c2.6,0,4.3,1.6,4.3,3.9
		c0,1.5-1,2.7-1.9,3.3v0.1c1.3,0.8,2.5,1.8,2.5,3.8c0,2.2-2,4-4.9,4C18.7,140.7,16.6,139,16.6,136.7z M24,136.6c0-1.6-1.5-2.2-3.5-3
		c-0.9,0.7-1.6,1.6-1.6,2.7c0,1.4,1.2,2.4,2.7,2.4C23,138.8,24,138,24,136.6z M23.7,129.7c0-1.3-0.8-2.2-2.1-2.2c-1.1,0-2,0.7-2,2
		c0,1.5,1.3,2.1,2.9,2.7C23.2,131.4,23.7,130.6,23.7,129.7z"/>
	<path class="st1" d="M29.3,125.5h3l2.6,7.3c0.3,0.9,0.6,2,1,2.9h0.1c0.3-1,0.6-2,0.9-2.9l2.6-7.3h3v14.9H40v-6.8
		c0-1.4,0.2-3.4,0.3-4.7h-0.1l-1.2,3.5l-2.5,6.7H35l-2.5-6.7l-1.2-3.5h-0.1c0.1,1.4,0.3,3.4,0.3,4.7v6.8h-2.4V125.5z"/>
	<path class="st1" d="M46.2,125.5h3l2.6,7.3c0.3,0.9,0.6,2,1,2.9h0.1c0.3-1,0.6-2,0.9-2.9l2.6-7.3h3v14.9H57v-6.8
		c0-1.4,0.2-3.4,0.3-4.7h-0.1l-1.2,3.5l-2.5,6.7H52l-2.5-6.7l-1.2-3.5h-0.1c0.1,1.4,0.3,3.4,0.3,4.7v6.8h-2.4V125.5z"/>
	<path class="st1" d="M67.8,125.5h4c4.6,0,7.3,2.5,7.3,7.4c0,4.9-2.7,7.5-7.1,7.5h-4.1V125.5z M71.6,138.3c3,0,4.7-1.7,4.7-5.4
		c0-3.7-1.7-5.3-4.7-5.3h-1.2v10.6H71.6z"/>
	<path class="st1" d="M80.5,125.5h2.7l1.3,7.5c0.2,1.6,0.5,3.2,0.7,4.8h0.1c0.3-1.6,0.6-3.2,1-4.8l1.8-7.5h2.3l1.8,7.5
		c0.3,1.5,0.7,3.2,1,4.8h0.1c0.2-1.6,0.5-3.2,0.7-4.8l1.3-7.5h2.5L95,140.4h-3.3l-1.9-7.9c-0.2-1.2-0.5-2.3-0.7-3.4h-0.1
		c-0.2,1.1-0.4,2.3-0.7,3.4l-1.8,7.9h-3.2L80.5,125.5z"/>
	<path class="st1" d="M100.2,125.5h9v2.2h-6.3v3.8h5.4v2.2h-5.4v4.4h6.6v2.2h-9.2V125.5z"/>
</g>
</svg>
