<?xml version="1.0" encoding="utf-8"?>
<!-- Generator: Adobe Illustrator 25.2.1, SVG Export Plug-In . SVG Version: 6.00 Build 0)  -->
<svg version="1.1" id="Layer_2" xmlns="http://www.w3.org/2000/svg" xmlns:xlink="http://www.w3.org/1999/xlink" x="0px" y="0px"
	 viewBox="0 0 512 512" style="enable-background:new 0 0 512 512;" xml:space="preserve">
<style type="text/css">
	.st0{fill:#90C320;}
	.st1{fill:#00394A;stroke:#132344;stroke-miterlimit:10;}
</style>
<g>
	<path class="st0" d="M242.1,297.7C126.3,285.1,130.6,171.9,148,143.3C148.6,189.3,183.4,267.3,242.1,297.7z"/>
	<path class="st0" d="M242.1,297.7C126.3,285.1,130.6,171.9,148,143.3C148.6,189.3,183.4,267.3,242.1,297.7z"/>
	<path class="st0" d="M244.9,279.1c-92.4-71-29.7-165.4,0-180.8C221.4,137.9,210.5,222.6,244.9,279.1z"/>
	<path class="st0" d="M273.7,297.7c115.8-12.5,111.5-125.8,94.1-154.3C367.2,189.3,332.4,267.3,273.7,297.7z"/>
	<path class="st0" d="M273.7,297.7c115.8-12.5,111.5-125.8,94.1-154.3C367.2,189.3,332.4,267.3,273.7,297.7z"/>
	<path class="st0" d="M271,279.1c92.4-71,29.7-165.4,0-180.8C294.4,137.9,305.3,222.6,271,279.1z"/>
	<path class="st1" d="M66.9,391.1c6.4,5.1,16,8,24.8,8c13.1,0,14.5-6.7,14.5-9.1c0-2.4-2.1-9.7-22.3-9.7
		c-15.4,0-22.3-11.2-22.3-21.8c0-16.2,12.3-22.7,27.9-22.7s24.6,7.8,27.3,10.3l-9,9.4c-8.7-7.3-15.1-7-19.8-7
		c-4.7,0-12.5,1.4-12.5,8.9c0,4.4,1.4,9.4,17.9,9.4c19.3,0,26.1,12.5,26.1,23.6c0,11.6-8.2,22-28,22s-26.6-7-31.9-10.3L66.9,391.1z"
		/>
	<path class="st1" d="M144.7,380.8c0,11.9,13.7,19,24.8,19c13.3,0,19.1-8,19.1-8l9.8,10.6c0,0-9.8,10-28.3,10
		c-25.5,0-42.3-14.7-42.3-36.6c0-21.9,15.3-39.1,38-39.1c21.5,0,36.8,19.2,36.8,33.8c0,2.7,0.2,8.5,0,9.8L144.7,380.8z M188.7,367.5
		c0.2-8.4-10-18-22.8-18s-19.5,8.8-20.8,18H188.7z"/>
	<path class="st1" d="M227.1,380.8c0,11.9,13.7,19,24.8,19c13.3,0,19.1-8,19.1-8l9.8,10.6c0,0-9.8,10-28.3,10
		c-25.5,0-42.3-14.7-42.3-36.6c0-21.9,15.3-39.1,38-39.1c21.5,0,36.8,19.2,36.8,33.8c0,2.7,0.2,8.5,0,9.8L227.1,380.8z M271,367.5
		c0.2-8.4-10-18-22.8-18c-12.8,0-19.5,8.8-20.8,18H271z"/>
	<path class="st1" d="M311.4,380.8c0,11.9,13.7,19,24.8,19c13.3,0,19.1-8,19.1-8l9.8,10.6c0,0-9.8,10-28.3,10
		c-25.5,0-42.3-14.7-42.3-36.6c0-21.9,15.3-39.1,38-39.1c21.5,0,36.8,19.2,36.8,33.8c0,2.7,0.2,8.5,0,9.8L311.4,380.8z M355.4,367.5
		c0.2-8.4-10-18-22.8-18s-19.5,8.8-20.8,18H355.4z"/>
	<path class="st1" d="M451.9,320l-16,6.7V350h-0.3c-3.6-5.5-12.7-10.8-24.9-10.8c-19.5,0-34.8,14.9-34.6,37.6
		c0,20.7,14.3,35.7,33.6,35.7c13.1,0,21.7-4.2,26.2-11.8l0.6,13.1h16L451.9,320z M412.9,398c-11.9,0-21.5-9.6-21.5-21.5
		c0-11.9,9.6-21.5,21.5-21.5s21.5,9.6,21.5,21.5C434.4,388.4,424.8,398,412.9,398z"/>
</g>
</svg>
