<?xml version="1.0" encoding="utf-8"?>
<!-- Generator: Adobe Illustrator 23.0.2, SVG Export Plug-In . SVG Version: 6.00 Build 0)  -->
<svg version="1.1" id="Layer_1" xmlns="http://www.w3.org/2000/svg" xmlns:xlink="http://www.w3.org/1999/xlink" x="0px" y="0px"
	 viewBox="0 0 112 150" style="enable-background:new 0 0 112 150;" xml:space="preserve">
<style type="text/css">
	.st0{fill:#7BB43C;}
	.st1{fill:#F5A423;}
	.st2{fill:#706F6F;}
</style>
<g>
	<g>
		<path class="st0" d="M72.8,7.8C72,8,71.2,8.1,70.6,8.4c-4.5,2.1-8.6,4.8-12,8.5c-0.2,0.2-0.5,0.4-0.8,0.6c-0.1,0.1-0.2,0-0.7,0
			c0.1-0.5,0-0.9,0.2-1.3c3-6.2,8.4-9.4,14.8-11.4c4.1-1.3,8.4-1.7,12.6-2.5c5.4-1,10.7-0.3,16-0.6c0.5,0,1.1,0.1,2.1,0.3
			c-0.7,0.5-1,0.9-1.4,1c-5.5,1.8-10,5.4-14.5,8.9c-2.8,2.2-5.6,4.5-8.4,6.8c-2.3,1.8-4.9,2.7-7.8,2.7c-3.6,0.1-7.2-0.1-10.4-2.1
			c-1.3-0.8-1.4-1.2-0.2-2.2c3.8-3.3,7.7-6.4,12.4-8.4c0.2-0.1,0.3-0.2,0.5-0.3C72.9,8.2,72.9,8,72.8,7.8z"/>
		<path class="st0" d="M48.6,17.6c0,1.7-0.3,2-1.8,1.6c-5-1.4-8.7-4.5-10.8-9.4c-0.4-0.9-0.8-1.9-1-2.9c-0.2-0.9,0.2-1.4,1.2-1.1
			c5.5,1.8,10.3,4.4,12,10.5C48.5,16.8,48.6,17.3,48.6,17.6z"/>
	</g>
	<g>
		<path class="st1" d="M5.8,63.9c2.2-1.1,3.7-2.8,5-4.8c2.1-3.4,1.8-6.9,0.4-10.5c-0.3-0.7-0.2-1.7,0.1-2.4c0.6-1.4,1.5-2.7,2.3-4
			c0.7-1.3,1.7-2,3.3-2.3c2.1-0.4,4.1-0.9,5.8-2.3c2.4-2,3.4-4.8,3.9-7.7c0.2-1,0.4-1.7,1.3-2.2c1.7-0.9,3.3-2,5-2.9
			c0.6-0.3,1.5-0.2,2.2-0.1c1.2,0.2,2.3,0.8,3.5,1c4.1,0.7,7.5-0.8,10.1-3.9c1.3-1.6,2.7-2.7,4.9-2.2c0.2,0.1,0.5,0,0.8,0
			c3-0.3,5.4,0.4,7.5,2.9c3.2,3.7,7.4,4.3,11.8,2.6c1.7-0.7,3.2-0.7,4.7,0.5c0.2,0.2,0.5,0.2,0.7,0.3c2.4,1.2,4.3,2.5,4.7,5.7
			c0.4,3.2,2.3,5.7,5.3,7.2c1.4,0.7,3,1,4.6,1.3c1.1,0.2,1.8,0.7,2.4,1.7c0.8,1.5,1.9,2.8,2.5,4.3c0.4,0.9,0.4,2.2,0.1,3.1
			c-1.6,4.8-1.3,9.2,2.7,12.6c2.2,1.9,3,4,2.7,6.7c-0.1,0.7-0.1,1.4,0,2.1c0.1,1.3-0.3,2.4-1.4,3.2c-0.8,0.6-1.4,1.3-2.1,2
			c-3.2,3.4-3.4,7.3-2,11.5c0.5,1.5,0.8,2.8-0.3,4.2c-0.5,0.6-0.8,1.3-1.1,2c-1,2-2.3,3.2-4.8,3.6c-5,0.8-8,4.3-8.8,9.2
			c-0.3,2-1.4,2.9-2.7,3.8c-1.2,0.8-2.4,1.5-3.7,2.1c-0.7,0.3-1.7,0.3-2.4,0c-5.5-2.1-9.7-1.3-13.6,3.1c-1.1,1.2-2.2,1.9-3.8,1.7
			c-0.5-0.1-1,0-1.5,0c-3.3,0.3-5.9-0.3-8.3-3.1c-3.1-3.6-7.4-3.6-11.6-2c-1.3,0.5-2.4,0.6-3.6-0.3c-1.3-1-2.9-1.6-4.3-2.6
			c-0.6-0.4-1-1.3-1.3-2c-0.5-1.5-0.8-3.1-1.4-4.5c-1.6-3.6-4.7-5.1-8.4-5.7c-1.3-0.2-2.3-0.6-3-1.8c-0.9-1.5-2-2.9-2.6-4.5
			c-0.4-0.8-0.3-2.1,0-2.9c2.2-5.9,0.4-9.7-2.9-12.8c-0.8-0.8-1.8-1.4-2.6-2C5.8,69.8,5.8,66.8,5.8,63.9z M51.3,65.8
			c0.4,0,1,0,1.3-0.2c1.4-0.8,2.6-0.9,3.9,0.1c0.3,0.2,1-0.1,1.5-0.3c0.6-0.2,1-0.6,1.6-0.9c0.1,0.2,0.2,0.3,0.3,0.5
			c-0.4,0.3-0.7,0.6-1.1,0.9c-0.6,0.4-1.2,0.8-0.6,1.5c0.3,0.3,1.3,0.1,1.8-0.2c2.1-1.6,4.1-3.2,6.2-4.9c0.7-0.6,1.4-0.8,2.2-0.1
			c1,0.8,1.7,1.8,1.3,3.2c-0.3,1.1-1.1,1.3-2.1,1.2c-0.8,0-1.5,0-2.3,0c-1.8-0.2-3.5,0.1-4.9,1.5c-0.3,0.3-0.9,0.4-1.3,0.7
			c-0.3,0.2-0.9,0.5-0.9,0.8c0,0.4,0.3,1,0.6,1.3c1.5,1.1,3.1,2.1,4.6,3.2c6.6,4.8,13.2,9.6,19.8,14.5c0.9,0.6,1.5,0.5,2.2-0.2
			c1.6-1.6,3.4-3.1,4.6-4.9c2.8-4,3.5-8.4,1.6-13c-0.5-1.3-1.4-1.7-2.9-1.7C82.8,68.9,77,69,71.1,69c-0.5,0-1-0.4-1.5-0.5
			c0-0.2,0.1-0.3,0.1-0.5c0.6,0,1.3,0,1.9,0c5.7,0,11.5,0,17.2,0c1.6,0,2.3-0.6,2.8-2c2.4-7-0.6-13.7-6.4-17.7
			c-0.4-0.3-1.4-0.3-1.8,0C77.1,52.8,71,57.4,64.7,62c-1.1,0.8-2.4,1.6-3.6,2.4c-0.1-0.1-0.2-0.3-0.3-0.4c0.6-0.5,1.1-1.1,1.8-1.6
			c6.6-4.8,13.2-9.7,19.8-14.4c0.9-0.7,1.2-1.3,0.8-2.2c-0.6-1.5-1.2-3-2.1-4.3c-2.9-4.6-7.2-6.8-12.6-7.1c-1.4-0.1-2.2,0.3-2.6,1.9
			c-0.5,2.3-1.4,4.5-2.1,6.8c-0.9,2.9-1.8,5.8-2.9,8.6c-0.7,1.9-0.7,4.4-3.4,4.8c-0.1,0-0.2,0.2-0.2,0.3c-0.4,1.4-0.8,2.7-1.3,4.1
			c-0.1,0.4-0.5,0.8-0.7,1.2c-0.3-0.3-0.9-0.5-1-0.8c-0.6-1.8-1.1-3.7-1.5-5.6c-0.1-0.5,0.2-1.2,0.6-1.6c1.1-1,2.3-0.9,3.8,0.2
			c0.7,0.5,1.4,1.2,1.9-0.2c1.1-3.4,2.2-6.7,3.3-10.1c0.9-2.8,1.9-5.6,2.9-8.3c0.4-1,0-1.5-0.6-2c-1-0.7-2.1-1.3-3.2-1.8
			c-5.7-3-11.6-2.1-16.4,1.7c-0.4,0.3-0.7,1.2-0.6,1.7c0.3,1.4,1,2.6,1.4,4c1.6,4.6,3.1,9.3,4.6,13.9c0.2,0.6,0.1,1.4,0.1,2.1
			c-0.1,0-0.3,0-0.4,0.1c-0.2-0.3-0.4-0.6-0.5-1c-1.7-5.3-3.4-10.6-5.1-16c-1.2-3.9-1.2-3.9-5.3-3.5c-0.3,0-0.5,0-0.8,0
			c-5.5,0.6-11,5.4-12.4,10.8c-0.2,1,0.1,1.6,0.8,2.1c7.5,5.5,14.9,11,22.4,16.5C50,64.5,50.7,65.2,51.3,65.8c-1-0.5-2-1-2.9-1.6
			C41,58.8,33.6,53.5,26.2,48.1c-0.7-0.5-1.2-0.5-1.8,0c-0.4,0.3-0.8,0.7-1.2,1C18,53.4,15.9,60,17.8,65.7c0.5,1.5,1.3,2.1,2.9,2.1
			c5.7-0.1,11.3,0,17,0c0.7,0,1.3,0.1,2,0.1c0,0.2,0,0.4,0.1,0.6c-0.7,0.1-1.5,0.4-2.2,0.4c-5.7,0-11.3-0.1-17-0.2
			c-1.4,0-2.2,0.5-2.4,1.9c-0.2,1.1-0.4,2.1-0.6,3.2c-1,6.6,2.1,11.3,6.8,14.7c0.7,0.5,1.4,0.5,2.1-0.1c2.2-1.6,4.4-3.2,6.5-4.8
			c5.4-4,10.8-8.1,16.3-12c2-1.5,2.1-1.4,0.9-3.6C51.1,67.6,52,67.1,51.3,65.8z M49.8,82.3c0.2,0.1,0.5,0.1,0.7,0.2
			c-0.1,0.6-0.2,1.2-0.4,1.8c-0.9,2.9-1.8,5.9-2.8,8.8c-1,2.8-2.1,5.5-3,8.3c-0.2,0.5,0.1,1.3,0.5,1.6c5.3,4,11.8,5.7,18.4,1.4
			c2.4-1.6,2.4-1.6,1.3-4.2c-0.1-0.2-0.1-0.4-0.2-0.6c-1.4-4.3-2.8-8.5-4.1-12.8c-0.7-2.4-1.4-4.8-2-7.1c0.1,0,0.3-0.1,0.4-0.1
			c0.5,1.2,1.1,2.3,1.5,3.5c2,5.8,3.9,11.7,5.7,17.6c0.4,1.3,1,1.9,2.3,1.9c6.6-0.1,12.8-3.9,15-10.4c0.5-1.4,0.2-2.4-1-3.3
			C74.3,83,66.5,77.2,58.7,71.5c-0.8-0.6-1.3-0.6-2,0.1c-1.1,1.1-2.9,1.2-4.1,0.2c-0.8-0.7-1.3-0.6-2.1,0.1c-3.2,2.6-6.5,5-9.8,7.4
			c-4.5,3.3-8.9,6.5-13.5,9.7c-0.9,0.6-1.2,1.4-0.7,2.3c0.9,1.8,1.7,3.8,2.9,5.4c2.9,3.9,6.9,5.6,11.7,5.8c1.4,0.1,2.3-0.5,2.8-2
			c1.2-4.2,2.7-8.3,4.1-12.4C48.5,86.1,49.1,84.2,49.8,82.3z"/>
		<path class="st1" d="M58.2,63.3c0.7-2.1,1.3-4.2,2-6.3c0.4-1.1,0.9-2,2.3-1.8c1.2,0.2,2.7,1.7,2.7,2.7c0,0.3-0.1,0.7-0.3,0.8
			c-2.1,1.7-4.3,3.3-6.5,4.9C58.3,63.6,58.3,63.4,58.2,63.3z"/>
		<path class="st1" d="M51.3,63.7c-0.8-0.6-1.6-1.3-2.5-1.9c-1.1-0.8-2.3-1.7-3.4-2.5c-0.7-0.5-1.3-1.1-0.8-2.1
			c0.5-1.2,1.5-1.9,2.8-2.1c1.1-0.2,1.4,0.7,1.7,1.5c0.3,0.9,0.5,1.8,0.9,2.7c0.5,1.4,1.1,2.7,1.6,4C51.5,63.4,51.4,63.6,51.3,63.7z
			"/>
		<path class="st1" d="M60.6,69.4c2.4,1.2,4.9,1.1,7.5,0.7c0.4-0.1,1,0.3,1.3,0.7c0.8,0.9,0.6,2.3-0.4,3.5c-0.9,1-1.8,0.9-2.8,0.1
			c-1.4-1-2.9-2-4.2-3c-0.6-0.4-1-1-1.5-1.5C60.5,69.7,60.5,69.6,60.6,69.4z"/>
		<path class="st1" d="M51.1,73.5c-0.9,2.7-1.7,5.2-2.6,7.6c-0.2,0.5-0.9,0.9-1.4,1c-1.1,0.2-2.5-0.9-3.1-2.2
			c-0.5-1.2,0.4-1.7,1.2-2.3c1.6-1.2,3.2-2.5,4.8-3.8C50.2,73.7,50.6,73.7,51.1,73.5z"/>
		<path class="st1" d="M58.5,73.1c2.2,1.6,4.4,3.2,6.5,5c0.9,0.8,0.3,2.5-1.1,3.4c-1.3,0.8-2.4,0.6-3-0.6c-0.4-0.8-0.5-1.7-0.9-2.5
			c-0.6-1.6-1.2-3.2-1.8-4.8C58.3,73.3,58.4,73.2,58.5,73.1z"/>
		<path class="st1" d="M54.9,75c0.5,1.6,1,3,1.5,4.4c0.2,0.6,0.4,1.2,0.5,1.8c0.4,1.6-0.1,2.5-1.5,3c-1.2,0.4-3-0.4-3.4-1.5
			c-0.1-0.3-0.1-0.6,0-0.9c0.7-2.1,1.5-4.2,2.2-6.2C54.2,75.4,54.4,75.4,54.9,75z"/>
		<path class="st1" d="M49,67.5c-2-1.7-4.2-1.1-6.4-1c-1.9,0.1-2.7-0.4-3-1.7c-0.2-0.9,0.8-2.7,1.8-3.1c0.3-0.1,0.8-0.2,1,0
			c2,1.3,4,2.7,6,4.1c0.4,0.3,0.5,0.8,0.8,1.3C49.1,67.2,49.1,67.4,49,67.5z"/>
		<path class="st1" d="M48.5,70.1c-0.3,0.4-0.5,0.8-0.9,1.1c-1.6,1.2-3.3,2.3-4.9,3.5c-0.9,0.6-1.6,0.7-2.4,0c-1-0.9-1.6-1.9-1-3.3
			c0.4-1.1,1.3-1.1,2.4-1.1C43.9,70.4,46.1,70.2,48.5,70.1z"/>
	</g>
</g>
<g>
	<path class="st2" d="M29.8,143.9h12v3.1H25.1v-2.5l11.6-16.8H25.1v-3.2h16.3v2.5L29.8,143.9z"/>
	<path class="st2" d="M51.9,147.3c-1.2,0-2.4-0.2-3.3-0.6c-1-0.4-1.8-1-2.5-1.7c-0.7-0.7-1.2-1.6-1.6-2.6c-0.4-1-0.6-2.1-0.6-3.2
		v-0.6c0-1.3,0.2-2.5,0.6-3.6c0.4-1.1,0.9-2,1.6-2.7s1.5-1.3,2.4-1.7c0.9-0.4,1.9-0.6,3-0.6c1.2,0,2.3,0.2,3.2,0.6s1.6,1,2.2,1.7
		c0.6,0.7,1,1.6,1.3,2.6s0.4,2.1,0.4,3.3v1.6H47.6c0.1,0.6,0.2,1.2,0.4,1.8s0.5,1,0.9,1.4c0.4,0.4,0.8,0.7,1.4,0.9
		c0.5,0.2,1.1,0.3,1.8,0.3c0.9,0,1.7-0.2,2.4-0.6c0.7-0.4,1.3-0.9,1.8-1.5l2,1.9c-0.3,0.4-0.6,0.8-1,1.2c-0.4,0.4-0.9,0.7-1.4,1
		s-1.1,0.5-1.8,0.7C53.5,147.2,52.7,147.3,51.9,147.3z M51.4,133c-1,0-1.9,0.4-2.5,1.1s-1,1.7-1.2,3h7.2v-0.3c0-0.5-0.1-1-0.2-1.4
		s-0.3-0.9-0.6-1.2c-0.3-0.4-0.6-0.6-1-0.9C52.6,133.1,52,133,51.4,133z"/>
	<path class="st2" d="M70.3,133.7c-0.2,0-0.5-0.1-0.8-0.1c-0.3,0-0.5,0-0.8,0c-0.9,0-1.6,0.2-2.2,0.5s-1,0.8-1.3,1.5V147h-3.8v-16.7
		h3.6l0.1,1.9c0.4-0.7,0.9-1.2,1.6-1.6c0.6-0.4,1.4-0.6,2.2-0.6c0.2,0,0.5,0,0.7,0.1c0.3,0,0.5,0.1,0.6,0.1L70.3,133.7z"/>
	<path class="st2" d="M71.4,138.5c0-1.2,0.2-2.3,0.5-3.4c0.4-1,0.9-1.9,1.5-2.7c0.7-0.8,1.5-1.4,2.4-1.8c1-0.4,2-0.6,3.3-0.6
		c1.2,0,2.3,0.2,3.3,0.6c1,0.4,1.8,1,2.5,1.8c0.7,0.8,1.2,1.7,1.5,2.7c0.4,1,0.5,2.2,0.5,3.4v0.3c0,1.2-0.2,2.3-0.5,3.4
		c-0.4,1-0.9,1.9-1.5,2.7s-1.5,1.4-2.4,1.8c-1,0.4-2.1,0.6-3.3,0.6c-1.2,0-2.3-0.2-3.3-0.6c-1-0.4-1.8-1-2.4-1.8s-1.2-1.7-1.5-2.7
		c-0.4-1-0.5-2.2-0.5-3.4V138.5z M75.1,138.8c0,0.8,0.1,1.5,0.2,2.1c0.2,0.7,0.4,1.3,0.7,1.8s0.8,0.9,1.3,1.2
		c0.5,0.3,1.1,0.4,1.8,0.4c0.7,0,1.3-0.1,1.8-0.4c0.5-0.3,0.9-0.7,1.3-1.2c0.3-0.5,0.6-1.1,0.7-1.8c0.2-0.7,0.2-1.4,0.2-2.1v-0.3
		c0-0.7-0.1-1.4-0.2-2.1c-0.2-0.7-0.4-1.2-0.7-1.7c-0.3-0.5-0.8-0.9-1.3-1.2c-0.5-0.3-1.1-0.4-1.8-0.4c-0.7,0-1.3,0.1-1.8,0.4
		c-0.5,0.3-0.9,0.7-1.2,1.2s-0.6,1.1-0.7,1.7c-0.2,0.7-0.2,1.4-0.2,2.1V138.8z"/>
</g>
</svg>
