<?xml version="1.0" encoding="utf-8"?>
<!-- Generator: Adobe Illustrator 22.1.0, SVG Export Plug-In . SVG Version: 6.00 Build 0)  -->
<svg version="1.1" id="Layer_1" xmlns="http://www.w3.org/2000/svg" xmlns:xlink="http://www.w3.org/1999/xlink" x="0px" y="0px"
	 viewBox="0 0 54.8 51.6" style="enable-background:new 0 0 54.8 51.6;" xml:space="preserve">
<style type="text/css">
	.st0{fill:#007DC3;}
	.st1{fill:#474747;}
</style>
<title>Nvidia_logo</title>
<desc>Created with Sketch.</desc>
<path class="st0" d="M38.9,1.1h-23c-8.3,0-15,6.7-15,15v0c0,8.3,6.7,15,15,15h23c8.3,0,15-6.7,15-15v0C53.9,7.9,47.2,1.1,38.9,1.1z
	 M42.7,6.2c1.6-0.1,3.4,1.3,3.4,3.4c0,2.1-1.6,3.5-3.4,3.5c-1.9,0-3.4-1.5-3.4-3.4C39.2,7.6,40.6,6.1,42.7,6.2z M20.7,28.2
	c-2.1,0-4.2,0-6.3-0.1c-1.1,0-2.1-0.4-3.1-0.8c-1.7-0.7-3.2-1.8-4.5-3.3c-0.9-1-1.5-2.1-2-3.4C4.3,19.2,4,17.6,4,16
	c0-1.5,0.3-2.9,0.9-4.3C5.7,9.7,7,8,8.6,6.6c1.1-0.9,2.3-1.5,3.7-2c1-0.3,2-0.5,3.1-0.5c0.4,0,0.5,0,0.5,0.5c0,2.2,0,4.5,0,6.7
	c0,0.3-0.1,0.4-0.4,0.4c-1,0.1-1.9,0.4-2.6,1c-1.2,0.9-1.9,2.1-1.8,3.6c0,1.3,0.6,2.3,1.5,3.1c1,0.9,2.1,1.3,3.4,1.3
	c1.6,0,3.2,0,4.8,0c0.4,0,0.4,0,0.4,0.4c0,1.1,0,2.2,0,3.3c0,0,0,0,0,0c0,1.1,0,2.3,0,3.4C21.1,28.1,21,28.2,20.7,28.2z M30.9,12.1
	c0,5.1,0,10.1,0,15.2c0,0.2,0,0.4,0,0.7c0,0.2-0.1,0.3-0.3,0.3c-0.1,0-0.2,0-0.3,0c-2.1,0-4.1,0-6.2,0c-0.5,0-0.5,0-0.5-0.5
	c0-0.2,0-0.5,0-0.7c0-4.9,0-9.9,0-14.8c0-0.4-0.1-0.5-0.4-0.5c-1.4,0-2.8,0-4.2,0c-0.2,0-0.3,0-0.5,0c-0.2,0-0.3-0.1-0.3-0.3
	c0-2.3,0-4.7,0-7c0-0.3,0.1-0.4,0.4-0.4c0.2,0,0.4,0,0.5,0c2.7,0,5.3,0,8,0c2.6,0,5.2,0,7.8,0c0.2,0,0.5,0,0.7,0
	c0.4,0,0.4,0.1,0.4,0.4c0,2.1,0,4.3,0,6.4c0,0.2,0,0.3,0,0.5c0,0.2-0.1,0.3-0.3,0.4c-0.1,0-0.2,0-0.3,0c-1.4,0-2.8,0-4.3,0
	C30.9,11.7,30.9,11.8,30.9,12.1z M50.6,16.9c-0.3,3.7-2,6.5-4.9,8.7c-0.8,0.6-1.8,1.1-2.7,1.5c-1.6,0.6-3.2,1.1-4.9,1.1
	c-1.4,0-2.9,0-4.3,0c-0.4,0-0.4-0.1-0.4-0.5c0-1.1,0-2.2,0-3.3c0,0,0,0,0,0c0-1.1,0-2.3,0-3.4c0-0.3,0.1-0.3,0.3-0.3
	c0.7,0,1.3,0,2,0c0.5,0,1.1,0,1.6,0c1.7,0,3.3-0.5,4.6-1.6c0.7-0.6,1.2-1.4,1.4-2.3c0.1-0.4,0.1-0.4,0.5-0.4c2.1,0,4.2,0,6.3,0
	C50.6,16.3,50.7,16.4,50.6,16.9z"/>
<g>
	<path class="st1" d="M7.6,38v-2.8h12.5V38h-4.6v12.5h-3.4V38H7.6z"/>
	<path class="st1" d="M21.2,35.1h3.9l3,4.9l3.1-4.9h3.7L30,42.4l5.3,8h-4L28,45.1l-3.4,5.3h-3.8l5.3-8L21.2,35.1z"/>
	<path class="st1" d="M36.9,38.8c0.2-0.7,0.6-1.4,1-1.9c0.5-0.5,1-1,1.7-1.3c0.7-0.3,1.5-0.5,2.4-0.5c0.7,0,1.3,0.1,2,0.3
		c0.6,0.2,1.2,0.5,1.6,0.9c0.5,0.4,0.8,0.9,1.1,1.5c0.3,0.6,0.4,1.2,0.4,2c0,0.8-0.1,1.4-0.4,2c-0.2,0.5-0.6,1-1,1.4
		c-0.4,0.4-0.9,0.8-1.4,1.1c-0.5,0.3-1,0.7-1.5,1c-0.5,0.3-1,0.7-1.5,1.1c-0.5,0.4-0.9,0.8-1.3,1.3h7.1v2.6h-11
		c0-0.9,0.1-1.6,0.4-2.3c0.2-0.6,0.6-1.2,1-1.7c0.4-0.5,0.9-1,1.5-1.4c0.6-0.4,1.2-0.9,1.8-1.3c0.3-0.2,0.7-0.5,1-0.7
		c0.4-0.2,0.7-0.5,1-0.8c0.3-0.3,0.6-0.6,0.8-1c0.2-0.4,0.3-0.8,0.3-1.2c0-0.7-0.2-1.3-0.6-1.7c-0.4-0.4-1-0.6-1.6-0.6
		c-0.4,0-0.8,0.1-1.1,0.3c-0.3,0.2-0.6,0.5-0.7,0.8c-0.2,0.3-0.3,0.7-0.4,1.1c-0.1,0.4-0.1,0.8-0.1,1.2h-2.9
		C36.5,40.3,36.6,39.6,36.9,38.8z"/>
</g>
</svg>
