<svg xmlns="http://www.w3.org/2000/svg" width="54.182" height="73.358" viewBox="0 0 54.182 73.358"><defs><style>.a{isolation:isolate;}.b{fill:#2f82c6;}.c{fill:#2868b0;}.d{fill:#455578;}.e{fill:#52add2;}</style></defs><g class="a"><path class="b" d="M239.073,61.61l3.738,9.374L230.69,65.637Z" transform="translate(-199.243 -53.212)"/><path class="c" d="M229.33,163.263l19-8.343v16.767Z" transform="translate(-198.069 -133.802)"/><path class="d" d="M227.81,296.973l15.859,6.979,7.268-16.643Z" transform="translate(-196.756 -248.145)"/><path class="e" d="M152.633,10.342,146.85,7.789,153.928,0h-.011l7.078,7.789-5.823,2.571a3.282,3.282,0,0,1-.363.147c-.079.027-.155.05-.23.07a2.365,2.365,0,0,1-1.088.02c-.059-.012-.119-.026-.179-.041a5.974,5.974,0,0,1-.6-.181C152.687,10.365,152.66,10.355,152.633,10.342Z" transform="translate(-126.832)"/><path class="b" d="M81.6,61.61,77.86,70.984l12.12-5.348Z" transform="translate(-67.246 -53.212)"/><path class="b" d="M89.856,114.695a1.412,1.412,0,0,1-.243-.082L73.3,107.5h0l16.351-7.127a1.4,1.4,0,0,1,.209-.074,2.327,2.327,0,0,1,.543-.063,2.218,2.218,0,0,1,.532.063,1.46,1.46,0,0,1,.209.074l16.351,7.127h0q-8.159,3.556-16.318,7.113a1.435,1.435,0,0,1-.211.074h-.005a2.2,2.2,0,0,1-1.028.022Z" transform="translate(-63.308 -86.576)"/><path class="c" d="M47.777,163.263l-19-8.343v16.767Z" transform="translate(-24.857 -133.802)"/><path class="d" d="M23.126,296.973,7.268,303.953,0,287.31Z" transform="translate(0 -248.145)"/><path class="d" d="M90.662,368.291a1.821,1.821,0,0,0-.281.044,3.462,3.462,0,0,0-.552.17L73.62,375.731l14.841,6.554a.634.634,0,0,1,.378.579v8.58h3.674v-8.58a.634.634,0,0,1,.378-.579l14.841-6.554L91.521,368.5a3.414,3.414,0,0,0-.552-.17,1.843,1.843,0,0,0-.281-.044" transform="translate(-63.584 -318.086)"/><path class="c" d="M75.246,243.634c-.438-.2-8.175-3.531-18.816-8.115,0,0,18-7.82,18.538-8.054a2.216,2.216,0,0,1,1.723,0c.543.232,18.538,8.054,18.538,8.054l-18.816,8.115a1.724,1.724,0,0,1-.484.123.715.715,0,0,1-.187,0A1.933,1.933,0,0,1,75.246,243.634Z" transform="translate(-48.738 -196.308)"/></g></svg>