<?xml version="1.0" encoding="utf-8"?>
<!-- Generator: Adobe Illustrator 20.1.0, SVG Export Plug-In . SVG Version: 6.00 Build 0)  -->
<svg version="1.1" id="Layer_1" xmlns="http://www.w3.org/2000/svg" xmlns:xlink="http://www.w3.org/1999/xlink" x="0px" y="0px"
	 viewBox="0 0 53 56" style="enable-background:new 0 0 53 56;" xml:space="preserve">
<style type="text/css">
	.st0{fill:#77B900;}
</style>
<title>Nvidia_logo</title>
<desc>Created with Sketch.</desc>
<g id="Page-1">
	<g id="Nvidia_logo">
		<path id="path21" class="st0" d="M5.8,14.8c0,0,4.7-6.9,14-7.6V4.7C9.4,5.6,0.5,14.3,0.5,14.3s5.1,14.7,19.3,16v-2.7
			C9.3,26.3,5.8,14.8,5.8,14.8z M19.8,22.4v2.4c-7.9-1.4-10.1-9.6-10.1-9.6s3.8-4.2,10.1-4.9V13c0,0,0,0,0,0
			c-3.3-0.4-5.9,2.7-5.9,2.7S15.3,20.9,19.8,22.4L19.8,22.4z M19.8,0.1v4.6c0.3,0,0.6,0,0.9-0.1c11.8-0.4,19.4,9.6,19.4,9.6
			S31.3,25,22.1,25c-0.8,0-1.6-0.1-2.4-0.2v2.9c0.6,0.1,1.3,0.1,2,0.1c8.5,0,14.7-4.4,20.7-9.5c1,0.8,5,2.7,5.9,3.6
			c-5.7,4.8-18.9,8.6-26.4,8.6c-0.7,0-1.4,0-2.1-0.1v4h32.4V0.1H19.8z M19.8,10.3V7.2c0.3,0,0.6,0,0.9,0c8.5-0.3,14,7.3,14,7.3
			s-6,8.3-12.4,8.3c-0.9,0-1.8-0.1-2.5-0.4V13c3.3,0.4,4,1.9,5.9,5.1l4.4-3.7c0,0-3.2-4.2-8.6-4.2C20.9,10.2,20.3,10.3,19.8,10.3
			L19.8,10.3z"/>
		<path id="TX2" d="M8.4,55.1V42.6H2.7v-2.9h15.6v2.9h-5.7v12.4H8.4z M17.8,55.1l6.5-7.9l-6-7.4h5l3.4,4.8l3.4-4.8h5l-6,7.4l6.5,7.9
			h-5.2l-3.7-5.2L23,55.1H17.8z M40.7,52.1c0.7-0.9,1.8-1.4,2.7-1.7l1.7-0.5c4.1-1.3,6.4-2.2,6.4-5.2c0-2.4-1.9-5-7.3-5
			c-4.1,0-7.5,1.3-7.7,5.6h4.3c0.2-2.1,1.9-2.8,3.6-2.8c1.8,0,2.9,0.9,2.9,2.1c0,3.7-10.7,1.5-11.1,10.4h15.3v-2.9H40.7z"/>
	</g>
</g>
</svg>
