<?xml version="1.0" encoding="utf-8"?>
<!-- Generator: Adobe Illustrator 22.1.0, SVG Export Plug-In . SVG Version: 6.00 Build 0)  -->
<svg version="1.1" id="Ebene_1" xmlns="http://www.w3.org/2000/svg" xmlns:xlink="http://www.w3.org/1999/xlink" x="0px" y="0px"
	 viewBox="0 0 67.9 22" style="enable-background:new 0 0 67.9 22;" xml:space="preserve">
<style type="text/css">
	.st0{fill:#E84F0E;}
</style>
<g>
	<path class="st0" d="M61.8,4.4c-2,0-3.9,0.7-5.2,2.2c-0.8-1.3-2.2-2.2-4.5-2.2c-1.5,0-2.7,0.4-3.6,1.1v3.8c0.5-0.6,1.3-0.9,2.1-0.9
		c1.8,0,2.4,1.3,2.4,2.8v10.6h4.8V11.6c0-2.3,1.3-3.3,2.8-3.3c1.8,0,2.5,1.3,2.5,2.8v10.6h4.8V10.1C67.9,6.7,65.7,4.4,61.8,4.4"/>
	<polyline class="st0" points="47.8,6.2 47.8,6.2 47.8,4.6 43,4.6 43,21.8 47.8,21.8 47.8,6.2 	"/>
	<path class="st0" d="M34,4.4v3.8c1.4,0.1,2.6,0.9,2.8,2.9h-6.5c0.2-1.5,1.3-2.7,2.9-2.9V4.4c-4.7,0.2-8,3.7-8,8.8
		c0,5,2.8,8.6,8,8.8v-3.9c-2.2-0.2-3-2.1-3-3.9H42v-0.6C42,8.3,39.2,4.5,34,4.4"/>
	<path class="st0" d="M34,18.1V22c5.7-0.1,7.5-3.9,7.7-6H37C36.9,16.5,36.3,18,34,18.1"/>
	<path class="st0" d="M7.4,18.5c-1.4-0.1-2.5-0.7-2.5-2.1H0c0,0.9,0.4,5.5,7.4,5.7V18.5"/>
	<path class="st0" d="M25.1,8.4V4.6h-3.7V0h-4.7v16.3c0,0.9,0.4,5.5,7.4,5.7v-3.9c-1.4-0.1-2.5-0.3-2.6-1.8V8.4H25.1"/>
	<path class="st0" d="M8.2,7.9c1.4,0.1,2.3,0.8,2.3,1.8h4.7c0-1.3-0.7-5.1-7-5.3V7.9"/>
	<path class="st0" d="M5.1,9.4c0-1.1,1.1-1.5,2.2-1.5V4.4c-3.9,0.1-7,1.9-7,5.4c0,4,3.2,4.9,6.9,5.4l0.9,0.1
		c1.3,0.2,2.6,0.5,2.6,1.5c0,1.2-1.2,1.7-2.6,1.7V22c6-0.2,7.5-3.2,7.5-5.8C15.7,9.3,5.1,12,5.1,9.4"/>
</g>
</svg>
