<?xml version="1.0" encoding="utf-8"?>
<!-- Generator: Adobe Illustrator 23.0.1, SVG Export Plug-In . SVG Version: 6.00 Build 0)  -->
<svg version="1.1" id="Layer_1" xmlns="http://www.w3.org/2000/svg" xmlns:xlink="http://www.w3.org/1999/xlink" x="0px" y="0px"
	 viewBox="0 0 112 150" style="enable-background:new 0 0 112 150;" xml:space="preserve">
<style type="text/css">
	.st0{fill:#46ABE8;}
	.st1{fill:#706F6F;}
</style>
<g>
	<path class="st0" d="M56.3,73.1C56.3,73.1,56.3,73.1,56.3,73.1c0,4.8,0,9.6,0,14.4c0,2.4,0.9,3.4,3.3,3.7c1,0.1,2,0.1,3,0
		c3-0.1,3.9-1.1,3.9-4.1c0-6.9,0-13.8,0-20.7c0-1.4,0.4-1.8,1.8-1.7c6.2,0.1,12.5,0,18.7,0c4.1,0,7.9-1.2,11.3-3.5
		c12.1-8,14.9-26.4,5.7-38.1c-4.1-5.3-9.4-8.6-16.2-8.7c-9.4-0.2-18.7-0.1-28.1-0.1c-1.8,0-2.9,0.8-3.1,2.6
		c-0.3,1.8-0.4,3.7-0.2,5.5c0.3,3,1.2,3.8,4.3,3.8c8.5,0,17.1,0,25.6,0c1,0,2.1,0,3.1,0.2c6.3,1.4,10.4,7.7,9.7,14.8
		c-0.7,6.6-6,11.5-12.4,11.6c-8,0-16.1,0-24.1,0c-4.1,0-6.3,2.2-6.3,6.3C56.3,63.8,56.3,68.4,56.3,73.1z M47.3,34c0.1,0,0.2,0,0.2,0
		c0-5.3,0-10.5,0-15.8c0-2.7-0.8-3.6-3.6-3.8c-1-0.1-2-0.1-3,0c-2.9,0.2-3.7,1-3.7,4c0,9.9,0,19.7,0,29.6c0,1.6-0.2,3.3-0.7,4.8
		c-2.4,7.9-11,11.4-17.7,7.2c-4-2.5-5.9-6.4-6-11c-0.1-4.1,0-8.1,0-12.2c0-6.3,0-12.6,0-18.9c0-2.3-0.9-3.3-3.2-3.4
		c-1.3-0.1-2.6-0.1-3.9,0c-2.3,0.2-3.2,1.2-3.3,3.5c0,10.4-0.1,20.8,0,31.2C2.6,55.9,5,61.9,9.6,66.9c6.5,7,16.6,8.9,25,4.4
		c7.5-4,11.7-10.6,12.6-18.9C47.8,46.3,47.3,40.1,47.3,34z"/>
	<path class="st0" d="M56.3,73.1c0-4.7,0-9.3,0-14c0-4.1,2.2-6.3,6.3-6.3c8,0,16.1,0,24.1,0c6.4,0,11.7-5,12.4-11.6
		c0.7-7.1-3.4-13.4-9.7-14.8c-1-0.2-2.1-0.2-3.1-0.2c-8.5,0-17.1,0-25.6,0c-3.1,0-4.1-0.8-4.3-3.8c-0.2-1.8,0-3.7,0.2-5.5
		c0.2-1.8,1.3-2.6,3.1-2.6c9.4,0,18.7-0.1,28.1,0.1c6.8,0.1,12.1,3.5,16.2,8.7c9.2,11.7,6.4,30-5.7,38.1c-3.4,2.3-7.2,3.5-11.3,3.5
		c-6.2,0-12.5,0-18.7,0c-1.3,0-1.8,0.3-1.8,1.7c0.1,6.9,0,13.8,0,20.7c0,3-0.9,4-3.9,4.1c-1,0-2,0.1-3,0c-2.4-0.2-3.3-1.2-3.3-3.7
		C56.3,82.7,56.3,77.9,56.3,73.1C56.3,73.1,56.3,73.1,56.3,73.1z"/>
	<path class="st0" d="M47.3,34c0,6.1,0.5,12.3-0.1,18.4c-0.8,8.3-5.1,14.9-12.6,18.9c-8.4,4.5-18.5,2.6-25-4.4c-4.6-5-7-11-7.1-17.7
		c-0.1-10.4,0-20.8,0-31.2c0-2.4,0.9-3.4,3.3-3.5c1.3-0.1,2.6-0.1,3.9,0c2.3,0.2,3.2,1.1,3.2,3.4c0,6.3,0,12.6,0,18.9
		c0,4.1-0.1,8.1,0,12.2c0.2,4.6,2.1,8.5,6,11c6.6,4.3,15.3,0.8,17.7-7.2c0.5-1.5,0.6-3.2,0.7-4.8c0.1-9.9,0-19.7,0-29.6
		c0-3,0.8-3.8,3.7-4c1-0.1,2-0.1,3,0c2.8,0.2,3.6,1.1,3.6,3.8c0,5.3,0,10.5,0,15.8C47.5,34,47.4,34,47.3,34z"/>
</g>
<g>
	<path class="st1" d="M48.1,109.1v17.1c0,1.5-0.2,2.7-0.7,3.8s-1.2,2-2,2.8s-1.9,1.3-3,1.7s-2.4,0.6-3.7,0.6c-1.4,0-2.6-0.2-3.8-0.6
		s-2.2-0.9-3-1.7s-1.5-1.7-2-2.8s-0.7-2.4-0.7-3.8v-17.1h4.4v17.1c0,0.9,0.1,1.7,0.4,2.4s0.6,1.2,1,1.6s1,0.8,1.6,1s1.3,0.3,2.1,0.3
		s1.5-0.1,2.1-0.3s1.2-0.5,1.6-1s0.8-1,1-1.6s0.4-1.5,0.4-2.4v-17.1H48.1z"/>
	<path class="st1" d="M57.3,125.2v9.5h-4.4v-25.6h9.8c1.5,0,2.8,0.2,4,0.6s2.1,1,2.9,1.7s1.4,1.6,1.8,2.6s0.6,2.1,0.6,3.3
		c0,1.2-0.2,2.4-0.6,3.3s-1,1.8-1.8,2.5s-1.8,1.2-2.9,1.6s-2.5,0.5-4,0.5H57.3z M57.3,121.6h5.3c0.9,0,1.6-0.1,2.2-0.3
		s1.1-0.5,1.5-0.9s0.7-0.8,0.9-1.4s0.3-1.1,0.3-1.7c0-0.6-0.1-1.2-0.3-1.7s-0.5-1-0.9-1.5s-0.9-0.8-1.5-1s-1.3-0.4-2.2-0.4h-5.3
		V121.6z"/>
	<path class="st1" d="M84.4,122.7h-10V121l4.9-5.3c0.4-0.5,0.8-0.9,1-1.2s0.5-0.7,0.6-1c0.2-0.3,0.3-0.6,0.3-0.8
		c0.1-0.3,0.1-0.5,0.1-0.8c0-0.3,0-0.7-0.1-0.9c-0.1-0.3-0.2-0.5-0.4-0.8c-0.2-0.2-0.4-0.4-0.7-0.5s-0.6-0.2-0.9-0.2
		c-0.4,0-0.8,0.1-1.1,0.2c-0.3,0.1-0.6,0.3-0.8,0.6c-0.2,0.2-0.4,0.5-0.5,0.9c-0.1,0.3-0.2,0.7-0.2,1.1h-2.5c0-0.7,0.1-1.3,0.3-1.8
		s0.5-1.1,1-1.5s1-0.8,1.6-1c0.6-0.2,1.3-0.4,2.2-0.4c0.7,0,1.4,0.1,2,0.3c0.6,0.2,1.1,0.5,1.5,0.8c0.4,0.4,0.7,0.8,0.9,1.3
		c0.2,0.5,0.3,1.1,0.3,1.7c0,0.5-0.1,0.9-0.2,1.4c-0.2,0.5-0.4,0.9-0.6,1.4s-0.6,0.9-1,1.4c-0.4,0.5-0.8,0.9-1.2,1.4l-3.3,3.6h6.9
		V122.7z"/>
</g>
</svg>
