<?xml version="1.0" encoding="utf-8"?>
<!-- Generator: Adobe Illustrator 22.1.0, SVG Export Plug-In . SVG Version: 6.00 Build 0)  -->
<svg version="1.1" id="Layer_1" xmlns="http://www.w3.org/2000/svg" xmlns:xlink="http://www.w3.org/1999/xlink" x="0px" y="0px"
	 viewBox="0 0 56.7 68" style="enable-background:new 0 0 56.7 68;" xml:space="preserve">
<style type="text/css">
	.st0{fill:#474747;}
	.st1{fill:#0055A5;}
	.st2{fill:#FFFFFF;}
</style>
<g>
	<path class="st0" d="M6.1,63c0-0.1,0-0.3-0.1-0.4c0-0.1-0.1-0.2-0.2-0.3c-0.1-0.1-0.3-0.2-0.5-0.3c-0.2-0.1-0.5-0.2-0.8-0.3
		c-0.4-0.1-0.7-0.3-1.1-0.4C3,61.2,2.7,61,2.5,60.8C2.2,60.6,2,60.3,1.9,60c-0.1-0.3-0.2-0.6-0.2-1c0-0.3,0.1-0.7,0.2-1
		c0.2-0.3,0.4-0.5,0.6-0.7c0.3-0.2,0.6-0.4,1-0.5c0.4-0.1,0.8-0.2,1.2-0.2c0.5,0,0.9,0.1,1.3,0.2c0.4,0.1,0.7,0.3,1,0.5
		s0.5,0.5,0.6,0.8c0.1,0.3,0.2,0.7,0.2,1H6.1c0-0.2,0-0.3-0.1-0.5c-0.1-0.1-0.1-0.3-0.3-0.4c-0.1-0.1-0.3-0.2-0.4-0.2
		c-0.2-0.1-0.4-0.1-0.6-0.1c-0.2,0-0.4,0-0.6,0.1c-0.2,0-0.3,0.1-0.4,0.2c-0.1,0.1-0.2,0.2-0.2,0.3c-0.1,0.1-0.1,0.2-0.1,0.4
		c0,0.3,0.1,0.5,0.4,0.7C4.1,60,4.5,60.2,5,60.3c0.5,0.1,0.9,0.3,1.2,0.5c0.3,0.2,0.6,0.4,0.9,0.6s0.4,0.5,0.5,0.7
		c0.1,0.3,0.2,0.6,0.2,0.9c0,0.4-0.1,0.7-0.2,1S7.2,64.5,7,64.7c-0.3,0.2-0.6,0.3-1,0.5c-0.4,0.1-0.8,0.2-1.2,0.2
		c-0.3,0-0.5,0-0.8-0.1c-0.3,0-0.5-0.1-0.8-0.2c-0.2-0.1-0.5-0.2-0.7-0.4c-0.2-0.1-0.4-0.3-0.6-0.5s-0.3-0.4-0.4-0.7
		c-0.1-0.3-0.1-0.5-0.1-0.9h1.7c0,0.3,0,0.5,0.1,0.6s0.2,0.3,0.3,0.4c0.1,0.1,0.3,0.2,0.5,0.2c0.2,0,0.4,0.1,0.7,0.1
		c0.2,0,0.4,0,0.6-0.1c0.2,0,0.3-0.1,0.4-0.2S6,63.5,6,63.4C6.1,63.3,6.1,63.2,6.1,63z"/>
	<path class="st0" d="M15.8,61.2c0,0.6-0.1,1.2-0.3,1.7c-0.2,0.5-0.4,0.9-0.7,1.3c-0.3,0.4-0.7,0.6-1.1,0.8
		c-0.4,0.2-0.9,0.3-1.4,0.3s-1-0.1-1.4-0.3c-0.4-0.2-0.8-0.5-1.1-0.8C9.4,63.9,9.2,63.5,9,63c-0.2-0.5-0.3-1.1-0.3-1.7v-0.4
		c0-0.6,0.1-1.2,0.3-1.7c0.2-0.5,0.4-0.9,0.7-1.3c0.3-0.4,0.7-0.6,1.1-0.8c0.4-0.2,0.9-0.3,1.4-0.3s1,0.1,1.4,0.3
		c0.4,0.2,0.8,0.5,1.1,0.8c0.3,0.4,0.6,0.8,0.7,1.3c0.2,0.5,0.3,1.1,0.3,1.7V61.2z M14.1,60.9c0-0.9-0.2-1.5-0.5-2
		c-0.3-0.5-0.8-0.7-1.3-0.7s-1,0.2-1.3,0.7c-0.3,0.5-0.5,1.1-0.5,2v0.4c0,0.4,0,0.8,0.1,1.2c0.1,0.3,0.2,0.6,0.4,0.8
		c0.2,0.2,0.3,0.4,0.6,0.5c0.2,0.1,0.5,0.2,0.8,0.2c0.6,0,1-0.2,1.3-0.7c0.3-0.5,0.5-1.1,0.5-2V60.9z"/>
	<path class="st0" d="M19.3,56.9l2.1,6l2.1-6h2.3v8.3h-1.7v-2.3l0.2-3.9L22,65.2h-1.2L18.6,59l0.2,3.9v2.3h-1.7v-8.3H19.3z"/>
	<path class="st0" d="M30.4,62.3h-3.2V61h3.2V62.3z"/>
	<path class="st0" d="M34.1,56.9l2.1,6l2.1-6h2.3v8.3h-1.7v-2.3l0.2-3.9l-2.3,6.2h-1.2L33.4,59l0.2,3.9v2.3h-1.7v-8.3H34.1z"/>
	<path class="st0" d="M45.2,59.8l1.6-2.9h2L46.3,61l2.5,4.2h-2l-1.6-2.9l-1.6,2.9h-2l2.5-4.2l-2.4-4.1h2L45.2,59.8z"/>
	<path class="st0" d="M54,56.8v1.4h-0.1c-0.4,0-0.7,0.1-1.1,0.2c-0.3,0.1-0.6,0.2-0.8,0.4c-0.2,0.2-0.4,0.4-0.5,0.7
		c-0.1,0.3-0.2,0.6-0.3,0.9c0.2-0.2,0.4-0.4,0.7-0.5c0.3-0.1,0.6-0.2,1-0.2c0.4,0,0.7,0.1,1,0.2c0.3,0.2,0.5,0.4,0.7,0.6
		c0.2,0.3,0.3,0.6,0.4,0.9c0.1,0.3,0.1,0.7,0.1,1.1c0,0.4-0.1,0.8-0.2,1.1c-0.1,0.3-0.3,0.7-0.6,0.9c-0.2,0.3-0.5,0.5-0.9,0.6
		c-0.3,0.1-0.7,0.2-1.2,0.2c-0.4,0-0.9-0.1-1.2-0.2c-0.4-0.2-0.7-0.4-0.9-0.7c-0.3-0.3-0.4-0.6-0.6-1c-0.1-0.4-0.2-0.9-0.2-1.3v-0.6
		c0-0.7,0.1-1.3,0.3-1.8c0.2-0.6,0.5-1,0.8-1.4c0.4-0.4,0.8-0.7,1.3-0.9c0.5-0.2,1.1-0.3,1.8-0.3H54z M52.4,61c-0.1,0-0.3,0-0.4,0.1
		c-0.1,0-0.2,0.1-0.3,0.2c-0.1,0.1-0.2,0.2-0.3,0.2c-0.1,0.1-0.1,0.2-0.2,0.3v0.5c0,0.3,0,0.6,0.1,0.8s0.1,0.4,0.3,0.6
		c0.1,0.1,0.2,0.3,0.4,0.3c0.2,0.1,0.3,0.1,0.5,0.1c0.2,0,0.3,0,0.5-0.1c0.1-0.1,0.3-0.2,0.4-0.3c0.1-0.1,0.2-0.3,0.2-0.5
		c0.1-0.2,0.1-0.4,0.1-0.6c0-0.2,0-0.4-0.1-0.6c-0.1-0.2-0.1-0.3-0.2-0.5c-0.1-0.1-0.2-0.2-0.4-0.3C52.8,61,52.6,61,52.4,61z"/>
</g>
<g>
	<circle class="st1" cx="28.3" cy="25.5" r="21.3"/>
	<polygon class="st2" points="28.3,34.1 35.5,11.4 42.9,11.4 32.7,43.7 24,43.7 13.8,11.4 21.2,11.4 	"/>
</g>
</svg>
