<?xml version="1.0" encoding="utf-8"?>
<!-- Generator: Adobe Illustrator 22.1.0, SVG Export Plug-In . SVG Version: 6.00 Build 0)  -->
<svg version="1.1" id="Ebene_1" xmlns="http://www.w3.org/2000/svg" xmlns:xlink="http://www.w3.org/1999/xlink" x="0px" y="0px"
	 viewBox="0 0 66 74" style="enable-background:new 0 0 66 74;" xml:space="preserve">
<style type="text/css">
	.st0{fill:#FFF176;}
	.st1{fill:#FFC100;}
</style>
<g>
	<g>
		<path class="st0" d="M64.4,20.5l-6.7,4l-18.5,11c-3,1.8-4.9,5.1-4.9,8.6v20.7v7.8c1.4-0.2,2.7-0.6,3.8-1.2l22.2-12.7
			c3.1-1.8,5-5.1,5-8.7V24.5C65.3,23.1,65,21.8,64.4,20.5z"/>
		<g>
			<path class="st1" d="M54.2,54c2.5-1.4,4-4.1,4-7V27.4c0-1-0.2-2-0.6-2.9l-18.5,11c-3,1.8-4.9,5.1-4.9,8.6v20.7c1-0.1,2-0.4,2.9-1
				L54.2,54z"/>
			<path class="st0" d="M64.4,20.5l-6.7,4c0.4,0.9,0.6,1.9,0.6,2.9V47c0,2.9-1.6,5.6-4,7l-17.1,9.8c-0.9,0.5-1.9,0.8-2.9,1v7.8
				c1.4-0.2,2.7-0.6,3.8-1.2l22.2-12.7c3.1-1.8,5-5.1,5-8.7V24.5C65.3,23.1,65,21.8,64.4,20.5z"/>
		</g>
	</g>
	<g>
		<path class="st0" d="M60.3,15.8L38.1,3.1c-3.1-1.8-6.9-1.8-10,0L6,15.8c-1.3,0.7-2.4,1.8-3.2,3l6.8,3.9l18.7,10.8
			c2.1,1.3,3.8,3.2,4.9,5.4c1-2.2,2.7-4.1,4.9-5.4l18.6-11l6.7-4C62.4,17.4,61.4,16.5,60.3,15.8z"/>
		<g>
			<path class="st1" d="M54.2,20.4l-17.1-9.8c-2.5-1.4-5.6-1.4-8.1,0l-17,9.8c-1,0.6-1.9,1.4-2.5,2.3l18.7,10.8
				c2.1,1.3,3.8,3.2,4.9,5.4c1-2.2,2.7-4.1,4.9-5.4l18.6-11C55.9,21.6,55.1,20.9,54.2,20.4z"/>
			<path class="st0" d="M60.3,15.8L38.1,3.1c-3.1-1.8-6.9-1.8-10,0L6,15.8c-1.3,0.7-2.4,1.8-3.2,3l6.8,3.9c0.7-0.9,1.5-1.7,2.5-2.3
				l17-9.8c2.5-1.4,5.6-1.4,8.1,0l17.1,9.8c0.9,0.5,1.7,1.2,2.3,2.1l6.7-4C62.4,17.4,61.4,16.5,60.3,15.8z"/>
		</g>
	</g>
	<g>
		<path class="st0" d="M27,35.5L8.5,24.8l-6.8-3.9C1.3,22,1,23.2,1,24.5v25.5c0,3.6,1.9,6.9,5,8.6l22.1,12.7
			c1.2,0.7,2.4,1.1,3.8,1.2v-7.8V44.1C31.9,40.5,30.1,37.3,27,35.5z"/>
		<g>
			<path class="st0" d="M12.1,54c-2.5-1.4-4-4.1-4-7V27.4c0-0.9,0.2-1.8,0.5-2.6l-6.8-3.9C1.3,22,1,23.2,1,24.5v25.5
				c0,3.6,1.9,6.9,5,8.6l22.1,12.7c1.2,0.7,2.4,1.1,3.8,1.2v-7.8c-1-0.1-2-0.5-2.9-1L12.1,54z"/>
			<path class="st1" d="M27,35.5L8.5,24.8C8.2,25.6,8,26.5,8,27.4V47c0,2.9,1.5,5.6,4,7l17,9.8c0.9,0.5,1.9,0.8,2.9,1V44.1
				C31.9,40.5,30.1,37.3,27,35.5z"/>
		</g>
	</g>
</g>
</svg>