<?xml version="1.0" encoding="utf-8"?>
<!-- Generator: Adobe Illustrator 27.9.0, SVG Export Plug-In . SVG Version: 6.00 Build 0)  -->
<svg version="1.1" id="Layer_1" xmlns="http://www.w3.org/2000/svg" xmlns:xlink="http://www.w3.org/1999/xlink" x="0px" y="0px"
	 viewBox="0 0 12773.11 4429.77" style="enable-background:new 0 0 12773.11 4429.77;" xml:space="preserve">
<style type="text/css">
	.st0{fill:#E51D39;}
	.st1{fill:#1D3160;}
	.st2{fill-rule:evenodd;clip-rule:evenodd;fill:#E51D39;}
	.st3{fill-rule:evenodd;clip-rule:evenodd;fill:#1D3160;}
</style>
<g>
	<path class="st0" d="M3847.64,2460.02v1024.07h-210.07V2460.02h-348.35V2258.7h906.78v201.32H3847.64L3847.64,2460.02z
		 M4911.96,3114.71h-593.43c7,131.3,103.28,210.07,210.07,210.07c78.77,0,141.79-29.75,189.06-92.78l129.54,133.04
		c-70.02,84.03-175.05,140.04-318.6,140.04c-253.83,0-413.13-175.05-413.13-469.14c0-292.35,162.8-467.41,413.13-467.41
		c215.31,0,390.37,133.04,390.37,420.13C4918.97,3025.44,4917.22,3074.45,4911.96,3114.71L4911.96,3114.71z M4528.6,2748.86
		c-110.29,0-197.82,56.01-208.32,196.06h395.62C4707.16,2808.38,4621.37,2748.86,4528.6,2748.86L4528.6,2748.86z M5403.85,2764.6
		c-124.29,0-197.82,106.79-197.82,273.09c0,166.31,73.52,269.58,190.82,269.58c80.53,0,138.29-45.52,162.79-129.54l196.06,59.52
		c-50.76,176.82-173.29,267.84-358.85,267.84c-243.33,0-399.13-173.31-399.13-467.4c0-292.34,155.79-469.15,399.13-469.15
		c173.3,0,301.09,75.29,355.35,246.84l-194.3,64.77C5531.63,2811.87,5477.37,2764.6,5403.85,2764.6L5403.85,2764.6z
		 M6440.15,3484.09v-516.42c0-145.29-64.76-204.81-166.3-204.81c-105.03,0-182.05,54.26-182.05,201.3v519.92h-204.81V2314.72
		l204.81-94.53v453.38c57.76-70.02,134.79-105.03,236.31-105.03c169.82,0,316.86,92.79,316.86,365.87v549.68H6440.15
		L6440.15,3484.09z M7364.42,3484.09v-512.92c0-147.04-63.02-208.3-166.31-208.3c-110.28,0-182.05,57.76-182.05,204.81v516.42
		h-204.81v-894.54h204.81v84.02c57.77-70.02,134.8-105.03,236.32-105.03c169.8,0,316.84,92.79,316.84,365.87v549.68H7364.42
		L7364.42,3484.09z M8101.38,3505.09c-250.33,0-409.63-173.31-409.63-467.4c0-292.34,159.29-469.15,409.63-469.15
		c252.07,0,411.37,176.82,411.37,469.15C8512.75,3331.78,8353.45,3505.09,8101.38,3505.09L8101.38,3505.09z M8101.38,2762.86
		c-124.29,0-204.82,105.03-204.82,274.83c0,169.81,80.53,271.34,204.82,271.34c127.79,0,206.55-101.54,206.55-271.34
		C8307.93,2867.89,8229.17,2762.86,8101.38,2762.86L8101.38,2762.86z M8652.77,3484.09V2316.48l204.81-96.29v1263.9H8652.77
		L8652.77,3484.09z M9407.24,3505.09c-250.32,0-409.62-173.31-409.62-467.4c0-292.34,159.29-469.15,409.62-469.15
		c252.08,0,411.39,176.82,411.39,469.15C9818.62,3331.78,9659.31,3505.09,9407.24,3505.09L9407.24,3505.09z M9407.24,2762.86
		c-124.28,0-204.81,105.03-204.81,274.83c0,169.81,80.53,271.34,204.81,271.34c127.79,0,206.56-101.54,206.56-271.34
		C9613.8,2867.89,9535.03,2762.86,9407.24,2762.86L9407.24,2762.86z M10261.48,3834.18l-108.54-164.55
		c252.08-17.51,325.6-73.53,325.6-194.3v-50.76c-52.52,57.76-122.54,80.53-203.06,80.53c-210.07,0-369.36-157.55-369.36-469.14
		c0-292.35,152.29-467.41,371.11-467.41c92.78,0,159.3,33.27,201.31,75.29v-54.28h204.82v805.25
		C10683.37,3690.63,10569.57,3811.43,10261.48,3834.18L10261.48,3834.18z M10478.55,2850.39c-31.51-45.52-89.27-87.53-168.05-87.53
		c-127.79,0-199.56,96.27-199.56,273.09c0,164.55,71.77,273.09,199.56,273.09c73.52,0,131.3-31.51,168.05-87.53V2850.39
		L10478.55,2850.39z M11180.5,3823.68h-211.82l138.3-353.6l-336.11-880.53h206.56l208.31,549.67
		c12.26,29.77,19.26,52.52,26.27,80.53c7-28.01,14-50.75,24.51-80.53l210.07-549.67h206.56L11180.5,3823.68L11180.5,3823.68z"/>
	<path class="st1" d="M4038.56,1332.06c145.3,52.52,201.32,173.3,201.32,283.59c0,169.8-106.79,362.36-409.63,362.36h-526.91V752.62
		h500.64c295.85,0,392.12,161.05,392.12,327.36C4196.11,1183.26,4147.09,1279.54,4038.56,1332.06L4038.56,1332.06z M3809.25,946.94
		h-295.84v299.34h262.57c140.04,0,208.32-61.26,208.32-150.54C3984.3,1023.96,3954.53,946.94,3809.25,946.94L3809.25,946.94z
		 M3791.74,1440.59h-278.33v343.1h329.09c143.54,0,183.81-87.53,183.81-162.79C4026.31,1529.86,3982.54,1440.59,3791.74,1440.59
		L3791.74,1440.59z M4388.67,1978V810.39l204.81-96.28V1978H4388.67L4388.67,1978z M5312.93,1978v-85.78
		c-56.02,71.78-134.79,106.79-234.57,106.79c-169.8,0-318.59-94.53-318.59-367.61v-547.91h204.81v511.16
		c0,147.04,63.02,208.31,168.05,208.31c108.54,0,180.3-56.02,180.3-204.81v-514.66h204.82V1978H5312.93L5312.93,1978z
		 M6445.51,1608.64h-593.43c7,131.28,103.28,210.05,210.07,210.05c78.77,0,141.79-29.75,189.06-92.77l129.54,133.04
		c-70.01,84.03-175.05,140.04-318.59,140.04c-253.84,0-413.13-175.05-413.13-469.15c0-292.33,162.79-467.39,413.13-467.39
		c215.31,0,390.36,133.04,390.36,420.13C6452.51,1519.36,6450.77,1568.38,6445.51,1608.64L6445.51,1608.64z M6062.16,1242.77
		c-110.29,0-197.82,56.02-208.32,196.06h395.62C6240.71,1302.29,6154.92,1242.77,6062.16,1242.77L6062.16,1242.77z M7403.03,932.93
		c-225.81,0-295.83,239.82-295.83,432.38c0,203.06,89.27,430.64,295.83,430.64c110.29,0,178.56-64.78,234.57-157.55l194.3,73.52
		c-75.26,169.8-210.05,287.09-428.88,287.09c-381.62,0-512.91-330.85-512.91-633.7c0-281.83,134.79-633.7,512.91-633.7
		c232.83,0,374.62,131.3,427.13,260.84l-189.06,85.77C7579.85,985.45,7518.57,932.93,7403.03,932.93L7403.03,932.93z M8519.87,1978
		v-516.4c0-145.3-64.77-204.82-166.31-204.82c-105.03,0-182.06,54.27-182.06,201.32V1978H7966.7V808.64l204.81-94.53v453.4
		c57.77-70.02,134.8-105.03,236.33-105.03c169.8,0,316.84,92.77,316.84,365.86V1978H8519.87L8519.87,1978z M8987.24,960.94
		c-68.28,0-122.54-54.27-122.54-122.54c0-66.52,54.26-120.79,122.54-120.79c68.27,0,120.79,54.27,120.79,120.79
		C9108.03,906.67,9055.51,960.94,8987.24,960.94L8987.24,960.94z M9088.78,1978h-204.83v-894.52h204.83V1978L9088.78,1978z
		 M9682.21,1999.01c-96.29,0-161.04-40.27-203.07-92.78v329.1l-204.82,94.53V1083.48h204.82v68.27
		c43.76-52.52,108.54-89.27,204.81-89.27c222.31,0,367.61,169.8,367.61,469.15C10051.56,1825.7,9899.26,1999.01,9682.21,1999.01
		L9682.21,1999.01z M9652.44,1256.78c-80.53,0-136.55,33.27-173.3,87.53v371.12c31.52,45.52,91.03,87.53,173.3,87.53
		c124.29,0,194.31-96.28,194.31-271.33C9846.75,1368.81,9778.48,1256.78,9652.44,1256.78L9652.44,1256.78z"/>
	<path class="st2" d="M2561.81,2219.28c-82.62,21.23-149.46,85.84-199.62,155.42c-150.33,188.35-153.46,366.38-476.85,594.49
		c-270.8,191.34-593.17,206.04-615.49,205.87c-22.32-0.18-48.47-1.43-50.42,4.2c3.42,2.18,9.31,7.13,17.34,14.02
		c33.54,18.59,171.76,117.44,385.99,124.62c291.67-3.03,510.1-218.42,659.61-512.56c139.12-243.85,128.77-386.26,293.32-578.86
		C2570.95,2223.97,2566.31,2221.55,2561.81,2219.28z"/>
	<path class="st3" d="M2561.75,2219.25c-145.83-71.17-344.63-83.36-546.17-60.92c124.13-98.34,327.7-94.53,327.7-94.53
		s6.29,35.46,42.02,37.81c31.4,1.17,37.81-37.81,37.81-37.81s27.65,1.08,73.52,2.1c-200.24-147.95-411.56-106.22-556.67-18.91
		c-145.11,87.31-316.45,178.03-367.62,277.29c-51.17,99.25-182.86,466.14-388.62,798.25c-173.18,262.83-214.81,302.33-252.08,403.32
		c-2.1,4.31-8.82,9.05-14.71,8.41c-27.43-43.12-59.61-25.46-60.92-48.32c25.48-22.21,176.42-248.63,277.29-436.94
		c100.87-188.31,248.12-477.67,262.58-752.03c0.85-190.19-96.35-303.72-233.17-523.07c-152.69-227.28-193.17-191.47-430.64-399.13
		c-237.46-207.66-348.59-426.84-371.82-630.2c110.09,223.08,392.35,472.15,647.01,550.38c103.82,28.1,159.48,81.48,186.96,149.15
		c29.78,73.34,27.75,164.03,52.52,273.08c12.03,61.63,39.24,131.6,75.62,193.26c87.82,141.71,228.29,270.37,331.9,262.58
		c92.2-6.27,165.37-107.79,264.68-210.07c100.02-102.98,236.94-208.59,365.52-197.46c113.31,2.41,253.18,77.48,323.5,161.75
		c80.77,96.8,83.53,175.17,161.75,247.88c131.29,82.15,229.07,174.39,300.39,264.68
		C2916.68,2444.36,2690.22,2284.28,2561.75,2219.25L2561.75,2219.25z M2129.01,1635.27c-108.81,90.42-211.49,291.9-216.37,304.59
		c-4.88,12.69-12.6,10.5-12.6,10.5s12.45-105.37,79.82-249.98c70.72-153.84,164.72-257.17,176.46-281.49
		c20.95-36.89,36.22-107.96,81.92-220.57c79.24-186.38,199.13-330.08,212.17-348.71c13.04-18.62,30.57-35.86,31.51-25.21
		c-103.86,249.61-130.06,563.65-147.05,632.3C2291.91,1575.66,2237.83,1544.85,2129.01,1635.27L2129.01,1635.27z M2141.62,1341.17
		c-13.6,81.63-85.34,158.03-96.63,180.66c-11.29,22.62-14.45,17.6-21.01,14.71c-197.19-220.84-164.77-399.23-117.64-466.35
		c77.69-149.95,428.24-227.24,436.94-228.97c8.7-1.73,15.43-6.3,21.01,0c5.58,6.3-61.87,65.27-123.94,193.26
		S2155.21,1259.54,2141.62,1341.17L2141.62,1341.17z M2009.28,1574.35c0,0-10.11,31.02-16.81,33.61
		c-6.69,2.59-220.31-89.97-270.98-222.67c-47.46-123.85,45.23-226.27,98.73-266.78c0,0,7.62-0.5,8.4,4.2
		c0.78,4.7-27.31,93.41,14.71,205.86C1894.19,1466.75,2009.28,1574.35,2009.28,1574.35L2009.28,1574.35z M1971.46,1647.87
		c-0.52,17.27-17.33,46.65-23.11,48.32c-5.78,1.67-197.28-8.99-279.38-111.34c-76.87-97.63-16.82-222.12-16.81-224.77
		c0,0,8.37-8.34,12.6,0c3.72,5.73-6.86,44.52,56.72,130.24C1805.99,1591.23,1965.19,1638.45,1971.46,1647.87L1971.46,1647.87z
		 M1692.08,1670.98c83.36,58.62,222.28,70.12,231.07,69.32c8.8-0.8,10.57,3.41,10.5,6.3c-0.06,2.89-15.11,63.58-18.91,73.52
		c-3.79,9.94-150.07,40.81-233.17-4.2c-105.61-50.77-87.16-210.14-81.93-231.08C1608.02,1569.68,1616.04,1614.97,1692.08,1670.98
		L1692.08,1670.98z M1723.59,2055.4c42.27-2.05,70.92-24.53,86.13-18.91c-15.06,12.95-64.25,78.04-119.73,77.73
		c-48.05-4.08-58.6-65.02-60.92-69.33C1637,2036.62,1681.32,2057.45,1723.59,2055.4L1723.59,2055.4z M1870.63,1883.14
		c13.09-4.21,14.71,2.1,14.71,2.1l-12.6,60.92c0,0-74.08,69.91-159.65,63.02c-112.72,1.65-122.01-169.68-119.73-182.76
		c2.28-13.07,38.58,43.69,134.44,65.12C1801.88,1903.7,1857.54,1887.36,1870.63,1883.14L1870.63,1883.14z M700.57,1418.9
		c202.48,177.56,301.05,140.65,481.05,460.04c-5.15,8.02-262.59,32.43-502.06-94.53c-275.11-133.31-414.99-472.34-348.71-836.06
		c6.54,3.15,10.42-2.83,23.11,29.41C366.65,1010,477.36,1220.81,700.57,1418.9L700.57,1418.9z M759.38,1872.64
		c236.04,84.62,423.76,41.05,439.04,48.31c15.28,7.27,23.11,42.01,23.11,42.01s-250.36,120.08-466.35,56.72
		c-311.55-78.35-371.82-426.44-371.82-426.44S488.68,1773.97,759.38,1872.64L759.38,1872.64z M912.73,2095.31
		c184.81,2.46,340.31-94.53,340.31-94.53s24.17,42.22,25.21,54.62c1.03,12.4-172.01,134.76-340.31,126.04
		c-205.77-0.29-363.9-161.24-359.21-174.35C585.29,2003.34,699.83,2093.78,912.73,2095.31L912.73,2095.31z M1360.17,2370.49
		c-4.06,29.28-11.53,170.18-113.43,210.07c-69.37,20.05-147.05-56.71-147.05-56.71c3.01-10.85,76.68,9.03,165.96-50.41
		C1337.57,2428.02,1342.78,2374.41,1360.17,2370.49L1360.17,2370.49z M891.73,2368.4c2.97-2.28,137.52,53.35,275.19-8.4
		c122.67-59.89,165.64-147.06,172.26-151.25s10.5-2.1,10.5-2.1s14.13,73.14,8.41,90.33c-5.73,17.19-110.57,173.45-256.28,176.46
		C974.21,2466.5,884.21,2374.08,891.73,2368.4L891.73,2368.4z M1036.67,2233.95c164.84-24.71,252.09-123.88,264.68-123.94
		c12.59-0.06,21.48,37.23,18.91,46.22c-2.57,8.99-147.06,188.4-310.9,180.65c-189.12-1.18-300.39-161.75-300.39-161.75
		C713.92,2175.3,871.83,2258.66,1036.67,2233.95L1036.67,2233.95z M1211.03,3267.48c18.6,38.5,35.71,50.41,35.71,50.41
		s-41.79,41.11-102.93,132.34c-72.09,102.18-102.93,201.66-102.93,201.66s-8.33,1.84-12.6-2.1c-4.28-3.93-28.48-31.69-63.02-73.52
		c-28.96-118.08,198.39-346.44,210.07-367.62C1190.64,3207.93,1192.43,3228.98,1211.03,3267.48L1211.03,3267.48z M1265.64,3345.2
		c0,0,33.11,19.22,35.71,25.21c2.6,5.98-19.3,94.11-67.22,207.96c-58.14,121.89-111.93,148.91-147.05,153.35
		c-24.16-26.94-21.09-73.06,18.91-159.65C1146,3485.47,1253.5,3366.88,1265.64,3345.2L1265.64,3345.2z M1382.12,3422.91
		c31.71,25.16,25.47,80.28-7.24,176.46c-26.15,77.2-144.65,95.05-159.65,94.53c-0.39-10.74,49.31-52.76,115.54-302.49
		C1330.98,3391.72,1344.65,3393.67,1382.12,3422.91L1382.12,3422.91z M1322.36,3353.6c-67.72-53.98-97.15-138.48-102.93-174.35
		c22.86,14.55,153.98,151.13,323.5,186.96c0.26,14.11-18.29,30.18-44.11,79.83c-38.72,62.53-50.41,170.15-50.41,170.15
		s-34.96,7.45-42.02,12.61c-7.05,5.15-12.6,0-12.6,0s25.5-95.67,33.61-155.46C1432.47,3416.94,1376.94,3389.33,1322.36,3353.6
		L1322.36,3353.6z"/>
</g>
</svg>
