<svg width="149" height="238" viewBox="0 0 149 238" fill="none" xmlns="http://www.w3.org/2000/svg">
  <g clip-path="url(#clip0_42_2)">
    <path d="M4.5742 237.205H1.20173V217.493H4.5742V237.205ZM0.928101 212.248C0.928101 211.7 1.09591 211.233 1.42586 210.854C1.76186 210.474 2.25962 210.288 2.91272 210.288C3.57225 210.288 4.07002 210.474 4.40602 210.854C4.74845 211.233 4.91626 211.7 4.91626 212.248C4.91626 212.795 4.74845 213.256 4.40602 213.623C4.07002 213.99 3.57225 214.17 2.91272 214.17C2.25962 214.17 1.76186 213.99 1.42586 213.623C1.09591 213.256 0.928101 212.795 0.928101 212.248Z" fill="#63666A"/>
    <path d="M16.8633 210.661L25.537 232.321L34.217 210.661H38.7532V237.205H35.256V226.87L35.5795 215.714L26.8685 237.205H24.1869L15.4944 215.763L15.8428 226.87V237.205H12.3396V210.661H16.8633Z" fill="#63666A"/>
    <path d="M55.4413 220.834L61.8003 210.661H65.9193L57.5382 223.821L66.1248 237.205H61.9681L55.4413 226.851L48.8766 237.205H44.7388L53.3444 223.821L44.938 210.661H49.0384L55.4413 220.834Z" fill="#63666A"/>
    <path d="M87.2558 217.58C87.2558 218.905 86.9074 220.081 86.2104 221.114C85.5135 222.147 84.5678 222.956 83.3731 223.541C84.7606 224.138 85.8559 225.01 86.6647 226.148C87.4735 227.293 87.878 228.593 87.878 230.037C87.878 232.339 87.1066 234.169 85.557 235.531C84.0017 236.894 81.9668 237.578 79.4405 237.578C76.8833 237.578 74.8424 236.894 73.3056 235.525C71.7685 234.156 70.9971 232.327 70.9971 230.037C70.9971 228.606 71.389 227.305 72.1729 226.154C72.9571 224.997 74.0396 224.12 75.4274 223.522C74.2512 222.937 73.3181 222.128 72.6397 221.096C71.9552 220.063 71.6192 218.893 71.6192 217.58C71.6192 215.346 72.3346 213.567 73.7659 212.254C75.2033 210.941 77.095 210.288 79.4405 210.288C81.774 210.288 83.6592 210.941 85.0966 212.254C86.54 213.567 87.2558 215.346 87.2558 217.58ZM84.5055 229.962C84.5055 228.475 84.0327 227.262 83.0931 226.329C82.1535 225.389 80.9214 224.922 79.4031 224.922C77.8849 224.922 76.6656 225.383 75.7445 226.31C74.8299 227.237 74.3696 228.45 74.3696 229.962C74.3696 231.468 74.8174 232.657 75.7071 233.521C76.6032 234.386 77.8479 234.816 79.4405 234.816C81.0147 234.816 82.2593 234.38 83.1554 233.509C84.0576 232.638 84.5055 231.456 84.5055 229.962ZM79.4405 213.05C78.1154 213.05 77.0386 213.461 76.2238 214.282C75.4025 215.103 74.9917 216.224 74.9917 217.63C74.9917 218.986 75.3961 220.075 76.2049 220.909C77.0077 221.743 78.0905 222.159 79.4405 222.159C80.7845 222.159 81.8674 221.743 82.6762 220.909C83.485 220.075 83.8834 218.986 83.8834 217.63C83.8834 216.28 83.4665 215.178 82.6263 214.326C81.7865 213.473 80.7286 213.05 79.4405 213.05Z" fill="#63666A"/>
    <path d="M99.3707 210.661L108.044 232.321L116.724 210.661H121.261V237.205H117.763V226.87L118.087 215.714L109.376 237.205H106.694L98.0018 215.763L98.3503 226.87V237.205H94.847V210.661H99.3707Z" fill="#63666A"/>
    <path d="M132.791 226.827V237.205H129.294V210.661H139.081C141.987 210.661 144.258 211.402 145.907 212.889C147.556 214.37 148.377 216.336 148.377 218.781C148.377 221.357 147.575 223.342 145.963 224.736C144.351 226.13 142.043 226.827 139.044 226.827H132.791ZM132.791 223.952H139.081C140.954 223.952 142.385 223.51 143.381 222.626C144.376 221.749 144.874 220.474 144.874 218.806C144.874 217.225 144.376 215.962 143.381 215.01C142.385 214.065 141.016 213.573 139.28 213.536H132.791V223.952Z" fill="#63666A"/>
    <path d="M22.2665 180.153H10.768V189.524H24.1271V192.398H7.26477V165.854H23.9465V168.729H10.768V177.278H22.2665V180.153Z" fill="#63666A"/>
    <path d="M49.9311 188.92C49.0289 190.214 47.7719 191.179 46.1667 191.813C44.5551 192.454 42.6759 192.772 40.5416 192.772C38.3764 192.772 36.4597 192.262 34.7797 191.247C33.0997 190.233 31.8057 188.789 30.8846 186.917C29.9699 185.044 29.4971 182.872 29.4722 180.402V178.087C29.4722 174.086 30.4057 170.981 32.2724 168.785C34.1391 166.582 36.7583 165.481 40.1372 165.481C42.9122 165.481 45.1398 166.19 46.8263 167.603C48.5187 169.022 49.5513 171.031 49.9311 173.632H46.4279C45.7744 170.117 43.6839 168.356 40.1558 168.356C37.8102 168.356 36.0368 169.177 34.8232 170.826C33.6164 172.475 33.0064 174.864 32.9939 177.988V180.159C32.9939 183.134 33.6723 185.504 35.0349 187.259C36.3978 189.02 38.2395 189.897 40.5602 189.897C41.8732 189.897 43.018 189.754 44.0011 189.461C44.9905 189.169 45.7993 188.684 46.4464 187.993V182.057H40.3051V179.183H49.9311V188.92Z" fill="#63666A"/>
    <path d="M58.2878 179.102L59.6318 165.854H73.2335V168.99H62.494L61.6912 176.221C62.9918 175.455 64.4726 175.076 66.1216 175.076C68.542 175.076 70.4647 175.872 71.8831 177.471C73.308 179.07 74.0174 181.23 74.0174 183.949C74.0174 186.686 73.277 188.839 71.8022 190.413C70.3278 191.988 68.2619 192.772 65.6113 192.772C63.2654 192.772 61.3552 192.118 59.868 190.818C58.3872 189.518 57.5409 187.719 57.3357 185.423H60.5275C60.7331 186.942 61.2743 188.086 62.1516 188.852C63.0227 189.624 64.18 190.009 65.6113 190.009C67.1791 190.009 68.4112 189.474 69.3073 188.404C70.197 187.34 70.6449 185.865 70.6449 183.98C70.6449 182.207 70.1596 180.788 69.1951 179.711C68.2309 178.635 66.9429 178.1 65.3373 178.1C63.869 178.1 62.7117 178.423 61.8779 179.064L60.9818 179.798L58.2878 179.102Z" fill="#63666A"/>
    <path d="M90.631 192.399H87.2399V169.93L80.4391 172.425V169.364L90.1022 165.743H90.631V192.399Z" fill="#63666A"/>
    <path d="M119.745 192.398H102.354V189.966L111.544 179.755C112.907 178.212 113.846 176.955 114.363 175.99C114.879 175.02 115.134 174.018 115.134 172.985C115.134 171.597 114.718 170.465 113.877 169.575C113.038 168.686 111.924 168.244 110.524 168.244C108.844 168.244 107.543 168.723 106.616 169.675C105.683 170.633 105.222 171.965 105.222 173.663H101.844C101.844 171.224 102.634 169.245 104.208 167.74C105.782 166.234 107.886 165.481 110.524 165.481C112.988 165.481 114.942 166.128 116.373 167.423C117.81 168.717 118.525 170.44 118.525 172.593C118.525 175.206 116.864 178.317 113.529 181.926L106.423 189.636H119.745V192.398Z" fill="#63666A"/>
    <path d="M141.809 181.08C141.809 185.031 141.137 187.968 139.787 189.891C138.437 191.813 136.328 192.772 133.466 192.772C130.628 192.772 128.537 191.832 127.174 189.953C125.812 188.074 125.109 185.268 125.059 181.535V177.029C125.059 173.122 125.731 170.222 127.081 168.325C128.432 166.427 130.547 165.481 133.428 165.481C136.284 165.481 138.387 166.396 139.731 168.225C141.081 170.054 141.772 172.879 141.809 176.7V181.08ZM138.437 176.451C138.437 173.595 138.039 171.51 137.236 170.203C136.433 168.897 135.164 168.244 133.428 168.244C131.698 168.244 130.442 168.897 129.651 170.197C128.861 171.498 128.456 173.495 128.432 176.196V181.597C128.432 184.471 128.848 186.587 129.682 187.956C130.51 189.325 131.773 190.009 133.466 190.009C135.127 190.009 136.365 189.362 137.174 188.074C137.983 186.786 138.4 184.757 138.437 181.982V176.451Z" fill="#63666A"/>
    <path fill-rule="evenodd" clip-rule="evenodd" d="M27.7741 83.7789L35.4277 37.5401C35.4458 37.3451 35.4707 37.1501 35.5025 36.9551C35.8517 34.8211 36.9946 32.7757 38.607 31.2359C40.4824 29.4421 42.9928 28.3309 45.5076 28.1155C45.7412 28.0951 45.9725 28.0815 46.2061 28.077L91.1863 28.0883C91.5536 28.086 91.9188 28.0906 92.2861 28.1064C94.8577 28.2176 97.4905 28.8344 99.6335 30.2834C101.584 31.6033 103.128 33.6125 103.783 35.8484C104.112 36.9709 104.217 38.1502 104.133 39.3135C104.044 40.5562 103.743 41.7785 103.271 42.926C103.017 43.5451 102.715 44.1415 102.373 44.7129C102.008 45.3207 101.6 45.8989 101.153 46.45C100.677 47.0351 100.157 47.5884 99.6063 48.1054C99.316 48.3798 99.019 48.6429 98.7106 48.8946C98.5518 49.0261 98.3908 49.1508 98.2298 49.2778C98.0665 49.4094 97.9032 49.5386 97.7309 49.6543C97.5971 49.7427 97.4588 49.8198 97.3204 49.9037C96.9395 50.1305 96.5766 50.3867 96.2093 50.6339C95.8419 50.8834 95.47 51.1238 95.0981 51.3664C94.3543 51.8517 93.615 52.3438 92.8757 52.8314C91.3972 53.811 89.9164 54.7861 88.4378 55.7612C86.957 56.7364 85.4784 57.7137 83.9999 58.6889C83.7073 58.8816 83.4171 59.0744 83.1245 59.2649L79.5574 61.6142C79.4871 61.655 79.4191 61.6981 79.3488 61.7412C78.6458 62.1834 77.8974 62.8297 77.8022 63.5667C77.7886 63.6642 77.7886 63.764 77.7977 63.8638C77.8521 64.5146 78.3192 65.2017 78.7456 65.7392L89.1567 78.4497C89.456 78.808 89.7576 79.1799 90.0343 79.5677C90.6307 80.4022 91.125 81.3093 91.2929 82.3049C91.438 83.1734 91.3359 84.1077 90.9708 84.9059C90.5218 85.8879 89.676 86.6611 88.7734 87.2757C88.6396 87.3687 88.5036 87.4571 88.3652 87.5433L78.1537 94.2716L73.3643 97.4283L72.7838 97.8092L70.4798 99.3263C67.5975 101.224 64.7107 103.116 61.8239 105.002H90.0479C90.5649 105.002 91.0797 105.002 91.5944 104.984C92.4857 104.957 93.3792 104.88 94.2817 104.683C95.1729 104.488 96.0755 104.175 96.7172 103.615C97.6107 102.835 98.003 101.578 98.282 100.299C98.4112 99.7164 98.5155 99.129 98.6312 98.5803C99.1823 95.1991 99.7378 91.8202 100.298 88.439L100.665 86.2257L100.863 85.0397L101.35 82.0985L101.434 81.5951L101.754 79.6811L102.017 78.1028L102.028 78.037L102.593 74.6445L103.008 72.1636L103.176 71.1658L103.763 67.6532L117.011 58.7274C117.217 58.6163 117.433 58.5324 117.66 58.4598C117.664 58.4598 120.936 57.4121 120.503 61.4804C120.46 61.8795 120.39 62.2764 120.329 62.6596L112.675 108.896C112.655 109.093 112.63 109.288 112.598 109.481C112.251 111.617 111.106 113.661 109.494 115.203C107.618 116.996 105.108 118.108 102.593 118.323C102.359 118.343 102.128 118.355 101.894 118.359L56.9143 118.348C56.5492 118.352 56.1818 118.346 55.8144 118.33C53.2428 118.221 50.6123 117.604 48.467 116.153C46.5191 114.835 44.9725 112.826 44.3171 110.588C43.9883 109.468 43.884 108.286 43.9679 107.123C44.0563 105.882 44.3579 104.66 44.8296 103.513C45.0836 102.893 45.3852 102.297 45.7299 101.726C46.0927 101.118 46.5032 100.537 46.9477 99.9885C47.4262 99.4012 47.9432 98.8501 48.4943 98.3308C48.7845 98.0587 49.0839 97.7934 49.39 97.5416C49.5487 97.4124 49.7097 97.2854 49.8708 97.1584C50.034 97.0291 50.1973 96.8976 50.3719 96.7842C50.5034 96.6958 50.644 96.6164 50.7801 96.5348C51.1611 96.3057 51.5239 96.0518 51.8913 95.8023C52.2609 95.5551 52.6328 95.3125 53.0025 95.0698C53.7463 94.5845 54.4856 94.0947 55.2248 93.6049C56.7034 92.6275 58.1842 91.6524 59.6628 90.6773C61.1436 89.7021 62.6221 88.7248 64.1007 87.7496C64.3932 87.5569 64.6857 87.3641 64.976 87.1714L68.5431 84.822C68.6134 84.7812 68.6814 84.7404 68.7517 84.6973C69.4547 84.2551 70.2031 83.6088 70.2983 82.8718C70.3686 82.3275 70.0852 81.7357 69.7337 81.2118C69.6112 81.0304 69.482 80.8581 69.3572 80.6993L58.9439 67.9888C58.6445 67.6305 58.3452 67.2586 58.0663 66.8708C57.4699 66.0363 56.9755 65.1292 56.8077 64.1337C56.6626 63.2651 56.7646 62.3308 57.1297 61.5326C57.5787 60.5506 58.4246 59.7774 59.3271 59.1605C59.4609 59.0698 59.597 58.9814 59.7353 58.8952L69.9605 52.1601L74.7362 49.0102L75.3372 48.6157L77.6208 47.1099C80.5031 45.2141 83.3899 43.3205 86.2789 41.4338H58.0527C57.5356 41.4338 57.0208 41.4361 56.5061 41.4519C55.6149 41.4814 54.7236 41.5585 53.8211 41.7558C52.9276 41.9508 52.0273 42.2638 51.3833 42.8239C50.4898 43.604 50.0975 44.8603 49.8186 46.1393C49.6916 46.7221 49.5873 47.3072 49.4694 47.856C48.9183 51.2371 48.3627 54.6183 47.8026 57.9972L47.4375 60.2105L47.2402 61.3988L46.7504 64.3377L46.6665 64.8434L46.349 66.7551L46.0859 68.3357L46.0746 68.4038L45.5076 71.794L45.0927 74.2749L44.9248 75.2704L44.3375 78.7831L31.0895 87.7111C30.8832 87.8222 30.6677 87.9038 30.441 87.9764C29.0803 88.6567 27.3092 87.6635 27.5972 84.9581C27.6403 84.559 27.7129 84.1621 27.7741 83.7789ZM146.607 73.2158C146.607 58.19 142.04 44.2322 134.218 32.6509C129.005 24.9294 122.34 18.2645 114.619 13.0465C110.759 10.4387 106.634 8.19135 102.294 6.3545C97.9531 4.51765 93.3973 3.09126 88.6737 2.12521C86.313 1.64219 83.9092 1.27255 81.4691 1.02537C79.0268 0.775916 76.5481 0.648926 74.0401 0.648926C69.0329 0.648926 64.146 1.15689 59.4247 2.12067C54.701 3.08672 50.1452 4.51086 45.8025 6.34771C41.4621 8.18229 37.3348 10.4296 33.4752 13.0375C25.7491 18.2532 19.0842 24.918 13.8662 32.6419C11.2583 36.5038 9.01103 40.6288 7.17418 44.9692C5.3396 49.3119 3.91321 53.87 2.94716 58.5936C1.98111 63.3173 1.47314 68.2065 1.47314 73.2158C1.47314 78.2275 1.98111 83.119 2.94716 87.8449C3.91548 92.5685 5.34187 97.1266 7.17872 101.467C9.01557 105.807 11.2606 109.932 13.8708 113.794C19.0888 121.516 25.7536 128.181 33.4774 133.397C37.3393 136.004 41.4643 138.249 45.8047 140.084C50.1451 141.921 54.7032 143.345 59.4269 144.311C61.7899 144.794 64.1914 145.161 66.6314 145.409C66.899 145.436 67.1666 145.463 67.4342 145.486C69.609 145.683 71.8132 145.783 74.0401 145.783C76.2987 145.783 78.5347 145.678 80.7412 145.477C80.9838 145.456 81.2265 145.431 81.4691 145.406C83.9069 145.159 86.3107 144.79 88.6737 144.307C93.395 143.34 97.9509 141.914 102.291 140.077C106.632 138.24 110.757 135.995 114.616 133.387C118.476 130.78 122.073 127.809 125.356 124.525C138.486 111.393 146.607 93.2534 146.607 73.2158Z" fill="#F9423A"/>
  </g>
  <defs>
    <clipPath id="clip0_42_2">
      <rect width="149" height="238" fill="white"/>
    </clipPath>
  </defs>
</svg>
