<?xml version="1.0" encoding="utf-8"?>
<!-- Generator: Adobe Illustrator 23.1.1, SVG Export Plug-In . SVG Version: 6.00 Build 0)  -->
<svg version="1.1" id="Layer_1" xmlns="http://www.w3.org/2000/svg" xmlns:xlink="http://www.w3.org/1999/xlink" x="0px" y="0px"
	 viewBox="0 0 112 150" style="enable-background:new 0 0 112 150;" xml:space="preserve">
<style type="text/css">
	.st0{fill:#A5DE37;}
	.st1{fill:#C8F178;}
	.st2{fill-rule:evenodd;clip-rule:evenodd;fill:#2A506F;}
	.st3{fill:#2A506F;}
</style>
<g>
	<path class="st0" d="M58.5,107.2v13.3c2-0.3,4.1-1,5.8-2l37.8-21.8c5.3-3.1,8.6-8.7,8.6-14.7V38.7c0-1.9-0.3-3.8-1-5.6l-11.5,6.7
		L66.5,58.1c-6.5,4.6-7.9,9-8,14.1C58.5,72.2,58.5,107.2,58.5,107.2z"/>
	<path class="st0" d="M95.7,35.1l11.5-6.6c-1.4-1.8-3.1-3.4-5-4.5L64.4,2.2c-5.2-3-11.7-3-17,0L9.8,24c-1.9,1.1-3.7,2.8-5.1,4.6
		l11.5,6.6l31.7,18.3c3.7,2.3,6.2,4.8,8,7.6c1.7-2.8,4.3-5.2,8-7.6L95.7,35.1z"/>
	<path class="st0" d="M13.8,39.8L2.2,33.2c-0.6,1.8-0.9,3.7-0.9,5.5V82c0,6,3.3,11.7,8.5,14.7l37.6,21.8c1.7,1,3.8,1.7,5.8,2v-13.3
		V72.1c-0.1-5.1-1.5-9.5-8.1-14.1L13.8,39.8z"/>
	<path class="st1" d="M109.7,33.1l-11.5,6.7c0.4,1.2,0.6,2.6,0.6,3.9v33.4c0,4.9-2.7,9.5-6.9,11.9l-29.1,16.7
		c-1.3,0.7-2.8,1.2-4.3,1.5v13.3c2-0.3,4.1-1,5.8-2L102,96.8c5.3-3.1,8.6-8.7,8.6-14.7V38.7C110.7,36.8,110.3,34.9,109.7,33.1z"/>
	<path class="st1" d="M20.1,31.7l29-16.7c4.2-2.5,9.5-2.5,13.7,0l29.1,16.7c1.5,0.8,2.8,2,3.8,3.4l11.5-6.6c-1.4-1.8-3.1-3.4-5-4.5
		L64.4,2.2c-5.2-3-11.7-3-17,0L9.8,24c-1.9,1.1-3.7,2.8-5.1,4.6l11.5,6.6C17.2,33.8,18.6,32.7,20.1,31.7z"/>
	<path class="st1" d="M49,105.7L20,88.9c-4.3-2.5-6.8-7-6.8-11.9V43.7c0-1.3,0.2-2.6,0.6-3.8L2.2,33.2c-0.6,1.8-0.9,3.7-0.9,5.5V82
		c0,6,3.3,11.7,8.5,14.7l37.6,21.8c1.7,1,3.8,1.7,5.8,2v-13.3C51.8,106.9,50.3,106.4,49,105.7z"/>
</g>
<g>
	<path class="st2" d="M103.9,134.9L103.9,134.9c0,1.4,1.1,2.5,2.4,2.5s2.4-1,2.4-2.5c0-1.4-1.1-2.5-2.4-2.5S103.9,133.5,103.9,134.9
		z M102,134.9L102,134.9c0-2.1,1.5-4.2,4.3-4.2c2.8,0,4.3,2.2,4.3,4.2c0,2.1-1.5,4.3-4.3,4.3C103.5,139.2,102,137,102,134.9z
		 M97.3,138.9v-8h1.8v1.1c0.4-0.7,1-1.3,2.2-1.3v1.9h-0.1c-1.3,0-2,0.6-2,2v4.3H97.3z M90.7,130v3.3H92c0.5,0,1,0,1.4-0.3
		c0.4-0.2,0.7-0.7,0.7-1.4s-0.3-1.1-0.7-1.3c-0.4-0.2-0.9-0.3-1.5-0.3H90.7z M88.5,128.1h3.3c1.8,0,2.6,0.3,3.2,0.7
		c0.8,0.6,1.2,1.7,1.2,2.8s-0.5,2.2-1.1,2.7c-0.7,0.6-1.5,0.9-3,0.9h-1.3v3.7h-2.2V128.1z"/>
	<path class="st3" d="M1.3,129.6h11.3v4.5H6.4v3.1h6v4.5h-6v3.4h6.2v4.5H1.3V129.6z"/>
	<path class="st3" d="M16.9,138h-2.2v-3.4h2.2v-5h4.5v5h2.2v3.4h-2.2v11.5h-4.5V138z"/>
	<path class="st3" d="M40.3,143.8c-0.8,3.4-3.8,6.2-7.8,6.2c-4.5,0-8-3.6-8-8c0-4.4,3.4-7.9,7.9-7.9c4,0,7.2,2.6,7.9,6.3h-4.5
		c-0.5-1-1.4-2.1-3.2-2.1c-1-0.1-1.9,0.3-2.6,1c-0.6,0.7-1,1.7-1,2.7c0,2.2,1.4,3.8,3.6,3.8c1.9,0,2.7-1.1,3.2-2H40.3z"/>
	<path class="st3" d="M42.3,129.6h4.5v4.5v1.9c0.8-1.3,2.3-1.9,3.9-1.9c2.3,0,3.6,0.8,4.4,2.1c0.8,1.3,1,3.1,1,5v8.3h-4.5v-8.1
		c0-0.8-0.1-1.6-0.5-2.2c-0.4-0.6-1-0.9-1.9-0.9c-1.2,0-1.9,0.6-2.2,1.2c-0.3,0.6-0.3,1.4-0.3,1.8v8.3h-4.5V129.6z"/>
	<path class="st3" d="M63,143.6c0.2,1.6,1.7,2.6,3.4,2.6c1.4,0,2.2-0.6,2.7-1.4h4.6c-0.7,1.7-1.8,3-3,3.8c-1.2,0.9-2.7,1.3-4.3,1.3
		c-4.3,0-7.9-3.5-7.9-7.9c0-4.2,3.3-8,7.8-8c2.3,0,4.3,0.9,5.7,2.4c1.9,2,2.4,4.4,2.1,7.2H63z M69.7,140.2c-0.1-0.7-1-2.4-3.3-2.4
		c-2.3,0-3.2,1.7-3.3,2.4H69.7z"/>
	<path class="st3" d="M76.7,134.6h4.2v1.7c0.4-0.8,1.2-2.2,3.8-2.2v4.5h-0.2c-2.3,0-3.4,0.8-3.4,2.9v8h-4.5V134.6z"/>
</g>
</svg>