<svg id="Layer_1" data-name="Layer 1" xmlns="http://www.w3.org/2000/svg" viewBox="0 0 40 40"><defs><style>.cls-1{fill:#0091bd;}</style></defs><path class="cls-1" d="M9.3,10.14h2.62V21.37H9.3V20.2a4.3,4.3,0,0,1-3.36,1.51c-3.46,0-5.44-2.88-5.44-6C.5,12.09,3,9.85,6,9.85a4.05,4.05,0,0,1,3.33,1.6ZM3.19,15.81c0,1.93,1.22,3.58,3.11,3.58a3.21,3.21,0,0,0,3.18-3.54c0-2.46-1.51-3.63-3.18-3.63C4.41,12.2,3.19,13.82,3.19,15.81ZM15,10.14h2.62v1a4.58,4.58,0,0,1,1.09-.94,2.94,2.94,0,0,1,1.6-.38,3.88,3.88,0,0,1,2.06.53l-1.07,2.37A2.33,2.33,0,0,0,20,12.34a2.05,2.05,0,0,0-1.63.61,3.57,3.57,0,0,0-.73,2.58v5.84H15Zm9.05,0h2.62v1a3.42,3.42,0,0,1,2.77-1.33,3.29,3.29,0,0,1,2.9,1.64,4,4,0,0,1,3.33-1.64,3.59,3.59,0,0,1,3.2,1.76,5.6,5.6,0,0,1,.59,2.84v6.93H36.88V15.22a4.75,4.75,0,0,0-.25-2,1.48,1.48,0,0,0-1.5-1,1.94,1.94,0,0,0-1.55.82,4.5,4.5,0,0,0-.51,2.56V21.4H30.45V15.22a4.75,4.75,0,0,0-.25-2,1.48,1.48,0,0,0-1.5-1,1.94,1.94,0,0,0-1.55.82,4.5,4.5,0,0,0-.51,2.56V21.4H24.09Z"/><path class="cls-1" d="M14.88,32.17,12.5,24.85h1.7l1,3.47c.12.42.22.82.33,1.18s.21.77.33,1.19h.06c.13-.42.24-.82.33-1.19s.2-.76.31-1.18l1-3.47h1.62L16.8,32.17Z"/><path class="cls-1" d="M23.73,32.34a4.08,4.08,0,0,1-1.24-.18,3,3,0,0,1-1-.49,2.46,2.46,0,0,1-.64-.77,2.08,2.08,0,0,1-.23-1,2,2,0,0,1,.44-1.33,3.59,3.59,0,0,1,1.07-.85v-.06a3.62,3.62,0,0,1-.86-.89A2.12,2.12,0,0,1,21,25.56a2.37,2.37,0,0,1,.21-1,2.07,2.07,0,0,1,.59-.78,2.6,2.6,0,0,1,.9-.49,3.78,3.78,0,0,1,1.14-.17,3.31,3.31,0,0,1,1.11.18,2.37,2.37,0,0,1,.85.49,2.17,2.17,0,0,1,.55.77,2.48,2.48,0,0,1,.19,1,1.88,1.88,0,0,1-.35,1.14,2.93,2.93,0,0,1-.81.8v.06a3.53,3.53,0,0,1,1.09.9,2.16,2.16,0,0,1,.45,1.42,2.11,2.11,0,0,1-.22,1,2.39,2.39,0,0,1-.64.78,3.32,3.32,0,0,1-1,.52A4.08,4.08,0,0,1,23.73,32.34Zm0-1.43a1.34,1.34,0,0,0,.86-.27A1,1,0,0,0,25,29.8a.91.91,0,0,0-.13-.5,1.37,1.37,0,0,0-.38-.38,3.37,3.37,0,0,0-.6-.33l-.76-.34a2.54,2.54,0,0,0-.49.64,1.64,1.64,0,0,0-.2.77,1.12,1.12,0,0,0,.41.92A1.47,1.47,0,0,0,23.77,30.91ZM24.29,27a1.94,1.94,0,0,0,.55-1.3,1.18,1.18,0,0,0-.29-.83,1.12,1.12,0,0,0-1.49-.07,1,1,0,0,0-.3.77,1,1,0,0,0,.42.86A5.17,5.17,0,0,0,24.29,27Z"/></svg>