<svg id="图层_1" data-name="图层 1" xmlns="http://www.w3.org/2000/svg" viewBox="0 0 403.5 108.3"><defs><style>.cls-1{fill:#266bad;isolation:isolate;}.cls-2,.cls-3{fill:#fff;}.cls-2{stroke:#fff;stroke-miterlimit:10;}.cls-4{fill:#3071b7;}</style></defs><title>瑞迅科技01</title><rect class="cls-1" x="-0.2" y="60.9" width="404.4" height="47.33"/><path class="cls-2" d="M123.2,98.9V70.3h3.2V98.9Z"/><path class="cls-2" d="M132.5,89.6h3.2v.5a13.5,13.5,0,0,0,.4,3.8,2.8,2.8,0,0,0,1.3,1.7,5.9,5.9,0,0,0,2.1.5l5.9.2a17.4,17.4,0,0,0,3.8-.3,3.8,3.8,0,0,0,2-1,2.6,2.6,0,0,0,.5-1.3,14.2,14.2,0,0,0,.2-2.5q0-3.2-.6-4a3.5,3.5,0,0,0-2.5-1l-8.8-.7q-4-.3-5.5-2t-1.5-5.6a13.2,13.2,0,0,1,.5-4,5.7,5.7,0,0,1,1.6-2.5,5.1,5.1,0,0,1,2.4-1.1,31.9,31.9,0,0,1,5.5-.3h1a30.9,30.9,0,0,1,6.2.4,7,7,0,0,1,3,1.5,4.1,4.1,0,0,1,1.2,2,11,11,0,0,1,.4,3.2q0,.6,0,.9v.5h-3.2v-.7a12.1,12.1,0,0,0-.2-2.4,2.5,2.5,0,0,0-.6-1.2,3.9,3.9,0,0,0-2.1-.8,45,45,0,0,0-5.8-.2q-4.4,0-5.6,1t-1.1,4a5.7,5.7,0,0,0,.7,3.4,3.9,3.9,0,0,0,2.9,1.1l9,.7q3.5.3,5,2t1.4,5.5a18.1,18.1,0,0,1-.4,4.2,5.3,5.3,0,0,1-4,4,28.9,28.9,0,0,1-6.4.5H143a26.6,26.6,0,0,1-5.6-.4,6.2,6.2,0,0,1-2.7-1.4A5.4,5.4,0,0,1,133,95a13.2,13.2,0,0,1-.5-4Z"/><path class="cls-2" d="M160.3,79.7q0-5.5,2.3-7.6t8-2.2h3.6q5.3,0,7.8,1.8a6.4,6.4,0,0,1,2.5,5.6v1.2h-3.3v-.3q0-3-1.5-4.1T174,72.9h-2.5a19.2,19.2,0,0,0-4.2.3,5.4,5.4,0,0,0-2.2,1.1,3.8,3.8,0,0,0-1.2,1.9,18.3,18.3,0,0,0-.3,4.3v8.1a18.1,18.1,0,0,0,.3,4.3,3.8,3.8,0,0,0,1.2,1.9,5.4,5.4,0,0,0,2.2,1.1,19.1,19.1,0,0,0,4.3.3H174a17.8,17.8,0,0,0,3.9-.3,4.9,4.9,0,0,0,2-1,3.5,3.5,0,0,0,1.1-1.8,16.3,16.3,0,0,0,.3-3.9V87.5h-7.9V84.6h11.2v4.8q0,5.5-2.3,7.6t-8,2.2h-3.6q-5.8,0-8-2.2t-2.3-7.6Z"/><path class="cls-2" d="M189.3,89.6V86.9h10.7v2.7Z"/><path class="cls-2" d="M205.3,90.5h3.2v1.9a3.3,3.3,0,0,0,1.3,3.1q1.3.8,5.9.8h1a11.7,11.7,0,0,0,3.5-.4,4.2,4.2,0,0,0,1.8-1.3,3,3,0,0,0,.6-1.3,13.6,13.6,0,0,0,.2-2.7V89.3a25.7,25.7,0,0,0-.1-3.2,5.8,5.8,0,0,0-.5-1.7,3.5,3.5,0,0,0-2-1.7,13.6,13.6,0,0,0-4.4-.5,15.5,15.5,0,0,0-5.3.6,2.3,2.3,0,0,0-1.5,2.1h-3.2V70.3h18.9v3H209.1v8.2a4.5,4.5,0,0,1,2.2-1.7,17.4,17.4,0,0,1,5-.5,23.1,23.1,0,0,1,4.7.3,6.3,6.3,0,0,1,2.5,1.2,6.1,6.1,0,0,1,2,2.9,18.6,18.6,0,0,1,.6,5.4,21,21,0,0,1-.5,5.2,5.7,5.7,0,0,1-1.6,2.7,7,7,0,0,1-2.9,1.6,20.9,20.9,0,0,1-5.2.5,26,26,0,0,1-6.2-.5,5.6,5.6,0,0,1-2.8-1.7,6.4,6.4,0,0,1-1.1-2.1,8.1,8.1,0,0,1-.4-2.6Z"/><path class="cls-2" d="M241.2,99.2q-5.2,0-7.3-2.2t-2.1-7.6V79.7q0-5.5,2.1-7.6t7.3-2.2h2.7q5.2,0,7.3,2.2t2.1,7.6v9.7q0,5.5-2.1,7.6t-7.3,2.2Zm.1-2.9h2.5a12.9,12.9,0,0,0,3.3-.3,3.8,3.8,0,0,0,1.7-1,3.8,3.8,0,0,0,.9-1.8,18.3,18.3,0,0,0,.3-3.8V79.8a18.3,18.3,0,0,0-.3-3.8,3.8,3.8,0,0,0-.9-1.8,4,4,0,0,0-1.8-1,12.6,12.6,0,0,0-3.2-.3h-2.5a13.1,13.1,0,0,0-3.3.3,3.6,3.6,0,0,0-1.7,1,3.9,3.9,0,0,0-1,1.8,17.8,17.8,0,0,0-.3,3.9v9.6a17.8,17.8,0,0,0,.3,3.9,3.9,3.9,0,0,0,1,1.8,3.6,3.6,0,0,0,1.7,1A13.1,13.1,0,0,0,241.3,96.3Z"/><path class="cls-2" d="M258.6,89.4h3.2V92q0,2.5,1.3,3.4t6.2.9a21.9,21.9,0,0,0,4.7-.3,3.2,3.2,0,0,0,1.9-1.2,3.3,3.3,0,0,0,.4-1.3,30.4,30.4,0,0,0,.1-3.2q0-2.7-1.1-3.5a6.6,6.6,0,0,0-3.9-.9h-4.4V82.9h4q2.8,0,3.9-1t1-4.1a12,12,0,0,0-.2-2.9,2.3,2.3,0,0,0-.8-1.2,4.1,4.1,0,0,0-2-.6l-4.3-.2q-4.1,0-5.3.8a3.3,3.3,0,0,0-1.2,3v2.6h-3.2V76.7q0-3.7,2.2-5.2t7.4-1.6l5,.2a7.8,7.8,0,0,1,2.6.6,4.6,4.6,0,0,1,2.3,2.2,11.5,11.5,0,0,1,.7,4.6q0,3.4-.9,4.8a4.7,4.7,0,0,1-3.1,1.8,5.4,5.4,0,0,1,3.5,1.9,7.8,7.8,0,0,1,1,4.5,24.7,24.7,0,0,1-.2,3.2,8.3,8.3,0,0,1-.6,2.2,4.6,4.6,0,0,1-2.8,2.6,21.9,21.9,0,0,1-6.8.7,32.2,32.2,0,0,1-6.1-.4,5.7,5.7,0,0,1-2.6-1.3,5.9,5.9,0,0,1-1.6-2.4,10.4,10.4,0,0,1-.5-3.5Z"/><rect class="cls-3" x="18.3" y="81.1" width="71.6" height="4.94"/><rect class="cls-3" x="314" y="81.1" width="71.6" height="4.94"/><path class="cls-4" d="M15.8,24.6h4.7c3.5,0,5.6-2.1,5.6-5.6s-1.4-5.4-6.1-5.4H0V.9H22.8C34.2.9,42.1,7.1,42.1,18.1a17.2,17.2,0,0,1-8,14.6h0c.1.3,1.2,1.6,2.3,3.6l9.1,16.8H28.3L20.2,36.8H15.8V53.2H0V24.7"/><path class="cls-4" d="M75,0c16.8,0,28.1,11.5,28.1,26.7S91.8,54.1,75,54.1,46.9,42.3,46.9,26.7,58.2,0,75,0Zm0,40.1c6.9,0,11.9-5.4,11.9-13.4S81.9,14,75,14,63.2,19.1,63.2,26.7,68.1,40.1,75,40.1Z"/><path class="cls-4" d="M135.5,0c13.5,0,20.1,7,20.1,7l-6.1,12.1a20,20,0,0,0-12.7-5c-9.1,0-13.5,5.9-13.5,12.7s4.5,13,13.5,13a17.9,17.9,0,0,0,13.2-6.1L157,45.7s-7,8.4-21.6,8.4c-17.1,0-28.4-11.3-28.4-27S118.6,0,135.5,0Z"/><path class="cls-4" d="M161.7.9h15.8V20.1h3.9L190.6.9h16.9l-13,25.2c3.2,6.6,11.7,22.7,13.8,27.1H190.9L181.4,33h-3.9V53.2H161.7Z"/><path class="cls-4" d="M226,13.5H210.4V.9h46.9V13.5H241.8V53.2H226Z"/><path class="cls-4" d="M262.8,20.5h35.9V33.1H278.6v7.5h20.1V53.2H262.8m0-52.3h35.9V13.5H262.8"/><path class="cls-4" d="M331.2,0c13.5,0,20,7,20,7l-6.1,12.1a20,20,0,0,0-12.7-5c-9.1,0-13.5,5.9-13.5,12.7s4.5,13,13.5,13a17.9,17.9,0,0,0,13.2-6.1l7.2,11.9s-7,8.4-21.6,8.4c-17,0-28.4-11.3-28.4-27S314.4,0,331.2,0Z"/><path class="cls-4" d="M356.7.9h15.8V20.6h15.1V.9h15.8V53.2H387.7V34H372.5V53.2H356.7Z"/></svg>