<?xml version="1.0" encoding="utf-8"?>
<svg viewBox="7.971 12.372 51.7 47.006" xmlns="http://www.w3.org/2000/svg">
  <path class="st0" d="M 13.271 26.766 C 13.271 26.766 17.971 20.009 27.271 19.324 L 27.271 16.876 C 16.871 17.757 7.971 26.276 7.971 26.276 C 7.971 26.276 13.071 40.67 27.271 41.943 L 27.271 39.299 C 16.771 38.026 13.271 26.766 13.271 26.766 Z" style="fill: rgb(119, 185, 0);"/>
  <path class="st0" d="M 27.271 34.207 L 27.271 36.557 C 19.371 35.186 17.171 27.157 17.171 27.157 C 17.171 27.157 20.971 23.045 27.271 22.359 L 27.271 25.003 C 23.971 24.612 21.371 27.647 21.371 27.647 C 21.371 27.647 22.771 32.739 27.271 34.207 Z" style="fill: rgb(119, 185, 0);"/>
  <path class="st0" d="M 27.271 12.372 L 27.271 16.876 C 27.571 16.876 27.871 16.876 28.171 16.778 C 39.971 16.387 47.571 26.178 47.571 26.178 C 47.571 26.178 38.771 36.753 29.571 36.753 C 28.771 36.753 27.971 36.655 27.171 36.557 L 27.171 39.397 C 27.771 39.495 28.471 39.495 29.171 39.495 C 37.671 39.495 43.871 35.186 49.871 30.193 C 50.871 30.976 54.871 32.836 55.771 33.718 C 50.071 38.418 36.871 42.139 29.371 42.139 C 28.671 42.139 27.971 42.139 27.271 42.041 L 27.271 45.957 L 59.671 45.957 L 59.671 12.372 L 27.271 12.372 Z" style="fill: rgb(119, 185, 0);"/>
  <path class="st0" d="M 27.271 22.359 L 27.271 19.324 C 27.571 19.324 27.871 19.324 28.171 19.324 C 36.671 19.03 42.171 26.472 42.171 26.472 C 42.171 26.472 36.171 34.599 29.771 34.599 C 28.871 34.599 27.971 34.501 27.271 34.207 L 27.271 25.003 C 30.571 25.395 31.271 26.864 33.171 29.997 L 37.571 26.374 C 37.571 26.374 34.371 22.262 28.971 22.262 C 28.371 22.262 27.771 22.359 27.271 22.359 Z" style="fill: rgb(119, 185, 0);"/>
  <text style="fill: rgb(51, 51, 51); font-family: Arial, sans-serif; font-size: 13.1px; font-weight: 700; white-space: pre;" transform="matrix(0.715944, 0, 0, 0.742327, 5.59617, 15.327219)" x="6.452" y="56.392">ORIN NX</text>
</svg>
