<?xml version="1.0" encoding="utf-8"?>
<!-- Generator: Adobe Illustrator 23.0.2, SVG Export Plug-In . SVG Version: 6.00 Build 0)  -->
<svg version="1.1" id="Layer_1" xmlns="http://www.w3.org/2000/svg" xmlns:xlink="http://www.w3.org/1999/xlink" x="0px" y="0px"
	 viewBox="0 0 53 56" style="enable-background:new 0 0 53 56;" xml:space="preserve">
<style type="text/css">
	.st0{fill:#77B900;}
</style>
<title>Nvidia_logo</title>
<desc>Created with Sketch.</desc>
<path class="st0" d="M5.8,14.8c0,0,4.7-6.9,14-7.6V4.7C9.4,5.6,0.5,14.3,0.5,14.3s5.1,14.7,19.3,16v-2.7C9.3,26.3,5.8,14.8,5.8,14.8
	z"/>
<path class="st0" d="M19.8,22.4v2.4c-7.9-1.4-10.1-9.6-10.1-9.6s3.8-4.2,10.1-4.9V13l0,0c-3.3-0.4-5.9,2.7-5.9,2.7
	S15.3,20.9,19.8,22.4L19.8,22.4z"/>
<path class="st0" d="M19.8,0.1v4.6c0.3,0,0.6,0,0.9-0.1c11.8-0.4,19.4,9.6,19.4,9.6S31.3,25,22.1,25c-0.8,0-1.6-0.1-2.4-0.2v2.9
	c0.6,0.1,1.3,0.1,2,0.1c8.5,0,14.7-4.4,20.7-9.5c1,0.8,5,2.7,5.9,3.6c-5.7,4.8-18.9,8.6-26.4,8.6c-0.7,0-1.4,0-2.1-0.1v4h32.4V0.1
	H19.8z"/>
<path class="st0" d="M19.8,10.3V7.2c0.3,0,0.6,0,0.9,0c8.5-0.3,14,7.3,14,7.3s-6,8.3-12.4,8.3c-0.9,0-1.8-0.1-2.5-0.4V13
	c3.3,0.4,4,1.9,5.9,5.1l4.4-3.7c0,0-3.2-4.2-8.6-4.2C20.9,10.2,20.3,10.3,19.8,10.3L19.8,10.3z"/>
<g>
	<path d="M12,53.3H9.2l-5.5-8.9v8.9H1V39.7h2.8l5.5,9v-9H12V53.3z"/>
	<path d="M22.3,50.5h-4.9l-0.9,2.8h-3l5.1-13.6h2.6l5.1,13.6h-3L22.3,50.5z M18.2,48.2h3.4l-1.7-5.1L18.2,48.2z"/>
	<path d="M38.6,53.3h-2.8l-5.5-8.9v8.9h-2.8V39.7h2.8l5.5,9v-9h2.8V53.3z"/>
	<path d="M52.2,46.8c0,1-0.1,2-0.4,2.8c-0.3,0.8-0.7,1.5-1.2,2.1c-0.5,0.6-1.1,1-1.8,1.3c-0.7,0.3-1.5,0.5-2.3,0.5
		c-0.9,0-1.6-0.2-2.3-0.5c-0.7-0.3-1.3-0.7-1.8-1.3c-0.5-0.6-0.9-1.3-1.2-2.1s-0.4-1.8-0.4-2.8v-0.6c0-1,0.1-2,0.4-2.8
		s0.7-1.5,1.2-2.1c0.5-0.6,1.1-1,1.8-1.3c0.7-0.3,1.5-0.5,2.3-0.5c0.9,0,1.6,0.2,2.3,0.5c0.7,0.3,1.3,0.8,1.8,1.3
		c0.5,0.6,0.9,1.3,1.2,2.1c0.3,0.8,0.4,1.8,0.4,2.8V46.8z M49.4,46.2c0-1.4-0.3-2.5-0.8-3.2c-0.5-0.7-1.2-1.1-2.2-1.1
		s-1.7,0.4-2.2,1.1c-0.5,0.7-0.8,1.8-0.8,3.2v0.6c0,0.7,0.1,1.3,0.2,1.9c0.1,0.5,0.3,1,0.6,1.4c0.3,0.4,0.6,0.7,0.9,0.8
		c0.4,0.2,0.8,0.3,1.3,0.3c0.9,0,1.7-0.4,2.2-1.1c0.5-0.7,0.8-1.8,0.8-3.3V46.2z"/>
</g>
</svg>