<svg version="1.1" id="Layer_1" xmlns="http://www.w3.org/2000/svg" xmlns:xlink="http://www.w3.org/1999/xlink" x="0px" y="0px"
	 width="100%" viewBox="0 0 1356 1583" enable-background="new 0 0 1356 1583" xml:space="preserve">
<path fill="#00C19C" opacity="1.000000" stroke="none" 
	d="
M1.000000,1582.000000 
	C1.000000,1055.635742 1.000000,529.271484 1.174966,2.295398 
	C1.578055,1.466561 1.794744,1.238717 2.000000,1.000000 
	C146.364243,1.000000 290.728485,1.000000 435.676331,1.171943 
	C436.439453,1.568630 436.630615,1.783057 436.901855,2.452214 
	C436.980255,5.083604 436.998749,7.249947 436.998749,9.416290 
	C437.000061,292.053345 437.020020,574.690430 436.981781,857.327454 
	C436.974792,908.966736 436.727844,960.605957 436.652252,1012.245300 
	C436.651825,1012.548767 437.514313,1012.853455 437.820862,1013.477356 
	C437.102905,1015.812378 436.537903,1017.827637 435.618713,1019.916138 
	C434.826904,1020.190430 434.231842,1020.271545 433.974304,1020.609741 
	C421.590240,1036.870361 409.240509,1053.157227 396.875183,1069.432251 
	C389.251648,1079.466187 381.632507,1089.503784 373.970032,1099.507935 
	C360.937988,1116.522705 347.865906,1133.506592 334.824799,1150.514404 
	C324.866394,1163.501709 314.948822,1176.520264 304.978302,1189.498291 
	C293.912872,1203.901489 282.795959,1218.265137 271.724060,1232.663330 
	C262.845093,1244.209839 254.052322,1255.822998 245.127731,1267.333862 
	C230.879807,1285.710938 216.491257,1303.979126 202.281097,1322.385132 
	C190.586563,1337.532715 179.125717,1352.860474 167.450867,1368.023438 
	C152.469635,1387.480591 137.327148,1406.813721 122.348320,1426.272827 
	C108.378807,1444.420776 94.576958,1462.697632 80.618996,1480.854614 
	C67.846237,1497.469971 54.900475,1513.952637 42.149082,1530.584351 
	C32.003193,1543.817505 22.091238,1557.230103 11.954995,1570.470703 
	C8.881184,1574.485962 5.405797,1578.193848 1.835864,1582.028809 
	C1.371597,1582.009888 1.185798,1582.004883 1.000000,1582.000000 
z"/>
<path fill="#005083" opacity="1.000000" stroke="none" 
	d="
M435.972870,1019.842834 
	C436.537903,1017.827637 437.102905,1015.812378 438.106140,1013.282959 
	C440.043884,1010.806091 441.546082,1008.845398 443.042511,1006.880371 
	C453.038788,993.753784 462.972290,980.578735 473.043701,967.510071 
	C488.255585,947.771057 503.621124,928.150330 518.812317,908.395447 
	C531.280396,892.181580 543.541687,875.808899 555.981506,859.573120 
	C571.333435,839.536743 586.793518,819.583252 602.173096,799.567932 
	C615.545532,782.164734 628.855713,764.713684 642.221069,747.304993 
	C658.496277,726.106201 674.818359,704.943359 691.086060,683.738831 
	C704.444580,666.326416 717.709045,648.841858 731.095154,631.450684 
	C747.301453,610.395325 763.650208,589.449585 779.827637,568.372192 
	C793.285400,550.838257 806.539734,533.148315 819.964844,515.589172 
	C838.302490,491.604492 856.739197,467.695557 875.081665,443.714508 
	C879.470703,437.976318 884.217163,434.752472 892.354919,434.769653 
	C1041.480957,435.084747 1190.607666,434.988892 1339.734375,435.042236 
	C1345.489746,435.044281 1351.244751,435.666656 1357.000000,436.000000 
	C1357.000000,436.444427 1357.000000,436.888885 1356.652588,437.569763 
	C1342.885620,454.494141 1329.375732,471.110382 1316.074463,487.891968 
	C1304.801880,502.114105 1293.802124,516.552002 1282.623779,530.849182 
	C1270.733887,546.056519 1258.769897,561.205811 1246.849854,576.389526 
	C1234.416016,592.227966 1222.031738,608.105530 1209.559692,623.913879 
	C1196.472656,640.502014 1183.250732,656.984070 1170.190430,673.593140 
	C1154.995605,692.916565 1139.954590,712.360901 1124.768921,731.691650 
	C1108.353271,752.587952 1091.788452,773.367249 1075.397705,794.283081 
	C1059.217773,814.930115 1043.254517,835.747253 1027.051270,856.375977 
	C1005.641785,883.632629 984.046387,910.743164 962.615417,937.982971 
	C944.658447,960.807068 926.816406,983.721619 908.940308,1006.609314 
	C906.301880,1009.987244 901.842041,1013.371216 901.720154,1016.873962 
	C901.604187,1020.204895 906.068970,1023.693665 908.512146,1027.118408 
	C908.703125,1027.386108 908.798035,1027.725098 908.999939,1027.981812 
	C920.734192,1042.897095 932.471313,1057.809937 944.216003,1072.716919 
	C956.163757,1087.881470 968.124390,1103.035645 980.070251,1118.201660 
	C991.610352,1132.852539 1003.116089,1147.530762 1014.678772,1162.163818 
	C1026.753174,1177.444458 1038.911255,1192.659058 1050.970215,1207.951904 
	C1062.515503,1222.593384 1073.933594,1237.335205 1085.494141,1251.964478 
	C1097.571533,1267.248047 1109.807373,1282.406616 1121.873169,1297.699219 
	C1134.749023,1314.018677 1147.454346,1330.472534 1160.330811,1346.791504 
	C1174.748169,1365.063110 1189.338745,1383.198364 1203.734863,1401.486694 
	C1218.939575,1420.802246 1233.930054,1440.286499 1249.150024,1459.589966 
	C1264.889038,1479.552002 1280.827881,1499.356323 1296.611084,1519.283813 
	C1310.031738,1536.228149 1323.418457,1553.200317 1336.677002,1570.271362 
	C1340.063354,1574.631104 1342.907104,1579.412354 1346.000000,1584.000000 
	C1173.641724,1584.000000 1001.283508,1584.000000 828.561340,1583.632568 
	C826.712585,1580.333008 825.549683,1577.177490 823.693726,1574.502808 
	C802.804626,1544.398315 781.816223,1514.362793 760.840332,1484.318848 
	C736.938171,1450.083496 713.036682,1415.847900 689.105774,1381.632812 
	C674.916504,1361.345703 660.609863,1341.140625 646.464539,1320.823120 
	C622.324158,1286.149292 598.312927,1251.385620 574.166931,1216.715698 
	C547.191223,1177.982788 520.093140,1139.334961 493.112396,1100.605591 
	C478.301849,1079.345825 463.682922,1057.952515 448.846283,1036.711182 
	C444.799683,1030.917603 440.277039,1025.456543 435.972870,1019.842834 
z"/>
<path fill="none" opacity="1.000000" stroke="none" 
	d="
M1357.000000,435.531311 
	C1351.244751,435.666656 1345.489746,435.044281 1339.734375,435.042236 
	C1190.607666,434.988892 1041.480957,435.084747 892.354919,434.769653 
	C884.217163,434.752472 879.470703,437.976318 875.081665,443.714508 
	C856.739197,467.695557 838.302490,491.604492 819.964844,515.589172 
	C806.539734,533.148315 793.285400,550.838257 779.827637,568.372192 
	C763.650208,589.449585 747.301453,610.395325 731.095154,631.450684 
	C717.709045,648.841858 704.444580,666.326416 691.086060,683.738831 
	C674.818359,704.943359 658.496277,726.106201 642.221069,747.304993 
	C628.855713,764.713684 615.545532,782.164734 602.173096,799.567932 
	C586.793518,819.583252 571.333435,839.536743 555.981506,859.573120 
	C543.541687,875.808899 531.280396,892.181580 518.812317,908.395447 
	C503.621124,928.150330 488.255585,947.771057 473.043701,967.510071 
	C462.972290,980.578735 453.038788,993.753784 443.042511,1006.880371 
	C441.546082,1008.845398 440.043884,1010.806091 438.259094,1012.963135 
	C437.514313,1012.853455 436.651825,1012.548767 436.652252,1012.245300 
	C436.727844,960.605957 436.974792,908.966736 436.981781,857.327454 
	C437.020020,574.690430 437.000061,292.053345 436.998749,9.416290 
	C436.998749,7.249947 436.980255,5.083604 436.970673,2.210005 
	C436.980682,1.335166 436.990356,1.167583 437.000000,1.000000 
	C743.567688,1.000000 1050.135376,1.000000 1357.000000,1.000000 
	C1357.000000,145.687424 1357.000000,290.375061 1357.000000,435.531311 
z"/>
<path fill="none" opacity="1.000000" stroke="none" 
	d="
M1346.482910,1584.000000 
	C1342.907104,1579.412354 1340.063354,1574.631104 1336.677002,1570.271362 
	C1323.418457,1553.200317 1310.031738,1536.228149 1296.611084,1519.283813 
	C1280.827881,1499.356323 1264.889038,1479.552002 1249.150024,1459.589966 
	C1233.930054,1440.286499 1218.939575,1420.802246 1203.734863,1401.486694 
	C1189.338745,1383.198364 1174.748169,1365.063110 1160.330811,1346.791504 
	C1147.454346,1330.472534 1134.749023,1314.018677 1121.873169,1297.699219 
	C1109.807373,1282.406616 1097.571533,1267.248047 1085.494141,1251.964478 
	C1073.933594,1237.335205 1062.515503,1222.593384 1050.970215,1207.951904 
	C1038.911255,1192.659058 1026.753174,1177.444458 1014.678772,1162.163818 
	C1003.116089,1147.530762 991.610352,1132.852539 980.070251,1118.201660 
	C968.124390,1103.035645 956.163757,1087.881470 944.216003,1072.716919 
	C932.471313,1057.809937 920.734192,1042.897095 908.999939,1027.981812 
	C908.798035,1027.725098 908.703125,1027.386108 908.512146,1027.118408 
	C906.068970,1023.693665 901.604187,1020.204895 901.720154,1016.873962 
	C901.842041,1013.371216 906.301880,1009.987244 908.940308,1006.609314 
	C926.816406,983.721619 944.658447,960.807068 962.615417,937.982971 
	C984.046387,910.743164 1005.641785,883.632629 1027.051270,856.375977 
	C1043.254517,835.747253 1059.217773,814.930115 1075.397705,794.283081 
	C1091.788452,773.367249 1108.353271,752.587952 1124.768921,731.691650 
	C1139.954590,712.360901 1154.995605,692.916565 1170.190430,673.593140 
	C1183.250732,656.984070 1196.472656,640.502014 1209.559692,623.913879 
	C1222.031738,608.105530 1234.416016,592.227966 1246.849854,576.389526 
	C1258.769897,561.205811 1270.733887,546.056519 1282.623779,530.849182 
	C1293.802124,516.552002 1304.801880,502.114105 1316.074463,487.891968 
	C1329.375732,471.110382 1342.885620,454.494141 1356.652588,437.903107 
	C1357.000000,820.000000 1357.000000,1202.000000 1357.000000,1584.000000 
	C1353.629761,1584.000000 1350.297852,1584.000000 1346.482910,1584.000000 
z"/>
<path fill="none" opacity="1.000000" stroke="none" 
	d="
M435.618713,1019.916138 
	C440.277039,1025.456543 444.799683,1030.917603 448.846283,1036.711182 
	C463.682922,1057.952515 478.301849,1079.345825 493.112396,1100.605591 
	C520.093140,1139.334961 547.191223,1177.982788 574.166931,1216.715698 
	C598.312927,1251.385620 622.324158,1286.149292 646.464539,1320.823120 
	C660.609863,1341.140625 674.916504,1361.345703 689.105774,1381.632812 
	C713.036682,1415.847900 736.938171,1450.083496 760.840332,1484.318848 
	C781.816223,1514.362793 802.804626,1544.398315 823.693726,1574.502808 
	C825.549683,1577.177490 826.712585,1580.333008 828.098694,1583.632568 
	C552.979126,1584.000000 277.958221,1584.000000 2.470139,1583.672363 
	C2.040082,1582.910522 2.077202,1582.476562 2.114327,1582.042480 
	C5.405797,1578.193848 8.881184,1574.485962 11.954995,1570.470703 
	C22.091238,1557.230103 32.003193,1543.817505 42.149082,1530.584351 
	C54.900475,1513.952637 67.846237,1497.469971 80.618996,1480.854614 
	C94.576958,1462.697632 108.378807,1444.420776 122.348320,1426.272827 
	C137.327148,1406.813721 152.469635,1387.480591 167.450867,1368.023438 
	C179.125717,1352.860474 190.586563,1337.532715 202.281097,1322.385132 
	C216.491257,1303.979126 230.879807,1285.710938 245.127731,1267.333862 
	C254.052322,1255.822998 262.845093,1244.209839 271.724060,1232.663330 
	C282.795959,1218.265137 293.912872,1203.901489 304.978302,1189.498291 
	C314.948822,1176.520264 324.866394,1163.501709 334.824799,1150.514404 
	C347.865906,1133.506592 360.937988,1116.522705 373.970032,1099.507935 
	C381.632507,1089.503784 389.251648,1079.466187 396.875183,1069.432251 
	C409.240509,1053.157227 421.590240,1036.870361 433.974304,1020.609741 
	C434.231842,1020.271545 434.826904,1020.190430 435.618713,1019.916138 
z"/>
<path fill="#00C19C" opacity="1.000000" stroke="none" 
	d="
M1.835858,1582.028809 
	C2.077202,1582.476562 2.040082,1582.910522 2.001469,1583.672363 
	C1.666641,1583.666748 1.333308,1583.333374 0.999987,1582.500000 
	C1.185798,1582.004883 1.371597,1582.009888 1.835858,1582.028809 
z"/>
<path fill="#00C19C" opacity="1.000000" stroke="none" 
	d="
M1.500000,1.000000 
	C1.794744,1.238717 1.578055,1.466561 1.174966,1.841765 
	C1.000000,1.666667 1.000000,1.333333 1.500000,1.000000 
z"/>
<path fill="#00C19C" opacity="1.000000" stroke="none" 
	d="
M436.750000,1.000000 
	C436.990356,1.167583 436.980682,1.335166 436.902161,1.744957 
	C436.630615,1.783057 436.439453,1.568630 436.129944,1.171943 
	C436.000000,1.000000 436.500000,1.000000 436.750000,1.000000 
z"/>
</svg>