<?xml version="1.0" encoding="utf-8"?>
<svg viewBox="85.645 105.701 150 150" xmlns="http://www.w3.org/2000/svg">
  <g id="Layer 1" transform="matrix(2.344511, 0, 0, 2.344511, 85.107666, 105.699928)">
    <g opacity="1">
      <path d="M3.092+6.01606e-14L3.092+38.2654C23.3753+47.7049+48.3102+41.8687+61.3456+23.954L61.3456+0L3.092+6.01606e-14ZM17.7501+20.7567C16.1274+20.7567+14.9374+19.6402+14.9374+18.1177C14.9374+16.5952+16.3437+15.2757+17.9664+15.2757C19.5891+15.2757+20.9954+16.5952+20.9954+18.1177C20.779+19.5895+19.5891+20.7567+17.7501+20.7567ZM46.6875+20.7567C45.0649+20.7567+43.6586+19.4372+43.6586+17.9147C43.6586+16.3922+45.0649+15.0727+46.6875+15.0727C48.3102+15.0727+49.7165+16.3922+49.7165+17.9147C49.5002+19.5895+48.3102+20.7567+46.6875+20.7567Z" opacity="1" fill="#44c144"/>
      <path d="M3.092+46.3854L3.092+54.3024L61.3456+54.3024L61.3456+34.51C39.656+56.5354+12.1248+49.1767+3.092+46.3854Z" opacity="1" fill="#44c144"/>
    </g>
    <g opacity="1">
      <text style="font-family: &quot;Arial Unicode MS&quot;; font-size: 8px; font-weight: 700; white-space: pre;" transform="matrix(1, 0, 0, 1, -54.812481, 2.694294)"><tspan x="63.958" y="59.105">NanoPi R2S</tspan><tspan x="63.958" dy="1em">​</tspan></text>
    </g>
  </g>
</svg>