<?xml version="1.0" encoding="UTF-8"?>
<svg width="50px" height="50px" viewBox="0 0 50 50" version="1.1" xmlns="http://www.w3.org/2000/svg" xmlns:xlink="http://www.w3.org/1999/xlink">
    <title>photon-xavier-nx</title>
    <g id="Page-1" stroke="none" stroke-width="1" fill="none" fill-rule="evenodd">
        <g id="photon-nx" fill-rule="nonzero">
            <path d="M35.8490566,0 L14.1509434,0 C6.32075472,0 0,6.7 0,15 L0,15 C0,23.3 6.32075472,30 14.1509434,30 L35.8490566,30 C43.6792453,30 50,23.3 50,15 L50,15 C50,6.8 43.6792453,0 35.8490566,0 Z M39.4339623,5.1 C40.9433962,5 42.6415094,6.4 42.6415094,8.5 C42.6415094,10.6 41.1320755,12 39.4339623,12 C37.6415094,12 36.2264151,10.5 36.2264151,8.6 C36.1320755,6.5 37.4528302,5 39.4339623,5.1 Z M18.6792453,27.1 C16.6981132,27.1 14.7169811,27.1 12.7358491,27 C11.6981132,27 10.754717,26.6 9.81132075,26.2 C8.20754717,25.5 6.79245283,24.4 5.56603774,22.9 C4.71698113,21.9 4.1509434,20.8 3.67924528,19.5 C3.20754717,18.1 2.9245283,16.5 2.9245283,14.9 C2.9245283,13.4 3.20754717,12 3.77358491,10.6 C4.52830189,8.6 5.75471698,6.9 7.26415094,5.5 C8.30188679,4.6 9.43396226,4 10.754717,3.5 C11.6981132,3.2 12.6415094,3 13.6792453,3 C14.0566038,3 14.1509434,3 14.1509434,3.5 C14.1509434,5.7 14.1509434,8 14.1509434,10.2 C14.1509434,10.5 14.0566038,10.6 13.7735849,10.6 C12.8301887,10.7 11.9811321,11 11.3207547,11.6 C10.1886792,12.5 9.52830189,13.7 9.62264151,15.2 C9.62264151,16.5 10.1886792,17.5 11.0377358,18.3 C11.9811321,19.2 13.0188679,19.6 14.245283,19.6 C15.754717,19.6 17.2641509,19.6 18.7735849,19.6 C19.1509434,19.6 19.1509434,19.6 19.1509434,20 C19.1509434,21.1 19.1509434,22.2 19.1509434,23.3 C19.1509434,23.3 19.1509434,23.3 19.1509434,23.3 C19.1509434,24.4 19.1509434,25.6 19.1509434,26.7 C19.0566038,27 18.9622642,27.1 18.6792453,27.1 Z M28.3018868,11 C28.3018868,16.1 28.3018868,21.1 28.3018868,26.2 C28.3018868,26.4 28.3018868,26.6 28.3018868,26.9 C28.3018868,27.1 28.2075472,27.2 28.0188679,27.2 C27.9245283,27.2 27.8301887,27.2 27.7358491,27.2 C25.754717,27.2 23.8679245,27.2 21.8867925,27.2 C21.4150943,27.2 21.4150943,27.2 21.4150943,26.7 C21.4150943,26.5 21.4150943,26.2 21.4150943,26 C21.4150943,21.1 21.4150943,16.1 21.4150943,11.2 C21.4150943,10.8 21.3207547,10.7 21.0377358,10.7 C19.7169811,10.7 18.3962264,10.7 17.0754717,10.7 C16.8867925,10.7 16.7924528,10.7 16.6037736,10.7 C16.4150943,10.7 16.3207547,10.6 16.3207547,10.4 C16.3207547,8.1 16.3207547,5.7 16.3207547,3.4 C16.3207547,3.1 16.4150943,3 16.6981132,3 C16.8867925,3 17.0754717,3 17.1698113,3 C19.7169811,3 22.1698113,3 24.7169811,3 C27.1698113,3 29.6226415,3 32.0754717,3 C32.2641509,3 32.5471698,3 32.7358491,3 C33.1132075,3 33.1132075,3.1 33.1132075,3.4 C33.1132075,5.5 33.1132075,7.7 33.1132075,9.8 C33.1132075,10 33.1132075,10.1 33.1132075,10.3 C33.1132075,10.5 33.0188679,10.6 32.8301887,10.7 C32.7358491,10.7 32.6415094,10.7 32.5471698,10.7 C31.2264151,10.7 29.9056604,10.7 28.490566,10.7 C28.3018868,10.6 28.3018868,10.7 28.3018868,11 Z M46.8867925,15.8 C46.6037736,19.5 45,22.3 42.2641509,24.5 C41.509434,25.1 40.5660377,25.6 39.7169811,26 C38.2075472,26.6 36.6981132,27.1 35.0943396,27.1 C33.7735849,27.1 32.3584906,27.1 31.0377358,27.1 C30.6603774,27.1 30.6603774,27 30.6603774,26.6 C30.6603774,25.5 30.6603774,24.4 30.6603774,23.3 C30.6603774,23.3 30.6603774,23.3 30.6603774,23.3 C30.6603774,22.2 30.6603774,21 30.6603774,19.9 C30.6603774,19.6 30.754717,19.6 30.9433962,19.6 C31.6037736,19.6 32.1698113,19.6 32.8301887,19.6 C33.3018868,19.6 33.8679245,19.6 34.3396226,19.6 C35.9433962,19.6 37.4528302,19.1 38.6792453,18 C39.3396226,17.4 39.8113208,16.6 40,15.7 C40.0943396,15.3 40.0943396,15.3 40.4716981,15.3 C42.4528302,15.3 44.4339623,15.3 46.4150943,15.3 C46.8867925,15.2 46.9811321,15.3 46.8867925,15.8 Z" id="Shape" fill="#007DC3"></path>
            <text id="NX" fill="#474747" font-family="Helvetica-Bold, Helvetica" font-size="16" font-weight="bold">
                <tspan x="14" y="45">Xavier-NX</tspan>
            </text>
        </g>
    </g>
</svg>