<?xml version="1.0" encoding="UTF-8"?><svg id="Layer_2" xmlns="http://www.w3.org/2000/svg" xmlns:xlink="http://www.w3.org/1999/xlink" viewBox="0 0 570.36 92.01"><defs><style>.cls-1{fill:url(#linear-gradient-2);}.cls-2{fill:url(#linear-gradient-5);}.cls-3{fill:url(#linear-gradient-3);}.cls-4{fill:url(#linear-gradient);}.cls-5{fill:#231f20;}.cls-6{fill:url(#linear-gradient-4);}</style><linearGradient id="linear-gradient" x1="47.94" y1="3.36" x2="47.94" y2="91.92" gradientUnits="userSpaceOnUse"><stop offset="0" stop-color="#fff"/><stop offset="1" stop-color="#828282"/></linearGradient><linearGradient id="linear-gradient-2" x1="521.73" y1="3.36" x2="521.73" y2="91.92" xlink:href="#linear-gradient"/><linearGradient id="linear-gradient-3" x1="433.15" x2="433.15" xlink:href="#linear-gradient"/><linearGradient id="linear-gradient-4" x1="300.12" x2="300.12" xlink:href="#linear-gradient"/><linearGradient id="linear-gradient-5" x1="151.61" x2="151.61" xlink:href="#linear-gradient"/></defs><path class="cls-5" d="m0,92.01V.17h85.41c6.85,0,10.47,3.41,10.47,9.85v37.41c0,4.28-4.31,8.85-10.72,8.85h-47.32v35.73H0Zm68.38-47.22c2.85,0,4.32-2.33,4.32-3.32V14.37c0-2.49-1.14-2.7-2.21-2.7h-32.65v33.12h30.54Z"/><path class="cls-5" d="m485.82,92.01c-6.12,0-12.71-3.54-12.71-11.32V10.66c0-7.36,4.96-10.66,9.88-10.66h75.33c4.92,0,12.04,4.27,12.04,11.98v20.15h-32.35V15.79c0-.73-.78-1.54-1.11-1.54h-23.77c-1.42,0-2.2,0-2.2,2.53v57.62c0,2.53.78,2.53,2.2,2.53h23.77c.33,0,1.11-.8,1.11-1.54v-15.51h32.35v20.15c0,7.71-7.12,11.98-12.04,11.98h-72.51Z"/><polygon class="cls-5" points="396.51 92.01 396.51 .17 434.38 .17 434.38 .18 469.79 .18 469.79 14.03 434.38 14.03 434.38 38.76 469.79 38.76 469.79 53.17 434.38 53.17 434.38 76.93 469.79 76.93 469.79 92.01 396.51 92.01"/><polygon class="cls-5" points="325.01 92.01 325.01 14.03 306.39 14.03 279.38 49.76 279.38 92.01 241.51 92.01 241.51 47.59 206.2 .17 245.25 .17 261.02 23.3 277.84 .18 316.69 .17 316.69 .18 325.01 .18 327.28 .17 362.88 .17 362.88 .18 391.79 .18 391.79 14.03 362.88 14.03 362.88 92.01 325.01 92.01"/><polygon class="cls-5" points="165.01 92.01 165.01 56.49 138.2 56.49 138.2 92.01 100.33 92.01 100.33 .17 138.2 .17 138.2 42.17 165.01 42.17 165.01 .17 202.88 .17 202.88 92.01 165.01 92.01"/><path class="cls-4" d="m2.27,89.74V2.44h83.14c6.34,0,8.2,3.11,8.2,7.58v37.41c0,2.86-3.11,6.59-8.45,6.59h-49.58v35.73H2.27Zm66.11-42.69c4.1,0,6.59-3.36,6.59-5.59V14.37c0-3.36-1.74-4.97-4.47-4.97h-34.92v37.65h32.81Z"/><path class="cls-1" d="m508.66,74.4c0,3.97,1.99,4.8,4.47,4.8h23.77c1.75,0,3.38-1.98,3.38-3.81v-13.25h27.81v17.88c0,6.13-5.79,9.71-9.77,9.71h-72.51c-3.65,0-10.44-1.76-10.44-9.05V10.66c0-6.46,4.3-8.39,7.62-8.39h75.33c3.97,0,9.77,3.59,9.77,9.71v17.88h-27.81v-14.07c0-1.82-1.63-3.81-3.38-3.81h-23.77c-2.48,0-4.47.83-4.47,4.8v57.62Z"/><polygon class="cls-3" points="467.52 11.76 467.52 2.45 432.11 2.45 432.11 2.44 398.78 2.44 398.78 89.74 416.44 89.74 432.11 89.74 467.52 89.74 467.52 79.2 432.11 79.2 432.11 50.91 467.52 50.91 467.52 41.03 432.11 41.03 432.11 11.76 467.52 11.76"/><polygon class="cls-6" points="389.52 2.45 360.61 2.45 360.61 2.44 327.28 2.44 327.28 2.45 312.31 2.45 312.31 2.44 279 2.45 260.96 27.24 244.05 2.44 210.72 2.44 243.78 46.84 243.78 89.74 277.11 89.74 277.11 49 305.26 11.76 327.28 11.76 327.28 89.74 360.61 89.74 360.61 11.76 389.52 11.76 389.52 2.45"/><polygon class="cls-2" points="167.28 2.44 167.28 44.44 135.93 44.44 135.93 2.44 102.6 2.44 102.6 89.74 135.93 89.74 135.93 54.22 167.28 54.22 167.28 89.74 200.61 89.74 200.61 2.44 167.28 2.44"/></svg>