<?xml version="1.0" encoding="UTF-8"?>
<!DOCTYPE svg PUBLIC "-//W3C//DTD SVG 1.1//EN" "http://www.w3.org/Graphics/SVG/1.1/DTD/svg11.dtd">
<svg xmlns="http://www.w3.org/2000/svg" version="1.1" width="219px" height="266px" style="shape-rendering:geometricPrecision; text-rendering:geometricPrecision; image-rendering:optimizeQuality; fill-rule:evenodd; clip-rule:evenodd" xmlns:xlink="http://www.w3.org/1999/xlink">
<g><path style="opacity:0.966" fill="#fe660e" d="M 3.5,3.5 C 9.75757,3.19031 15.9242,3.52364 22,4.5C 23.5413,29.812 23.8747,55.1453 23,80.5C 22.9326,83.047 22.0993,85.2137 20.5,87C 14.9162,87.8056 9.41625,87.6389 4,86.5C 3.50002,58.8353 3.33336,31.1687 3.5,3.5 Z"/></g>
<g><path style="opacity:0.955" fill="#fe660e" d="M 73.5,84.5 C 73.5858,85.4959 73.2524,86.3292 72.5,87C 65.7506,87.8773 59.0839,87.544 52.5,86C 49.5944,77.5529 46.7611,69.0529 44,60.5C 42.8289,59.1068 41.3289,58.2735 39.5,58C 34.8439,57.3345 30.1772,56.8345 25.5,56.5C 25.5,51.1667 25.5,45.8333 25.5,40.5C 32.2637,40.3597 38.9304,39.5264 45.5,38C 48.6664,36.3343 49.9997,33.6677 49.5,30C 50.107,25.8757 48.4403,23.2091 44.5,22C 37.8835,20.7772 31.2168,19.9439 24.5,19.5C 24.5,14.1667 24.5,8.83333 24.5,3.5C 34.8894,3.13022 45.2227,3.63022 55.5,5C 62.4007,7.56832 66.9007,12.4017 69,19.5C 69.6667,24.5 69.6667,29.5 69,34.5C 66.5668,38.6041 63.7335,42.4374 60.5,46C 62.3706,48.235 63.8706,50.735 65,53.5C 67.7052,63.9994 70.5386,74.3328 73.5,84.5 Z"/></g>
<g><path style="opacity:0.942" fill="#fe660e" d="M 73.5,84.5 C 72.3903,63.1866 72.2236,41.8533 73,20.5C 73.3108,18.444 73.8108,16.444 74.5,14.5C 72.534,11.451 72.034,8.11771 73,4.5C 79.4102,3.52234 85.9102,3.189 92.5,3.5C 92.1449,29.8348 91.6449,56.1681 91,82.5C 90.5487,87.808 88.0487,88.9746 83.5,86C 80.9364,83.724 81.2697,81.724 84.5,80C 82.8988,79.7266 81.3988,79.2266 80,78.5C 79.1785,81.1168 78.6785,83.7835 78.5,86.5C 76.4862,86.6085 74.8195,85.9418 73.5,84.5 Z M 77.5,7.5 C 79.7602,8.23764 79.9269,9.23764 78,10.5C 76.2716,9.64767 76.105,8.64767 77.5,7.5 Z M 80.5,28.5 C 81.7125,29.4971 81.5458,30.4971 80,31.5C 79.5304,30.4232 79.6971,29.4232 80.5,28.5 Z"/></g>
<g><path style="opacity:0.909" fill="#fe660e" d="M 94.5,3.5 C 107.833,3.5 121.167,3.5 134.5,3.5C 134.5,9.16667 134.5,14.8333 134.5,20.5C 121.167,20.5 107.833,20.5 94.5,20.5C 94.5,14.8333 94.5,9.16667 94.5,3.5 Z"/></g>
<g><path style="opacity:0.933" fill="#fe660e" d="M 137.5,3.5 C 143.842,3.33379 150.175,3.50046 156.5,4C 163.073,19.6512 169.24,35.4846 175,51.5C 175.667,62.8333 175.667,74.1667 175,85.5C 173.477,87.6201 171.644,87.9535 169.5,86.5C 167.747,83.9952 166.247,81.3286 165,78.5C 155.728,53.5148 146.561,28.5148 137.5,3.5 Z"/></g>
<g><path style="opacity:0.938" fill="#fe660e" d="M 195.5,3.5 C 201.833,3.5 208.167,3.5 214.5,3.5C 206.212,29.756 197.046,55.756 187,81.5C 185.764,86.5705 182.598,88.5705 177.5,87.5C 177.333,75.8286 177.5,64.1619 178,52.5C 183.939,36.1811 189.772,19.8478 195.5,3.5 Z"/></g>
<g><path style="opacity:0.95" fill="#fe660e" d="M 98.5,34.5 C 108.506,34.3335 118.506,34.5002 128.5,35C 129.416,35.3742 130.25,35.8742 131,36.5C 131.499,41.1548 131.666,45.8215 131.5,50.5C 119.5,50.5 107.5,50.5 95.5,50.5C 94.9035,46.1684 94.7368,41.8351 95,37.5C 95.985,36.1859 97.1516,35.1859 98.5,34.5 Z"/></g>
<g><path style="opacity:0.936" fill="#fe660e" d="M 98.5,70.5 C 110.833,70.5 123.167,70.5 135.5,70.5C 135.5,76.1667 135.5,81.8333 135.5,87.5C 124.828,87.6665 114.161,87.4998 103.5,87C 102.107,85.8289 101.273,84.3289 101,82.5C 100.506,84.1341 100.34,85.8008 100.5,87.5C 96.4867,88.168 94.4867,86.5013 94.5,82.5C 94.6138,78.0247 95.9472,74.0247 98.5,70.5 Z"/></g>
<g><path style="opacity:0.952" fill="#fe660e" d="M 68.5,108.5 C 73.9955,108.015 79.1621,109.015 84,111.5C 85.591,124.777 85.9243,138.11 85,151.5C 84.5639,153.847 84.0639,156.181 83.5,158.5C 84.9359,170.115 85.6026,181.782 85.5,193.5C 78.8689,194.331 72.2022,194.664 65.5,194.5C 64.7832,166.189 64.7832,137.856 65.5,109.5C 66.791,109.737 67.791,109.404 68.5,108.5 Z"/></g>
<g><path style="opacity:0.944" fill="#fe660e" d="M 88.5,109.5 C 100.394,108.217 111.728,110.05 122.5,115C 132.572,126.775 134.072,139.608 127,153.5C 121.8,160.852 114.634,164.685 105.5,165C 100.5,165.667 95.5,165.667 90.5,165C 87.0903,163.743 85.7569,161.243 86.5,157.5C 86.2083,153.877 87.2083,150.71 89.5,148C 94.1667,147.667 98.8333,147.333 103.5,147C 112.247,142.678 113.58,136.678 107.5,129C 101.108,127.126 94.6083,125.959 88,125.5C 86.011,119.948 86.1777,114.615 88.5,109.5 Z"/></g>
<g><path style="opacity:0.963" fill="#fe660e" d="M 136.5,110.5 C 142.5,110.5 148.5,110.5 154.5,110.5C 153.994,137.832 153.494,165.165 153,192.5C 146.667,193.833 140.333,193.833 134,192.5C 133.8,165.586 133.633,138.586 133.5,111.5C 134.791,111.737 135.791,111.404 136.5,110.5 Z"/></g>
<g><path style="opacity:0.845" fill="#000000" d="M 14.5,206.5 C 19.2504,206.27 23.5838,207.437 27.5,210C 29.2024,212.235 30.2024,214.735 30.5,217.5C 28.5992,217.433 26.7659,217.767 25,218.5C 23.1796,217.396 21.6796,215.896 20.5,214C 13.3003,212.525 9.63362,215.525 9.5,223C 10.1271,225.135 10.6271,227.302 11,229.5C 13.2175,233.315 16.3842,234.315 20.5,232.5C 21.624,231.086 22.624,229.586 23.5,228C 25.8473,227.666 28.1806,227.833 30.5,228.5C 29.8898,234.615 26.5565,238.449 20.5,240C 8.62965,240.965 2.62965,235.465 2.5,223.5C 1.94561,214.417 5.94561,208.75 14.5,206.5 Z"/></g>
<g><path style="opacity:0.857" fill="#000000" d="M 198.5,206.5 C 203.046,206.268 207.379,207.101 211.5,209C 213.93,211.305 214.93,214.138 214.5,217.5C 212.143,217.663 209.81,217.497 207.5,217C 206.712,214.215 204.879,213.049 202,213.5C 200.027,213.309 198.527,213.976 197.5,215.5C 202.793,218.165 208.126,220.831 213.5,223.5C 217.69,233.773 214.19,239.44 203,240.5C 194.474,240.799 189.974,236.799 189.5,228.5C 191.861,228.326 194.194,227.993 196.5,227.5C 197.293,232.776 200.293,234.609 205.5,233C 209.487,230.578 209.154,228.578 204.5,227C 199.198,226.352 194.698,224.185 191,220.5C 189.101,213.291 191.601,208.624 198.5,206.5 Z"/></g>
<g><path style="opacity:0.85" fill="#000000" d="M 170.5,207.5 C 171.473,209.948 171.806,212.615 171.5,215.5C 172.833,215.5 174.167,215.5 175.5,215.5C 175.5,217.5 175.5,219.5 175.5,221.5C 174.167,221.5 172.833,221.5 171.5,221.5C 171.5,225.5 171.5,229.5 171.5,233.5C 172.833,233.5 174.167,233.5 175.5,233.5C 176.487,239.331 174.154,241.498 168.5,240C 167.069,239.535 165.903,238.701 165,237.5C 164.501,232.177 164.334,226.844 164.5,221.5C 163.5,221.5 162.5,221.5 161.5,221.5C 161.5,219.5 161.5,217.5 161.5,215.5C 162.5,215.5 163.5,215.5 164.5,215.5C 164.215,213.712 164.548,212.045 165.5,210.5C 167.396,209.725 169.063,208.725 170.5,207.5 Z"/></g>
<g><path style="opacity:0.859" fill="#000000" d="M 41.5,215.5 C 54.814,214.641 59.9807,220.641 57,233.5C 50.102,242.409 42.7686,242.742 35,234.5C 31.934,226.193 34.1007,219.86 41.5,215.5 Z M 43.5,221.5 C 49.8671,221.872 52.0338,225.206 50,231.5C 45.2319,235.721 42.0653,234.554 40.5,228C 41.0304,225.557 42.0304,223.39 43.5,221.5 Z"/></g>
<g><path style="opacity:0.869" fill="#000000" d="M 61.5,215.5 C 64.3938,215.042 66.8938,215.709 69,217.5C 73.6647,214.544 77.9981,214.878 82,218.5C 83.4247,225.385 83.9247,232.385 83.5,239.5C 81.1667,239.5 78.8333,239.5 76.5,239.5C 76.666,234.156 76.4994,228.823 76,223.5C 72.8679,220.742 70.5346,221.409 69,225.5C 68.5008,230.155 68.3342,234.821 68.5,239.5C 66.1667,239.5 63.8333,239.5 61.5,239.5C 61.5,231.5 61.5,223.5 61.5,215.5 Z"/></g>
<g><path style="opacity:0.865" fill="#000000" d="M 88.5,215.5 C 91.3938,215.042 93.8938,215.709 96,217.5C 100.591,214.633 104.924,214.966 109,218.5C 110.384,225.411 110.884,232.411 110.5,239.5C 108.167,239.5 105.833,239.5 103.5,239.5C 103.666,234.489 103.499,229.489 103,224.5C 100.667,220.5 98.3333,220.5 96,224.5C 95.5007,229.489 95.3341,234.489 95.5,239.5C 93.1667,239.5 90.8333,239.5 88.5,239.5C 88.5,231.5 88.5,223.5 88.5,215.5 Z"/></g>
<g><path style="opacity:0.84" fill="#000000" d="M 120.5,215.5 C 131.833,214.167 136.833,219.167 135.5,230.5C 130.489,230.334 125.489,230.501 120.5,231C 121.414,232.914 122.914,234.081 125,234.5C 128.182,230.998 131.682,230.665 135.5,233.5C 131.465,240.011 125.798,241.844 118.5,239C 113.348,233.694 112.181,227.528 115,220.5C 116.73,218.598 118.563,216.931 120.5,215.5 Z M 122.5,221.5 C 125.278,221.022 127.278,222.022 128.5,224.5C 125.894,225.652 123.227,225.818 120.5,225C 121.305,223.887 121.972,222.721 122.5,221.5 Z"/></g>
<g><path style="opacity:0.845" fill="#000000" d="M 145.5,215.5 C 152.486,213.829 157.486,216.162 160.5,222.5C 159.312,223.84 157.812,224.507 156,224.5C 147.661,219.149 144.328,221.483 146,231.5C 149.614,235.309 152.448,234.642 154.5,229.5C 156.409,230.348 158.409,230.682 160.5,230.5C 160.166,236.998 156.666,240.331 150,240.5C 142.332,239.832 138.498,235.666 138.5,228C 138.157,222.174 140.49,218.007 145.5,215.5 Z"/></g>
</svg>
