<svg id="Layer_1" data-name="Layer 1" xmlns="http://www.w3.org/2000/svg" viewBox="0 0 500 500"><defs><style>.cls-1{fill:#1275bc;}.cls-2{fill:#3d519e;}.cls-3{isolation:isolate;}.cls-4{fill:#fff;}</style></defs><path id="path51" class="cls-1" d="M414,267.33a164,164,0,0,1-327.94,7.6V104.37H37.27v163C34.85,384.83,128.15,482,245.65,484.45s214.71-90.88,217.13-208.38V104.37H414Z"/><path id="path53" class="cls-1" d="M128.63,261.37a121.4,121.4,0,1,0,242.79,0v-157H323v157a72.61,72.61,0,0,1-145.09,5.07,35.75,35.75,0,0,1,0-5.07V3H37.27V51.91h91.36Z"/><path id="path55" class="cls-2" d="M225.57,3V257.06a24.5,24.5,0,1,0,48.91,3.05h0V51.66h188.3V3Z"/><circle class="cls-2" cx="409.16" cy="409.16" r="87.84"/><g id="text218" class="cls-3"><g class="cls-3"><path class="cls-4" d="M365,440.64V418.87l45.8-68.29h19.15v70.47h14v19.59h-14v27.11H409.57V440.64Zm44.16-60.27-27.28,40.68h27.73V380.37Z"/></g></g></svg>