<svg id="Layer_1" data-name="Layer 1" xmlns="http://www.w3.org/2000/svg" viewBox="0 0 40 40"><defs><style>.cls-1{fill:#79bd28;}</style></defs><g id="g4"><path id="path2" class="cls-1" d="M37.51,0h-35A2.5,2.5,0,0,0,0,2.51v35A2.5,2.5,0,0,0,2.49,40H37.62A2.5,2.5,0,0,0,40,37.49v-35A2.5,2.5,0,0,0,37.51,0Zm-9.9,2.84a5.3,5.3,0,0,1,6-1c1.54.88,4.53,4.32,4.53,4.32,2.14,2.33-.93,4.11-.93,4.11l-13.4,8.61L20,13ZM1.7,6.6C2.57,5.06,6,2.06,6,2.06,8.31-.09,10.09,3,10.09,3l8.57,13.46-5.8,3.79L2.74,12.6A5.39,5.39,0,0,1,1.7,6.6ZM12.43,37.4a5.31,5.31,0,0,1-6,1c-1.53-.88-4.52-4.32-4.52-4.32C-.2,31.8,2.87,30,2.87,30l13.4-8.61L20,27.22Zm26-3.75c-.87,1.54-4.3,4.55-4.3,4.55-2.31,2.15-4.09-.94-4.09-.94L21.42,23.8,27.22,20l10.12,7.65A5.34,5.34,0,0,1,38.38,33.65Z"/></g></svg>