<?xml version="1.0" encoding="utf-8"?>
<!-- Generator: Adobe Illustrator 27.9.0, SVG Export Plug-In . SVG Version: 6.00 Build 0)  -->
<svg version="1.1" id="Layer_1" xmlns="http://www.w3.org/2000/svg" xmlns:xlink="http://www.w3.org/1999/xlink" x="0px" y="0px"
	 viewBox="0 0 40 40" style="enable-background:new 0 0 40 40;" xml:space="preserve">
<style type="text/css">
	.st0{fill:#75A928;}
	.st1{fill:#BC1142;}
	.st2{fill:#FFFFFF;}
	.st3{fill:#D8224C;}
</style>
<path d="M12,0.5c-0.2,0-0.5,0.1-0.6,0.3c-0.5-0.3-1.2-0.2-1.7,0.2C8.9,0.8,8.7,1,8.4,1.3c-0.2,0-1.3-0.2-1.8,0.6
	C5.3,1.7,4.9,2.6,5.4,3.5C5,3.9,5,4.6,5.4,5.1c0,0,0,0,0,0C5.2,5.5,5.4,6,5.9,6.6C5.8,7.1,6,7.7,6.5,7.9c-0.1,0.8,0.8,1.3,1,1.5
	c0.1,0.5,0.3,1,1.3,1.2c0.2,0.7,0.8,0.9,1.3,1c-2.3,1.1-3.7,3.5-3.5,6.1l-0.3,0.5c-2.7,1.9-3.4,5.6-1.6,8.3c0.2,0.2,0.3,0.5,0.5,0.7
	c0.2,0.9,0.5,1.8,0.8,2.7c0.3,2.4,1.9,4.4,4.1,5.2c1.2,1,2.5,1.7,3.9,2.2c1.3,1.4,3,2.1,4.9,2.1l0,0c1.8,0,3.6-0.8,4.8-2.2
	c1.4-0.5,2.7-1.3,3.9-2.2c2.2-0.9,3.8-2.9,4.1-5.2c0.4-0.9,0.6-1.8,0.8-2.7c2.2-2.4,2.1-6.2-0.4-8.5c-0.2-0.2-0.4-0.4-0.7-0.5
	l-0.3-0.5c0.2-2.5-1.2-5-3.5-6.1c0.6-0.2,1.2-0.3,1.3-1c1-0.2,1.2-0.7,1.3-1.2c0.2-0.2,1.1-0.7,1-1.5c0.5-0.3,0.7-0.8,0.6-1.4
	c0.5-0.6,0.7-1,0.4-1.5c0.5-0.4,0.5-1.1,0.1-1.6c0,0,0,0,0,0c0.5-0.8,0.1-1.8-1.2-1.6c-0.5-0.8-1.6-0.6-1.8-0.6
	c-0.2-0.2-0.5-0.5-1.2-0.4c-0.5-0.4-1.1-0.4-1.6-0.1C26,0.2,25.5,0.7,25,0.8c-0.9-0.3-1,0.1-1.5,0.2c-0.9-0.2-1.2,0.2-1.6,0.7h-0.5
	c-1.2,0.8-2,2-2.4,3.4c-0.4-1.4-1.2-2.5-2.3-3.4h-0.5c-0.4-0.5-0.7-0.9-1.6-0.7c-0.4-0.1-0.6-0.5-1.5-0.2C12.7,0.7,12.3,0.6,12,0.5z
	"/>
<path class="st0" d="M9.2,4.1c3.7,1.9,5.8,3.4,7,4.8c-0.6,2.4-3.8,2.5-4.9,2.5c0.2-0.1,0.4-0.2,0.5-0.4c-0.3-0.2-1.3,0-2-0.4
	c0.2,0,0.4-0.1,0.5-0.3C9.7,10,9.1,9.8,8.5,9.4c0.3,0,0.5,0,0.8-0.2C8.6,9,8,8.6,7.5,8.2c0.3,0,0.7,0,0.8-0.1
	c-0.5-0.3-1-0.7-1.4-1.1c0.2,0.1,0.5,0,0.7-0.1C7.1,6.5,6.7,6,6.4,5.5c0.3,0.1,0.6,0.1,0.8,0C7.1,5.2,6.5,5,6.1,4.3
	c0.3,0,0.7,0.1,0.8,0c-0.1-0.5-0.4-1-0.7-1.4c0.6,0,1.2,0,1.8-0.1L7.5,2.3c0.7-0.1,1.4-0.1,2,0.2c0.2-0.2,0-0.4-0.3-0.7
	c0.6,0.1,1.1,0.2,1.6,0.4c0.3-0.2-0.2-0.5-0.4-0.7c0.6,0.1,1.2,0.3,1.7,0.7c0.3-0.3,0-0.5-0.2-0.8c0.5,0.2,1,0.5,1.4,0.9
	c0.1-0.2,0.3-0.3,0.1-0.7c0.5,0.2,0.9,0.6,1.2,1C15.1,2.5,15,2.2,15,2c0.4,0.4,0.9,0.9,1.2,1.3c0.1-0.1,0.2-0.3,0.2-0.6
	c1.2,1.2,3,4.3,0.5,5.5C14.6,6.4,12,5,9.2,4.1z"/>
<path class="st0" d="M28.9,4.1c-3.7,1.9-5.9,3.5-7,4.8c0.6,2.4,3.8,2.5,4.9,2.5c-0.2-0.1-0.4-0.2-0.5-0.4c0.3-0.2,1.3,0,2-0.4
	c-0.2,0-0.4-0.1-0.5-0.3c0.6-0.1,1.3-0.4,1.8-0.8c-0.3,0-0.5,0-0.7-0.2C29.4,9,30,8.6,30.5,8.2c-0.3,0-0.6,0-0.8-0.1
	c0.5-0.3,1-0.7,1.4-1.1c-0.2,0.1-0.5,0-0.7-0.1c0.5-0.4,0.9-0.8,1.2-1.3c-0.3,0.1-0.6,0.1-0.8,0C31,5.2,31.6,5,32,4.2
	c-0.3,0.1-0.5,0.1-0.8,0c0.1-0.5,0.4-1,0.7-1.4c-0.6,0-1.2,0-1.8-0.1l0.5-0.5c-0.7-0.1-1.4-0.1-2,0.2c-0.2-0.2,0-0.4,0.3-0.7
	c-0.6,0.1-1.1,0.2-1.6,0.4c-0.3-0.2,0.2-0.5,0.4-0.7c-0.6,0.1-1.2,0.3-1.7,0.7c-0.3-0.3,0-0.5,0.2-0.8c-0.5,0.2-1,0.5-1.5,0.9
	c-0.1-0.2-0.3-0.3-0.1-0.7c-0.5,0.2-0.8,0.6-1.2,1C23,2.5,23.1,2.2,23.1,2c-0.5,0.4-0.9,0.9-1.3,1.3c-0.1-0.2-0.2-0.4-0.2-0.6
	c-1.2,1.2-3,4.3-0.5,5.5C23.5,6.4,26.1,5,28.9,4.1L28.9,4.1z"/>
<path class="st1" d="M23.5,28.8c-0.1,2.4-2.1,4.2-4.4,4.1c-2.4,0.1-4.3-1.7-4.4-4.1c0.1-2.3,2.1-4.2,4.4-4.1
	C21.4,24.6,23.4,26.4,23.5,28.8z"/>
<path class="st1" d="M16.5,17.1c1.8,1.2,2.2,3.9,0.7,6.1s-4.1,2.9-5.9,1.7l0,0c-1.8-1.2-2.2-3.9-0.7-6.1S14.7,15.9,16.5,17.1z"/>
<path class="st1" d="M21.5,16.9c-1.8,1.2-2.2,3.9-0.7,6.1s4.1,2.9,5.9,1.7l0,0c1.8-1.2,2.2-3.9,0.7-6.1S23.3,15.7,21.5,16.9z"/>
<path class="st1" d="M7.3,19c2-0.5,0.7,8.2-0.9,7.5c-1.9-1.8-1.9-4.8-0.1-6.7C6.6,19.5,7,19.3,7.3,19z"/>
<path class="st1" d="M30.3,18.9c-2-0.5-0.7,8.2,0.9,7.5c1.9-1.8,1.9-4.8,0.1-6.7C31,19.4,30.7,19.2,30.3,18.9z"/>
<path class="st1" d="M23.5,12.4c3.4-0.6,6.3,1.5,6.2,5.2C29.6,19,22.3,12.6,23.5,12.4z"/>
<path class="st1" d="M14.1,12.3c-3.4-0.6-6.3,1.5-6.2,5.2C8,18.9,15.3,12.5,14.1,12.3z"/>
<path class="st1" d="M19,11.5c-2-0.1-4,1.5-4,2.4c0,1.1,1.6,2.2,4,2.3s4-0.9,4-2S20.8,11.5,19,11.5L19,11.5z"/>
<path class="st1" d="M19.1,34.2c1.8-0.1,4.2,0.6,4.2,1.4s-2.2,2.7-4.3,2.7s-4.4-1.8-4.3-2.5C14.6,34.9,17.3,34.1,19.1,34.2z"/>
<path class="st1" d="M12.5,29c1.3,1.5,1.9,4.2,0.8,5c-1,0.6-3.4,0.3-5.2-2.1C7,29.8,7.2,27.7,8,27C9.2,26.3,11.1,27.3,12.5,29z"/>
<path class="st1" d="M25.4,28.5c-1.4,1.6-2.1,4.5-1.1,5.5c1,0.7,3.5,0.6,5.4-2c1.4-1.8,0.9-4.7,0.1-5.5C28.7,25.6,27,26.8,25.4,28.5
	z"/>
<circle class="st2" cx="29.4" cy="26.5" r="9.2"/>
<path d="M29.4,18c4.7,0,8.5,3.8,8.5,8.5c0,4.7-3.8,8.5-8.5,8.5c-4.7,0-8.5-3.8-8.5-8.5c0,0,0,0,0,0C20.9,21.8,24.7,18,29.4,18
	 M29.4,16.7c-5.4,0-9.8,4.4-9.8,9.8s4.4,9.8,9.8,9.8s9.8-4.4,9.8-9.8l0,0C39.2,21.1,34.9,16.7,29.4,16.7z"/>
<g>
	<path class="st3" d="M29.6,32.1c-0.8,0-1.6-0.1-2.1-0.4c-0.6-0.3-1.1-0.6-1.5-1l1.1-1.5c0.9,0.9,2.5,1.5,3.5,0.6
		c0.3-0.3,0.5-0.7,0.5-1.2c0.1-1.7-2-2-3.1-1.1l-1.1-0.7l0.3-5.2h5.8v2h-3.8L29,25.6c1.5-0.6,3.5,0,4.2,1.5c0.2,0.4,0.3,0.9,0.3,1.4
		c0,0.6-0.1,1.1-0.3,1.5C32.5,31.4,31.1,32.1,29.6,32.1z"/>
</g>
</svg>
