<?xml version="1.0" encoding="utf-8"?>
<!-- Generator: Adobe Illustrator 19.0.0, SVG Export Plug-In . SVG Version: 6.00 Build 0)  -->
<svg version="1.1" id="Capa_1" xmlns="http://www.w3.org/2000/svg" xmlns:xlink="http://www.w3.org/1999/xlink" x="0px" y="0px"
	 viewBox="0 0 453.5 453.5" style="enable-background:new 0 0 453.5 453.5;" xml:space="preserve">
<style type="text/css">
	.st0{fill-rule:evenodd;clip-rule:evenodd;fill:#669AD2;}
	.st1{fill:#0C4581;}
	.st2{fill:#075A9D;}
	.st3{fill:#FFFFFF;}
</style>
<g>
	<g>
		<path class="st0" d="M226.8,171.8c-30.4,0-55,24.6-55,55c0,9.9,2.6,19.2,7.3,27.3l95.3-54.9C264.8,182.8,247.1,171.8,226.8,171.8z
			"/>
		<path class="st0" d="M116.4,226.8c0-61,49.4-110.4,110.4-110.4c40.8,0,76.5,22.2,95.6,55.2l66.5-38.3c-2.7-4.7-6.7-8.6-12-11.7
			C332.6,96,288.3,70.5,244.1,45c-11.9-6.9-23.5-6.6-35.3,0.3c-17.6,10.4-105.8,60.9-132.1,76.1c-10.8,6.3-16.1,15.9-16.1,28.3
			c0,51.3,0,102.6,0,154c0,6.1,1.3,11.6,3.9,16.3l66.6-38.3C121.7,265.5,116.4,246.8,116.4,226.8z"/>
	</g>
	<g>
		<path class="st1" d="M179,254c9.5,16.5,27.3,27.7,47.7,27.7c20.6,0,38.5-11.3,47.9-28l-47.4-27.5L179,254z"/>
		<path class="st1" d="M226.8,337.2c-41,0-76.7-22.3-95.8-55.5L64.4,320c2.7,4.8,6.7,8.9,12.2,12c26.3,15.2,114.5,65.8,132.1,76.1
			c11.8,7,23.4,7.2,35.3,0.3c44.2-25.5,88.6-51,132.8-76.5c5.5-3.2,9.5-7.2,12.2-12l-66.5-38.5C303.6,314.8,267.8,337.2,226.8,337.2
			z"/>
	</g>
	<path class="st2" d="M393,149.8c0-6.3-1.3-11.8-4.1-16.6l-161.6,93.1L389.1,320c2.6-4.7,3.9-10.1,3.9-16.3
		C393,303.7,393,201.1,393,149.8z M337.9,233h-12.6v12.6h-12.6V233H300v-12.6h12.6v-12.6h12.6v12.6h12.6V233z M384.1,233h-12.6v12.6
		h-12.6V233h-12.6v-12.6h12.6v-12.6h12.6v12.6h12.6V233z"/>
	<g>
		<polygon class="st3" points="371.4,207.7 358.8,207.7 358.8,220.3 346.1,220.3 346.1,233 358.8,233 358.8,245.6 371.4,245.6
			371.4,233 384.1,233 384.1,220.3 371.4,220.3 		"/>
		<polygon class="st3" points="325.3,207.7 312.6,207.7 312.6,220.3 300,220.3 300,233 312.6,233 312.6,245.6 325.3,245.6
			325.3,233 337.9,233 337.9,220.3 325.3,220.3 		"/>
		<path class="st3" d="M274.7,253.7c-9.4,16.7-27.3,28-47.9,28c-20.4,0-38.2-11.2-47.7-27.7c-4.6-8-7.3-17.3-7.3-27.3
			c0-30.4,24.6-55,55-55c20.3,0,38,11,47.5,27.4l48.1-27.7c-19.1-33-54.8-55.2-95.6-55.2c-61,0-110.4,49.4-110.4,110.4
			c0,20,5.3,38.8,14.6,54.9c19.1,33.1,54.8,55.5,95.8,55.5c41,0,76.9-22.4,95.9-55.6L274.7,253.7z"/>
	</g>
</g>
<g>
</g>
<g>
</g>
<g>
</g>
<g>
</g>
<g>
</g>
<g>
</g>
</svg>
