<?xml version="1.0" encoding="utf-8"?>
<!-- Generator: Adobe Illustrator 22.0.1, SVG Export Plug-In . SVG Version: 6.00 Build 0)  -->
<svg version="1.1" id="Layer_1" xmlns="http://www.w3.org/2000/svg" xmlns:xlink="http://www.w3.org/1999/xlink" x="0px" y="0px"
	 viewBox="0 0 73.5 79.5" style="enable-background:new 0 0 73.5 79.5;" xml:space="preserve">
<style type="text/css">
	.st0{fill:#4B90C1;}
	.st1{fill:#56C2E4;}
	.st2{fill:#2C4A8D;}
	.st3{fill:#4568A3;}
	.st4{fill:#FFFFFF;stroke:#000000;stroke-width:3;}
</style>
<g id="Page-1">
	<g id="ARTIK-SAMSUNG-LOGO-FULL-COLOR-CMYK-FINAL">
		<g id="Page-1-2">
			<g id="IOT-Media-Page-Logos">
				<g id="ARTIK-SAMSUNG-LOGO-FULL-COLOR-CMYK-FINAL-2">
					<g id="Group-6">
						<g id="Fill-3-Clipped">
							<path id="Fill-3" class="st0" d="M35,13.4v26l22.5,13v-26L35,13.4"/>
						</g>
						<g id="Fill-5-Clipped">
							<path id="Fill-5" class="st1" d="M67.8,58.4l-10.2-5.9v0.7L57,53.5l10.2,5.9L35,77.9V66.1l-0.6,0.3l-0.6-0.3v11.8L1.7,59.3
								l10.2-5.9l-0.6-0.3v-0.7l-10.2,6V21.2l10.2,5.9v-0.6l0.6-0.3l-10.2-6L33.9,1.7v11.8l0.6-0.3l0,0l0.5,0.3V1.6l32.2,18.6
								L57,26.1l0.5,0.3v0.7l10.2-5.9L67.8,58.4L67.8,58.4L67.8,58.4z M68.3,19.6L35,0.3L34.4,0l-0.6,0.3L0,19.9v39.8l33.9,19.5
								l0.6,0.3l0.6-0.3L68.3,60l0.6-0.3V19.9L68.3,19.6L68.3,19.6L68.3,19.6z"/>
						</g>
					</g>
					<path id="Fill-7" class="st2" d="M35,39.4v-26l-0.5-0.3l0,0l-0.6,0.3v26l-22.5,13v0.7l0.6,0.3l22.5-13l22.5,13l0.5-0.3v-0.7
						L35,39.4"/>
					<path id="Fill-1" class="st3" d="M11.4,26.5v26l22.5-13v-26L11.4,26.5"/>
					<path id="Fill-2" class="st1" d="M34.4,40.4l-22.5,13l22.5,13l22.5-13L34.4,40.4"/>
					<circle class="st4" cx="54" cy="59" r="18"/>
					<g>
						<path class="st3" d="M40,58.9l0.7-6.6h7v1.9h-5.2l-0.4,3.1c0.2-0.1,0.5-0.2,0.8-0.4s0.8-0.2,1.2-0.2c0.6,0,1.2,0.1,1.7,0.3
							s0.9,0.5,1.2,0.9c0.3,0.4,0.6,0.8,0.8,1.4c0.2,0.5,0.3,1.2,0.3,1.8c0,0.6-0.1,1.2-0.3,1.7c-0.2,0.5-0.4,1-0.8,1.4
							c-0.4,0.4-0.8,0.7-1.3,0.9s-1.2,0.3-1.9,0.3c-0.5,0-1.1-0.1-1.6-0.2s-0.9-0.4-1.3-0.7c-0.4-0.3-0.7-0.7-1-1.2
							c-0.2-0.5-0.4-1-0.4-1.6h2.1c0.1,0.6,0.3,1.1,0.7,1.5c0.4,0.3,0.9,0.5,1.5,0.5c0.4,0,0.7-0.1,0.9-0.2c0.3-0.1,0.5-0.3,0.7-0.6
							c0.2-0.2,0.3-0.5,0.4-0.8s0.1-0.7,0.1-1.1c0-0.4,0-0.7-0.1-1c-0.1-0.3-0.2-0.6-0.4-0.8c-0.2-0.2-0.4-0.4-0.7-0.5
							c-0.3-0.1-0.6-0.2-1-0.2c-0.3,0-0.5,0-0.7,0.1c-0.2,0-0.4,0.1-0.5,0.2c-0.1,0.1-0.3,0.2-0.4,0.2s-0.2,0.2-0.4,0.3L40,58.9z"/>
						<path class="st3" d="M52.3,57.8h1.3c0.4,0,0.7,0,1-0.1c0.3-0.1,0.5-0.2,0.7-0.4c0.2-0.2,0.3-0.4,0.4-0.6
							c0.1-0.2,0.1-0.5,0.1-0.8c0-0.6-0.2-1.1-0.5-1.5c-0.3-0.3-0.8-0.5-1.5-0.5c-0.3,0-0.6,0-0.8,0.1c-0.2,0.1-0.5,0.2-0.6,0.4
							c-0.2,0.2-0.3,0.4-0.4,0.6c-0.1,0.2-0.2,0.5-0.2,0.8h-2.2c0-0.5,0.1-1,0.3-1.4c0.2-0.4,0.5-0.8,0.9-1.1s0.8-0.6,1.3-0.8
							c0.5-0.2,1.1-0.3,1.7-0.3c0.6,0,1.2,0.1,1.7,0.2s1,0.4,1.3,0.7c0.4,0.3,0.7,0.7,0.9,1.2s0.3,1,0.3,1.6c0,0.3,0,0.5-0.1,0.8
							c-0.1,0.3-0.2,0.5-0.4,0.8c-0.2,0.2-0.4,0.5-0.6,0.7c-0.3,0.2-0.5,0.4-0.9,0.6c0.4,0.1,0.7,0.3,1,0.5c0.3,0.2,0.5,0.5,0.7,0.7
							c0.2,0.3,0.3,0.6,0.4,0.9c0.1,0.3,0.1,0.6,0.1,0.9c0,0.6-0.1,1.2-0.3,1.6c-0.2,0.5-0.5,0.9-0.9,1.2c-0.4,0.3-0.9,0.6-1.4,0.7
							c-0.5,0.2-1.1,0.3-1.7,0.3c-0.6,0-1.1-0.1-1.6-0.2c-0.5-0.2-1-0.4-1.4-0.7c-0.4-0.3-0.7-0.7-0.9-1.2c-0.2-0.5-0.4-1-0.4-1.6
							h2.2c0,0.3,0.1,0.6,0.2,0.8c0.1,0.2,0.2,0.4,0.4,0.6c0.2,0.2,0.4,0.3,0.7,0.4c0.3,0.1,0.6,0.1,0.9,0.1c0.7,0,1.2-0.2,1.6-0.5
							c0.4-0.4,0.6-0.9,0.6-1.6c0-0.4-0.1-0.7-0.2-1c-0.1-0.3-0.3-0.5-0.5-0.7c-0.2-0.2-0.5-0.3-0.8-0.4c-0.3-0.1-0.6-0.1-1-0.1
							h-1.3V57.8z"/>
						<path class="st3" d="M62.6,57.8h1.3c0.4,0,0.7,0,1-0.1c0.3-0.1,0.5-0.2,0.7-0.4c0.2-0.2,0.3-0.4,0.4-0.6
							c0.1-0.2,0.1-0.5,0.1-0.8c0-0.6-0.2-1.1-0.5-1.5c-0.3-0.3-0.8-0.5-1.5-0.5c-0.3,0-0.6,0-0.8,0.1c-0.2,0.1-0.5,0.2-0.6,0.4
							c-0.2,0.2-0.3,0.4-0.4,0.6c-0.1,0.2-0.2,0.5-0.2,0.8h-2.2c0-0.5,0.1-1,0.3-1.4c0.2-0.4,0.5-0.8,0.9-1.1s0.8-0.6,1.3-0.8
							c0.5-0.2,1.1-0.3,1.7-0.3c0.6,0,1.2,0.1,1.7,0.2s1,0.4,1.3,0.7c0.4,0.3,0.7,0.7,0.9,1.2s0.3,1,0.3,1.6c0,0.3,0,0.5-0.1,0.8
							c-0.1,0.3-0.2,0.5-0.4,0.8c-0.2,0.2-0.4,0.5-0.6,0.7c-0.3,0.2-0.5,0.4-0.9,0.6c0.4,0.1,0.7,0.3,1,0.5c0.3,0.2,0.5,0.5,0.7,0.7
							c0.2,0.3,0.3,0.6,0.4,0.9c0.1,0.3,0.1,0.6,0.1,0.9c0,0.6-0.1,1.2-0.3,1.6c-0.2,0.5-0.5,0.9-0.9,1.2c-0.4,0.3-0.9,0.6-1.4,0.7
							c-0.5,0.2-1.1,0.3-1.7,0.3c-0.6,0-1.1-0.1-1.6-0.2c-0.5-0.2-1-0.4-1.4-0.7c-0.4-0.3-0.7-0.7-0.9-1.2c-0.2-0.5-0.4-1-0.4-1.6
							H62c0,0.3,0.1,0.6,0.2,0.8c0.1,0.2,0.2,0.4,0.4,0.6c0.2,0.2,0.4,0.3,0.7,0.4c0.3,0.1,0.6,0.1,0.9,0.1c0.7,0,1.2-0.2,1.6-0.5
							c0.4-0.4,0.6-0.9,0.6-1.6c0-0.4-0.1-0.7-0.2-1c-0.1-0.3-0.3-0.5-0.5-0.7c-0.2-0.2-0.5-0.3-0.8-0.4c-0.3-0.1-0.6-0.1-1-0.1
							h-1.3V57.8z"/>
					</g>
				</g>
			</g>
		</g>
	</g>
</g>
</svg>
