<svg xmlns="http://www.w3.org/2000/svg" viewBox="0 0 51.88 51.88"><defs><style>.cls-1{fill:#3aace2;}.cls-2{fill:#fff;}</style></defs><title>Asset 2</title><g id="Layer_2" data-name="Layer 2"><g id="Layer_1-2" data-name="Layer 1"><rect class="cls-1" width="51.88" height="51.88"/><polygon class="cls-2" points="42.53 35.52 25.94 45.1 9.35 35.52 9.35 16.36 25.94 6.78 42.53 16.36 42.53 35.52"/><path class="cls-1" d="M12,28.54a4.27,4.27,0,0,0,3.12,1.26c1.38,0,2.17-.79,2.17-1.75s-.77-1.79-2.1-1.79a3.37,3.37,0,0,0-2.45,1L11,26.75V20.08h8v2.14H13.46v2.93a4,4,0,0,1,2.63-1,3.64,3.64,0,0,1,3.75,3.77c0,2.47-1.86,4-4.68,4a5.83,5.83,0,0,1-4.5-1.75Z"/><path class="cls-1" d="M21.27,29.8c4.78-3.52,6.18-4.73,6.18-6.17,0-1-.93-1.52-1.91-1.52a4.17,4.17,0,0,0-3.12,1.35L21,21.81a6,6,0,0,1,4.5-1.91c2.49,0,4.47,1.4,4.47,3.73,0,2-1.65,3.73-4.78,5.94h4.87v2.19H21.27Z"/><path class="cls-1" d="M36.38,19.91c3.33,0,4.83,3,4.83,6s-1.51,6-4.83,6-4.83-3-4.83-6S33,19.91,36.38,19.91Zm0,2.21c-1.68,0-2.31,1.66-2.31,3.82s.63,3.84,2.31,3.84,2.29-1.68,2.29-3.84S38,22.11,36.38,22.11Z"/></g></g></svg>