<?xml version="1.0" encoding="UTF-8" standalone="no"?>
<svg
   xmlns:dc="http://purl.org/dc/elements/1.1/"
   xmlns:cc="http://creativecommons.org/ns#"
   xmlns:rdf="http://www.w3.org/1999/02/22-rdf-syntax-ns#"
   xmlns:svg="http://www.w3.org/2000/svg"
   xmlns="http://www.w3.org/2000/svg"
   id="svg8"
   version="1.1"
   viewBox="0 0 71.779967 42.530193"
   height="42.530193mm"
   width="71.779968mm">
  <defs
     id="defs2" />
  <metadata
     id="metadata5">
    <rdf:RDF>
      <cc:Work
         rdf:about="">
        <dc:format>image/svg+xml</dc:format>
        <dc:type
           rdf:resource="http://purl.org/dc/dcmitype/StillImage" />
        <dc:title></dc:title>
      </cc:Work>
    </rdf:RDF>
  </metadata>
  <g
     transform="translate(-11.77081,-25.075409)"
     id="layer1">
    <path
       id="path75"
       d="m 26.87757,43.951908 c -0.378388,-0.02421 -0.870411,-0.05752 -1.920893,-0.08647 -1.050483,-0.02895 -2.048305,-0.219324 -2.217382,-0.423047 C 22.570219,43.238667 22.203777,41.978051 21.924979,40.641023 21.646181,39.303995 21.227422,38.001587 20.994404,37.746784 20.74303,37.471911 19.790116,37.220704 18.65124,37.12908 L 16.731747,36.974654 V 35.275966 33.577279 L 18.98037,33.40238 c 2.608877,-0.202921 3.279832,-0.672598 3.279832,-2.295918 0,-1.643322 -0.643831,-2.074238 -3.359508,-2.248519 l -2.35172,-0.150924 0.09139,-1.701011 0.09139,-1.701011 3.088522,0.05916 c 3.535085,0.06771 4.829352,0.54355 5.945406,2.185833 0.543678,0.800028 0.694917,1.457458 0.694917,3.020779 0,1.899219 -0.05769,2.055895 -1.164724,3.162923 l -1.164722,1.164724 0.721649,0.935779 c 0.424384,0.550307 0.639896,1.505072 0.778658,2.119102 0.136587,0.650828 0.156249,0.953909 0.277542,1.349113 0.355818,1.112427 0.535517,2.019111 0.854539,3.231584 0.138537,0.556378 0.267678,0.898523 0.310096,1.046452 0.09969,0.320009 0.130361,0.368011 -0.04114,0.368539 z M 11.893063,43.616802 c -0.05663,-0.168864 -0.06414,-4.326229 -0.0167,-9.238588 l 0.08625,-8.931564 1.871176,-0.104189 c 1.085605,-0.06045 1.986281,0.03492 2.145348,0.227174 0.302033,0.365038 0.394533,17.102966 0.09878,17.873694 -0.139877,0.364513 -0.654787,0.480499 -2.133143,0.480499 -1.071816,0 -1.995086,-0.138162 -2.051709,-0.307026 z m 18.428181,0.08487 c -0.93129,-0.221107 -1.260571,-0.654875 -0.66935,-0.881747 0.700664,-0.268871 0.65127,-0.749212 -0.07704,-0.749212 -0.325582,0 -0.674582,-0.173729 -0.775555,-0.386065 -0.100975,-0.212337 -0.125568,-0.07335 -0.05465,0.308852 0.07091,0.382204 0.0074,0.694917 -0.141309,0.694917 -0.148634,0 -0.190245,0.208476 -0.09247,0.463279 0.222274,0.579237 -0.310807,0.607356 -0.780692,0.04118 -0.508733,-0.612988 -0.453383,-14.92735 0.05845,-15.115731 0.284664,-0.104772 0.281089,-0.231358 -0.01541,-0.545649 -0.212335,-0.225076 -0.386065,-0.785768 -0.386065,-1.245982 0,-0.827908 0.02279,-0.836966 2.155417,-0.856933 l 2.155417,-0.02018 -0.07066,9.154844 c -0.04474,5.796372 -0.183968,9.178732 -0.379516,9.219964 -0.169869,0.03582 -0.58682,-8.65e-4 -0.926557,-0.08154 z M 29.352681,30.884066 c -0.11519,-0.18638 -0.293864,-0.142332 -0.455149,0.112209 -0.422128,0.666205 -0.31726,0.993046 0.184903,0.576288 0.252933,-0.209915 0.374544,-0.519739 0.270246,-0.688497 z m -1.038976,-0.377081 c 0,-0.07491 -0.138983,-0.222095 -0.308852,-0.327079 -0.169869,-0.104985 -0.308852,-0.0437 -0.308852,0.136198 0,0.179893 0.138983,0.327079 0.308852,0.327079 0.169869,0 0.308852,-0.06129 0.308852,-0.136198 z m 0.617704,-4.059044 c 0,-0.268958 -0.165042,-0.434001 -0.366761,-0.366761 -0.572681,0.190893 -0.667665,0.855777 -0.122255,0.855777 0.268959,0 0.489016,-0.220057 0.489016,-0.489016 z m 3.547484,17.16005 c -0.324126,-0.524448 -0.05959,-2.272734 0.433156,-2.862652 0.405071,-0.484956 0.952119,-0.546358 4.431908,-0.497448 l 3.969797,0.05579 -0.09134,1.732857 -0.09134,1.732857 -3.488,0.06752 c -3.062877,0.05929 -3.508333,0.0028 -3.654812,-0.463277 -0.449337,-1.429802 -0.738652,-1.738724 -0.56942,-0.60801 0.134193,0.896612 0.06966,1.158196 -0.285702,1.158196 -0.252475,0 -0.546885,-0.142127 -0.654244,-0.315837 z M 46.086478,36.588588 C 44.59285,32.554207 43.046813,28.384702 42.650841,27.323022 l -0.719957,-1.930326 h 2.092279 2.092282 l 2.063383,5.523414 2.063383,5.523414 v 3.742152 c 0,3.713512 -0.0055,3.742152 -0.720024,3.742152 -0.657691,0 -0.955128,-0.635028 -3.435709,-7.33524 z m 4.805561,3.749683 -0.05993,-3.617701 2.09866,-5.658766 2.09866,-5.658766 2.117796,-0.0052 c 1.89387,-0.0046 2.095105,0.05198 1.903194,0.53532 -0.118032,0.29727 -1.026715,2.764228 -2.019294,5.482126 -4.632768,12.685534 -4.488043,12.346562 -5.314435,12.447373 l -0.7647,0.09329 -0.05994,-3.617702 z m 13.113653,2.628103 c -0.367748,-1.838749 -0.228423,-6.763437 0.191495,-6.768582 0.307147,-0.0038 0.307558,-0.05459 0.0018,-0.248608 -0.504263,-0.320231 -0.459709,-10.28696 0.04754,-10.628972 0.644875,-0.434832 3.207826,-0.25503 3.724118,0.261264 0.73575,0.735745 0.662919,9.576785 -0.0858,10.412255 -0.413483,0.461407 -0.422571,0.545235 -0.05025,0.463279 0.380425,-0.08376 0.01598,0.534874 0.454491,3.606165 v 3.706226 l -2.044611,0.08492 -2.044603,0.08492 z m 15.239121,0.531732 c -0.0053,-0.190525 -0.06181,-1.247738 -0.126429,-2.349361 -0.06461,-1.101624 0.01375,-2.248237 0.174213,-2.548031 0.16045,-0.299793 0.175456,-0.545079 0.03336,-0.545079 -0.142092,0 -0.251221,-2.814415 -0.24251,-6.254257 l 0.01585,-6.254256 2.225741,-0.09047 2.225741,-0.09047 -0.110592,8.583908 c -0.06085,4.721148 -0.124266,8.875833 -0.140988,9.232631 -0.02758,0.588699 -0.216158,0.64933 -2.03794,0.655262 -1.276258,0.0041 -2.010783,-0.119646 -2.016456,-0.339872 z M 68.95866,37.232029 c -0.296833,-0.296827 -0.244628,-2.652146 0.06978,-3.148373 0.186093,-0.293713 0.719186,-0.379948 1.77117,-0.286513 2.648084,0.235196 4.16574,-1.612528 3.068029,-3.735271 -0.500472,-0.967806 -1.080009,-1.177373 -3.725046,-1.347 l -1.235408,-0.07923 -0.09301,-1.611624 c -0.08755,-1.516223 -0.04483,-1.623717 0.720858,-1.815893 1.301087,-0.326551 4.813057,0.154562 6.278893,0.860161 1.071692,0.515876 1.497642,0.971281 2.081732,2.225676 1.700169,3.651333 0.06295,7.855137 -3.429132,8.804618 -1.355603,0.368586 -5.180061,0.461247 -5.507861,0.133448 z M 32.328784,34.209757 c 0,-1.311499 0.110042,-1.670194 0.547488,-1.784588 0.982516,-0.256934 6.699917,-0.233364 7.115459,0.02933 0.268096,0.169485 0.372457,0.767701 0.308852,1.770363 l -0.09607,1.514381 -3.937866,0.05596 -3.937865,0.05596 z m 0,-7.118373 v -1.698688 h 4.32393 4.323931 v 1.698688 1.698687 h -4.323931 -4.32393 z"
       style="display:inline;fill:#ff660f;fill-opacity:0.94117647;stroke-width:0.3088522" />
    <path
       id="path20"
       d="m 68.262613,67.536329 c 0.03308,-0.08623 2.126514,-2.662796 2.224548,-2.737946 0.0364,-0.02791 0.401301,-0.136002 0.810866,-0.2402 1.988648,-0.505933 2.818272,-0.897938 4.120482,-1.946962 1.290349,-1.039471 2.270598,-2.385674 2.556255,-3.510583 0.238474,-0.939097 0.03997,-1.46006 -0.635832,-1.668797 -0.397505,-0.122777 -1.283242,-0.132907 -1.926332,-0.02204 -0.42691,0.0736 -0.722062,0.147965 -2.625242,0.661416 -1.24628,0.336228 -1.177551,0.322449 -1.158249,0.232245 0.009,-0.04222 1.312147,-1.653636 2.895802,-3.580922 1.583653,-1.927287 2.886596,-3.535609 2.895422,-3.574049 0.0088,-0.03844 -0.01221,-0.0699 -0.04675,-0.0699 -0.03455,0 -1.387887,0.223398 -3.007432,0.496443 -1.619544,0.273045 -2.966827,0.496444 -2.993961,0.496444 -0.02714,0 -0.04933,-0.02388 -0.04933,-0.05307 0,-0.100067 2.151592,-2.679735 2.255412,-2.704145 0.137385,-0.0323 9.46113,-1.561845 9.520645,-1.561845 0.02565,0 0.03931,0.0334 0.03055,0.07422 -0.0088,0.04082 -1.244749,1.585302 -2.746489,3.432177 -1.501743,1.846876 -2.73044,3.394029 -2.73044,3.438119 0,0.06319 0.07358,0.08675 0.347509,0.111291 1.477783,0.132376 2.563623,1.001023 2.831504,2.265135 0.215212,1.015554 -0.05297,2.333515 -0.749092,3.681708 -0.946388,1.832834 -2.629952,3.469509 -4.878543,4.74267 -1.555507,0.880737 -3.871391,1.634567 -6.189499,2.014713 -0.724524,0.118813 -0.788993,0.120859 -0.751771,0.02387 z"
       style="display:inline;fill:#0a0a09;stroke-width:0.04964435" />
    <text
       xml:space="preserve"
       style="font-style:normal;font-weight:normal;font-size:10.33951759px;line-height:1.25;font-family:sans-serif;letter-spacing:0px;word-spacing:0px;display:inline;opacity:1;fill:#000000;fill-opacity:1;stroke:none;stroke-width:0.25848794"
       x="10.356364"
       y="66.180542"
       id="text3722"><tspan
         x="10.356364"
         y="66.180542"
         id="tspan3720"
         style="stroke-width:0.25848794"><tspan
           x="10.356364"
           y="66.180542"
           style="font-style:normal;font-variant:normal;font-weight:500;font-stretch:normal;font-size:24.81484222px;font-family:Ubuntu;-inkscape-font-specification:'Ubuntu Medium';stroke-width:0.25848794"
           id="tspan3718">Core</tspan></tspan></text>
  </g>
</svg>
